<svg xmlns="http://www.w3.org/2000/svg" xmlns:xlink="http://www.w3.org/1999/xlink" width="800" height="800"><defs><path id="a" d="M402.002 65H736v557.94H402.002z"/><path id="c" d="M65 295.764h106.706v247.479H65z"/></defs><g fill="none" fill-rule="evenodd"><path fill="#FF75B8" d="M251.796 197.647l-50.559-67.093c-54.285 40.138-96.035 96.261-118.296 161.416l80.408 24.584c16.993-48.006 48.15-89.316 88.447-118.907"/><path fill="#00B4FF" d="M400.5 651.997c-100.162 0-186.649-58.553-227.099-143.297l-74.88 38.153C152.885 658.814 267.679 735.997 400.5 735.997c98.515 0 187.111-42.46 248.489-110.078l-61.441-57.295c-46.038 51.185-112.784 83.373-187.048 83.373"/><path fill="#FF3A54" d="M398 149.017V65.022c-72.221.528-139.018 23.859-193.532 63.173l50.572 67.11c40.011-28.415 88.693-45.421 141.301-46.274l1.659-.014z"/><mask id="b" fill="#fff"><use xlink:href="#a"/></mask><path fill="#9639FF" d="M652 400.497c0 63.196-23.309 120.949-61.799 165.129l61.46 57.314C704.138 563.732 736 485.836 736 400.497 736 215.706 586.603 65.81 402.002 65v84.001C540.211 149.81 652 262.098 652 400.497" mask="url(#b)"/><mask id="d" fill="#fff"><use xlink:href="#c"/></mask><path fill="#007F7A" d="M149 400.497c0-28.027 4.584-54.983 13.044-80.159l-80.373-24.574C70.852 328.718 65 363.924 65 400.497c0 51.047 11.401 99.432 31.795 142.746l74.911-38.17C157.126 473.227 149 437.811 149 400.497" mask="url(#d)"/></g></svg>