<?xml version="1.0" encoding="UTF-8"?>
<svg width="320px" height="180px" viewBox="0 0 320 180" version="1.1" xmlns="http://www.w3.org/2000/svg" xmlns:xlink="http://www.w3.org/1999/xlink">
    <title>alluvial</title>
    <g id="alluvial" stroke="none" stroke-width="1" fill="none" fill-rule="evenodd">
        <path d="M233.5,121.778992 L230.994798,121.778992 C223.959439,121.778992 217.931606,116.680749 211.903773,109.413776 C208.908423,105.804991 200.350634,93.4373058 188.047419,93.4373058 C187.015137,93.4373058 185.98038,93.4249554 184.945623,93.4051948 L184.945623,93.3113318 C186.05712,93.2471098 187.512712,93.1902979 189.156441,93.1902979 C192.783043,93.1902979 199.558475,94.6105933 206.725036,98.6170614 C207.450356,99.0221543 208.153397,99.4247772 208.84406,99.8224599 C215.045178,103.376903 220.058057,106.447212 233.413358,106.447212 L233.413358,105.646906 C220.273425,105.646906 215.344713,102.625999 209.245091,99.1258976 C208.551952,98.7282149 207.846436,98.323122 207.116164,97.915559 C199.815927,93.8349885 192.879587,92.3899924 189.156441,92.3899924 C187.520138,92.3899924 186.064547,92.4443341 184.945623,92.5060861 L184.945623,92.4443341 C186.898789,92.189916 190.250611,91.8737459 195.013465,91.8737459 C208.386094,91.8737459 212.938531,94.8131398 223.598016,94.8131398 L233.413358,94.8131398 C233.413358,94.8131398 233.037082,62.6724726 233.413358,62.6724726 L223.994096,62.6724726 C212.01022,62.6724726 198.880189,60.0640693 187.294868,60.0640693 C186.250209,60.0640693 185.460526,60.0640693 184.863931,60.0640693 L184.85898,59.9504456 L233.413358,59.9504456 L233.413358,50.2726763 L233.413358,45.6363382 L233.413358,41 L85.5,41 L85.5,50.2726763 L184.819372,50.2726763 C160.834292,50.2825567 159.54951,53.2787624 141.124394,53.2787624 L85.5,53.2787624 L85.5,57.5396486 L85.5,60.7334607 L141.124394,60.7334607 C159.547034,60.7334607 161.213043,57.7372549 184.819372,57.7273746 L184.819372,58.8537306 L184.78224,57.7965368 C160.673385,57.7965368 153.553859,63.0528648 135.096561,63.0528648 L85.5,63.0528648 L85.5,68.3141329 L85.5,75.5811052 L135.349062,75.5811052 C153.613271,75.5811052 161.069464,69.6949071 184.225253,69.5714031 L184.225253,69.5788133 C182.574098,69.5936338 181.009584,69.662796 179.511909,69.7739496 L177.729552,69.7739496 C177.630532,69.7813598 167.770632,70.5767252 157.551785,74.5560224 C146.822985,78.7329259 139.275198,79.2961039 133.301827,79.2961039 L85.5891179,79.2961039 L85.5891179,79.8963331 L133.301827,79.8963331 C139.329659,79.8963331 146.949236,79.3282149 157.769628,75.1142602 C160.180761,74.1781003 162.567139,73.4222562 164.809939,72.8072065 C152.870622,77.0532722 146.513548,83.9744334 133.715234,83.9744334 L85.5,83.9744334 L85.5,88.2328495 L85.5,122.151974 L135.349062,122.151974 C157.843893,122.151974 162.478022,110.512962 180.690245,108.91482 L181.554193,108.91482 C188.148914,108.91482 193.832653,110.47097 199.679775,116.930227 L209.896146,128.208607 C215.168953,133.719353 223.706938,138 231.742398,138 L233.5,138 C233.5,138 233.128676,122.337229 233.5,121.778992" id="Fill-1-Copy" fill="#6929C4"></path>
        <path d="M172.14849,120.60218 C168.18906,121.005902 156.188262,124.213383 149.61208,125.79607 C146.132877,126.633235 140.66416,127.136029 140.5,126.967605 C148.617322,126.633235 165.846724,119.23993 171.278689,117.83805 C177.117379,116.332144 181.591339,116.582303 186.565128,116.582303 C199.15641,116.582303 209.010883,108.000125 213.408889,105.191413 C216.557322,103.182712 219.250028,101.382065 226.5,100 C218.130313,102.387654 215.065185,104.857042 212.247521,107.034166 C209.432308,109.21129 201.90792,115.824397 193.854302,118.090686 C186.675385,120.109293 178.538462,119.953254 172.14849,120.60218 M233.334698,107.042546 C233.334698,107.042546 225.540809,107.950526 221.321895,109.21972 C217.983771,110.221715 214.722131,111.609663 209.972769,115.578058 C203.965134,120.595455 198.191883,124.071512 190.617575,126.117561 C197.959966,123.440626 202.51442,121.392103 208.472711,115.578058 C214.813418,109.385482 221.820269,104.533847 227.660135,104.533847 C227.825437,104.533847 232.999158,104.031612 232.999158,104.031612 L232.999158,96.0008083 C232.999158,96.0008083 222.321111,95.8325722 214.312576,100.350209 C206.304041,104.867845 204.468443,107.2949 200.461708,109.553718 C197.005159,111.503279 192.954015,112.732887 183.610724,112.732887 C172.93021,112.732887 167.675071,114.573589 162.294105,116.832408 C157.914823,118.21046 151.909655,120.931928 146.901237,122.102159 C145.529473,122.423787 140.279269,123.252598 133.388376,123.440626 C115.180431,123.935439 85.5,123.440626 85.5,123.440626 L85.5,139 L139.561313,139 C139.561313,139 153.565147,138.717957 161.751321,137.829769 C167.926726,137.161772 182.108198,136.8253 187.782761,136.491301 C193.454857,136.157303 200.629478,134.148365 208.805783,127.792501 C216.982088,121.431688 223.655867,117.584522 229.996574,117.584522 C233.5,117.584522 233.5,117.416286 233.5,117.416286 C233.5,117.416286 232.833856,107.042546 233.334698,107.042546" id="Fill-1-Copy-4" fill="#D4BBFF"></path>
    </g>
</svg>