<?xml version="1.0" encoding="UTF-8"?>
<svg width="320px" height="180px" viewBox="0 0 320 180" version="1.1" xmlns="http://www.w3.org/2000/svg" xmlns:xlink="http://www.w3.org/1999/xlink">
    <title>area-stacked</title>
    <defs>
        <polygon id="path-1" points="74 27 248 27 248 139 74 139"></polygon>
    </defs>
    <g id="area-stacked" stroke="none" stroke-width="1" fill="none" fill-rule="evenodd">
        <mask id="mask-2" fill="white">
            <use xlink:href="#path-1"></use>
        </mask>
        <g id="Mask"></g>
        <polygon id="Line-Copy-10" stroke="#009D9A" stroke-width="1.5" fill-opacity="0.3" fill="#009D9A" stroke-linecap="square" mask="url(#mask-2)" points="72 100.538462 101.735007 81.9230769 124.942817 55.6923077 151.776848 43 176.435146 59.9230769 206.170153 59.9230769 259 88 256 158.230769 72 153"></polygon>
        <line x1="225.5" y1="115.9" x2="258" y2="119" id="Line-5" stroke="#FFFFFF" stroke-linecap="square" mask="url(#mask-2)"></line>
        <path d="M100.596492,124.993728 L125.514904,103.065525 L155.000789,109.962224 L177.082279,92.2770483 L205.648727,101.27202 L230.484866,119.518979 L231.076943,118.713097 L206.174002,100.417059 L206.028134,100.343084 L176.873648,91.1629517 L154.755138,108.877776 L125.241023,101.974475 L100.159435,124.046272 L78.3820886,127.176486 L78.3755434,128.187704 L100.596492,124.993728 Z M154.565401,109.029738 L154.991839,108.93314 L154.755138,108.877776 L154.565401,109.029738 Z" id="Line-Copy-2" fill="#FFFFFF" fill-rule="nonzero" mask="url(#mask-2)"></path>
        <polygon id="Line-Copy" stroke="#6929C4" stroke-width="1.5" fill-opacity="0.3" fill="#6929C4" stroke-linecap="square" mask="url(#mask-2)" points="72.7252441 129.818182 101.009763 125.727273 125.668061 103.909091 155.403068 110.727273 177.160391 93 205.444909 101.863636 226.348582 117.347039 253 119.590909 253 153 72.7252441 153"></polygon>
    </g>
</svg>