<?xml version="1.0" encoding="UTF-8"?>
<svg width="320px" height="180px" viewBox="0 0 320 180" version="1.1" xmlns="http://www.w3.org/2000/svg" xmlns:xlink="http://www.w3.org/1999/xlink">
    <title>donut</title>
    <g id="donut" stroke="none" stroke-width="1" fill="none" fill-rule="evenodd">
        <g id="Group" transform="translate(98.550424, 19.000000)">
            <path d="M54.6996131,135.341876 C63.3456294,126.247255 68.6526629,113.941003 68.6526629,100.393659 C68.6526629,95.8951079 68.0674838,91.5334057 66.9691852,87.3807029 C61.2316068,65.6867327 41.4905827,49.6965265 18.0195629,49.6965265" id="Oval-Copy-45" stroke="#009D9A" stroke-width="12.9276" transform="translate(43.336113, 92.519201) rotate(150.000000) translate(-43.336113, -92.519201) "></path>
            <rect id="Rectangle" fill="#FFFFFF" x="55.4495759" y="0" width="17" height="16"></rect>
            <path d="M51.9600739,23.3338751 C40.7078693,25.445262 30.768003,31.2787726 23.4677056,39.5071763 C21.2131567,42.0483519 19.2103589,44.8179424 17.4984055,47.7768544 C13.1890348,55.225099 10.7225759,63.8729633 10.7225759,73.0969" id="Oval-Copy-46" stroke="#EE5396" stroke-width="12.9276"></path>
            <path d="M54.5325165,22.9196059 C52.1443197,23.2412925 49.8089174,23.7294742 47.538375,24.3720857" id="Oval-Copy-9" stroke="#012749" stroke-width="12.9276"></path>
            <path d="M133.929642,69.7600478 C125.180481,54.6043677 108.805329,44.4046663 90.0479096,44.4046663 C69.9400056,44.4046663 52.5697521,56.1259418 44.3969757,73.1086665 C41.2039423,79.7436707 39.4148096,87.1817813 39.4148096,95.0377663" id="Oval-Copy-10" stroke="#6929C4" stroke-width="12.9276" transform="translate(86.672226, 69.721216) rotate(90.000000) translate(-86.672226, -69.721216) "></path>
            <line x1="61.9495759" y1="15" x2="61.9495759" y2="72.0969" id="Path-4-Copy-8" stroke="#FFFFFF" stroke-width="1.5"></line>
            <line x1="90.4427759" y1="123.460675" x2="61.8943259" y2="73.0969" id="Path-4-Copy-9" stroke="#FFFFFF" stroke-width="1.5"></line>
            <path d="M61.3556759,22.4643824 C60.3216781,22.4643824 59.2948062,22.4948923 58.2759115,22.555061 C56.9543094,22.6331054 55.6461283,22.7610492 54.3532259,22.937035" id="Oval-Copy-47" stroke="#012749" stroke-width="12.9276"></path>
            <line x1="2.10417587" y1="73.0969" x2="61.6250009" y2="73.0969" id="Path-4-Copy-25" stroke="#FFFFFF" stroke-width="1.5"></line>
            <line x1="45.4655009" y1="16.807975" x2="61.6250009" y2="73.0969" id="Path-4-Copy-26" stroke="#FFFFFF" stroke-width="1.5"></line>
            <rect id="Rectangle" fill="#012749" x="52.4495759" y="18" width="6" height="10"></rect>
        </g>
    </g>
</svg>