<?xml version="1.0" encoding="UTF-8"?>
<svg width="320px" height="180px" viewBox="0 0 320 180" version="1.1" xmlns="http://www.w3.org/2000/svg" xmlns:xlink="http://www.w3.org/1999/xlink">
    <title>pie</title>
    <g id="pie" stroke="none" stroke-width="1" fill="none" fill-rule="evenodd">
        <g transform="translate(103.017391, 33.017391)" fill-rule="nonzero">
            <circle id="Oval" fill="#FFFFFF" cx="56.9913043" cy="56.9913043" r="56.9913043"></circle>
            <path d="M56.8017977,57.7437913 L85.0193484,106.618922 C76.7420837,111.304152 67.1765593,113.978574 56.986389,113.978574 C25.8257152,113.978574 0.505998254,88.9704638 0.0027200487,57.9297252 L0.00113700174,57.7437913 L56.8017977,57.7437913 Z" id="Path" fill="#08BDBA"></path>
            <path d="M57.9950846,0.00471978783 C89.0053858,0.54314337 113.977693,25.8489094 113.977693,56.9872696 C113.977693,77.7318613 102.894192,95.8877626 86.3258867,105.856277 L57.9950846,56.7845217 L57.9950846,0.00471978783 Z" id="Path" fill="#6929C4"></path>
            <path d="M41.7368192,2.05908493 L56.2520585,56.231 L0,56.231 C0.33633383,30.3696927 17.8979797,8.66301527 41.7368192,2.05908493 Z" id="Path" fill="#EE5396"></path>
            <path d="M56.4820411,0 L56.4820411,51.2427478 L43.2006766,1.67457408 C47.322779,0.650568045 51.6221485,0.0752929774 56.0439334,0.00360043826 L56.4820411,0 Z" id="Path" fill="#012749"></path>
        </g>
    </g>
</svg>