<?xml version="1.0" encoding="UTF-8"?>
<svg width="320px" height="180px" viewBox="0 0 320 180" version="1.1" xmlns="http://www.w3.org/2000/svg" xmlns:xlink="http://www.w3.org/1999/xlink">
    <title>stream</title>
    <g id="stream" stroke="none" stroke-width="1" fill="none" fill-rule="evenodd">
        <path d="M86,114.988581 C86.6109391,114.988581 86.6109391,109.216715 86,97.6729833 C92.4148607,94.4663911 97.4551084,92.8630951 101.120743,92.8630951 C106.619195,92.8630951 112.117647,100.558916 119.448916,100.558916 C126.780186,100.558916 141.900929,71.2185981 151.065015,71.2185981 C160.229102,71.2185981 170.309598,113.064626 183.597523,113.064626 C196.885449,113.064626 206.50774,59.1938776 234,59.1938776 C234,59.1938776 234,140 234,140 C228.501548,135.190111 223.4613,132.785167 218.879257,132.785167 C212.006192,132.785167 208.798762,140 201.925697,140 C195.052632,140 182.22291,124.127368 174.433437,124.127368 C166.643963,124.127368 162.978328,130.861212 154.73065,129.899234 C146.482972,128.937257 140.98452,109.216715 135.486068,109.216715 C129.987616,109.216715 125.863777,129.899234 119.448916,129.899234 C113.034056,129.899234 105.702786,117.874514 102.037152,115.46957 C98.371517,113.064626 91.0402477,111.621659 86,114.988581 Z" id="Path-12-Copy-2" fill="#F4F4F4"></path>
        <path d="M86,66.9452512 C90.2765738,69.1512951 94.5531476,69.1512951 98.8297214,66.9452512 C105.244582,63.6361852 111.117647,51.3453689 117.532508,51.3453689 C123.947368,51.3453689 127.696594,70.2543171 135.944272,70.2543171 C144.19195,70.2543171 145.108359,54.6544349 151.981424,54.6544349 C158.854489,54.6544349 162.086687,67.0051739 174,67.0051739 C185.913313,67.0051739 195.510836,40 201.467492,40 C207.424149,40 212.464396,48.036303 218.879257,48.036303 C223.155831,48.036303 228.196078,45.9878336 234,41.8908948 L234,59.8543956 C222.697626,61.1149922 213.380805,68.9937206 206.049536,83.4905808 C193.219814,105.235871 190.012384,113.272174 183.597523,113.744898 C171.226006,113.744898 159.770898,73.0906593 151.52322,73.0906593 C143.275542,73.0906593 135.944272,99.0904631 118.990712,99.0904631 C108.452012,99.0904631 105.702786,94.3632261 98.8297214,94.3632261 C94.247678,94.3632261 89.9711042,95.7813972 86,98.6177394 L86,66.9452512 Z" id="Path-11-Copy-2" fill="#C6C6C6"></path>
    </g>
</svg>