<?xml version="1.0" encoding="UTF-8"?>
<svg width="320px" height="180px" viewBox="0 0 320 180" version="1.1" xmlns="http://www.w3.org/2000/svg" xmlns:xlink="http://www.w3.org/1999/xlink">
    <title>word-cloud</title>
    <g id="word-cloud" stroke="none" stroke-width="1" fill="none" fill-rule="evenodd">
        <path d="M92.392,60 L92.392,59.44 L91.552,59.44 L91.552,56.432 L92.456,56.432 L92.456,55.872 L91.552,55.872 L91.552,54.728 L90.976,54.728 L90.976,55.496 C90.976,55.6346667 90.9506667,55.732 90.9,55.788 C90.8493333,55.844 90.7546667,55.872 90.616,55.872 L90.616,55.872 L90.232,55.872 L90.232,56.432 L90.912,56.432 L90.912,59.32 C90.912,59.5226667 90.9693333,59.6866667 91.084,59.812 C91.1986667,59.9373333 91.368,60 91.592,60 L91.592,60 L92.392,60 Z M95.04,60.096 C95.4293333,60.096 95.7653333,60.0093333 96.048,59.836 C96.3306667,59.6626667 96.5386667,59.4346667 96.672,59.152 L96.672,59.152 L96.216,58.824 C96.1093333,59.0533333 95.9586667,59.2293333 95.764,59.352 C95.5693333,59.4746667 95.3413333,59.536 95.08,59.536 C94.888,59.536 94.716,59.504 94.564,59.44 C94.412,59.376 94.284,59.288 94.18,59.176 C94.076,59.064 93.996,58.932 93.94,58.78 C93.884,58.628 93.856,58.464 93.856,58.288 L93.856,58.288 L93.856,58.096 L96.824,58.096 L96.824,57.792 C96.824,57.4986667 96.7826667,57.2293333 96.7,56.984 C96.6173333,56.7386667 96.4986667,56.5266667 96.344,56.348 C96.1893333,56.1693333 96.0026667,56.0293333 95.784,55.928 C95.5653333,55.8266667 95.3173333,55.776 95.04,55.776 C94.7573333,55.776 94.5026667,55.8266667 94.276,55.928 C94.0493333,56.0293333 93.8546667,56.1746667 93.692,56.364 C93.5293333,56.5533333 93.404,56.7813333 93.316,57.048 C93.228,57.3146667 93.184,57.6106667 93.184,57.936 C93.184,58.2666667 93.228,58.564 93.316,58.828 C93.404,59.092 93.5293333,59.3186667 93.692,59.508 C93.8546667,59.6973333 94.0493333,59.8426667 94.276,59.944 C94.5026667,60.0453333 94.7573333,60.096 95.04,60.096 Z M96.136,57.616 L93.856,57.616 L93.856,57.56 C93.856,57.3786667 93.8853333,57.212 93.944,57.06 C94.0026667,56.908 94.084,56.776 94.188,56.664 C94.292,56.552 94.416,56.4653333 94.56,56.404 C94.704,56.3426667 94.864,56.312 95.04,56.312 C95.3706667,56.312 95.636,56.4226667 95.836,56.644 C96.036,56.8653333 96.136,57.16 96.136,57.528 L96.136,57.528 L96.136,57.616 Z M98.52,60 L98.52,57.136 C98.52,57.0026667 98.548,56.8866667 98.604,56.788 C98.66,56.6893333 98.7333333,56.608 98.824,56.544 C98.9146667,56.48 99.0186667,56.432 99.136,56.4 C99.2533333,56.368 99.376,56.352 99.504,56.352 C99.808,56.352 100.032,56.4453333 100.176,56.632 C100.32,56.8186667 100.392,57.096 100.392,57.464 L100.392,57.464 L100.392,60 L101.032,60 L101.032,57.136 C101.032,57.0026667 101.058667,56.8866667 101.112,56.788 C101.165333,56.6893333 101.237333,56.608 101.328,56.544 C101.418667,56.48 101.521333,56.432 101.636,56.4 C101.750667,56.368 101.872,56.352 102,56.352 C102.314667,56.352 102.544,56.4453333 102.688,56.632 C102.832,56.8186667 102.904,57.096 102.904,57.464 L102.904,57.464 L102.904,60 L103.544,60 L103.544,57.352 C103.544,56.8506667 103.425333,56.4626667 103.188,56.188 C102.950667,55.9133333 102.621333,55.776 102.2,55.776 C101.848,55.776 101.569333,55.86 101.364,56.028 C101.158667,56.196 101.018667,56.392 100.944,56.616 L100.944,56.616 L100.928,56.616 C100.816,56.3173333 100.645333,56.1026667 100.416,55.972 C100.186667,55.8413333 99.936,55.776 99.664,55.776 C99.504,55.776 99.3653333,55.796 99.248,55.836 C99.1306667,55.876 99.028,55.9306667 98.94,56 C98.852,56.0693333 98.7773333,56.1506667 98.716,56.244 C98.6546667,56.3373333 98.6,56.4373333 98.552,56.544 L98.552,56.544 L98.52,56.544 L98.52,55.872 L97.88,55.872 L97.88,60 L98.52,60 Z M105.504,61.6 L105.504,59.328 L105.536,59.328 C105.781333,59.84 106.184,60.096 106.744,60.096 C107,60.096 107.232,60.0453333 107.44,59.944 C107.648,59.8426667 107.825333,59.6986667 107.972,59.512 C108.118667,59.3253333 108.230667,59.0986667 108.308,58.832 C108.385333,58.5653333 108.424,58.2666667 108.424,57.936 C108.424,57.6053333 108.385333,57.3066667 108.308,57.04 C108.230667,56.7733333 108.118667,56.5466667 107.972,56.36 C107.825333,56.1733333 107.648,56.0293333 107.44,55.928 C107.232,55.8266667 107,55.776 106.744,55.776 C106.456,55.776 106.209333,55.8386667 106.004,55.964 C105.798667,56.0893333 105.642667,56.2826667 105.536,56.544 L105.536,56.544 L105.504,56.544 L105.504,55.872 L104.864,55.872 L104.864,61.6 L105.504,61.6 Z M106.568,59.52 C106.424,59.52 106.286667,59.5013333 106.156,59.464 C106.025333,59.4266667 105.912,59.372 105.816,59.3 C105.72,59.228 105.644,59.14 105.588,59.036 C105.532,58.932 105.504,58.8133333 105.504,58.68 L105.504,58.68 L105.504,57.144 C105.504,57.032 105.532,56.9266667 105.588,56.828 C105.644,56.7293333 105.72,56.6453333 105.816,56.576 C105.912,56.5066667 106.025333,56.452 106.156,56.412 C106.286667,56.372 106.424,56.352 106.568,56.352 C106.930667,56.352 107.216,56.4653333 107.424,56.692 C107.632,56.9186667 107.736,57.216 107.736,57.584 L107.736,57.584 L107.736,58.288 C107.736,58.656 107.632,58.9533333 107.424,59.18 C107.216,59.4066667 106.930667,59.52 106.568,59.52 Z M110.856,60.096 C111.026667,60.096 111.176,60.0746667 111.304,60.032 C111.432,59.9893333 111.541333,59.932 111.632,59.86 C111.722667,59.788 111.798667,59.7053333 111.86,59.612 C111.921333,59.5186667 111.973333,59.424 112.016,59.328 L112.016,59.328 L112.048,59.328 L112.048,60 L112.688,60 L112.688,55.872 L112.048,55.872 L112.048,58.728 C112.048,58.8666667 112.02,58.9853333 111.964,59.084 C111.908,59.1826667 111.833333,59.264 111.74,59.328 C111.646667,59.392 111.54,59.44 111.42,59.472 C111.3,59.504 111.176,59.52 111.048,59.52 C110.418667,59.52 110.104,59.1493333 110.104,58.408 L110.104,58.408 L110.104,55.872 L109.464,55.872 L109.464,58.52 C109.464,59.0213333 109.589333,59.4093333 109.84,59.684 C110.090667,59.9586667 110.429333,60.096 110.856,60.096 Z M115.288,60.096 C115.762667,60.096 116.136,59.9813333 116.408,59.752 C116.68,59.5226667 116.816,59.208 116.816,58.808 C116.816,58.4933333 116.72,58.2386667 116.528,58.044 C116.336,57.8493333 116.010667,57.7173333 115.552,57.648 L115.552,57.648 L115.232,57.6 C114.976,57.5573333 114.78,57.4906667 114.644,57.4 C114.508,57.3093333 114.44,57.1626667 114.44,56.96 C114.44,56.7626667 114.508,56.6066667 114.644,56.492 C114.78,56.3773333 114.981333,56.32 115.248,56.32 C115.514667,56.32 115.736,56.372 115.912,56.476 C116.088,56.58 116.221333,56.696 116.312,56.824 L116.312,56.824 L116.736,56.44 C116.565333,56.232 116.366667,56.0693333 116.14,55.952 C115.913333,55.8346667 115.632,55.776 115.296,55.776 C115.088,55.776 114.893333,55.8013333 114.712,55.852 C114.530667,55.9026667 114.374667,55.9786667 114.244,56.08 C114.113333,56.1813333 114.010667,56.308 113.936,56.46 C113.861333,56.612 113.824,56.7893333 113.824,56.992 C113.824,57.184 113.857333,57.3493333 113.924,57.488 C113.990667,57.6266667 114.084,57.7426667 114.204,57.836 C114.324,57.9293333 114.464,58.004 114.624,58.06 C114.784,58.116 114.96,58.1573333 115.152,58.184 L115.152,58.184 L115.48,58.232 C115.752,58.2746667 115.94,58.3533333 116.044,58.468 C116.148,58.5826667 116.2,58.72 116.2,58.88 C116.2,59.0933333 116.124,59.2586667 115.972,59.376 C115.82,59.4933333 115.608,59.552 115.336,59.552 C115.074667,59.552 114.845333,59.4973333 114.648,59.388 C114.450667,59.2786667 114.272,59.1226667 114.112,58.92 L114.112,58.92 L113.656,59.288 C113.842667,59.5333333 114.065333,59.7293333 114.324,59.876 C114.582667,60.0226667 114.904,60.096 115.288,60.096 Z" id="tempus-copy" fill="#001D6C" fill-rule="nonzero"></path>
        <path d="M190.544,52 L190.544,48.432 L191.432,48.432 L191.432,47.872 L190.544,47.872 L190.544,46.64 L191.432,46.64 L191.432,46.08 L190.808,46.08 C190.504,46.08 190.277333,46.168 190.128,46.344 C189.978667,46.52 189.904,46.752 189.904,47.04 L189.904,47.04 L189.904,47.872 L189.232,47.872 L189.232,48.432 L189.904,48.432 L189.904,52 L190.544,52 Z M193.824,52.096 C194.213333,52.096 194.549333,52.0093333 194.832,51.836 C195.114667,51.6626667 195.322667,51.4346667 195.456,51.152 L195.456,51.152 L195,50.824 C194.893333,51.0533333 194.742667,51.2293333 194.548,51.352 C194.353333,51.4746667 194.125333,51.536 193.864,51.536 C193.672,51.536 193.5,51.504 193.348,51.44 C193.196,51.376 193.068,51.288 192.964,51.176 C192.86,51.064 192.78,50.932 192.724,50.78 C192.668,50.628 192.64,50.464 192.64,50.288 L192.64,50.288 L192.64,50.096 L195.608,50.096 L195.608,49.792 C195.608,49.4986667 195.566667,49.2293333 195.484,48.984 C195.401333,48.7386667 195.282667,48.5266667 195.128,48.348 C194.973333,48.1693333 194.786667,48.0293333 194.568,47.928 C194.349333,47.8266667 194.101333,47.776 193.824,47.776 C193.541333,47.776 193.286667,47.8266667 193.06,47.928 C192.833333,48.0293333 192.638667,48.1746667 192.476,48.364 C192.313333,48.5533333 192.188,48.7813333 192.1,49.048 C192.012,49.3146667 191.968,49.6106667 191.968,49.936 C191.968,50.2666667 192.012,50.564 192.1,50.828 C192.188,51.092 192.313333,51.3186667 192.476,51.508 C192.638667,51.6973333 192.833333,51.8426667 193.06,51.944 C193.286667,52.0453333 193.541333,52.096 193.824,52.096 Z M194.92,49.616 L192.64,49.616 L192.64,49.56 C192.64,49.3786667 192.669333,49.212 192.728,49.06 C192.786667,48.908 192.868,48.776 192.972,48.664 C193.076,48.552 193.2,48.4653333 193.344,48.404 C193.488,48.3426667 193.648,48.312 193.824,48.312 C194.154667,48.312 194.42,48.4226667 194.62,48.644 C194.82,48.8653333 194.92,49.16 194.92,49.528 L194.92,49.528 L194.92,49.616 Z M197.912,52 L197.912,51.44 L197.304,51.44 L197.304,46.08 L196.664,46.08 L196.664,51.336 C196.664,51.528 196.721333,51.6866667 196.836,51.812 C196.950667,51.9373333 197.12,52 197.344,52 L197.344,52 L197.912,52 Z M199.16,46.904 C199.298667,46.904 199.398667,46.8706667 199.46,46.804 C199.521333,46.7373333 199.552,46.6506667 199.552,46.544 L199.552,46.544 L199.552,46.44 C199.552,46.3333333 199.521333,46.2466667 199.46,46.18 C199.398667,46.1133333 199.298667,46.08 199.16,46.08 C199.021333,46.08 198.921333,46.1133333 198.86,46.18 C198.798667,46.2466667 198.768,46.3333333 198.768,46.44 L198.768,46.44 L198.768,46.544 C198.768,46.6506667 198.798667,46.7373333 198.86,46.804 C198.921333,46.8706667 199.021333,46.904 199.16,46.904 Z M199.48,52 L199.48,47.872 L198.84,47.872 L198.84,52 L199.48,52 Z M202.08,52.096 C202.554667,52.096 202.928,51.9813333 203.2,51.752 C203.472,51.5226667 203.608,51.208 203.608,50.808 C203.608,50.4933333 203.512,50.2386667 203.32,50.044 C203.128,49.8493333 202.802667,49.7173333 202.344,49.648 L202.344,49.648 L202.024,49.6 C201.768,49.5573333 201.572,49.4906667 201.436,49.4 C201.3,49.3093333 201.232,49.1626667 201.232,48.96 C201.232,48.7626667 201.3,48.6066667 201.436,48.492 C201.572,48.3773333 201.773333,48.32 202.04,48.32 C202.306667,48.32 202.528,48.372 202.704,48.476 C202.88,48.58 203.013333,48.696 203.104,48.824 L203.104,48.824 L203.528,48.44 C203.357333,48.232 203.158667,48.0693333 202.932,47.952 C202.705333,47.8346667 202.424,47.776 202.088,47.776 C201.88,47.776 201.685333,47.8013333 201.504,47.852 C201.322667,47.9026667 201.166667,47.9786667 201.036,48.08 C200.905333,48.1813333 200.802667,48.308 200.728,48.46 C200.653333,48.612 200.616,48.7893333 200.616,48.992 C200.616,49.184 200.649333,49.3493333 200.716,49.488 C200.782667,49.6266667 200.876,49.7426667 200.996,49.836 C201.116,49.9293333 201.256,50.004 201.416,50.06 C201.576,50.116 201.752,50.1573333 201.944,50.184 L201.944,50.184 L202.272,50.232 C202.544,50.2746667 202.732,50.3533333 202.836,50.468 C202.94,50.5826667 202.992,50.72 202.992,50.88 C202.992,51.0933333 202.916,51.2586667 202.764,51.376 C202.612,51.4933333 202.4,51.552 202.128,51.552 C201.866667,51.552 201.637333,51.4973333 201.44,51.388 C201.242667,51.2786667 201.064,51.1226667 200.904,50.92 L200.904,50.92 L200.448,51.288 C200.634667,51.5333333 200.857333,51.7293333 201.116,51.876 C201.374667,52.0226667 201.696,52.096 202.08,52.096 Z" id="felis-copy" fill="#6929C4" fill-rule="nonzero"></path>
        <path d="M88.088,106 L88.088,98.864 L89.864,98.864 L89.864,97.744 L88.088,97.744 L88.088,95.28 L89.864,95.28 L89.864,94.16 L88.616,94.16 C88.008,94.16 87.5546667,94.336 87.256,94.688 C86.9573333,95.04 86.808,95.504 86.808,96.08 L86.808,96.08 L86.808,97.744 L85.464,97.744 L85.464,98.864 L86.808,98.864 L86.808,106 L88.088,106 Z M93.656,106.192 C94.232,106.192 94.728,106.064 95.144,105.808 C95.56,105.552 95.8586667,105.168 96.04,104.656 L96.04,104.656 L96.12,104.656 C96.1733333,105.04 96.304,105.36 96.512,105.616 C96.72,105.872 97.064,106 97.544,106 L97.544,106 L98.264,106 L98.264,104.88 L97.32,104.88 L97.32,100.336 C97.32,99.4613333 97.0426667,98.7786667 96.488,98.288 C95.9333333,97.7973333 95.1546667,97.552 94.152,97.552 C93.4053333,97.552 92.7866667,97.7093333 92.296,98.024 C91.8053333,98.3386667 91.448,98.72 91.224,99.168 L91.224,99.168 L91.992,99.888 C92.216,99.5146667 92.496,99.216 92.832,98.992 C93.168,98.768 93.5866667,98.656 94.088,98.656 C94.7493333,98.656 95.24,98.8106667 95.56,99.12 C95.88,99.4293333 96.04,99.8773333 96.04,100.464 L96.04,100.464 L96.04,101.28 L94.408,101.28 C93.2026667,101.28 92.3146667,101.488 91.744,101.904 C91.1733333,102.32 90.888,102.917333 90.888,103.696 C90.888,104.464 91.1306667,105.072 91.616,105.52 C92.1013333,105.968 92.7813333,106.192 93.656,106.192 Z M93.864,105.104 C93.3626667,105.104 92.9653333,104.992 92.672,104.768 C92.3786667,104.544 92.232,104.229333 92.232,103.824 L92.232,103.824 L92.232,103.488 C92.232,103.082667 92.4,102.773333 92.736,102.56 C93.072,102.346667 93.608,102.24 94.344,102.24 L94.344,102.24 L96.04,102.24 L96.04,103.6 C96.04,103.813333 95.9866667,104.010667 95.88,104.192 C95.7733333,104.373333 95.624,104.533333 95.432,104.672 C95.24,104.810667 95.0106667,104.917333 94.744,104.992 C94.4773333,105.066667 94.184,105.104 93.864,105.104 Z M101.368,106 L101.368,100.272 C101.368,100.005333 101.424,99.7733333 101.536,99.576 C101.648,99.3786667 101.794667,99.216 101.976,99.088 C102.157333,98.96 102.365333,98.864 102.6,98.8 C102.834667,98.736 103.08,98.704 103.336,98.704 C103.944,98.704 104.392,98.8906667 104.68,99.264 C104.968,99.6373333 105.112,100.192 105.112,100.928 L105.112,100.928 L105.112,106 L106.392,106 L106.392,100.272 C106.392,100.005333 106.445333,99.7733333 106.552,99.576 C106.658667,99.3786667 106.802667,99.216 106.984,99.088 C107.165333,98.96 107.370667,98.864 107.6,98.8 C107.829333,98.736 108.072,98.704 108.328,98.704 C108.957333,98.704 109.416,98.8906667 109.704,99.264 C109.992,99.6373333 110.136,100.192 110.136,100.928 L110.136,100.928 L110.136,106 L111.416,106 L111.416,100.704 C111.416,99.7013333 111.178667,98.9253333 110.704,98.376 C110.229333,97.8266667 109.570667,97.552 108.728,97.552 C108.024,97.552 107.466667,97.72 107.056,98.056 C106.645333,98.392 106.365333,98.784 106.216,99.232 L106.216,99.232 L106.184,99.232 C105.96,98.6346667 105.618667,98.2053333 105.16,97.944 C104.701333,97.6826667 104.2,97.552 103.656,97.552 C103.336,97.552 103.058667,97.592 102.824,97.672 C102.589333,97.752 102.384,97.8613333 102.208,98 C102.032,98.1386667 101.882667,98.3013333 101.76,98.488 C101.637333,98.6746667 101.528,98.8746667 101.432,99.088 L101.432,99.088 L101.368,99.088 L101.368,97.744 L100.088,97.744 L100.088,106 L101.368,106 Z M117.16,106.192 C117.938667,106.192 118.610667,106.018667 119.176,105.672 C119.741333,105.325333 120.157333,104.869333 120.424,104.304 L120.424,104.304 L119.512,103.648 C119.298667,104.106667 118.997333,104.458667 118.608,104.704 C118.218667,104.949333 117.762667,105.072 117.24,105.072 C116.856,105.072 116.512,105.008 116.208,104.88 C115.904,104.752 115.648,104.576 115.44,104.352 C115.232,104.128 115.072,103.864 114.96,103.56 C114.848,103.256 114.792,102.928 114.792,102.576 L114.792,102.576 L114.792,102.192 L120.728,102.192 L120.728,101.584 C120.728,100.997333 120.645333,100.458667 120.48,99.968 C120.314667,99.4773333 120.077333,99.0533333 119.768,98.696 C119.458667,98.3386667 119.085333,98.0586667 118.648,97.856 C118.210667,97.6533333 117.714667,97.552 117.16,97.552 C116.594667,97.552 116.085333,97.6533333 115.632,97.856 C115.178667,98.0586667 114.789333,98.3493333 114.464,98.728 C114.138667,99.1066667 113.888,99.5626667 113.712,100.096 C113.536,100.629333 113.448,101.221333 113.448,101.872 C113.448,102.533333 113.536,103.128 113.712,103.656 C113.888,104.184 114.138667,104.637333 114.464,105.016 C114.789333,105.394667 115.178667,105.685333 115.632,105.888 C116.085333,106.090667 116.594667,106.192 117.16,106.192 Z M119.352,101.232 L114.792,101.232 L114.792,101.12 C114.792,100.757333 114.850667,100.424 114.968,100.12 C115.085333,99.816 115.248,99.552 115.456,99.328 C115.664,99.104 115.912,98.9306667 116.2,98.808 C116.488,98.6853333 116.808,98.624 117.16,98.624 C117.821333,98.624 118.352,98.8453333 118.752,99.288 C119.152,99.7306667 119.352,100.32 119.352,101.056 L119.352,101.056 L119.352,101.232 Z M125.32,106.192 C126.269333,106.192 127.016,105.962667 127.56,105.504 C128.104,105.045333 128.376,104.416 128.376,103.616 C128.376,102.986667 128.184,102.477333 127.8,102.088 C127.416,101.698667 126.765333,101.434667 125.848,101.296 L125.848,101.296 L125.208,101.2 C124.696,101.114667 124.304,100.981333 124.032,100.8 C123.76,100.618667 123.624,100.325333 123.624,99.92 C123.624,99.5253333 123.76,99.2133333 124.032,98.984 C124.304,98.7546667 124.706667,98.64 125.24,98.64 C125.773333,98.64 126.216,98.744 126.568,98.952 C126.92,99.16 127.186667,99.392 127.368,99.648 L127.368,99.648 L128.216,98.88 C127.874667,98.464 127.477333,98.1386667 127.024,97.904 C126.570667,97.6693333 126.008,97.552 125.336,97.552 C124.92,97.552 124.530667,97.6026667 124.168,97.704 C123.805333,97.8053333 123.493333,97.9573333 123.232,98.16 C122.970667,98.3626667 122.765333,98.616 122.616,98.92 C122.466667,99.224 122.392,99.5786667 122.392,99.984 C122.392,100.368 122.458667,100.698667 122.592,100.976 C122.725333,101.253333 122.912,101.485333 123.152,101.672 C123.392,101.858667 123.672,102.008 123.992,102.12 C124.312,102.232 124.664,102.314667 125.048,102.368 L125.048,102.368 L125.704,102.464 C126.248,102.549333 126.624,102.706667 126.832,102.936 C127.04,103.165333 127.144,103.44 127.144,103.76 C127.144,104.186667 126.992,104.517333 126.688,104.752 C126.384,104.986667 125.96,105.104 125.416,105.104 C124.893333,105.104 124.434667,104.994667 124.04,104.776 C123.645333,104.557333 123.288,104.245333 122.968,103.84 L122.968,103.84 L122.056,104.576 C122.429333,105.066667 122.874667,105.458667 123.392,105.752 C123.909333,106.045333 124.552,106.192 125.32,106.192 Z" id="fames-copy" fill="#6929C4" fill-rule="nonzero"></path>
        <path d="M91.94,88.4 L91.94,79.808 L90.98,79.808 L90.98,80.816 L90.932,80.816 C90.772,80.424 90.538,80.134 90.23,79.946 C89.922,79.758 89.552,79.664 89.12,79.664 C88.736,79.664 88.388,79.74 88.076,79.892 C87.764,80.044 87.498,80.26 87.278,80.54 C87.058,80.82 86.89,81.16 86.774,81.56 C86.658,81.96 86.6,82.408 86.6,82.904 C86.6,83.4 86.658,83.848 86.774,84.248 C86.89,84.648 87.058,84.988 87.278,85.268 C87.498,85.548 87.764,85.764 88.076,85.916 C88.388,86.068 88.736,86.144 89.12,86.144 C89.952,86.144 90.556,85.76 90.932,84.992 L90.932,84.992 L90.98,84.992 L90.98,88.4 L91.94,88.4 Z M89.384,85.28 C88.84,85.28 88.412,85.11 88.1,84.77 C87.788,84.43 87.632,83.984 87.632,83.432 L87.632,83.432 L87.632,82.376 C87.632,81.824 87.788,81.378 88.1,81.038 C88.412,80.698 88.84,80.528 89.384,80.528 C89.6,80.528 89.806,80.558 90.002,80.618 C90.198,80.678 90.368,80.76 90.512,80.864 C90.656,80.968 90.77,81.094 90.854,81.242 C90.938,81.39 90.98,81.548 90.98,81.716 L90.98,81.716 L90.98,84.02 C90.98,84.22 90.938,84.398 90.854,84.554 C90.77,84.71 90.656,84.842 90.512,84.95 C90.368,85.058 90.198,85.14 90.002,85.196 C89.806,85.252 89.6,85.28 89.384,85.28 Z M96.008,86.144 C96.264,86.144 96.488,86.112 96.68,86.048 C96.872,85.984 97.036,85.898 97.172,85.79 C97.308,85.682 97.422,85.558 97.514,85.418 C97.606,85.278 97.684,85.136 97.748,84.992 L97.748,84.992 L97.796,84.992 L97.796,86 L98.756,86 L98.756,79.808 L97.796,79.808 L97.796,84.092 C97.796,84.3 97.754,84.478 97.67,84.626 C97.586,84.774 97.474,84.896 97.334,84.992 C97.194,85.088 97.034,85.16 96.854,85.208 C96.674,85.256 96.488,85.28 96.296,85.28 C95.352,85.28 94.88,84.724 94.88,83.612 L94.88,83.612 L94.88,79.808 L93.92,79.808 L93.92,83.78 C93.92,84.532 94.108,85.114 94.484,85.526 C94.86,85.938 95.368,86.144 96.008,86.144 Z M101.276,78.356 C101.484,78.356 101.634,78.306 101.726,78.206 C101.818,78.106 101.864,77.976 101.864,77.816 L101.864,77.816 L101.864,77.66 C101.864,77.5 101.818,77.37 101.726,77.27 C101.634,77.17 101.484,77.12 101.276,77.12 C101.068,77.12 100.918,77.17 100.826,77.27 C100.734,77.37 100.688,77.5 100.688,77.66 L100.688,77.66 L100.688,77.816 C100.688,77.976 100.734,78.106 100.826,78.206 C100.918,78.306 101.068,78.356 101.276,78.356 Z M101.756,86 L101.756,79.808 L100.796,79.808 L100.796,86 L101.756,86 Z M105.656,86.144 C106.368,86.144 106.928,85.972 107.336,85.628 C107.744,85.284 107.948,84.812 107.948,84.212 C107.948,83.74 107.804,83.358 107.516,83.066 C107.228,82.774 106.74,82.576 106.052,82.472 L106.052,82.472 L105.572,82.4 C105.188,82.336 104.894,82.236 104.69,82.1 C104.486,81.964 104.384,81.744 104.384,81.44 C104.384,81.144 104.486,80.91 104.69,80.738 C104.894,80.566 105.196,80.48 105.596,80.48 C105.996,80.48 106.328,80.558 106.592,80.714 C106.856,80.87 107.056,81.044 107.192,81.236 L107.192,81.236 L107.828,80.66 C107.572,80.348 107.274,80.104 106.934,79.928 C106.594,79.752 106.172,79.664 105.668,79.664 C105.356,79.664 105.064,79.702 104.792,79.778 C104.52,79.854 104.286,79.968 104.09,80.12 C103.894,80.272 103.74,80.462 103.628,80.69 C103.516,80.918 103.46,81.184 103.46,81.488 C103.46,81.776 103.51,82.024 103.61,82.232 C103.71,82.44 103.85,82.614 104.03,82.754 C104.21,82.894 104.42,83.006 104.66,83.09 C104.9,83.174 105.164,83.236 105.452,83.276 L105.452,83.276 L105.944,83.348 C106.352,83.412 106.634,83.53 106.79,83.702 C106.946,83.874 107.024,84.08 107.024,84.32 C107.024,84.64 106.91,84.888 106.682,85.064 C106.454,85.24 106.136,85.328 105.728,85.328 C105.336,85.328 104.992,85.246 104.696,85.082 C104.4,84.918 104.132,84.684 103.892,84.38 L103.892,84.38 L103.208,84.932 C103.488,85.3 103.822,85.594 104.21,85.814 C104.598,86.034 105.08,86.144 105.656,86.144 Z" id="quis-copy" fill="#EE5396" fill-rule="nonzero"></path>
        <path d="M207.064,95.192 C207.405333,95.192 207.704,95.1493333 207.96,95.064 C208.216,94.9786667 208.434667,94.864 208.616,94.72 C208.797333,94.576 208.949333,94.4106667 209.072,94.224 C209.194667,94.0373333 209.298667,93.848 209.384,93.656 L209.384,93.656 L209.448,93.656 L209.448,95 L210.728,95 L210.728,86.744 L209.448,86.744 L209.448,92.456 C209.448,92.7333333 209.392,92.9706667 209.28,93.168 C209.168,93.3653333 209.018667,93.528 208.832,93.656 C208.645333,93.784 208.432,93.88 208.192,93.944 C207.952,94.008 207.704,94.04 207.448,94.04 C206.189333,94.04 205.56,93.2986667 205.56,91.816 L205.56,91.816 L205.56,86.744 L204.28,86.744 L204.28,92.04 C204.28,93.0426667 204.530667,93.8186667 205.032,94.368 C205.533333,94.9173333 206.210667,95.192 207.064,95.192 Z M214.728,95 L214.728,89.4 C214.728,89.0053333 214.922667,88.6773333 215.312,88.416 C215.701333,88.1546667 216.242667,88.024 216.936,88.024 L216.936,88.024 L217.688,88.024 L217.688,86.744 L217.192,86.744 C216.52,86.744 215.992,86.8986667 215.608,87.208 C215.224,87.5173333 214.957333,87.8693333 214.808,88.264 L214.808,88.264 L214.728,88.264 L214.728,86.744 L213.448,86.744 L213.448,95 L214.728,95 Z M220.6,95 L220.6,89.272 C220.6,89.0053333 220.656,88.7733333 220.768,88.576 C220.88,88.3786667 221.032,88.216 221.224,88.088 C221.416,87.96 221.632,87.864 221.872,87.8 C222.112,87.736 222.36,87.704 222.616,87.704 C223.864,87.704 224.488,88.4453333 224.488,89.928 L224.488,89.928 L224.488,95 L225.768,95 L225.768,89.704 C225.768,88.7013333 225.52,87.9253333 225.024,87.376 C224.528,86.8266667 223.853333,86.552 223,86.552 C222.381333,86.552 221.888,86.6906667 221.52,86.968 C221.152,87.2453333 220.866667,87.6186667 220.664,88.088 L220.664,88.088 L220.6,88.088 L220.6,86.744 L219.32,86.744 L219.32,95 L220.6,95 Z M230.52,95.192 C231.096,95.192 231.592,95.064 232.008,94.808 C232.424,94.552 232.722667,94.168 232.904,93.656 L232.904,93.656 L232.984,93.656 C233.037333,94.04 233.168,94.36 233.376,94.616 C233.584,94.872 233.928,95 234.408,95 L234.408,95 L235.128,95 L235.128,93.88 L234.184,93.88 L234.184,89.336 C234.184,88.4613333 233.906667,87.7786667 233.352,87.288 C232.797333,86.7973333 232.018667,86.552 231.016,86.552 C230.269333,86.552 229.650667,86.7093333 229.16,87.024 C228.669333,87.3386667 228.312,87.72 228.088,88.168 L228.088,88.168 L228.856,88.888 C229.08,88.5146667 229.36,88.216 229.696,87.992 C230.032,87.768 230.450667,87.656 230.952,87.656 C231.613333,87.656 232.104,87.8106667 232.424,88.12 C232.744,88.4293333 232.904,88.8773333 232.904,89.464 L232.904,89.464 L232.904,90.28 L231.272,90.28 C230.066667,90.28 229.178667,90.488 228.608,90.904 C228.037333,91.32 227.752,91.9173333 227.752,92.696 C227.752,93.464 227.994667,94.072 228.48,94.52 C228.965333,94.968 229.645333,95.192 230.52,95.192 Z M230.728,94.104 C230.226667,94.104 229.829333,93.992 229.536,93.768 C229.242667,93.544 229.096,93.2293333 229.096,92.824 L229.096,92.824 L229.096,92.488 C229.096,92.0826667 229.264,91.7733333 229.6,91.56 C229.936,91.3466667 230.472,91.24 231.208,91.24 L231.208,91.24 L232.904,91.24 L232.904,92.6 C232.904,92.8133333 232.850667,93.0106667 232.744,93.192 C232.637333,93.3733333 232.488,93.5333333 232.296,93.672 C232.104,93.8106667 231.874667,93.9173333 231.608,93.992 C231.341333,94.0666667 231.048,94.104 230.728,94.104 Z" id="urna-copy" fill="#EE5396" fill-rule="nonzero"></path>
        <path d="M124,52.712 C124.416,52.712 124.716,52.612 124.9,52.412 C125.084,52.212 125.176,51.952 125.176,51.632 L125.176,51.632 L125.176,51.32 C125.176,51 125.084,50.74 124.9,50.54 C124.716,50.34 124.416,50.24 124,50.24 C123.584,50.24 123.284,50.34 123.1,50.54 C122.916,50.74 122.824,51 122.824,51.32 L122.824,51.32 L122.824,51.632 C122.824,51.952 122.916,52.212 123.1,52.412 C123.284,52.612 123.584,52.712 124,52.712 Z M124.96,68 L124.96,55.616 L123.04,55.616 L123.04,68 L124.96,68 Z M130.96,72.8 L130.96,65.984 L131.056,65.984 C131.792,67.52 133,68.288 134.68,68.288 C135.448,68.288 136.144,68.136 136.768,67.832 C137.392,67.528 137.924,67.096 138.364,66.536 C138.804,65.976 139.14,65.296 139.372,64.496 C139.604,63.696 139.72,62.8 139.72,61.808 C139.72,60.816 139.604,59.92 139.372,59.12 C139.14,58.32 138.804,57.64 138.364,57.08 C137.924,56.52 137.392,56.088 136.768,55.784 C136.144,55.48 135.448,55.328 134.68,55.328 C133.816,55.328 133.076,55.516 132.46,55.892 C131.844,56.268 131.376,56.848 131.056,57.632 L131.056,57.632 L130.96,57.632 L130.96,55.616 L129.04,55.616 L129.04,72.8 L130.96,72.8 Z M134.152,66.56 C133.72,66.56 133.308,66.504 132.916,66.392 C132.524,66.28 132.184,66.116 131.896,65.9 C131.608,65.684 131.38,65.42 131.212,65.108 C131.044,64.796 130.96,64.44 130.96,64.04 L130.96,64.04 L130.96,59.432 C130.96,59.096 131.044,58.78 131.212,58.484 C131.38,58.188 131.608,57.936 131.896,57.728 C132.184,57.52 132.524,57.356 132.916,57.236 C133.308,57.116 133.72,57.056 134.152,57.056 C135.24,57.056 136.096,57.396 136.72,58.076 C137.344,58.756 137.656,59.648 137.656,60.752 L137.656,60.752 L137.656,62.864 C137.656,63.968 137.344,64.86 136.72,65.54 C136.096,66.22 135.24,66.56 134.152,66.56 Z M146.68,68.288 C148.104,68.288 149.224,67.944 150.04,67.256 C150.856,66.568 151.264,65.624 151.264,64.424 C151.264,63.48 150.976,62.716 150.4,62.132 C149.824,61.548 148.848,61.152 147.472,60.944 L147.472,60.944 L146.512,60.8 C145.744,60.672 145.156,60.472 144.748,60.2 C144.34,59.928 144.136,59.488 144.136,58.88 C144.136,58.288 144.34,57.82 144.748,57.476 C145.156,57.132 145.76,56.96 146.56,56.96 C147.36,56.96 148.024,57.116 148.552,57.428 C149.08,57.74 149.48,58.088 149.752,58.472 L149.752,58.472 L151.024,57.32 C150.512,56.696 149.916,56.208 149.236,55.856 C148.556,55.504 147.712,55.328 146.704,55.328 C146.08,55.328 145.496,55.404 144.952,55.556 C144.408,55.708 143.94,55.936 143.548,56.24 C143.156,56.544 142.848,56.924 142.624,57.38 C142.4,57.836 142.288,58.368 142.288,58.976 C142.288,59.552 142.388,60.048 142.588,60.464 C142.788,60.88 143.068,61.228 143.428,61.508 C143.788,61.788 144.208,62.012 144.688,62.18 C145.168,62.348 145.696,62.472 146.272,62.552 L146.272,62.552 L147.256,62.696 C148.072,62.824 148.636,63.06 148.948,63.404 C149.26,63.748 149.416,64.16 149.416,64.64 C149.416,65.28 149.188,65.776 148.732,66.128 C148.276,66.48 147.64,66.656 146.824,66.656 C146.04,66.656 145.352,66.492 144.76,66.164 C144.168,65.836 143.632,65.368 143.152,64.76 L143.152,64.76 L141.784,65.864 C142.344,66.6 143.012,67.188 143.788,67.628 C144.564,68.068 145.528,68.288 146.68,68.288 Z M158.704,68.288 C159.216,68.288 159.664,68.224 160.048,68.096 C160.432,67.968 160.76,67.796 161.032,67.58 C161.304,67.364 161.532,67.116 161.716,66.836 C161.9,66.556 162.056,66.272 162.184,65.984 L162.184,65.984 L162.28,65.984 L162.28,68 L164.2,68 L164.2,55.616 L162.28,55.616 L162.28,64.184 C162.28,64.6 162.196,64.956 162.028,65.252 C161.86,65.548 161.636,65.792 161.356,65.984 C161.076,66.176 160.756,66.32 160.396,66.416 C160.036,66.512 159.664,66.56 159.28,66.56 C157.392,66.56 156.448,65.448 156.448,63.224 L156.448,63.224 L156.448,55.616 L154.528,55.616 L154.528,63.56 C154.528,65.064 154.904,66.228 155.656,67.052 C156.408,67.876 157.424,68.288 158.704,68.288 Z M170.2,68 L170.2,59.408 C170.2,59.008 170.284,58.66 170.452,58.364 C170.62,58.068 170.84,57.824 171.112,57.632 C171.384,57.44 171.696,57.296 172.048,57.2 C172.4,57.104 172.768,57.056 173.152,57.056 C174.064,57.056 174.736,57.336 175.168,57.896 C175.6,58.456 175.816,59.288 175.816,60.392 L175.816,60.392 L175.816,68 L177.736,68 L177.736,59.408 C177.736,59.008 177.816,58.66 177.976,58.364 C178.136,58.068 178.352,57.824 178.624,57.632 C178.896,57.44 179.204,57.296 179.548,57.2 C179.892,57.104 180.256,57.056 180.64,57.056 C181.584,57.056 182.272,57.336 182.704,57.896 C183.136,58.456 183.352,59.288 183.352,60.392 L183.352,60.392 L183.352,68 L185.272,68 L185.272,60.056 C185.272,58.552 184.916,57.388 184.204,56.564 C183.492,55.74 182.504,55.328 181.24,55.328 C180.184,55.328 179.348,55.58 178.732,56.084 C178.116,56.588 177.696,57.176 177.472,57.848 L177.472,57.848 L177.424,57.848 C177.088,56.952 176.576,56.308 175.888,55.916 C175.2,55.524 174.448,55.328 173.632,55.328 C173.152,55.328 172.736,55.388 172.384,55.508 C172.032,55.628 171.724,55.792 171.46,56 C171.196,56.208 170.972,56.452 170.788,56.732 C170.604,57.012 170.44,57.312 170.296,57.632 L170.296,57.632 L170.2,57.632 L170.2,55.616 L168.28,55.616 L168.28,68 L170.2,68 Z" id="ipsum-copy" fill="#6929C4" fill-rule="nonzero"></path>
        <path d="M100.272,148 L100.272,145.928 L91.956,145.928 L91.956,128.456 L89.604,128.456 L89.604,148 L100.272,148 Z M108.868,148.336 C109.838667,148.336 110.720667,148.158667 111.514,147.804 C112.307333,147.449333 112.993333,146.940667 113.572,146.278 C114.150667,145.615333 114.598667,144.822 114.916,143.898 C115.233333,142.974 115.392,141.933333 115.392,140.776 C115.392,139.637333 115.233333,138.601333 114.916,137.668 C114.598667,136.734667 114.150667,135.936667 113.572,135.274 C112.993333,134.611333 112.307333,134.102667 111.514,133.748 C110.720667,133.393333 109.838667,133.216 108.868,133.216 C107.897333,133.216 107.010667,133.393333 106.208,133.748 C105.405333,134.102667 104.719333,134.611333 104.15,135.274 C103.580667,135.936667 103.137333,136.734667 102.82,137.668 C102.502667,138.601333 102.344,139.637333 102.344,140.776 C102.344,141.933333 102.502667,142.974 102.82,143.898 C103.137333,144.822 103.580667,145.615333 104.15,146.278 C104.719333,146.940667 105.405333,147.449333 106.208,147.804 C107.010667,148.158667 107.897333,148.336 108.868,148.336 Z M108.868,146.348 C107.654667,146.348 106.665333,145.974667 105.9,145.228 C105.134667,144.481333 104.752,143.342667 104.752,141.812 L104.752,141.812 L104.752,139.74 C104.752,138.209333 105.134667,137.070667 105.9,136.324 C106.665333,135.577333 107.654667,135.204 108.868,135.204 C110.081333,135.204 111.070667,135.577333 111.836,136.324 C112.601333,137.070667 112.984,138.209333 112.984,139.74 L112.984,139.74 L112.984,141.812 C112.984,143.342667 112.601333,144.481333 111.836,145.228 C111.070667,145.974667 110.081333,146.348 108.868,146.348 Z M121.328,148 L121.328,138.2 C121.328,137.509333 121.668667,136.935333 122.35,136.478 C123.031333,136.020667 123.978667,135.792 125.192,135.792 L125.192,135.792 L126.508,135.792 L126.508,133.552 L125.64,133.552 C124.464,133.552 123.54,133.822667 122.868,134.364 C122.196,134.905333 121.729333,135.521333 121.468,136.212 L121.468,136.212 L121.328,136.212 L121.328,133.552 L119.088,133.552 L119.088,148 L121.328,148 Z M134.796,148.336 C136.158667,148.336 137.334667,148.032667 138.324,147.426 C139.313333,146.819333 140.041333,146.021333 140.508,145.032 L140.508,145.032 L138.912,143.884 C138.538667,144.686667 138.011333,145.302667 137.33,145.732 C136.648667,146.161333 135.850667,146.376 134.936,146.376 C134.264,146.376 133.662,146.264 133.13,146.04 C132.598,145.816 132.15,145.508 131.786,145.116 C131.422,144.724 131.142,144.262 130.946,143.73 C130.75,143.198 130.652,142.624 130.652,142.008 L130.652,142.008 L130.652,141.336 L141.04,141.336 L141.04,140.272 C141.04,139.245333 140.895333,138.302667 140.606,137.444 C140.316667,136.585333 139.901333,135.843333 139.36,135.218 C138.818667,134.592667 138.165333,134.102667 137.4,133.748 C136.634667,133.393333 135.766667,133.216 134.796,133.216 C133.806667,133.216 132.915333,133.393333 132.122,133.748 C131.328667,134.102667 130.647333,134.611333 130.078,135.274 C129.508667,135.936667 129.07,136.734667 128.762,137.668 C128.454,138.601333 128.3,139.637333 128.3,140.776 C128.3,141.933333 128.454,142.974 128.762,143.898 C129.07,144.822 129.508667,145.615333 130.078,146.278 C130.647333,146.940667 131.328667,147.449333 132.122,147.804 C132.915333,148.158667 133.806667,148.336 134.796,148.336 Z M138.632,139.656 L130.652,139.656 L130.652,139.46 C130.652,138.825333 130.754667,138.242 130.96,137.71 C131.165333,137.178 131.45,136.716 131.814,136.324 C132.178,135.932 132.612,135.628667 133.116,135.414 C133.62,135.199333 134.18,135.092 134.796,135.092 C135.953333,135.092 136.882,135.479333 137.582,136.254 C138.282,137.028667 138.632,138.06 138.632,139.348 L138.632,139.348 L138.632,139.656 Z M146.976,148 L146.976,137.976 C146.976,137.509333 147.074,137.103333 147.27,136.758 C147.466,136.412667 147.722667,136.128 148.04,135.904 C148.357333,135.68 148.721333,135.512 149.132,135.4 C149.542667,135.288 149.972,135.232 150.42,135.232 C151.484,135.232 152.268,135.558667 152.772,136.212 C153.276,136.865333 153.528,137.836 153.528,139.124 L153.528,139.124 L153.528,148 L155.768,148 L155.768,137.976 C155.768,137.509333 155.861333,137.103333 156.048,136.758 C156.234667,136.412667 156.486667,136.128 156.804,135.904 C157.121333,135.68 157.480667,135.512 157.882,135.4 C158.283333,135.288 158.708,135.232 159.156,135.232 C160.257333,135.232 161.06,135.558667 161.564,136.212 C162.068,136.865333 162.32,137.836 162.32,139.124 L162.32,139.124 L162.32,148 L164.56,148 L164.56,138.732 C164.56,136.977333 164.144667,135.619333 163.314,134.658 C162.483333,133.696667 161.330667,133.216 159.856,133.216 C158.624,133.216 157.648667,133.51 156.93,134.098 C156.211333,134.686 155.721333,135.372 155.46,136.156 L155.46,136.156 L155.404,136.156 C155.012,135.110667 154.414667,134.359333 153.612,133.902 C152.809333,133.444667 151.932,133.216 150.98,133.216 C150.42,133.216 149.934667,133.286 149.524,133.426 C149.113333,133.566 148.754,133.757333 148.446,134 C148.138,134.242667 147.876667,134.527333 147.662,134.854 C147.447333,135.180667 147.256,135.530667 147.088,135.904 L147.088,135.904 L146.976,135.904 L146.976,133.552 L144.736,133.552 L144.736,148 L146.976,148 Z" id="Lorem-Copy" fill="#009D9A" fill-rule="nonzero"></path>
        <path d="M191.8,71 L191.8,61.704 L191.848,61.704 L193.192,64.184 L197.272,71 L198.824,71 L198.824,59.832 L197.512,59.832 L197.512,69.128 L197.464,69.128 L196.12,66.648 L192.04,59.832 L190.488,59.832 L190.488,71 L191.8,71 Z M203.784,71.192 C204.36,71.192 204.856,71.064 205.272,70.808 C205.688,70.552 205.986667,70.168 206.168,69.656 L206.168,69.656 L206.248,69.656 C206.301333,70.04 206.432,70.36 206.64,70.616 C206.848,70.872 207.192,71 207.672,71 L207.672,71 L208.392,71 L208.392,69.88 L207.448,69.88 L207.448,65.336 C207.448,64.4613333 207.170667,63.7786667 206.616,63.288 C206.061333,62.7973333 205.282667,62.552 204.28,62.552 C203.533333,62.552 202.914667,62.7093333 202.424,63.024 C201.933333,63.3386667 201.576,63.72 201.352,64.168 L201.352,64.168 L202.12,64.888 C202.344,64.5146667 202.624,64.216 202.96,63.992 C203.296,63.768 203.714667,63.656 204.216,63.656 C204.877333,63.656 205.368,63.8106667 205.688,64.12 C206.008,64.4293333 206.168,64.8773333 206.168,65.464 L206.168,65.464 L206.168,66.28 L204.536,66.28 C203.330667,66.28 202.442667,66.488 201.872,66.904 C201.301333,67.32 201.016,67.9173333 201.016,68.696 C201.016,69.464 201.258667,70.072 201.744,70.52 C202.229333,70.968 202.909333,71.192 203.784,71.192 Z M203.992,70.104 C203.490667,70.104 203.093333,69.992 202.8,69.768 C202.506667,69.544 202.36,69.2293333 202.36,68.824 L202.36,68.824 L202.36,68.488 C202.36,68.0826667 202.528,67.7733333 202.864,67.56 C203.2,67.3466667 203.736,67.24 204.472,67.24 L204.472,67.24 L206.168,67.24 L206.168,68.6 C206.168,68.8133333 206.114667,69.0106667 206.008,69.192 C205.901333,69.3733333 205.752,69.5333333 205.56,69.672 C205.368,69.8106667 205.138667,69.9173333 204.872,69.992 C204.605333,70.0666667 204.312,70.104 203.992,70.104 Z M211.496,71 L211.496,65.272 C211.496,65.0053333 211.552,64.7733333 211.664,64.576 C211.776,64.3786667 211.922667,64.216 212.104,64.088 C212.285333,63.96 212.493333,63.864 212.728,63.8 C212.962667,63.736 213.208,63.704 213.464,63.704 C214.072,63.704 214.52,63.8906667 214.808,64.264 C215.096,64.6373333 215.24,65.192 215.24,65.928 L215.24,65.928 L215.24,71 L216.52,71 L216.52,65.272 C216.52,65.0053333 216.573333,64.7733333 216.68,64.576 C216.786667,64.3786667 216.930667,64.216 217.112,64.088 C217.293333,63.96 217.498667,63.864 217.728,63.8 C217.957333,63.736 218.2,63.704 218.456,63.704 C219.085333,63.704 219.544,63.8906667 219.832,64.264 C220.12,64.6373333 220.264,65.192 220.264,65.928 L220.264,65.928 L220.264,71 L221.544,71 L221.544,65.704 C221.544,64.7013333 221.306667,63.9253333 220.832,63.376 C220.357333,62.8266667 219.698667,62.552 218.856,62.552 C218.152,62.552 217.594667,62.72 217.184,63.056 C216.773333,63.392 216.493333,63.784 216.344,64.232 L216.344,64.232 L216.312,64.232 C216.088,63.6346667 215.746667,63.2053333 215.288,62.944 C214.829333,62.6826667 214.328,62.552 213.784,62.552 C213.464,62.552 213.186667,62.592 212.952,62.672 C212.717333,62.752 212.512,62.8613333 212.336,63 C212.16,63.1386667 212.010667,63.3013333 211.888,63.488 C211.765333,63.6746667 211.656,63.8746667 211.56,64.088 L211.56,64.088 L211.496,64.088 L211.496,62.744 L210.216,62.744 L210.216,71 L211.496,71 Z" id="Nam-Copy" fill="#009D9A" fill-rule="nonzero"></path>
        <path d="M192.48,145.192 C193.034667,145.192 193.538667,145.090667 193.992,144.888 C194.445333,144.685333 194.837333,144.394667 195.168,144.016 C195.498667,143.637333 195.754667,143.184 195.936,142.656 C196.117333,142.128 196.208,141.533333 196.208,140.872 C196.208,140.221333 196.117333,139.629333 195.936,139.096 C195.754667,138.562667 195.498667,138.106667 195.168,137.728 C194.837333,137.349333 194.445333,137.058667 193.992,136.856 C193.538667,136.653333 193.034667,136.552 192.48,136.552 C191.925333,136.552 191.418667,136.653333 190.96,136.856 C190.501333,137.058667 190.109333,137.349333 189.784,137.728 C189.458667,138.106667 189.205333,138.562667 189.024,139.096 C188.842667,139.629333 188.752,140.221333 188.752,140.872 C188.752,141.533333 188.842667,142.128 189.024,142.656 C189.205333,143.184 189.458667,143.637333 189.784,144.016 C190.109333,144.394667 190.501333,144.685333 190.96,144.888 C191.418667,145.090667 191.925333,145.192 192.48,145.192 Z M192.48,144.056 C191.786667,144.056 191.221333,143.842667 190.784,143.416 C190.346667,142.989333 190.128,142.338667 190.128,141.464 L190.128,141.464 L190.128,140.28 C190.128,139.405333 190.346667,138.754667 190.784,138.328 C191.221333,137.901333 191.786667,137.688 192.48,137.688 C193.173333,137.688 193.738667,137.901333 194.176,138.328 C194.613333,138.754667 194.832,139.405333 194.832,140.28 L194.832,140.28 L194.832,141.464 C194.832,142.338667 194.613333,142.989333 194.176,143.416 C193.738667,143.842667 193.173333,144.056 192.48,144.056 Z M199.6,145 L199.6,139.4 C199.6,139.005333 199.794667,138.677333 200.184,138.416 C200.573333,138.154667 201.114667,138.024 201.808,138.024 L201.808,138.024 L202.56,138.024 L202.56,136.744 L202.064,136.744 C201.392,136.744 200.864,136.898667 200.48,137.208 C200.096,137.517333 199.829333,137.869333 199.68,138.264 L199.68,138.264 L199.6,138.264 L199.6,136.744 L198.32,136.744 L198.32,145 L199.6,145 Z M207.264,145.192 C208.053333,145.192 208.712,145.016 209.24,144.664 C209.768,144.312 210.165333,143.837333 210.432,143.24 L210.432,143.24 L209.504,142.616 C209.045333,143.576 208.298667,144.056 207.264,144.056 C206.506667,144.056 205.933333,143.824 205.544,143.36 C205.154667,142.896 204.96,142.301333 204.96,141.576 L204.96,141.576 L204.96,140.168 C204.96,139.805333 205.008,139.472 205.104,139.168 C205.2,138.864 205.344,138.602667 205.536,138.384 C205.728,138.165333 205.968,137.994667 206.256,137.872 C206.544,137.749333 206.88,137.688 207.264,137.688 C207.776,137.688 208.202667,137.805333 208.544,138.04 C208.885333,138.274667 209.130667,138.605333 209.28,139.032 L209.28,139.032 L210.352,138.488 C210.106667,137.912 209.736,137.445333 209.24,137.088 C208.744,136.730667 208.085333,136.552 207.264,136.552 C206.688,136.552 206.170667,136.653333 205.712,136.856 C205.253333,137.058667 204.866667,137.346667 204.552,137.72 C204.237333,138.093333 203.997333,138.546667 203.832,139.08 C203.666667,139.613333 203.584,140.210667 203.584,140.872 C203.584,141.533333 203.666667,142.130667 203.832,142.664 C203.997333,143.197333 204.237333,143.650667 204.552,144.024 C204.866667,144.397333 205.253333,144.685333 205.712,144.888 C206.170667,145.090667 206.688,145.192 207.264,145.192 Z M212.88,134.808 C213.157333,134.808 213.357333,134.741333 213.48,134.608 C213.602667,134.474667 213.664,134.301333 213.664,134.088 L213.664,134.088 L213.664,133.88 C213.664,133.666667 213.602667,133.493333 213.48,133.36 C213.357333,133.226667 213.157333,133.16 212.88,133.16 C212.602667,133.16 212.402667,133.226667 212.28,133.36 C212.157333,133.493333 212.096,133.666667 212.096,133.88 L212.096,133.88 L212.096,134.088 C212.096,134.301333 212.157333,134.474667 212.28,134.608 C212.402667,134.741333 212.602667,134.808 212.88,134.808 Z M213.52,145 L213.52,136.744 L212.24,136.744 L212.24,145 L213.52,145 Z" id="orci-copy" fill="#009D9A" fill-rule="nonzero"></path>
        <path d="M118.008,91 L122.376,78.616 L120.528,78.616 L118.32,84.76 L116.976,88.984 L116.856,88.984 L115.512,84.76 L113.352,78.616 L111.432,78.616 L115.776,91 L118.008,91 Z M129.528,91.288 C130.36,91.288 131.116,91.136 131.796,90.832 C132.476,90.528 133.064,90.092 133.56,89.524 C134.056,88.956 134.44,88.276 134.712,87.484 C134.984,86.692 135.12,85.8 135.12,84.808 C135.12,83.832 134.984,82.944 134.712,82.144 C134.44,81.344 134.056,80.66 133.56,80.092 C133.064,79.524 132.476,79.088 131.796,78.784 C131.116,78.48 130.36,78.328 129.528,78.328 C128.696,78.328 127.936,78.48 127.248,78.784 C126.56,79.088 125.972,79.524 125.484,80.092 C124.996,80.66 124.616,81.344 124.344,82.144 C124.072,82.944 123.936,83.832 123.936,84.808 C123.936,85.8 124.072,86.692 124.344,87.484 C124.616,88.276 124.996,88.956 125.484,89.524 C125.972,90.092 126.56,90.528 127.248,90.832 C127.936,91.136 128.696,91.288 129.528,91.288 Z M129.528,89.584 C128.488,89.584 127.64,89.264 126.984,88.624 C126.328,87.984 126,87.008 126,85.696 L126,85.696 L126,83.92 C126,82.608 126.328,81.632 126.984,80.992 C127.64,80.352 128.488,80.032 129.528,80.032 C130.568,80.032 131.416,80.352 132.072,80.992 C132.728,81.632 133.056,82.608 133.056,83.92 L133.056,83.92 L133.056,85.696 C133.056,87.008 132.728,87.984 132.072,88.624 C131.416,89.264 130.568,89.584 129.528,89.584 Z M142.032,91 L142.032,89.32 L140.208,89.32 L140.208,73.24 L138.288,73.24 L138.288,89.008 C138.288,89.584 138.46,90.06 138.804,90.436 C139.148,90.812 139.656,91 140.328,91 L140.328,91 L142.032,91 Z M148.872,91.288 C149.384,91.288 149.832,91.224 150.216,91.096 C150.6,90.968 150.928,90.796 151.2,90.58 C151.472,90.364 151.7,90.116 151.884,89.836 C152.068,89.556 152.224,89.272 152.352,88.984 L152.352,88.984 L152.448,88.984 L152.448,91 L154.368,91 L154.368,78.616 L152.448,78.616 L152.448,87.184 C152.448,87.6 152.364,87.956 152.196,88.252 C152.028,88.548 151.804,88.792 151.524,88.984 C151.244,89.176 150.924,89.32 150.564,89.416 C150.204,89.512 149.832,89.56 149.448,89.56 C147.56,89.56 146.616,88.448 146.616,86.224 L146.616,86.224 L146.616,78.616 L144.696,78.616 L144.696,86.56 C144.696,88.064 145.072,89.228 145.824,90.052 C146.576,90.876 147.592,91.288 148.872,91.288 Z M163.584,91 L163.584,89.32 L161.064,89.32 L161.064,80.296 L163.776,80.296 L163.776,78.616 L161.064,78.616 L161.064,75.184 L159.336,75.184 L159.336,77.488 C159.336,77.904 159.26,78.196 159.108,78.364 C158.956,78.532 158.672,78.616 158.256,78.616 L158.256,78.616 L157.104,78.616 L157.104,80.296 L159.144,80.296 L159.144,88.96 C159.144,89.568 159.316,90.06 159.66,90.436 C160.004,90.812 160.512,91 161.184,91 L161.184,91 L163.584,91 Z M168.792,95.8 L168.792,88.984 L168.888,88.984 C169.624,90.52 170.832,91.288 172.512,91.288 C173.28,91.288 173.976,91.136 174.6,90.832 C175.224,90.528 175.756,90.096 176.196,89.536 C176.636,88.976 176.972,88.296 177.204,87.496 C177.436,86.696 177.552,85.8 177.552,84.808 C177.552,83.816 177.436,82.92 177.204,82.12 C176.972,81.32 176.636,80.64 176.196,80.08 C175.756,79.52 175.224,79.088 174.6,78.784 C173.976,78.48 173.28,78.328 172.512,78.328 C171.648,78.328 170.908,78.516 170.292,78.892 C169.676,79.268 169.208,79.848 168.888,80.632 L168.888,80.632 L168.792,80.632 L168.792,78.616 L166.872,78.616 L166.872,95.8 L168.792,95.8 Z M171.984,89.56 C171.552,89.56 171.14,89.504 170.748,89.392 C170.356,89.28 170.016,89.116 169.728,88.9 C169.44,88.684 169.212,88.42 169.044,88.108 C168.876,87.796 168.792,87.44 168.792,87.04 L168.792,87.04 L168.792,82.432 C168.792,82.096 168.876,81.78 169.044,81.484 C169.212,81.188 169.44,80.936 169.728,80.728 C170.016,80.52 170.356,80.356 170.748,80.236 C171.14,80.116 171.552,80.056 171.984,80.056 C173.072,80.056 173.928,80.396 174.552,81.076 C175.176,81.756 175.488,82.648 175.488,83.752 L175.488,83.752 L175.488,85.864 C175.488,86.968 175.176,87.86 174.552,88.54 C173.928,89.22 173.072,89.56 171.984,89.56 Z M183.96,91.288 C184.824,91.288 185.568,91.096 186.192,90.712 C186.816,90.328 187.264,89.752 187.536,88.984 L187.536,88.984 L187.656,88.984 C187.736,89.56 187.932,90.04 188.244,90.424 C188.556,90.808 189.072,91 189.792,91 L189.792,91 L190.872,91 L190.872,89.32 L189.456,89.32 L189.456,82.504 C189.456,81.192 189.04,80.168 188.208,79.432 C187.376,78.696 186.208,78.328 184.704,78.328 C183.584,78.328 182.656,78.564 181.92,79.036 C181.184,79.508 180.648,80.08 180.312,80.752 L180.312,80.752 L181.464,81.832 C181.8,81.272 182.22,80.824 182.724,80.488 C183.228,80.152 183.856,79.984 184.608,79.984 C185.6,79.984 186.336,80.216 186.816,80.68 C187.296,81.144 187.536,81.816 187.536,82.696 L187.536,82.696 L187.536,83.92 L185.088,83.92 C183.28,83.92 181.948,84.232 181.092,84.856 C180.236,85.48 179.808,86.376 179.808,87.544 C179.808,88.696 180.172,89.608 180.9,90.28 C181.628,90.952 182.648,91.288 183.96,91.288 Z M184.272,89.656 C183.52,89.656 182.924,89.488 182.484,89.152 C182.044,88.816 181.824,88.344 181.824,87.736 L181.824,87.736 L181.824,87.232 C181.824,86.624 182.076,86.16 182.58,85.84 C183.084,85.52 183.888,85.36 184.992,85.36 L184.992,85.36 L187.536,85.36 L187.536,87.4 C187.536,87.72 187.456,88.016 187.296,88.288 C187.136,88.56 186.912,88.8 186.624,89.008 C186.336,89.216 185.992,89.376 185.592,89.488 C185.192,89.6 184.752,89.656 184.272,89.656 Z M198.744,91 L198.744,89.32 L196.224,89.32 L196.224,80.296 L198.936,80.296 L198.936,78.616 L196.224,78.616 L196.224,75.184 L194.496,75.184 L194.496,77.488 C194.496,77.904 194.42,78.196 194.268,78.364 C194.116,78.532 193.832,78.616 193.416,78.616 L193.416,78.616 L192.264,78.616 L192.264,80.296 L194.304,80.296 L194.304,88.96 C194.304,89.568 194.476,90.06 194.82,90.436 C195.164,90.812 195.672,91 196.344,91 L196.344,91 L198.744,91 Z" id="volutpat-copy" fill="#001D6C" fill-rule="nonzero"></path>
        <path d="M162.76,48.288 C164.184,48.288 165.304,47.944 166.12,47.256 C166.936,46.568 167.344,45.624 167.344,44.424 C167.344,43.48 167.056,42.716 166.48,42.132 C165.904,41.548 164.928,41.152 163.552,40.944 L163.552,40.944 L162.592,40.8 C161.824,40.672 161.236,40.472 160.828,40.2 C160.42,39.928 160.216,39.488 160.216,38.88 C160.216,38.288 160.42,37.82 160.828,37.476 C161.236,37.132 161.84,36.96 162.64,36.96 C163.44,36.96 164.104,37.116 164.632,37.428 C165.16,37.74 165.56,38.088 165.832,38.472 L165.832,38.472 L167.104,37.32 C166.592,36.696 165.996,36.208 165.316,35.856 C164.636,35.504 163.792,35.328 162.784,35.328 C162.16,35.328 161.576,35.404 161.032,35.556 C160.488,35.708 160.02,35.936 159.628,36.24 C159.236,36.544 158.928,36.924 158.704,37.38 C158.48,37.836 158.368,38.368 158.368,38.976 C158.368,39.552 158.468,40.048 158.668,40.464 C158.868,40.88 159.148,41.228 159.508,41.508 C159.868,41.788 160.288,42.012 160.768,42.18 C161.248,42.348 161.776,42.472 162.352,42.552 L162.352,42.552 L163.336,42.696 C164.152,42.824 164.716,43.06 165.028,43.404 C165.34,43.748 165.496,44.16 165.496,44.64 C165.496,45.28 165.268,45.776 164.812,46.128 C164.356,46.48 163.72,46.656 162.904,46.656 C162.12,46.656 161.432,46.492 160.84,46.164 C160.248,45.836 159.712,45.368 159.232,44.76 L159.232,44.76 L157.864,45.864 C158.424,46.6 159.092,47.188 159.868,47.628 C160.644,48.068 161.608,48.288 162.76,48.288 Z M171.688,32.712 C172.104,32.712 172.404,32.612 172.588,32.412 C172.772,32.212 172.864,31.952 172.864,31.632 L172.864,31.632 L172.864,31.32 C172.864,31 172.772,30.74 172.588,30.54 C172.404,30.34 172.104,30.24 171.688,30.24 C171.272,30.24 170.972,30.34 170.788,30.54 C170.604,30.74 170.512,31 170.512,31.32 L170.512,31.32 L170.512,31.632 C170.512,31.952 170.604,32.212 170.788,32.412 C170.972,32.612 171.272,32.712 171.688,32.712 Z M172.648,48 L172.648,35.616 L170.728,35.616 L170.728,48 L172.648,48 Z M181.864,48 L181.864,46.32 L179.344,46.32 L179.344,37.296 L182.056,37.296 L182.056,35.616 L179.344,35.616 L179.344,32.184 L177.616,32.184 L177.616,34.488 C177.616,34.904 177.54,35.196 177.388,35.364 C177.236,35.532 176.952,35.616 176.536,35.616 L176.536,35.616 L175.384,35.616 L175.384,37.296 L177.424,37.296 L177.424,45.96 C177.424,46.568 177.596,47.06 177.94,47.436 C178.284,47.812 178.792,48 179.464,48 L179.464,48 L181.864,48 Z" id="sit-copy" fill="#001D6C" fill-rule="nonzero"></path>
        <path d="M120.648,126.288 C121.832,126.288 122.82,126.024 123.612,125.496 C124.404,124.968 125,124.256 125.4,123.36 L125.4,123.36 L124.008,122.424 C123.32,123.864 122.2,124.584 120.648,124.584 C119.512,124.584 118.652,124.236 118.068,123.54 C117.484,122.844 117.192,121.952 117.192,120.864 L117.192,120.864 L117.192,118.752 C117.192,118.208 117.264,117.708 117.408,117.252 C117.552,116.796 117.768,116.404 118.056,116.076 C118.344,115.748 118.704,115.492 119.136,115.308 C119.568,115.124 120.072,115.032 120.648,115.032 C121.416,115.032 122.056,115.208 122.568,115.56 C123.08,115.912 123.448,116.408 123.672,117.048 L123.672,117.048 L125.28,116.232 C124.912,115.368 124.356,114.668 123.612,114.132 C122.868,113.596 121.88,113.328 120.648,113.328 C119.784,113.328 119.008,113.48 118.32,113.784 C117.632,114.088 117.052,114.52 116.58,115.08 C116.108,115.64 115.748,116.32 115.5,117.12 C115.252,117.92 115.128,118.816 115.128,119.808 C115.128,120.8 115.252,121.696 115.5,122.496 C115.748,123.296 116.108,123.976 116.58,124.536 C117.052,125.096 117.632,125.528 118.32,125.832 C119.008,126.136 119.784,126.288 120.648,126.288 Z M132.792,126.288 C133.624,126.288 134.38,126.136 135.06,125.832 C135.74,125.528 136.328,125.092 136.824,124.524 C137.32,123.956 137.704,123.276 137.976,122.484 C138.248,121.692 138.384,120.8 138.384,119.808 C138.384,118.832 138.248,117.944 137.976,117.144 C137.704,116.344 137.32,115.66 136.824,115.092 C136.328,114.524 135.74,114.088 135.06,113.784 C134.38,113.48 133.624,113.328 132.792,113.328 C131.96,113.328 131.2,113.48 130.512,113.784 C129.824,114.088 129.236,114.524 128.748,115.092 C128.26,115.66 127.88,116.344 127.608,117.144 C127.336,117.944 127.2,118.832 127.2,119.808 C127.2,120.8 127.336,121.692 127.608,122.484 C127.88,123.276 128.26,123.956 128.748,124.524 C129.236,125.092 129.824,125.528 130.512,125.832 C131.2,126.136 131.96,126.288 132.792,126.288 Z M132.792,124.584 C131.752,124.584 130.904,124.264 130.248,123.624 C129.592,122.984 129.264,122.008 129.264,120.696 L129.264,120.696 L129.264,118.92 C129.264,117.608 129.592,116.632 130.248,115.992 C130.904,115.352 131.752,115.032 132.792,115.032 C133.832,115.032 134.68,115.352 135.336,115.992 C135.992,116.632 136.32,117.608 136.32,118.92 L136.32,118.92 L136.32,120.696 C136.32,122.008 135.992,122.984 135.336,123.624 C134.68,124.264 133.832,124.584 132.792,124.584 Z M143.472,126 L143.472,117.408 C143.472,117.008 143.556,116.66 143.724,116.364 C143.892,116.068 144.12,115.824 144.408,115.632 C144.696,115.44 145.02,115.296 145.38,115.2 C145.74,115.104 146.112,115.056 146.496,115.056 C148.368,115.056 149.304,116.168 149.304,118.392 L149.304,118.392 L149.304,126 L151.224,126 L151.224,118.056 C151.224,116.552 150.852,115.388 150.108,114.564 C149.364,113.74 148.352,113.328 147.072,113.328 C146.144,113.328 145.404,113.536 144.852,113.952 C144.3,114.368 143.872,114.928 143.568,115.632 L143.568,115.632 L143.472,115.632 L143.472,113.616 L141.552,113.616 L141.552,126 L143.472,126 Z M158.904,126.288 C160.328,126.288 161.448,125.944 162.264,125.256 C163.08,124.568 163.488,123.624 163.488,122.424 C163.488,121.48 163.2,120.716 162.624,120.132 C162.048,119.548 161.072,119.152 159.696,118.944 L159.696,118.944 L158.736,118.8 C157.968,118.672 157.38,118.472 156.972,118.2 C156.564,117.928 156.36,117.488 156.36,116.88 C156.36,116.288 156.564,115.82 156.972,115.476 C157.38,115.132 157.984,114.96 158.784,114.96 C159.584,114.96 160.248,115.116 160.776,115.428 C161.304,115.74 161.704,116.088 161.976,116.472 L161.976,116.472 L163.248,115.32 C162.736,114.696 162.14,114.208 161.46,113.856 C160.78,113.504 159.936,113.328 158.928,113.328 C158.304,113.328 157.72,113.404 157.176,113.556 C156.632,113.708 156.164,113.936 155.772,114.24 C155.38,114.544 155.072,114.924 154.848,115.38 C154.624,115.836 154.512,116.368 154.512,116.976 C154.512,117.552 154.612,118.048 154.812,118.464 C155.012,118.88 155.292,119.228 155.652,119.508 C156.012,119.788 156.432,120.012 156.912,120.18 C157.392,120.348 157.92,120.472 158.496,120.552 L158.496,120.552 L159.48,120.696 C160.296,120.824 160.86,121.06 161.172,121.404 C161.484,121.748 161.64,122.16 161.64,122.64 C161.64,123.28 161.412,123.776 160.956,124.128 C160.5,124.48 159.864,124.656 159.048,124.656 C158.264,124.656 157.576,124.492 156.984,124.164 C156.392,123.836 155.856,123.368 155.376,122.76 L155.376,122.76 L154.008,123.864 C154.568,124.6 155.236,125.188 156.012,125.628 C156.788,126.068 157.752,126.288 158.904,126.288 Z M171.528,126.288 C172.696,126.288 173.704,126.028 174.552,125.508 C175.4,124.988 176.024,124.304 176.424,123.456 L176.424,123.456 L175.056,122.472 C174.736,123.16 174.284,123.688 173.7,124.056 C173.116,124.424 172.432,124.608 171.648,124.608 C171.072,124.608 170.556,124.512 170.1,124.32 C169.644,124.128 169.26,123.864 168.948,123.528 C168.636,123.192 168.396,122.796 168.228,122.34 C168.06,121.884 167.976,121.392 167.976,120.864 L167.976,120.864 L167.976,120.288 L176.88,120.288 L176.88,119.376 C176.88,118.496 176.756,117.688 176.508,116.952 C176.26,116.216 175.904,115.58 175.44,115.044 C174.976,114.508 174.416,114.088 173.76,113.784 C173.104,113.48 172.36,113.328 171.528,113.328 C170.68,113.328 169.916,113.48 169.236,113.784 C168.556,114.088 167.972,114.524 167.484,115.092 C166.996,115.66 166.62,116.344 166.356,117.144 C166.092,117.944 165.96,118.832 165.96,119.808 C165.96,120.8 166.092,121.692 166.356,122.484 C166.62,123.276 166.996,123.956 167.484,124.524 C167.972,125.092 168.556,125.528 169.236,125.832 C169.916,126.136 170.68,126.288 171.528,126.288 Z M174.816,118.848 L167.976,118.848 L167.976,118.68 C167.976,118.136 168.064,117.636 168.24,117.18 C168.416,116.724 168.66,116.328 168.972,115.992 C169.284,115.656 169.656,115.396 170.088,115.212 C170.52,115.028 171,114.936 171.528,114.936 C172.52,114.936 173.316,115.268 173.916,115.932 C174.516,116.596 174.816,117.48 174.816,118.584 L174.816,118.584 L174.816,118.848 Z M189.888,130.8 L189.888,113.616 L187.968,113.616 L187.968,115.632 L187.872,115.632 C187.552,114.848 187.084,114.268 186.468,113.892 C185.852,113.516 185.112,113.328 184.248,113.328 C183.48,113.328 182.784,113.48 182.16,113.784 C181.536,114.088 181.004,114.52 180.564,115.08 C180.124,115.64 179.788,116.32 179.556,117.12 C179.324,117.92 179.208,118.816 179.208,119.808 C179.208,120.8 179.324,121.696 179.556,122.496 C179.788,123.296 180.124,123.976 180.564,124.536 C181.004,125.096 181.536,125.528 182.16,125.832 C182.784,126.136 183.48,126.288 184.248,126.288 C185.912,126.288 187.12,125.52 187.872,123.984 L187.872,123.984 L187.968,123.984 L187.968,130.8 L189.888,130.8 Z M184.776,124.56 C183.688,124.56 182.832,124.22 182.208,123.54 C181.584,122.86 181.272,121.968 181.272,120.864 L181.272,120.864 L181.272,118.752 C181.272,117.648 181.584,116.756 182.208,116.076 C182.832,115.396 183.688,115.056 184.776,115.056 C185.208,115.056 185.62,115.116 186.012,115.236 C186.404,115.356 186.744,115.52 187.032,115.728 C187.32,115.936 187.548,116.188 187.716,116.484 C187.884,116.78 187.968,117.096 187.968,117.432 L187.968,117.432 L187.968,122.04 C187.968,122.44 187.884,122.796 187.716,123.108 C187.548,123.42 187.32,123.684 187.032,123.9 C186.744,124.116 186.404,124.28 186.012,124.392 C185.62,124.504 185.208,124.56 184.776,124.56 Z M198.024,126.288 C198.536,126.288 198.984,126.224 199.368,126.096 C199.752,125.968 200.08,125.796 200.352,125.58 C200.624,125.364 200.852,125.116 201.036,124.836 C201.22,124.556 201.376,124.272 201.504,123.984 L201.504,123.984 L201.6,123.984 L201.6,126 L203.52,126 L203.52,113.616 L201.6,113.616 L201.6,122.184 C201.6,122.6 201.516,122.956 201.348,123.252 C201.18,123.548 200.956,123.792 200.676,123.984 C200.396,124.176 200.076,124.32 199.716,124.416 C199.356,124.512 198.984,124.56 198.6,124.56 C196.712,124.56 195.768,123.448 195.768,121.224 L195.768,121.224 L195.768,113.616 L193.848,113.616 L193.848,121.56 C193.848,123.064 194.224,124.228 194.976,125.052 C195.728,125.876 196.744,126.288 198.024,126.288 Z M210.768,126.288 C211.632,126.288 212.376,126.096 213,125.712 C213.624,125.328 214.072,124.752 214.344,123.984 L214.344,123.984 L214.464,123.984 C214.544,124.56 214.74,125.04 215.052,125.424 C215.364,125.808 215.88,126 216.6,126 L216.6,126 L217.68,126 L217.68,124.32 L216.264,124.32 L216.264,117.504 C216.264,116.192 215.848,115.168 215.016,114.432 C214.184,113.696 213.016,113.328 211.512,113.328 C210.392,113.328 209.464,113.564 208.728,114.036 C207.992,114.508 207.456,115.08 207.12,115.752 L207.12,115.752 L208.272,116.832 C208.608,116.272 209.028,115.824 209.532,115.488 C210.036,115.152 210.664,114.984 211.416,114.984 C212.408,114.984 213.144,115.216 213.624,115.68 C214.104,116.144 214.344,116.816 214.344,117.696 L214.344,117.696 L214.344,118.92 L211.896,118.92 C210.088,118.92 208.756,119.232 207.9,119.856 C207.044,120.48 206.616,121.376 206.616,122.544 C206.616,123.696 206.98,124.608 207.708,125.28 C208.436,125.952 209.456,126.288 210.768,126.288 Z M211.08,124.656 C210.328,124.656 209.732,124.488 209.292,124.152 C208.852,123.816 208.632,123.344 208.632,122.736 L208.632,122.736 L208.632,122.232 C208.632,121.624 208.884,121.16 209.388,120.84 C209.892,120.52 210.696,120.36 211.8,120.36 L211.8,120.36 L214.344,120.36 L214.344,122.4 C214.344,122.72 214.264,123.016 214.104,123.288 C213.944,123.56 213.72,123.8 213.432,124.008 C213.144,124.216 212.8,124.376 212.4,124.488 C212,124.6 211.56,124.656 211.08,124.656 Z M225.552,126 L225.552,124.32 L223.032,124.32 L223.032,115.296 L225.744,115.296 L225.744,113.616 L223.032,113.616 L223.032,110.184 L221.304,110.184 L221.304,112.488 C221.304,112.904 221.228,113.196 221.076,113.364 C220.924,113.532 220.64,113.616 220.224,113.616 L220.224,113.616 L219.072,113.616 L219.072,115.296 L221.112,115.296 L221.112,123.96 C221.112,124.568 221.284,125.06 221.628,125.436 C221.972,125.812 222.48,126 223.152,126 L223.152,126 L225.552,126 Z" id="consequat-copy" fill="#EE5396" fill-rule="nonzero"></path>
        <path d="M155.472,107.192 C156.048,107.192 156.544,107.064 156.96,106.808 C157.376,106.552 157.674667,106.168 157.856,105.656 L157.856,105.656 L157.936,105.656 C157.989333,106.04 158.12,106.36 158.328,106.616 C158.536,106.872 158.88,107 159.36,107 L159.36,107 L160.08,107 L160.08,105.88 L159.136,105.88 L159.136,101.336 C159.136,100.461333 158.858667,99.7786667 158.304,99.288 C157.749333,98.7973333 156.970667,98.552 155.968,98.552 C155.221333,98.552 154.602667,98.7093333 154.112,99.024 C153.621333,99.3386667 153.264,99.72 153.04,100.168 L153.04,100.168 L153.808,100.888 C154.032,100.514667 154.312,100.216 154.648,99.992 C154.984,99.768 155.402667,99.656 155.904,99.656 C156.565333,99.656 157.056,99.8106667 157.376,100.12 C157.696,100.429333 157.856,100.877333 157.856,101.464 L157.856,101.464 L157.856,102.28 L156.224,102.28 C155.018667,102.28 154.130667,102.488 153.56,102.904 C152.989333,103.32 152.704,103.917333 152.704,104.696 C152.704,105.464 152.946667,106.072 153.432,106.52 C153.917333,106.968 154.597333,107.192 155.472,107.192 Z M155.68,106.104 C155.178667,106.104 154.781333,105.992 154.488,105.768 C154.194667,105.544 154.048,105.229333 154.048,104.824 L154.048,104.824 L154.048,104.488 C154.048,104.082667 154.216,103.773333 154.552,103.56 C154.888,103.346667 155.424,103.24 156.16,103.24 L156.16,103.24 L157.856,103.24 L157.856,104.6 C157.856,104.813333 157.802667,105.010667 157.696,105.192 C157.589333,105.373333 157.44,105.533333 157.248,105.672 C157.056,105.810667 156.826667,105.917333 156.56,105.992 C156.293333,106.066667 156,106.104 155.68,106.104 Z M163.184,107 L163.184,101.4 C163.184,101.005333 163.378667,100.677333 163.768,100.416 C164.157333,100.154667 164.698667,100.024 165.392,100.024 L165.392,100.024 L166.144,100.024 L166.144,98.744 L165.648,98.744 C164.976,98.744 164.448,98.8986667 164.064,99.208 C163.68,99.5173333 163.413333,99.8693333 163.264,100.264 L163.264,100.264 L163.184,100.264 L163.184,98.744 L161.904,98.744 L161.904,107 L163.184,107 Z M170.848,107.192 C171.637333,107.192 172.296,107.016 172.824,106.664 C173.352,106.312 173.749333,105.837333 174.016,105.24 L174.016,105.24 L173.088,104.616 C172.629333,105.576 171.882667,106.056 170.848,106.056 C170.090667,106.056 169.517333,105.824 169.128,105.36 C168.738667,104.896 168.544,104.301333 168.544,103.576 L168.544,103.576 L168.544,102.168 C168.544,101.805333 168.592,101.472 168.688,101.168 C168.784,100.864 168.928,100.602667 169.12,100.384 C169.312,100.165333 169.552,99.9946667 169.84,99.872 C170.128,99.7493333 170.464,99.688 170.848,99.688 C171.36,99.688 171.786667,99.8053333 172.128,100.04 C172.469333,100.274667 172.714667,100.605333 172.864,101.032 L172.864,101.032 L173.936,100.488 C173.690667,99.912 173.32,99.4453333 172.824,99.088 C172.328,98.7306667 171.669333,98.552 170.848,98.552 C170.272,98.552 169.754667,98.6533333 169.296,98.856 C168.837333,99.0586667 168.450667,99.3466667 168.136,99.72 C167.821333,100.093333 167.581333,100.546667 167.416,101.08 C167.250667,101.613333 167.168,102.210667 167.168,102.872 C167.168,103.533333 167.250667,104.130667 167.416,104.664 C167.581333,105.197333 167.821333,105.650667 168.136,106.024 C168.450667,106.397333 168.837333,106.685333 169.296,106.888 C169.754667,107.090667 170.272,107.192 170.848,107.192 Z M178.528,107.192 C178.869333,107.192 179.168,107.149333 179.424,107.064 C179.68,106.978667 179.898667,106.864 180.08,106.72 C180.261333,106.576 180.413333,106.410667 180.536,106.224 C180.658667,106.037333 180.762667,105.848 180.848,105.656 L180.848,105.656 L180.912,105.656 L180.912,107 L182.192,107 L182.192,98.744 L180.912,98.744 L180.912,104.456 C180.912,104.733333 180.856,104.970667 180.744,105.168 C180.632,105.365333 180.482667,105.528 180.296,105.656 C180.109333,105.784 179.896,105.88 179.656,105.944 C179.416,106.008 179.168,106.04 178.912,106.04 C177.653333,106.04 177.024,105.298667 177.024,103.816 L177.024,103.816 L177.024,98.744 L175.744,98.744 L175.744,104.04 C175.744,105.042667 175.994667,105.818667 176.496,106.368 C176.997333,106.917333 177.674667,107.192 178.528,107.192 Z" id="arcu-copy" fill="#6929C4" fill-rule="nonzero"></path>
        <path d="M136.232,106.096 C136.621333,106.096 136.957333,106.009333 137.24,105.836 C137.522667,105.662667 137.730667,105.434667 137.864,105.152 L137.864,105.152 L137.408,104.824 C137.301333,105.053333 137.150667,105.229333 136.956,105.352 C136.761333,105.474667 136.533333,105.536 136.272,105.536 C136.08,105.536 135.908,105.504 135.756,105.44 C135.604,105.376 135.476,105.288 135.372,105.176 C135.268,105.064 135.188,104.932 135.132,104.78 C135.076,104.628 135.048,104.464 135.048,104.288 L135.048,104.288 L135.048,104.096 L138.016,104.096 L138.016,103.792 C138.016,103.498667 137.974667,103.229333 137.892,102.984 C137.809333,102.738667 137.690667,102.526667 137.536,102.348 C137.381333,102.169333 137.194667,102.029333 136.976,101.928 C136.757333,101.826667 136.509333,101.776 136.232,101.776 C135.949333,101.776 135.694667,101.826667 135.468,101.928 C135.241333,102.029333 135.046667,102.174667 134.884,102.364 C134.721333,102.553333 134.596,102.781333 134.508,103.048 C134.42,103.314667 134.376,103.610667 134.376,103.936 C134.376,104.266667 134.42,104.564 134.508,104.828 C134.596,105.092 134.721333,105.318667 134.884,105.508 C135.046667,105.697333 135.241333,105.842667 135.468,105.944 C135.694667,106.045333 135.949333,106.096 136.232,106.096 Z M137.328,103.616 L135.048,103.616 L135.048,103.56 C135.048,103.378667 135.077333,103.212 135.136,103.06 C135.194667,102.908 135.276,102.776 135.38,102.664 C135.484,102.552 135.608,102.465333 135.752,102.404 C135.896,102.342667 136.056,102.312 136.232,102.312 C136.562667,102.312 136.828,102.422667 137.028,102.644 C137.228,102.865333 137.328,103.16 137.328,103.528 L137.328,103.528 L137.328,103.616 Z M140.784,106 L140.784,105.44 L139.944,105.44 L139.944,102.432 L140.848,102.432 L140.848,101.872 L139.944,101.872 L139.944,100.728 L139.368,100.728 L139.368,101.496 C139.368,101.634667 139.342667,101.732 139.292,101.788 C139.241333,101.844 139.146667,101.872 139.008,101.872 L139.008,101.872 L138.624,101.872 L138.624,102.432 L139.304,102.432 L139.304,105.32 C139.304,105.522667 139.361333,105.686667 139.476,105.812 C139.590667,105.937333 139.76,106 139.984,106 L139.984,106 L140.784,106 Z M143.12,106.096 C143.594667,106.096 143.968,105.981333 144.24,105.752 C144.512,105.522667 144.648,105.208 144.648,104.808 C144.648,104.493333 144.552,104.238667 144.36,104.044 C144.168,103.849333 143.842667,103.717333 143.384,103.648 L143.384,103.648 L143.064,103.6 C142.808,103.557333 142.612,103.490667 142.476,103.4 C142.34,103.309333 142.272,103.162667 142.272,102.96 C142.272,102.762667 142.34,102.606667 142.476,102.492 C142.612,102.377333 142.813333,102.32 143.08,102.32 C143.346667,102.32 143.568,102.372 143.744,102.476 C143.92,102.58 144.053333,102.696 144.144,102.824 L144.144,102.824 L144.568,102.44 C144.397333,102.232 144.198667,102.069333 143.972,101.952 C143.745333,101.834667 143.464,101.776 143.128,101.776 C142.92,101.776 142.725333,101.801333 142.544,101.852 C142.362667,101.902667 142.206667,101.978667 142.076,102.08 C141.945333,102.181333 141.842667,102.308 141.768,102.46 C141.693333,102.612 141.656,102.789333 141.656,102.992 C141.656,103.184 141.689333,103.349333 141.756,103.488 C141.822667,103.626667 141.916,103.742667 142.036,103.836 C142.156,103.929333 142.296,104.004 142.456,104.06 C142.616,104.116 142.792,104.157333 142.984,104.184 L142.984,104.184 L143.312,104.232 C143.584,104.274667 143.772,104.353333 143.876,104.468 C143.98,104.582667 144.032,104.72 144.032,104.88 C144.032,105.093333 143.956,105.258667 143.804,105.376 C143.652,105.493333 143.44,105.552 143.168,105.552 C142.906667,105.552 142.677333,105.497333 142.48,105.388 C142.282667,105.278667 142.104,105.122667 141.944,104.92 L141.944,104.92 L141.488,105.288 C141.674667,105.533333 141.897333,105.729333 142.156,105.876 C142.414667,106.022667 142.736,106.096 143.12,106.096 Z" id="ets-copy" fill="#009D9A" fill-rule="nonzero"></path>
        <path d="M190.32,104.6 L190.32,102.328 L190.352,102.328 C190.597333,102.84 191,103.096 191.56,103.096 C191.816,103.096 192.048,103.045333 192.256,102.944 C192.464,102.842667 192.641333,102.698667 192.788,102.512 C192.934667,102.325333 193.046667,102.098667 193.124,101.832 C193.201333,101.565333 193.24,101.266667 193.24,100.936 C193.24,100.605333 193.201333,100.306667 193.124,100.04 C193.046667,99.7733333 192.934667,99.5466667 192.788,99.36 C192.641333,99.1733333 192.464,99.0293333 192.256,98.928 C192.048,98.8266667 191.816,98.776 191.56,98.776 C191.272,98.776 191.025333,98.8386667 190.82,98.964 C190.614667,99.0893333 190.458667,99.2826667 190.352,99.544 L190.352,99.544 L190.32,99.544 L190.32,98.872 L189.68,98.872 L189.68,104.6 L190.32,104.6 Z M191.384,102.52 C191.24,102.52 191.102667,102.501333 190.972,102.464 C190.841333,102.426667 190.728,102.372 190.632,102.3 C190.536,102.228 190.46,102.14 190.404,102.036 C190.348,101.932 190.32,101.813333 190.32,101.68 L190.32,101.68 L190.32,100.144 C190.32,100.032 190.348,99.9266667 190.404,99.828 C190.46,99.7293333 190.536,99.6453333 190.632,99.576 C190.728,99.5066667 190.841333,99.452 190.972,99.412 C191.102667,99.372 191.24,99.352 191.384,99.352 C191.746667,99.352 192.032,99.4653333 192.24,99.692 C192.448,99.9186667 192.552,100.216 192.552,100.584 L192.552,100.584 L192.552,101.288 C192.552,101.656 192.448,101.953333 192.24,102.18 C192.032,102.406667 191.746667,102.52 191.384,102.52 Z M195.88,103.096 C196.157333,103.096 196.409333,103.045333 196.636,102.944 C196.862667,102.842667 197.058667,102.697333 197.224,102.508 C197.389333,102.318667 197.517333,102.092 197.608,101.828 C197.698667,101.564 197.744,101.266667 197.744,100.936 C197.744,100.610667 197.698667,100.314667 197.608,100.048 C197.517333,99.7813333 197.389333,99.5533333 197.224,99.364 C197.058667,99.1746667 196.862667,99.0293333 196.636,98.928 C196.409333,98.8266667 196.157333,98.776 195.88,98.776 C195.602667,98.776 195.349333,98.8266667 195.12,98.928 C194.890667,99.0293333 194.694667,99.1746667 194.532,99.364 C194.369333,99.5533333 194.242667,99.7813333 194.152,100.048 C194.061333,100.314667 194.016,100.610667 194.016,100.936 C194.016,101.266667 194.061333,101.564 194.152,101.828 C194.242667,102.092 194.369333,102.318667 194.532,102.508 C194.694667,102.697333 194.890667,102.842667 195.12,102.944 C195.349333,103.045333 195.602667,103.096 195.88,103.096 Z M195.88,102.528 C195.533333,102.528 195.250667,102.421333 195.032,102.208 C194.813333,101.994667 194.704,101.669333 194.704,101.232 L194.704,101.232 L194.704,100.64 C194.704,100.202667 194.813333,99.8773333 195.032,99.664 C195.250667,99.4506667 195.533333,99.344 195.88,99.344 C196.226667,99.344 196.509333,99.4506667 196.728,99.664 C196.946667,99.8773333 197.056,100.202667 197.056,100.64 L197.056,100.64 L197.056,101.232 C197.056,101.669333 196.946667,101.994667 196.728,102.208 C196.509333,102.421333 196.226667,102.528 195.88,102.528 Z M199.44,103 L199.44,100.2 C199.44,100.002667 199.537333,99.8386667 199.732,99.708 C199.926667,99.5773333 200.197333,99.512 200.544,99.512 L200.544,99.512 L200.92,99.512 L200.92,98.872 L200.672,98.872 C200.336,98.872 200.072,98.9493333 199.88,99.104 C199.688,99.2586667 199.554667,99.4346667 199.48,99.632 L199.48,99.632 L199.44,99.632 L199.44,98.872 L198.8,98.872 L198.8,103 L199.44,103 Z M203.448,103 L203.448,102.44 L202.608,102.44 L202.608,99.432 L203.512,99.432 L203.512,98.872 L202.608,98.872 L202.608,97.728 L202.032,97.728 L202.032,98.496 C202.032,98.6346667 202.006667,98.732 201.956,98.788 C201.905333,98.844 201.810667,98.872 201.672,98.872 L201.672,98.872 L201.288,98.872 L201.288,99.432 L201.968,99.432 L201.968,102.32 C201.968,102.522667 202.025333,102.686667 202.14,102.812 C202.254667,102.937333 202.424,103 202.648,103 L202.648,103 L203.448,103 Z M205.6,103.096 C205.888,103.096 206.136,103.032 206.344,102.904 C206.552,102.776 206.701333,102.584 206.792,102.328 L206.792,102.328 L206.832,102.328 C206.858667,102.52 206.924,102.68 207.028,102.808 C207.132,102.936 207.304,103 207.544,103 L207.544,103 L207.904,103 L207.904,102.44 L207.432,102.44 L207.432,100.168 C207.432,99.7306667 207.293333,99.3893333 207.016,99.144 C206.738667,98.8986667 206.349333,98.776 205.848,98.776 C205.474667,98.776 205.165333,98.8546667 204.92,99.012 C204.674667,99.1693333 204.496,99.36 204.384,99.584 L204.384,99.584 L204.768,99.944 C204.88,99.7573333 205.02,99.608 205.188,99.496 C205.356,99.384 205.565333,99.328 205.816,99.328 C206.146667,99.328 206.392,99.4053333 206.552,99.56 C206.712,99.7146667 206.792,99.9386667 206.792,100.232 L206.792,100.232 L206.792,100.64 L205.976,100.64 C205.373333,100.64 204.929333,100.744 204.644,100.952 C204.358667,101.16 204.216,101.458667 204.216,101.848 C204.216,102.232 204.337333,102.536 204.58,102.76 C204.822667,102.984 205.162667,103.096 205.6,103.096 Z M205.704,102.552 C205.453333,102.552 205.254667,102.496 205.108,102.384 C204.961333,102.272 204.888,102.114667 204.888,101.912 L204.888,101.912 L204.888,101.744 C204.888,101.541333 204.972,101.386667 205.14,101.28 C205.308,101.173333 205.576,101.12 205.944,101.12 L205.944,101.12 L206.792,101.12 L206.792,101.8 C206.792,101.906667 206.765333,102.005333 206.712,102.096 C206.658667,102.186667 206.584,102.266667 206.488,102.336 C206.392,102.405333 206.277333,102.458667 206.144,102.496 C206.010667,102.533333 205.864,102.552 205.704,102.552 Z" id="porta-copy" fill="#009D9A" fill-rule="nonzero"></path>
        <path d="M104.32,71 L104.32,68.136 C104.32,68.0026667 104.348,67.8866667 104.404,67.788 C104.46,67.6893333 104.536,67.608 104.632,67.544 C104.728,67.48 104.836,67.432 104.956,67.4 C105.076,67.368 105.2,67.352 105.328,67.352 C105.952,67.352 106.264,67.7226667 106.264,68.464 L106.264,68.464 L106.264,71 L106.904,71 L106.904,68.352 C106.904,67.8506667 106.78,67.4626667 106.532,67.188 C106.284,66.9133333 105.946667,66.776 105.52,66.776 C105.210667,66.776 104.964,66.8453333 104.78,66.984 C104.596,67.1226667 104.453333,67.3093333 104.352,67.544 L104.352,67.544 L104.32,67.544 L104.32,66.872 L103.68,66.872 L103.68,71 L104.32,71 Z M109.784,71.096 C110.061333,71.096 110.313333,71.0453333 110.54,70.944 C110.766667,70.8426667 110.962667,70.6973333 111.128,70.508 C111.293333,70.3186667 111.421333,70.092 111.512,69.828 C111.602667,69.564 111.648,69.2666667 111.648,68.936 C111.648,68.6106667 111.602667,68.3146667 111.512,68.048 C111.421333,67.7813333 111.293333,67.5533333 111.128,67.364 C110.962667,67.1746667 110.766667,67.0293333 110.54,66.928 C110.313333,66.8266667 110.061333,66.776 109.784,66.776 C109.506667,66.776 109.253333,66.8266667 109.024,66.928 C108.794667,67.0293333 108.598667,67.1746667 108.436,67.364 C108.273333,67.5533333 108.146667,67.7813333 108.056,68.048 C107.965333,68.3146667 107.92,68.6106667 107.92,68.936 C107.92,69.2666667 107.965333,69.564 108.056,69.828 C108.146667,70.092 108.273333,70.3186667 108.436,70.508 C108.598667,70.6973333 108.794667,70.8426667 109.024,70.944 C109.253333,71.0453333 109.506667,71.096 109.784,71.096 Z M109.784,70.528 C109.437333,70.528 109.154667,70.4213333 108.936,70.208 C108.717333,69.9946667 108.608,69.6693333 108.608,69.232 L108.608,69.232 L108.608,68.64 C108.608,68.2026667 108.717333,67.8773333 108.936,67.664 C109.154667,67.4506667 109.437333,67.344 109.784,67.344 C110.130667,67.344 110.413333,67.4506667 110.632,67.664 C110.850667,67.8773333 110.96,68.2026667 110.96,68.64 L110.96,68.64 L110.96,69.232 C110.96,69.6693333 110.850667,69.9946667 110.632,70.208 C110.413333,70.4213333 110.130667,70.528 109.784,70.528 Z M113.344,71 L113.344,68.136 C113.344,68.0026667 113.372,67.8866667 113.428,67.788 C113.484,67.6893333 113.56,67.608 113.656,67.544 C113.752,67.48 113.86,67.432 113.98,67.4 C114.1,67.368 114.224,67.352 114.352,67.352 C114.976,67.352 115.288,67.7226667 115.288,68.464 L115.288,68.464 L115.288,71 L115.928,71 L115.928,68.352 C115.928,67.8506667 115.804,67.4626667 115.556,67.188 C115.308,66.9133333 114.970667,66.776 114.544,66.776 C114.234667,66.776 113.988,66.8453333 113.804,66.984 C113.62,67.1226667 113.477333,67.3093333 113.376,67.544 L113.376,67.544 L113.344,67.544 L113.344,66.872 L112.704,66.872 L112.704,71 L113.344,71 Z" id="non-copy" fill="#EE5396" fill-rule="nonzero"></path>
        <path d="M172.232,142.096 C172.621333,142.096 172.957333,142.009333 173.24,141.836 C173.522667,141.662667 173.730667,141.434667 173.864,141.152 L173.864,141.152 L173.408,140.824 C173.301333,141.053333 173.150667,141.229333 172.956,141.352 C172.761333,141.474667 172.533333,141.536 172.272,141.536 C172.08,141.536 171.908,141.504 171.756,141.44 C171.604,141.376 171.476,141.288 171.372,141.176 C171.268,141.064 171.188,140.932 171.132,140.78 C171.076,140.628 171.048,140.464 171.048,140.288 L171.048,140.288 L171.048,140.096 L174.016,140.096 L174.016,139.792 C174.016,139.498667 173.974667,139.229333 173.892,138.984 C173.809333,138.738667 173.690667,138.526667 173.536,138.348 C173.381333,138.169333 173.194667,138.029333 172.976,137.928 C172.757333,137.826667 172.509333,137.776 172.232,137.776 C171.949333,137.776 171.694667,137.826667 171.468,137.928 C171.241333,138.029333 171.046667,138.174667 170.884,138.364 C170.721333,138.553333 170.596,138.781333 170.508,139.048 C170.42,139.314667 170.376,139.610667 170.376,139.936 C170.376,140.266667 170.42,140.564 170.508,140.828 C170.596,141.092 170.721333,141.318667 170.884,141.508 C171.046667,141.697333 171.241333,141.842667 171.468,141.944 C171.694667,142.045333 171.949333,142.096 172.232,142.096 Z M173.328,139.616 L171.048,139.616 L171.048,139.56 C171.048,139.378667 171.077333,139.212 171.136,139.06 C171.194667,138.908 171.276,138.776 171.38,138.664 C171.484,138.552 171.608,138.465333 171.752,138.404 C171.896,138.342667 172.056,138.312 172.232,138.312 C172.562667,138.312 172.828,138.422667 173.028,138.644 C173.228,138.865333 173.328,139.16 173.328,139.528 L173.328,139.528 L173.328,139.616 Z M175.712,142 L175.712,139.2 C175.712,139.002667 175.809333,138.838667 176.004,138.708 C176.198667,138.577333 176.469333,138.512 176.816,138.512 L176.816,138.512 L177.192,138.512 L177.192,137.872 L176.944,137.872 C176.608,137.872 176.344,137.949333 176.152,138.104 C175.96,138.258667 175.826667,138.434667 175.752,138.632 L175.752,138.632 L175.712,138.632 L175.712,137.872 L175.072,137.872 L175.072,142 L175.712,142 Z M179.064,142.096 C179.352,142.096 179.6,142.032 179.808,141.904 C180.016,141.776 180.165333,141.584 180.256,141.328 L180.256,141.328 L180.296,141.328 C180.322667,141.52 180.388,141.68 180.492,141.808 C180.596,141.936 180.768,142 181.008,142 L181.008,142 L181.368,142 L181.368,141.44 L180.896,141.44 L180.896,139.168 C180.896,138.730667 180.757333,138.389333 180.48,138.144 C180.202667,137.898667 179.813333,137.776 179.312,137.776 C178.938667,137.776 178.629333,137.854667 178.384,138.012 C178.138667,138.169333 177.96,138.36 177.848,138.584 L177.848,138.584 L178.232,138.944 C178.344,138.757333 178.484,138.608 178.652,138.496 C178.82,138.384 179.029333,138.328 179.28,138.328 C179.610667,138.328 179.856,138.405333 180.016,138.56 C180.176,138.714667 180.256,138.938667 180.256,139.232 L180.256,139.232 L180.256,139.64 L179.44,139.64 C178.837333,139.64 178.393333,139.744 178.108,139.952 C177.822667,140.16 177.68,140.458667 177.68,140.848 C177.68,141.232 177.801333,141.536 178.044,141.76 C178.286667,141.984 178.626667,142.096 179.064,142.096 Z M179.168,141.552 C178.917333,141.552 178.718667,141.496 178.572,141.384 C178.425333,141.272 178.352,141.114667 178.352,140.912 L178.352,140.912 L178.352,140.744 C178.352,140.541333 178.436,140.386667 178.604,140.28 C178.772,140.173333 179.04,140.12 179.408,140.12 L179.408,140.12 L180.256,140.12 L180.256,140.8 C180.256,140.906667 180.229333,141.005333 180.176,141.096 C180.122667,141.186667 180.048,141.266667 179.952,141.336 C179.856,141.405333 179.741333,141.458667 179.608,141.496 C179.474667,141.533333 179.328,141.552 179.168,141.552 Z M183.992,142 L183.992,141.44 L183.152,141.44 L183.152,138.432 L184.056,138.432 L184.056,137.872 L183.152,137.872 L183.152,136.728 L182.576,136.728 L182.576,137.496 C182.576,137.634667 182.550667,137.732 182.5,137.788 C182.449333,137.844 182.354667,137.872 182.216,137.872 L182.216,137.872 L181.832,137.872 L181.832,138.432 L182.512,138.432 L182.512,141.32 C182.512,141.522667 182.569333,141.686667 182.684,141.812 C182.798667,141.937333 182.968,142 183.192,142 L183.192,142 L183.992,142 Z" id="erat-copy" fill="#009D9A" fill-rule="nonzero"></path>
        <path d="M70.92,116.096 C71.3946667,116.096 71.768,115.981333 72.04,115.752 C72.312,115.522667 72.448,115.208 72.448,114.808 C72.448,114.493333 72.352,114.238667 72.16,114.044 C71.968,113.849333 71.6426667,113.717333 71.184,113.648 L71.184,113.648 L70.864,113.6 C70.608,113.557333 70.412,113.490667 70.276,113.4 C70.14,113.309333 70.072,113.162667 70.072,112.96 C70.072,112.762667 70.14,112.606667 70.276,112.492 C70.412,112.377333 70.6133333,112.32 70.88,112.32 C71.1466667,112.32 71.368,112.372 71.544,112.476 C71.72,112.58 71.8533333,112.696 71.944,112.824 L71.944,112.824 L72.368,112.44 C72.1973333,112.232 71.9986667,112.069333 71.772,111.952 C71.5453333,111.834667 71.264,111.776 70.928,111.776 C70.72,111.776 70.5253333,111.801333 70.344,111.852 C70.1626667,111.902667 70.0066667,111.978667 69.876,112.08 C69.7453333,112.181333 69.6426667,112.308 69.568,112.46 C69.4933333,112.612 69.456,112.789333 69.456,112.992 C69.456,113.184 69.4893333,113.349333 69.556,113.488 C69.6226667,113.626667 69.716,113.742667 69.836,113.836 C69.956,113.929333 70.096,114.004 70.256,114.06 C70.416,114.116 70.592,114.157333 70.784,114.184 L70.784,114.184 L71.112,114.232 C71.384,114.274667 71.572,114.353333 71.676,114.468 C71.78,114.582667 71.832,114.72 71.832,114.88 C71.832,115.093333 71.756,115.258667 71.604,115.376 C71.452,115.493333 71.24,115.552 70.968,115.552 C70.7066667,115.552 70.4773333,115.497333 70.28,115.388 C70.0826667,115.278667 69.904,115.122667 69.744,114.92 L69.744,114.92 L69.288,115.288 C69.4746667,115.533333 69.6973333,115.729333 69.956,115.876 C70.2146667,116.022667 70.536,116.096 70.92,116.096 Z M75.128,116.096 C75.5173333,116.096 75.8533333,116.009333 76.136,115.836 C76.4186667,115.662667 76.6266667,115.434667 76.76,115.152 L76.76,115.152 L76.304,114.824 C76.1973333,115.053333 76.0466667,115.229333 75.852,115.352 C75.6573333,115.474667 75.4293333,115.536 75.168,115.536 C74.976,115.536 74.804,115.504 74.652,115.44 C74.5,115.376 74.372,115.288 74.268,115.176 C74.164,115.064 74.084,114.932 74.028,114.78 C73.972,114.628 73.944,114.464 73.944,114.288 L73.944,114.288 L73.944,114.096 L76.912,114.096 L76.912,113.792 C76.912,113.498667 76.8706667,113.229333 76.788,112.984 C76.7053333,112.738667 76.5866667,112.526667 76.432,112.348 C76.2773333,112.169333 76.0906667,112.029333 75.872,111.928 C75.6533333,111.826667 75.4053333,111.776 75.128,111.776 C74.8453333,111.776 74.5906667,111.826667 74.364,111.928 C74.1373333,112.029333 73.9426667,112.174667 73.78,112.364 C73.6173333,112.553333 73.492,112.781333 73.404,113.048 C73.316,113.314667 73.272,113.610667 73.272,113.936 C73.272,114.266667 73.316,114.564 73.404,114.828 C73.492,115.092 73.6173333,115.318667 73.78,115.508 C73.9426667,115.697333 74.1373333,115.842667 74.364,115.944 C74.5906667,116.045333 74.8453333,116.096 75.128,116.096 Z M76.224,113.616 L73.944,113.616 L73.944,113.56 C73.944,113.378667 73.9733333,113.212 74.032,113.06 C74.0906667,112.908 74.172,112.776 74.276,112.664 C74.38,112.552 74.504,112.465333 74.648,112.404 C74.792,112.342667 74.952,112.312 75.128,112.312 C75.4586667,112.312 75.724,112.422667 75.924,112.644 C76.124,112.865333 76.224,113.16 76.224,113.528 L76.224,113.528 L76.224,113.616 Z M78.608,116 L78.608,113.136 C78.608,113.002667 78.636,112.886667 78.692,112.788 C78.748,112.689333 78.8213333,112.608 78.912,112.544 C79.0026667,112.48 79.1066667,112.432 79.224,112.4 C79.3413333,112.368 79.464,112.352 79.592,112.352 C79.896,112.352 80.12,112.445333 80.264,112.632 C80.408,112.818667 80.48,113.096 80.48,113.464 L80.48,113.464 L80.48,116 L81.12,116 L81.12,113.136 C81.12,113.002667 81.1466667,112.886667 81.2,112.788 C81.2533333,112.689333 81.3253333,112.608 81.416,112.544 C81.5066667,112.48 81.6093333,112.432 81.724,112.4 C81.8386667,112.368 81.96,112.352 82.088,112.352 C82.4026667,112.352 82.632,112.445333 82.776,112.632 C82.92,112.818667 82.992,113.096 82.992,113.464 L82.992,113.464 L82.992,116 L83.632,116 L83.632,113.352 C83.632,112.850667 83.5133333,112.462667 83.276,112.188 C83.0386667,111.913333 82.7093333,111.776 82.288,111.776 C81.936,111.776 81.6573333,111.86 81.452,112.028 C81.2466667,112.196 81.1066667,112.392 81.032,112.616 L81.032,112.616 L81.016,112.616 C80.904,112.317333 80.7333333,112.102667 80.504,111.972 C80.2746667,111.841333 80.024,111.776 79.752,111.776 C79.592,111.776 79.4533333,111.796 79.336,111.836 C79.2186667,111.876 79.116,111.930667 79.028,112 C78.94,112.069333 78.8653333,112.150667 78.804,112.244 C78.7426667,112.337333 78.688,112.437333 78.64,112.544 L78.64,112.544 L78.608,112.544 L78.608,111.872 L77.968,111.872 L77.968,116 L78.608,116 Z M85.592,117.6 L85.592,115.328 L85.624,115.328 C85.8693333,115.84 86.272,116.096 86.832,116.096 C87.088,116.096 87.32,116.045333 87.528,115.944 C87.736,115.842667 87.9133333,115.698667 88.06,115.512 C88.2066667,115.325333 88.3186667,115.098667 88.396,114.832 C88.4733333,114.565333 88.512,114.266667 88.512,113.936 C88.512,113.605333 88.4733333,113.306667 88.396,113.04 C88.3186667,112.773333 88.2066667,112.546667 88.06,112.36 C87.9133333,112.173333 87.736,112.029333 87.528,111.928 C87.32,111.826667 87.088,111.776 86.832,111.776 C86.544,111.776 86.2973333,111.838667 86.092,111.964 C85.8866667,112.089333 85.7306667,112.282667 85.624,112.544 L85.624,112.544 L85.592,112.544 L85.592,111.872 L84.952,111.872 L84.952,117.6 L85.592,117.6 Z M86.656,115.52 C86.512,115.52 86.3746667,115.501333 86.244,115.464 C86.1133333,115.426667 86,115.372 85.904,115.3 C85.808,115.228 85.732,115.14 85.676,115.036 C85.62,114.932 85.592,114.813333 85.592,114.68 L85.592,114.68 L85.592,113.144 C85.592,113.032 85.62,112.926667 85.676,112.828 C85.732,112.729333 85.808,112.645333 85.904,112.576 C86,112.506667 86.1133333,112.452 86.244,112.412 C86.3746667,112.372 86.512,112.352 86.656,112.352 C87.0186667,112.352 87.304,112.465333 87.512,112.692 C87.72,112.918667 87.824,113.216 87.824,113.584 L87.824,113.584 L87.824,114.288 C87.824,114.656 87.72,114.953333 87.512,115.18 C87.304,115.406667 87.0186667,115.52 86.656,115.52 Z M91.144,116.096 C91.5333333,116.096 91.8693333,116.009333 92.152,115.836 C92.4346667,115.662667 92.6426667,115.434667 92.776,115.152 L92.776,115.152 L92.32,114.824 C92.2133333,115.053333 92.0626667,115.229333 91.868,115.352 C91.6733333,115.474667 91.4453333,115.536 91.184,115.536 C90.992,115.536 90.82,115.504 90.668,115.44 C90.516,115.376 90.388,115.288 90.284,115.176 C90.18,115.064 90.1,114.932 90.044,114.78 C89.988,114.628 89.96,114.464 89.96,114.288 L89.96,114.288 L89.96,114.096 L92.928,114.096 L92.928,113.792 C92.928,113.498667 92.8866667,113.229333 92.804,112.984 C92.7213333,112.738667 92.6026667,112.526667 92.448,112.348 C92.2933333,112.169333 92.1066667,112.029333 91.888,111.928 C91.6693333,111.826667 91.4213333,111.776 91.144,111.776 C90.8613333,111.776 90.6066667,111.826667 90.38,111.928 C90.1533333,112.029333 89.9586667,112.174667 89.796,112.364 C89.6333333,112.553333 89.508,112.781333 89.42,113.048 C89.332,113.314667 89.288,113.610667 89.288,113.936 C89.288,114.266667 89.332,114.564 89.42,114.828 C89.508,115.092 89.6333333,115.318667 89.796,115.508 C89.9586667,115.697333 90.1533333,115.842667 90.38,115.944 C90.6066667,116.045333 90.8613333,116.096 91.144,116.096 Z M92.24,113.616 L89.96,113.616 L89.96,113.56 C89.96,113.378667 89.9893333,113.212 90.048,113.06 C90.1066667,112.908 90.188,112.776 90.292,112.664 C90.396,112.552 90.52,112.465333 90.664,112.404 C90.808,112.342667 90.968,112.312 91.144,112.312 C91.4746667,112.312 91.74,112.422667 91.94,112.644 C92.14,112.865333 92.24,113.16 92.24,113.528 L92.24,113.528 L92.24,113.616 Z M94.624,116 L94.624,113.2 C94.624,113.002667 94.7213333,112.838667 94.916,112.708 C95.1106667,112.577333 95.3813333,112.512 95.728,112.512 L95.728,112.512 L96.104,112.512 L96.104,111.872 L95.856,111.872 C95.52,111.872 95.256,111.949333 95.064,112.104 C94.872,112.258667 94.7386667,112.434667 94.664,112.632 L94.664,112.632 L94.624,112.632 L94.624,111.872 L93.984,111.872 L93.984,116 L94.624,116 Z" id="semper-copy" fill="#001D6C" fill-rule="nonzero"></path>
        <path d="M206.32,82.6 L206.32,80.328 L206.352,80.328 C206.597333,80.84 207,81.096 207.56,81.096 C207.816,81.096 208.048,81.0453333 208.256,80.944 C208.464,80.8426667 208.641333,80.6986667 208.788,80.512 C208.934667,80.3253333 209.046667,80.0986667 209.124,79.832 C209.201333,79.5653333 209.24,79.2666667 209.24,78.936 C209.24,78.6053333 209.201333,78.3066667 209.124,78.04 C209.046667,77.7733333 208.934667,77.5466667 208.788,77.36 C208.641333,77.1733333 208.464,77.0293333 208.256,76.928 C208.048,76.8266667 207.816,76.776 207.56,76.776 C207.272,76.776 207.025333,76.8386667 206.82,76.964 C206.614667,77.0893333 206.458667,77.2826667 206.352,77.544 L206.352,77.544 L206.32,77.544 L206.32,76.872 L205.68,76.872 L205.68,82.6 L206.32,82.6 Z M207.384,80.52 C207.24,80.52 207.102667,80.5013333 206.972,80.464 C206.841333,80.4266667 206.728,80.372 206.632,80.3 C206.536,80.228 206.46,80.14 206.404,80.036 C206.348,79.932 206.32,79.8133333 206.32,79.68 L206.32,79.68 L206.32,78.144 C206.32,78.032 206.348,77.9266667 206.404,77.828 C206.46,77.7293333 206.536,77.6453333 206.632,77.576 C206.728,77.5066667 206.841333,77.452 206.972,77.412 C207.102667,77.372 207.24,77.352 207.384,77.352 C207.746667,77.352 208.032,77.4653333 208.24,77.692 C208.448,77.9186667 208.552,78.216 208.552,78.584 L208.552,78.584 L208.552,79.288 C208.552,79.656 208.448,79.9533333 208.24,80.18 C208.032,80.4066667 207.746667,80.52 207.384,80.52 Z M211.672,81.096 C211.842667,81.096 211.992,81.0746667 212.12,81.032 C212.248,80.9893333 212.357333,80.932 212.448,80.86 C212.538667,80.788 212.614667,80.7053333 212.676,80.612 C212.737333,80.5186667 212.789333,80.424 212.832,80.328 L212.832,80.328 L212.864,80.328 L212.864,81 L213.504,81 L213.504,76.872 L212.864,76.872 L212.864,79.728 C212.864,79.8666667 212.836,79.9853333 212.78,80.084 C212.724,80.1826667 212.649333,80.264 212.556,80.328 C212.462667,80.392 212.356,80.44 212.236,80.472 C212.116,80.504 211.992,80.52 211.864,80.52 C211.234667,80.52 210.92,80.1493333 210.92,79.408 L210.92,79.408 L210.92,76.872 L210.28,76.872 L210.28,79.52 C210.28,80.0213333 210.405333,80.4093333 210.656,80.684 C210.906667,80.9586667 211.245333,81.096 211.672,81.096 Z M215.504,81 L215.504,78.2 C215.504,78.0026667 215.601333,77.8386667 215.796,77.708 C215.990667,77.5773333 216.261333,77.512 216.608,77.512 L216.608,77.512 L216.984,77.512 L216.984,76.872 L216.736,76.872 C216.4,76.872 216.136,76.9493333 215.944,77.104 C215.752,77.2586667 215.618667,77.4346667 215.544,77.632 L215.544,77.632 L215.504,77.632 L215.504,76.872 L214.864,76.872 L214.864,81 L215.504,81 Z M219.152,81.096 C219.322667,81.096 219.472,81.0746667 219.6,81.032 C219.728,80.9893333 219.837333,80.932 219.928,80.86 C220.018667,80.788 220.094667,80.7053333 220.156,80.612 C220.217333,80.5186667 220.269333,80.424 220.312,80.328 L220.312,80.328 L220.344,80.328 L220.344,81 L220.984,81 L220.984,76.872 L220.344,76.872 L220.344,79.728 C220.344,79.8666667 220.316,79.9853333 220.26,80.084 C220.204,80.1826667 220.129333,80.264 220.036,80.328 C219.942667,80.392 219.836,80.44 219.716,80.472 C219.596,80.504 219.472,80.52 219.344,80.52 C218.714667,80.52 218.4,80.1493333 218.4,79.408 L218.4,79.408 L218.4,76.872 L217.76,76.872 L217.76,79.52 C217.76,80.0213333 217.885333,80.4093333 218.136,80.684 C218.386667,80.9586667 218.725333,81.096 219.152,81.096 Z M223.584,81.096 C224.058667,81.096 224.432,80.9813333 224.704,80.752 C224.976,80.5226667 225.112,80.208 225.112,79.808 C225.112,79.4933333 225.016,79.2386667 224.824,79.044 C224.632,78.8493333 224.306667,78.7173333 223.848,78.648 L223.848,78.648 L223.528,78.6 C223.272,78.5573333 223.076,78.4906667 222.94,78.4 C222.804,78.3093333 222.736,78.1626667 222.736,77.96 C222.736,77.7626667 222.804,77.6066667 222.94,77.492 C223.076,77.3773333 223.277333,77.32 223.544,77.32 C223.810667,77.32 224.032,77.372 224.208,77.476 C224.384,77.58 224.517333,77.696 224.608,77.824 L224.608,77.824 L225.032,77.44 C224.861333,77.232 224.662667,77.0693333 224.436,76.952 C224.209333,76.8346667 223.928,76.776 223.592,76.776 C223.384,76.776 223.189333,76.8013333 223.008,76.852 C222.826667,76.9026667 222.670667,76.9786667 222.54,77.08 C222.409333,77.1813333 222.306667,77.308 222.232,77.46 C222.157333,77.612 222.12,77.7893333 222.12,77.992 C222.12,78.184 222.153333,78.3493333 222.22,78.488 C222.286667,78.6266667 222.38,78.7426667 222.5,78.836 C222.62,78.9293333 222.76,79.004 222.92,79.06 C223.08,79.116 223.256,79.1573333 223.448,79.184 L223.448,79.184 L223.776,79.232 C224.048,79.2746667 224.236,79.3533333 224.34,79.468 C224.444,79.5826667 224.496,79.72 224.496,79.88 C224.496,80.0933333 224.42,80.2586667 224.268,80.376 C224.116,80.4933333 223.904,80.552 223.632,80.552 C223.370667,80.552 223.141333,80.4973333 222.944,80.388 C222.746667,80.2786667 222.568,80.1226667 222.408,79.92 L222.408,79.92 L221.952,80.288 C222.138667,80.5333333 222.361333,80.7293333 222.62,80.876 C222.878667,81.0226667 223.2,81.096 223.584,81.096 Z" id="purus-copy" fill="#001D6C" fill-rule="nonzero"></path>
        <path d="M102.08,121.096 C102.634667,121.096 103.037333,120.84 103.288,120.328 L103.288,120.328 L103.32,120.328 L103.32,121 L103.96,121 L103.96,115.08 L103.32,115.08 L103.32,117.544 L103.288,117.544 C103.181333,117.282667 103.025333,117.089333 102.82,116.964 C102.614667,116.838667 102.368,116.776 102.08,116.776 C101.824,116.776 101.592,116.826667 101.384,116.928 C101.176,117.029333 100.998667,117.173333 100.852,117.36 C100.705333,117.546667 100.593333,117.773333 100.516,118.04 C100.438667,118.306667 100.4,118.605333 100.4,118.936 C100.4,119.266667 100.438667,119.565333 100.516,119.832 C100.593333,120.098667 100.705333,120.325333 100.852,120.512 C100.998667,120.698667 101.176,120.842667 101.384,120.944 C101.592,121.045333 101.824,121.096 102.08,121.096 Z M102.256,120.52 C101.893333,120.52 101.608,120.406667 101.4,120.18 C101.192,119.953333 101.088,119.656 101.088,119.288 L101.088,119.288 L101.088,118.584 C101.088,118.216 101.192,117.918667 101.4,117.692 C101.608,117.465333 101.893333,117.352 102.256,117.352 C102.4,117.352 102.537333,117.372 102.668,117.412 C102.798667,117.452 102.912,117.506667 103.008,117.576 C103.104,117.645333 103.18,117.729333 103.236,117.828 C103.292,117.926667 103.32,118.032 103.32,118.144 L103.32,118.144 L103.32,119.68 C103.32,119.813333 103.292,119.932 103.236,120.036 C103.18,120.14 103.104,120.228 103.008,120.3 C102.912,120.372 102.798667,120.426667 102.668,120.464 C102.537333,120.501333 102.4,120.52 102.256,120.52 Z M106.672,121.096 C106.842667,121.096 106.992,121.074667 107.12,121.032 C107.248,120.989333 107.357333,120.932 107.448,120.86 C107.538667,120.788 107.614667,120.705333 107.676,120.612 C107.737333,120.518667 107.789333,120.424 107.832,120.328 L107.832,120.328 L107.864,120.328 L107.864,121 L108.504,121 L108.504,116.872 L107.864,116.872 L107.864,119.728 C107.864,119.866667 107.836,119.985333 107.78,120.084 C107.724,120.182667 107.649333,120.264 107.556,120.328 C107.462667,120.392 107.356,120.44 107.236,120.472 C107.116,120.504 106.992,120.52 106.864,120.52 C106.234667,120.52 105.92,120.149333 105.92,119.408 L105.92,119.408 L105.92,116.872 L105.28,116.872 L105.28,119.52 C105.28,120.021333 105.405333,120.409333 105.656,120.684 C105.906667,120.958667 106.245333,121.096 106.672,121.096 Z M110.184,115.904 C110.322667,115.904 110.422667,115.870667 110.484,115.804 C110.545333,115.737333 110.576,115.650667 110.576,115.544 L110.576,115.544 L110.576,115.44 C110.576,115.333333 110.545333,115.246667 110.484,115.18 C110.422667,115.113333 110.322667,115.08 110.184,115.08 C110.045333,115.08 109.945333,115.113333 109.884,115.18 C109.822667,115.246667 109.792,115.333333 109.792,115.44 L109.792,115.44 L109.792,115.544 C109.792,115.650667 109.822667,115.737333 109.884,115.804 C109.945333,115.870667 110.045333,115.904 110.184,115.904 Z M110.504,121 L110.504,116.872 L109.864,116.872 L109.864,121 L110.504,121 Z" id="dui-copy" fill="#6929C4" fill-rule="nonzero"></path>
    </g>
</svg>