<?xml version="1.0" encoding="UTF-8"?>
<svg width="239px" height="239px" viewBox="0 0 239 239" version="1.1"
	xmlns="http://www.w3.org/2000/svg" xmlns:xlink="http://www.w3.org/1999/xlink">
	<title>bullet</title>
	<g id="bullet" stroke="none" stroke-width="1" fill="none" fill-rule="evenodd">
		<g id="Group-2">
			<g id="Group" transform="translate(47.000000, 96.500000)">
				<g id="Group-19">
					<g id="Group-23" transform="translate(75.000000, 0.000000)"></g>
					<rect id="Rectangle" stroke="#0062FF" stroke-width="1.5" fill="#D9E8FE" x="0" y="1.5"
						width="146" height="8"></rect>
				</g>
				<rect id="Rectangle" fill="#0062FF" x="0" y="3.5" width="29" height="4"></rect>
			</g>
			<g id="Group-19" transform="translate(47.000000, 180.500000)">
				<g id="Group-23" transform="translate(75.000000, 0.000000)"></g>
				<rect id="Rectangle" stroke="#0062FF" stroke-width="1.5" fill="#D9E8FE" x="0" y="1.5"
					width="146" height="8"></rect>
			</g>
			<g id="Group-19-Copy-4" transform="translate(47.000000, 152.500000)">
				<g id="Group-23" transform="translate(75.000000, 0.000000)"></g>
				<rect id="Rectangle" stroke="#0062FF" stroke-width="1.5" fill="#D9E8FE" x="0" y="1.5"
					width="146" height="8"></rect>
			</g>
			<g id="Group-19-Copy-5" transform="translate(47.000000, 124.500000)">
				<g id="Group-23" transform="translate(75.000000, 0.000000)"></g>
				<rect id="Rectangle" stroke="#0062FF" stroke-width="1.5" fill="#D9E8FE" x="0" y="1.5"
					width="146" height="8"></rect>
			</g>
			<rect id="Rectangle" fill="#0062FF" x="47" y="184" width="45" height="4"></rect>
			<rect id="Rectangle-Copy" fill="#0062FF" x="47" y="156" width="134" height="4"></rect>
			<rect id="Rectangle-Copy-2" fill="#0062FF" x="47" y="128" width="62" height="4"></rect>
			<g id="Group-23" transform="translate(122.000000, 115.500000)"></g>
			<g id="Group-23" transform="translate(122.000000, 136.500000)"></g>
			<g id="Group-23" transform="translate(122.000000, 157.500000)"></g>
			<line x1="102.5" y1="94.5" x2="102.5" y2="109.5" id="Line-2" stroke="#0062FF"
				stroke-linecap="square"></line>
			<line x1="128.5" y1="122.5" x2="128.5" y2="137.5" id="Line-2-Copy-2" stroke="#0062FF"
				stroke-linecap="square"></line>
			<line x1="164.5" y1="150.5" x2="164.5" y2="165.5" id="Line-2-Copy-3" stroke="#0062FF"
				stroke-linecap="square"></line>
			<line x1="145.5" y1="178.5" x2="145.5" y2="193.5" id="Line-2-Copy-4" stroke="#0062FF"
				stroke-linecap="square"></line>
		</g>
	</g>
</svg>