<?xml version="1.0" encoding="UTF-8"?>
<svg width="320px" height="180px" viewBox="0 0 320 180" version="1.1" xmlns="http://www.w3.org/2000/svg" xmlns:xlink="http://www.w3.org/1999/xlink">
    <title>bar-grouped</title>
    <g id="bar-grouped" stroke="none" stroke-width="1" fill="none" fill-rule="evenodd">
        <rect id="Rectangle-9-Copy-44" fill="#6929C4" x="72" y="47" width="6" height="43"></rect>
        <rect id="Rectangle-9-Copy-46" fill="#6929C4" x="122" y="63" width="6" height="27"></rect>
        <rect id="Rectangle-9-Copy-48" fill="#001D6C" x="79" y="90" width="6" height="25"></rect>
        <rect id="Rectangle-9-Copy-49" fill="#001D6C" x="129" y="70" width="6" height="20"></rect>
        <rect id="Rectangle-9-Copy-45" fill="#009D9A" x="86" y="90" width="6" height="18"></rect>
        <rect id="Rectangle-9-Copy-47" fill="#009D9A" x="136" y="90" width="6" height="50"></rect>
        <rect id="Rectangle-9-Copy-54" fill="#EE5396" x="93" y="90" width="6" height="39"></rect>
        <rect id="Rectangle-9-Copy-55" fill="#EE5396" x="143" y="90" width="6" height="29"></rect>
        <rect id="Rectangle-9-Copy-52" fill="#6929C4" x="172" y="56" width="6" height="34"></rect>
        <rect id="Rectangle-9-Copy-51" fill="#001D6C" x="179" y="40" width="6" height="50"></rect>
        <rect id="Rectangle-9-Copy-50" fill="#009D9A" x="186" y="90" width="6" height="12"></rect>
        <rect id="Rectangle-9-Copy-56" fill="#EE5396" x="193" y="90" width="6" height="36"></rect>
        <rect id="Rectangle-9-Copy-59" fill="#6929C4" x="221" y="47" width="6" height="43"></rect>
        <rect id="Rectangle-9-Copy-58" fill="#001D6C" x="228" y="90" width="6" height="49"></rect>
        <rect id="Rectangle-9-Copy-53" fill="#009D9A" x="235" y="67" width="6" height="23"></rect>
        <rect id="Rectangle-9-Copy-57" fill="#EE5396" x="242" y="51" width="6" height="39"></rect>
    </g>
</svg>