<svg width="640" height="360" viewBox="0 0 640 360" fill="none" xmlns="http://www.w3.org/2000/svg">
<g id="bar-stacked">
<rect id="Rectangle 121" x="174" y="94" width="12" height="150" fill="white"/>
<rect id="Rectangle 122" x="230" y="114" width="12" height="150" fill="white"/>
<rect id="Rectangle 123" x="286" y="154" width="12" height="120" fill="white"/>
<rect id="Rectangle 124" x="342" y="178" width="12" height="96" fill="white"/>
<rect id="Rectangle 125" x="398" y="178" width="12" height="96" fill="white"/>
<rect id="Rectangle 126" x="454" y="208" width="12" height="66" fill="white"/>
<rect id="Rectangle Copy 12" x="174" y="212" width="12" height="62" fill="#005D5D"/>
<rect id="Rectangle Copy 13" x="174" y="112" width="12" height="96" fill="#BE95FF"/>
<rect id="Rectangle Copy 17" x="230" y="160" width="12" height="32" fill="#BE95FF"/>
<rect id="Rectangle Copy 23" x="286" y="194" width="12" height="46" fill="#BE95FF"/>
<rect id="Rectangle Copy 26" x="454" y="220" width="12" height="24" fill="#BE95FF"/>
<rect id="Rectangle Copy 24" x="398" y="222" width="12" height="18" fill="#BE95FF"/>
<rect id="Rectangle Copy 27" x="454" y="198" width="12" height="18" fill="#9F1853"/>
<rect id="Rectangle Copy 15" x="174" y="80" width="12" height="28" fill="#9F1853"/>
<rect id="Rectangle Copy 18" x="230" y="116" width="12" height="40" fill="#9F1853"/>
<rect id="Rectangle Copy 19" x="286" y="150" width="12" height="40" fill="#9F1853"/>
<rect id="Rectangle Copy 14" x="398" y="96" width="12" height="121.852" fill="#9F1853"/>
<rect id="Rectangle Copy 28" x="342" y="190" width="12" height="46" fill="#BE95FF"/>
<rect id="Rectangle Copy 29" x="342" y="168" width="12" height="18" fill="#9F1853"/>
<rect id="Rectangle Copy 30" x="342" y="240" width="12" height="34.4815" fill="#005D5D"/>
<rect id="Rectangle Copy 16" x="230" y="196" width="12" height="78.037" fill="#005D5D"/>
<rect id="Rectangle Copy 20" x="286" y="244" width="12" height="30" fill="#005D5D"/>
<rect id="Rectangle Copy 25" x="398" y="244" width="12" height="30" fill="#005D5D"/>
<rect id="Rectangle Copy 21" x="454" y="248" width="12" height="26.4815" fill="#005D5D"/>
</g>
</svg>
