<?xml version="1.0" encoding="UTF-8"?>
<svg width="320px" height="180px" viewBox="0 0 320 180" version="1.1" xmlns="http://www.w3.org/2000/svg" xmlns:xlink="http://www.w3.org/1999/xlink">
    <title>boxplot</title>
    <g id="boxplot" stroke="none" stroke-width="1" fill="none" fill-rule="evenodd">
        <g id="Group-22" transform="translate(71.500000, 48.000000)" stroke="#002D9C">
            <g id="Group-19" transform="translate(17.000000, 0.000000)">
                <g id="Group-23" transform="translate(0.000000, 1.000000)" stroke-linecap="square">
                    <line x1="0.5" y1="-3.19744231e-14" x2="0.5" y2="6" id="Line-2"></line>
                    <line x1="1" y1="3" x2="23" y2="3" id="Line-2-Copy"></line>
                </g>
                <g id="Group-21-Copy" transform="translate(121.250000, 4.000000) scale(-1, 1) translate(-121.250000, -4.000000) translate(111.500000, 1.000000)" stroke-linecap="square">
                    <line x1="0.5" y1="-1.0658141e-14" x2="0.5" y2="6" id="Line-2"></line>
                    <line x1="0.5" y1="3" x2="19.5" y2="3" id="Line-2-Copy"></line>
                </g>
                <rect id="Rectangle" stroke-width="1.5" fill-opacity="0.2" fill="#002D9C" x="22.5" y="0" width="49" height="8"></rect>
                <rect id="Rectangle-Copy-12" stroke-width="1.5" fill-opacity="0.2" fill="#002D9C" x="72.5" y="0" width="38" height="8"></rect>
            </g>
            <g id="Group-19-Copy" transform="translate(0.000000, 28.000000)">
                <g id="Group-21" transform="translate(0.000000, 1.000000)" stroke-linecap="square">
                    <line x1="0.5" y1="-2.13162821e-14" x2="0.5" y2="6" id="Line-2"></line>
                    <line x1="1.5" y1="3" x2="30.5" y2="3" id="Line-2-Copy"></line>
                </g>
                <g id="Group-21-Copy" transform="translate(162.750000, 4.000000) scale(-1, 1) translate(-162.750000, -4.000000) translate(149.500000, 1.000000)" stroke-linecap="square">
                    <line x1="0.5" y1="-2.13162821e-14" x2="0.5" y2="6" id="Line-2"></line>
                    <line x1="0.5" y1="3" x2="26.5" y2="3" id="Line-2-Copy"></line>
                </g>
                <rect id="Rectangle" stroke-width="1.5" fill-opacity="0.2" fill="#002D9C" x="31.5" y="0" width="48" height="8"></rect>
                <rect id="Rectangle-Copy-12" stroke-width="1.5" fill-opacity="0.2" fill="#002D9C" x="80.5" y="0" width="68" height="8"></rect>
            </g>
            <g id="Group-19-Copy-2" transform="translate(67.000000, 56.000000)">
                <g id="Group-21" transform="translate(0.000000, 1.000000)" stroke-linecap="square">
                    <line x1="0.5" y1="-4.26325641e-14" x2="0.5" y2="6" id="Line-2"></line>
                    <line x1="1.5" y1="3" x2="30.5" y2="3" id="Line-2-Copy"></line>
                </g>
                <g id="Group-21-Copy" transform="translate(74.750000, 4.000000) scale(-1, 1) translate(-74.750000, -4.000000) translate(72.500000, 1.000000)" stroke-linecap="square">
                    <line x1="0.5" y1="-2.8449465e-14" x2="0.5" y2="6" id="Line-2"></line>
                    <line x1="1.5" y1="3" x2="4.5" y2="3" id="Line-2-Copy"></line>
                </g>
                <rect id="Rectangle" stroke-width="1.5" fill-opacity="0.2" fill="#002D9C" x="31.5" y="0" width="27" height="8"></rect>
                <rect id="Rectangle-Copy-12" stroke-width="1.5" fill-opacity="0.2" fill="#002D9C" x="59.5" y="0" width="13" height="8"></rect>
            </g>
            <g id="Group-19-Copy-4" transform="translate(41.000000, 84.000000)">
                <g id="Group-21" transform="translate(0.000000, 1.000000)" stroke-linecap="square">
                    <line x1="0.5" y1="-2.13162821e-14" x2="0.5" y2="6" id="Line-2"></line>
                    <line x1="0.5" y1="3" x2="20.5" y2="3" id="Line-2-Copy"></line>
                </g>
                <g id="Group-21-Copy" transform="translate(88.250000, 4.000000) scale(-1, 1) translate(-88.250000, -4.000000) translate(80.500000, 1.000000)" stroke-linecap="square">
                    <line x1="0.5" y1="-2.13162821e-14" x2="0.5" y2="6" id="Line-2"></line>
                    <line x1="0.5" y1="3" x2="15.5" y2="3" id="Line-2-Copy"></line>
                </g>
                <rect id="Rectangle" stroke-width="1.5" fill-opacity="0.2" fill="#002D9C" x="20.5" y="0" width="37" height="8"></rect>
                <rect id="Rectangle-Copy-12" stroke-width="1.5" fill-opacity="0.2" fill="#002D9C" x="58.5" y="0" width="22" height="8"></rect>
            </g>
        </g>
    </g>
</svg>