<svg width="640" height="360" viewBox="0 0 640 360" fill="none" xmlns="http://www.w3.org/2000/svg">
<g id="heat-map">
<g id="Group">
<rect id="bkg" x="170" y="80" width="298" height="198" fill="white"/>
<rect id="Rectangle 2 Copy 25" x="170" y="80" width="32" height="32" fill="#FFD6E8"/>
<rect id="Rectangle 2 Copy 71" x="170" y="146" width="32" height="32" fill="#FFD6E8"/>
<rect id="Rectangle 2 Copy 26" x="170" y="114" width="32" height="30" fill="#FF7EB6"/>
<rect id="Rectangle 2 Copy 84" x="170" y="180" width="32" height="32" fill="#FFD6E8"/>
<rect id="Rectangle 2 Copy 30" x="304" y="80" width="30" height="32" fill="#FFD6E8"/>
<rect id="Rectangle 2 Copy 85" x="304" y="146" width="30" height="32" fill="#EE5396"/>
<rect id="Rectangle 2 Copy 31" x="304" y="114" width="30" height="30" fill="#EE5396"/>
<rect id="Rectangle 2 Copy 86" x="304" y="180" width="30" height="32" fill="#EE5396"/>
<rect id="Rectangle 2 Copy 34" x="204" y="80" width="30" height="32" fill="#FF7EB6"/>
<rect id="Rectangle 2 Copy 87" x="204" y="146" width="30" height="32" fill="#FF7EB6"/>
<rect id="Rectangle 2 Copy 35" x="204" y="114" width="30" height="30" fill="#EE5396"/>
<rect id="Rectangle 2 Copy 88" x="204" y="180" width="30" height="32" fill="#FF7EB6"/>
<rect id="Rectangle 2 Copy 36" x="336" y="80" width="32" height="32" fill="#FFD6E8"/>
<rect id="Rectangle 2 Copy 89" x="336" y="146" width="32" height="32" fill="#EE5396"/>
<rect id="Rectangle 2 Copy 37" x="336" y="114" width="32" height="30" fill="#FFAFD2"/>
<rect id="Rectangle 2 Copy 90" x="336" y="180" width="32" height="32" fill="#FF7EB6"/>
<rect id="Rectangle 2 Copy 42" x="236" y="80" width="32" height="32" fill="#EE5396"/>
<rect id="Rectangle 2 Copy 91" x="236" y="146" width="32" height="32" fill="#EE5396"/>
<rect id="Rectangle 2 Copy 43" x="236" y="114" width="32" height="30" fill="#D12771"/>
<rect id="Rectangle 2 Copy 92" x="236" y="180" width="32" height="32" fill="#FF7EB6"/>
<rect id="Rectangle 2 Copy 44" x="270" y="80" width="32" height="32" fill="#EE5396"/>
<rect id="Rectangle 2 Copy 93" x="270" y="146" width="32" height="32" fill="#D12771"/>
<rect id="Rectangle 2 Copy 46" x="270" y="114" width="32" height="30" fill="#D12771"/>
<rect id="Rectangle 2 Copy 94" x="270" y="180" width="32" height="32" fill="#EE5396"/>
<rect id="Rectangle 2 Copy 95" x="170" y="214" width="32" height="30" fill="#FFD6E8"/>
<rect id="Rectangle 2 Copy 96" x="170" y="246" width="32" height="32" fill="#FFD6E8"/>
<rect id="Rectangle 2 Copy 97" x="304" y="214" width="30" height="30" fill="#FF7EB6"/>
<rect id="Rectangle 2 Copy 98" x="304" y="246" width="30" height="32" fill="#FFD6E8"/>
<rect id="Rectangle 2 Copy 99" x="204" y="214" width="30" height="30" fill="#FFD6E8"/>
<rect id="Rectangle 2 Copy 100" x="204" y="246" width="30" height="32" fill="#FF7EB6"/>
<rect id="Rectangle 2 Copy 101" x="336" y="214" width="32" height="30" fill="#FFD6E8"/>
<rect id="Rectangle 2 Copy 102" x="336" y="246" width="32" height="32" fill="#FFD6E8"/>
<rect id="Rectangle 2 Copy 103" x="236" y="214" width="32" height="30" fill="#FFD6E8"/>
<rect id="Rectangle 2 Copy 104" x="236" y="246" width="32" height="32" fill="#FF7EB6"/>
<rect id="Rectangle 2 Copy 105" x="270" y="214" width="32" height="30" fill="#FF7EB6"/>
<rect id="Rectangle 2 Copy 106" x="270" y="246" width="32" height="32" fill="#FF7EB6"/>
<rect id="Rectangle 2 Copy 107" x="370" y="80" width="32" height="32" fill="#FFD6E8"/>
<rect id="Rectangle 2 Copy 108" x="370" y="146" width="32" height="32" fill="#EE5396"/>
<rect id="Rectangle 2 Copy 109" x="370" y="114" width="32" height="30" fill="#FF7EB6"/>
<rect id="Rectangle 2 Copy 110" x="370" y="180" width="32" height="32" fill="#EE5396"/>
<rect id="Rectangle 2 Copy 111" x="404" y="80" width="30" height="32" fill="#FFAFD2"/>
<rect id="Rectangle 2 Copy 112" x="404" y="146" width="30" height="32" fill="#EE5396"/>
<rect id="Rectangle 2 Copy 113" x="404" y="114" width="30" height="30" fill="#EE5396"/>
<rect id="Rectangle 2 Copy 114" x="404" y="180" width="30" height="32" fill="#EE5396"/>
<rect id="Rectangle 2 Copy 115" x="436" y="80" width="32" height="32" fill="#FFD6E8"/>
<rect id="Rectangle 2 Copy 123" x="436" y="146" width="32" height="32" fill="#FFD6E8"/>
<rect id="Rectangle 2 Copy 127" x="436" y="114" width="32" height="30" fill="#FFD6E8"/>
<rect id="Rectangle 2 Copy 129" x="436" y="180" width="32" height="32" fill="#FFD6E8"/>
<rect id="Rectangle 2 Copy 130" x="370" y="214" width="32" height="30" fill="#FFAFD2"/>
<rect id="Rectangle 2 Copy 131" x="370" y="246" width="32" height="32" fill="#FFD6E8"/>
<rect id="Rectangle 2 Copy 132" x="404" y="214" width="30" height="30" fill="#FF7EB6"/>
<rect id="Rectangle 2 Copy 133" x="404" y="246" width="30" height="32" fill="#FFD6E8"/>
<rect id="Rectangle 2 Copy 135" x="436" y="214" width="32" height="30" fill="#FFD6E8"/>
<rect id="Rectangle 2 Copy 136" x="436" y="246" width="32" height="32" fill="#FFD6E8"/>
</g>
</g>
</svg>
