<?xml version="1.0" encoding="UTF-8"?>
<svg width="320px" height="180px" viewBox="0 0 320 180" version="1.1" xmlns="http://www.w3.org/2000/svg" xmlns:xlink="http://www.w3.org/1999/xlink">
    <title>heat-map</title>
    <g id="heat-map" stroke="none" stroke-width="1" fill="none" fill-rule="evenodd">
        <g id="Group" transform="translate(85.000000, 40.000000)">
            <rect id="Rectangle-2-Copy-25" fill="#FFD6E8" x="0" y="0" width="16" height="16"></rect>
            <rect id="Rectangle-2-Copy-71" fill="#FFD6E8" x="0" y="33" width="16" height="16"></rect>
            <rect id="Rectangle-2-Copy-26" fill="#FF7EB6" x="0" y="17" width="16" height="15"></rect>
            <rect id="Rectangle-2-Copy-84" fill="#FFD6E8" x="0" y="50" width="16" height="16"></rect>
            <rect id="Rectangle-2-Copy-30" fill="#FFD6E8" x="67" y="0" width="15" height="16"></rect>
            <rect id="Rectangle-2-Copy-85" fill="#EE5396" x="67" y="33" width="15" height="16"></rect>
            <rect id="Rectangle-2-Copy-31" fill="#EE5396" x="67" y="17" width="15" height="15"></rect>
            <rect id="Rectangle-2-Copy-86" fill="#EE5396" x="67" y="50" width="15" height="16"></rect>
            <rect id="Rectangle-2-Copy-34" fill="#FF7EB6" x="17" y="0" width="15" height="16"></rect>
            <rect id="Rectangle-2-Copy-87" fill="#FF7EB6" x="17" y="33" width="15" height="16"></rect>
            <rect id="Rectangle-2-Copy-35" fill="#EE5396" x="17" y="17" width="15" height="15"></rect>
            <rect id="Rectangle-2-Copy-88" fill="#FF7EB6" x="17" y="50" width="15" height="16"></rect>
            <rect id="Rectangle-2-Copy-36" fill="#FFD6E8" x="83" y="0" width="16" height="16"></rect>
            <rect id="Rectangle-2-Copy-89" fill="#EE5396" x="83" y="33" width="16" height="16"></rect>
            <rect id="Rectangle-2-Copy-37" fill="#FFAFD2" x="83" y="17" width="16" height="15"></rect>
            <rect id="Rectangle-2-Copy-90" fill="#FF7EB6" x="83" y="50" width="16" height="16"></rect>
            <rect id="Rectangle-2-Copy-42" fill="#EE5396" x="33" y="0" width="16" height="16"></rect>
            <rect id="Rectangle-2-Copy-91" fill="#EE5396" x="33" y="33" width="16" height="16"></rect>
            <rect id="Rectangle-2-Copy-43" fill="#D12771" x="33" y="17" width="16" height="15"></rect>
            <rect id="Rectangle-2-Copy-92" fill="#FF7EB6" x="33" y="50" width="16" height="16"></rect>
            <rect id="Rectangle-2-Copy-44" fill="#EE5396" x="50" y="0" width="16" height="16"></rect>
            <rect id="Rectangle-2-Copy-93" fill="#D12771" x="50" y="33" width="16" height="16"></rect>
            <rect id="Rectangle-2-Copy-46" fill="#D12771" x="50" y="17" width="16" height="15"></rect>
            <rect id="Rectangle-2-Copy-94" fill="#EE5396" x="50" y="50" width="16" height="16"></rect>
            <rect id="Rectangle-2-Copy-95" fill="#FFD6E8" x="0" y="67" width="16" height="15"></rect>
            <rect id="Rectangle-2-Copy-96" fill="#FFD6E8" x="0" y="83" width="16" height="16"></rect>
            <rect id="Rectangle-2-Copy-97" fill="#FF7EB6" x="67" y="67" width="15" height="15"></rect>
            <rect id="Rectangle-2-Copy-98" fill="#FFD6E8" x="67" y="83" width="15" height="16"></rect>
            <rect id="Rectangle-2-Copy-99" fill="#FFD6E8" x="17" y="67" width="15" height="15"></rect>
            <rect id="Rectangle-2-Copy-100" fill="#FF7EB6" x="17" y="83" width="15" height="16"></rect>
            <rect id="Rectangle-2-Copy-101" fill="#FFD6E8" x="83" y="67" width="16" height="15"></rect>
            <rect id="Rectangle-2-Copy-102" fill="#FFD6E8" x="83" y="83" width="16" height="16"></rect>
            <rect id="Rectangle-2-Copy-103" fill="#FFD6E8" x="33" y="67" width="16" height="15"></rect>
            <rect id="Rectangle-2-Copy-104" fill="#FF7EB6" x="33" y="83" width="16" height="16"></rect>
            <rect id="Rectangle-2-Copy-105" fill="#FF7EB6" x="50" y="67" width="16" height="15"></rect>
            <rect id="Rectangle-2-Copy-106" fill="#FF7EB6" x="50" y="83" width="16" height="16"></rect>
            <rect id="Rectangle-2-Copy-107" fill="#FFD6E8" x="100" y="0" width="16" height="16"></rect>
            <rect id="Rectangle-2-Copy-108" fill="#EE5396" x="100" y="33" width="16" height="16"></rect>
            <rect id="Rectangle-2-Copy-109" fill="#FF7EB6" x="100" y="17" width="16" height="15"></rect>
            <rect id="Rectangle-2-Copy-110" fill="#EE5396" x="100" y="50" width="16" height="16"></rect>
            <rect id="Rectangle-2-Copy-111" fill="#FFAFD2" x="117" y="0" width="15" height="16"></rect>
            <rect id="Rectangle-2-Copy-112" fill="#EE5396" x="117" y="33" width="15" height="16"></rect>
            <rect id="Rectangle-2-Copy-113" fill="#EE5396" x="117" y="17" width="15" height="15"></rect>
            <rect id="Rectangle-2-Copy-114" fill="#EE5396" x="117" y="50" width="15" height="16"></rect>
            <rect id="Rectangle-2-Copy-115" fill="#FFD6E8" x="133" y="0" width="16" height="16"></rect>
            <rect id="Rectangle-2-Copy-123" fill="#FFD6E8" x="133" y="33" width="16" height="16"></rect>
            <rect id="Rectangle-2-Copy-127" fill="#FFD6E8" x="133" y="17" width="16" height="15"></rect>
            <rect id="Rectangle-2-Copy-129" fill="#FFD6E8" x="133" y="50" width="16" height="16"></rect>
            <rect id="Rectangle-2-Copy-130" fill="#FFAFD2" x="100" y="67" width="16" height="15"></rect>
            <rect id="Rectangle-2-Copy-131" fill="#FFD6E8" x="100" y="83" width="16" height="16"></rect>
            <rect id="Rectangle-2-Copy-132" fill="#FF7EB6" x="117" y="67" width="15" height="15"></rect>
            <rect id="Rectangle-2-Copy-133" fill="#FFD6E8" x="117" y="83" width="15" height="16"></rect>
            <rect id="Rectangle-2-Copy-135" fill="#FFD6E8" x="133" y="67" width="16" height="15"></rect>
            <rect id="Rectangle-2-Copy-136" fill="#FFD6E8" x="133" y="83" width="16" height="16"></rect>
        </g>
    </g>
</svg>