<?xml version="1.0" encoding="UTF-8"?>
<svg width="320px" height="180px" viewBox="0 0 320 180" version="1.1" xmlns="http://www.w3.org/2000/svg" xmlns:xlink="http://www.w3.org/1999/xlink">
    <title>histogram</title>
    <g id="histogram" stroke="none" stroke-width="1" fill="none" fill-rule="evenodd">
        <rect id="Rectangle-9-Copy-44" fill="#005D5D" x="86.5" y="94.3636364" width="6" height="43.6363636"></rect>
        <rect id="Rectangle-9-Copy-48" fill="#005D5D" x="93.5" y="112.909091" width="6" height="25.0909091"></rect>
        <rect id="Rectangle-9-Copy-45" fill="#005D5D" x="100.5" y="84.5454545" width="6" height="53.4545455"></rect>
        <rect id="Rectangle-9-Copy-54" fill="#005D5D" x="107.5" y="98.7272727" width="6" height="39.2727273"></rect>
        <rect id="Rectangle-9-Copy-46" fill="#005D5D" x="163.5" y="90" width="6" height="48"></rect>
        <rect id="Rectangle-9-Copy-47" fill="#005D5D" x="114.5" y="75.8181818" width="6" height="62.1818182"></rect>
        <rect id="Rectangle-9-Copy-49" fill="#005D5D" x="156.5" y="112.909091" width="6" height="25.0909091"></rect>
        <rect id="Rectangle-9-Copy-50" fill="#005D5D" x="121.5" y="105.272727" width="6" height="32.7272727"></rect>
        <rect id="Rectangle-9-Copy-51" fill="#005D5D" x="170.5" y="105.272727" width="6" height="32.7272727"></rect>
        <rect id="Rectangle-9-Copy-52" fill="#005D5D" x="128.5" y="80.1818182" width="6" height="57.8181818"></rect>
        <rect id="Rectangle-9-Copy-53" fill="#005D5D" x="135.5" y="120.545455" width="6" height="17.4545455"></rect>
        <rect id="Rectangle-9-Copy-55" fill="#005D5D" x="149.5" y="98.7272727" width="6" height="39.2727273"></rect>
        <rect id="Rectangle-9-Copy-56" fill="#005D5D" x="177.5" y="95.4545455" width="6" height="42.5454545"></rect>
        <rect id="Rectangle-9-Copy-57" fill="#005D5D" x="142.5" y="123.818182" width="6" height="14.1818182"></rect>
        <rect id="Rectangle-9-Copy-58" fill="#005D5D" x="205.5" y="67.0909091" width="6" height="70.9090909"></rect>
        <rect id="Rectangle-9-Copy-59" fill="#005D5D" x="212.5" y="73.6363636" width="6" height="64.3636364"></rect>
        <rect id="Rectangle-9-Copy-60" fill="#005D5D" x="191.5" y="52.9090909" width="6" height="85.0909091"></rect>
        <rect id="Rectangle-9-Copy-61" fill="#005D5D" x="226.5" y="42" width="6" height="96"></rect>
        <rect id="Rectangle-9-Copy-62" fill="#005D5D" x="198.5" y="105.272727" width="6" height="32.7272727"></rect>
        <rect id="Rectangle-9-Copy-63" fill="#005D5D" x="184.5" y="123.818182" width="6" height="14.1818182"></rect>
        <rect id="Rectangle-9-Copy-64" fill="#005D5D" x="219.5" y="95.4545455" width="6" height="42.5454545"></rect>
    </g>
</svg>