<?xml version="1.0" encoding="UTF-8"?>
<svg width="320px" height="180px" viewBox="0 0 320 180" version="1.1" xmlns="http://www.w3.org/2000/svg" xmlns:xlink="http://www.w3.org/1999/xlink">
    <title>line</title>
    <g id="line" stroke="none" stroke-width="1" fill="none" fill-rule="evenodd">
        <path d="M74,131 L101,139 L152,43 L201,73 C232.333333,75 248,76 248,76" id="Line" stroke="#6929C4" stroke-width="1.5" stroke-linecap="square"></path>
        <ellipse id="Oval-4" stroke="#6929C4" stroke-width="1.5" fill="#FFFFFF" cx="100.012916" cy="137.275278" rx="3.2512355" ry="3.24958819"></ellipse>
        <ellipse id="Oval-4" stroke="#6929C4" stroke-width="1.5" fill="#FFFFFF" cx="152.398436" cy="43.9983532" rx="3.25" ry="3.2483532"></ellipse>
        <ellipse id="Oval-4" stroke="#6929C4" stroke-width="1.5" fill="#FFFFFF" cx="201.479923" cy="72.596101" rx="3.25" ry="3.2483532"></ellipse>
        <polygon id="Path" fill="#525252" fill-rule="nonzero" points="72 89.75 75 89.75 75 89.25 72 89.25"></polygon>
        <polygon id="Path" fill="#525252" fill-rule="nonzero" points="77 89.75 80 89.75 80 89.25 77 89.25"></polygon>
        <polygon id="Path" fill="#525252" fill-rule="nonzero" points="82 89.75 85 89.75 85 89.25 82 89.25"></polygon>
        <polygon id="Path" fill="#525252" fill-rule="nonzero" points="87 89.75 90 89.75 90 89.25 87 89.25"></polygon>
        <polygon id="Path" fill="#525252" fill-rule="nonzero" points="92 89.75 95 89.75 95 89.25 92 89.25"></polygon>
        <polygon id="Path" fill="#525252" fill-rule="nonzero" points="97 89.75 100 89.75 100 89.25 97 89.25"></polygon>
        <polygon id="Path" fill="#525252" fill-rule="nonzero" points="102 89.75 105 89.75 105 89.25 102 89.25"></polygon>
        <polygon id="Path" fill="#525252" fill-rule="nonzero" points="107 89.75 110 89.75 110 89.25 107 89.25"></polygon>
        <polygon id="Path" fill="#525252" fill-rule="nonzero" points="112 89.75 115 89.75 115 89.25 112 89.25"></polygon>
        <polygon id="Path" fill="#525252" fill-rule="nonzero" points="117 89.75 120 89.75 120 89.25 117 89.25"></polygon>
        <polygon id="Path" fill="#525252" fill-rule="nonzero" points="122 89.75 125 89.75 125 89.25 122 89.25"></polygon>
        <polygon id="Path" fill="#525252" fill-rule="nonzero" points="127 89.75 130 89.75 130 89.25 127 89.25"></polygon>
        <polygon id="Path" fill="#525252" fill-rule="nonzero" points="132 89.75 135 89.75 135 89.25 132 89.25"></polygon>
        <polygon id="Path" fill="#525252" fill-rule="nonzero" points="137 89.75 140 89.75 140 89.25 137 89.25"></polygon>
        <polygon id="Path" fill="#525252" fill-rule="nonzero" points="142 89.75 145 89.75 145 89.25 142 89.25"></polygon>
        <polygon id="Path" fill="#525252" fill-rule="nonzero" points="147 89.75 150 89.75 150 89.25 147 89.25"></polygon>
        <polygon id="Path" fill="#525252" fill-rule="nonzero" points="152 89.75 155 89.75 155 89.25 152 89.25"></polygon>
        <polygon id="Path" fill="#525252" fill-rule="nonzero" points="157 89.75 160 89.75 160 89.25 157 89.25"></polygon>
        <polygon id="Path" fill="#525252" fill-rule="nonzero" points="162 89.75 165 89.75 165 89.25 162 89.25"></polygon>
        <polygon id="Path" fill="#525252" fill-rule="nonzero" points="167 89.75 170 89.75 170 89.25 167 89.25"></polygon>
        <polygon id="Path" fill="#525252" fill-rule="nonzero" points="172 89.75 175 89.75 175 89.25 172 89.25"></polygon>
        <polygon id="Path" fill="#525252" fill-rule="nonzero" points="177 89.75 180 89.75 180 89.25 177 89.25"></polygon>
        <polygon id="Path" fill="#525252" fill-rule="nonzero" points="182 89.75 185 89.75 185 89.25 182 89.25"></polygon>
        <polygon id="Path" fill="#525252" fill-rule="nonzero" points="187 89.75 190 89.75 190 89.25 187 89.25"></polygon>
        <polygon id="Path" fill="#525252" fill-rule="nonzero" points="192 89.75 195 89.75 195 89.25 192 89.25"></polygon>
        <polygon id="Path" fill="#525252" fill-rule="nonzero" points="197 89.75 200 89.75 200 89.25 197 89.25"></polygon>
        <polygon id="Path" fill="#525252" fill-rule="nonzero" points="202 89.75 205 89.75 205 89.25 202 89.25"></polygon>
        <polygon id="Path" fill="#525252" fill-rule="nonzero" points="207 89.75 210 89.75 210 89.25 207 89.25"></polygon>
        <polygon id="Path" fill="#525252" fill-rule="nonzero" points="212 89.75 215 89.75 215 89.25 212 89.25"></polygon>
        <polygon id="Path" fill="#525252" fill-rule="nonzero" points="217 89.75 220 89.75 220 89.25 217 89.25"></polygon>
        <polygon id="Path" fill="#525252" fill-rule="nonzero" points="222 89.75 225 89.75 225 89.25 222 89.25"></polygon>
        <polygon id="Path" fill="#525252" fill-rule="nonzero" points="227 89.75 230 89.75 230 89.25 227 89.25"></polygon>
        <polygon id="Path" fill="#525252" fill-rule="nonzero" points="232 89.75 235 89.75 235 89.25 232 89.25"></polygon>
        <polygon id="Path" fill="#525252" fill-rule="nonzero" points="237 89.75 240 89.75 240 89.25 237 89.25"></polygon>
        <polygon id="Path" fill="#525252" fill-rule="nonzero" points="242 89.75 245 89.75 245 89.25 242 89.25"></polygon>
        <polygon id="Path" fill="#525252" fill-rule="nonzero" points="247 89.75 250 89.75 250 89.25 247 89.25"></polygon>
    </g>
</svg>