<?xml version="1.0" encoding="UTF-8"?>
<svg width="320px" height="180px" viewBox="0 0 320 180" version="1.1" xmlns="http://www.w3.org/2000/svg" xmlns:xlink="http://www.w3.org/1999/xlink">
    <title>meter</title>
    <defs>
        <circle id="path-1" cx="7" cy="7" r="6.125"></circle>
        <polygon id="path-3" points="6.50668244 3.15784391 7.49105744 3.15784391 7.49105744 10.8359689 6.50668244 10.8359689"></polygon>
        <circle id="path-5" cx="7" cy="7" r="6.125"></circle>
        <polygon id="path-7" points="6.125 9.40625 3.9375 7.21875 4.633125 6.5625 6.125 8.028125 9.366875 4.8125 10.0625 5.50375"></polygon>
        <circle id="path-9" cx="7" cy="7" r="6.125"></circle>
        <path d="M7,9.625 C7.36243687,9.625 7.65625,9.91881313 7.65625,10.28125 C7.65625,10.6436869 7.36243687,10.9375 7,10.9375 C6.63756313,10.9375 6.34375,10.6436869 6.34375,10.28125 C6.34375,9.91881313 6.63756313,9.625 7,9.625 Z M7.494375,3.5 L7.494375,8.3125 L6.51,8.3125 L6.51,3.5 L7.494375,3.5 Z" id="path-11"></path>
    </defs>
    <g id="meter" stroke="none" stroke-width="1" fill="none" fill-rule="evenodd">
        <rect id="Rectangle-9-Copy-2" fill="#E0E0E0" transform="translate(161.000000, 53.000000) rotate(90.000000) translate(-161.000000, -53.000000) " x="158" y="-35" width="6" height="176"></rect>
        <rect id="Rectangle-9-Copy-3" fill="#E0E0E0" transform="translate(160.000000, 91.000000) rotate(90.000000) translate(-160.000000, -91.000000) " x="157" y="3" width="6" height="176"></rect>
        <rect id="Rectangle-9-Copy-4" fill="#E0E0E0" transform="translate(160.000000, 129.000000) rotate(90.000000) translate(-160.000000, -129.000000) " x="157" y="41" width="6" height="176"></rect>
        <rect id="Rectangle-9-Copy-2" stroke="#8E6A00" stroke-width="0.5" fill="#F1C21B" transform="translate(109.000000, 90.597222) rotate(90.000000) translate(-109.000000, -90.597222) " x="106.25" y="54.25" width="5.5" height="72.6944444"></rect>
        <g id="icon/status/error-filled/16" transform="translate(234.000000, 107.000000)">
            <mask id="mask-2" fill="white">
                <use xlink:href="#path-1"></use>
            </mask>
            <use id="icon-color" fill="#DA1E28" xlink:href="#path-1"></use>
            <mask id="mask-4" fill="white">
                <use xlink:href="#path-3"></use>
            </mask>
            <use id="icon-color" fill="#FFFFFF" transform="translate(6.998870, 6.996906) rotate(-45.000000) translate(-6.998870, -6.996906) " xlink:href="#path-3"></use>
        </g>
        <g id="icon/status/checkmark-filled/16" transform="translate(235.000000, 31.000000)">
            <mask id="mask-6" fill="white">
                <use xlink:href="#path-5"></use>
            </mask>
            <use id="icon-color" fill="#24A148" xlink:href="#path-5"></use>
            <mask id="mask-8" fill="white">
                <use xlink:href="#path-7"></use>
            </mask>
            <use id="icon-color" fill="#FFFFFF" xlink:href="#path-7"></use>
        </g>
        <rect id="Rectangle-9-Copy-5" fill="#DA1E28" transform="translate(140.000000, 129.097222) rotate(90.000000) translate(-140.000000, -129.097222) " x="137" y="61" width="6" height="136.194444"></rect>
        <rect id="Rectangle-9-Copy-6" fill="#FFFFFF" transform="translate(141.000000, 136.097222) rotate(90.000000) translate(-141.000000, -136.097222) " x="137" y="68" width="8" height="136.194444"></rect>
        <rect id="Rectangle-9-Copy-3" fill="#24A148" transform="translate(93.000000, 53.250000) rotate(90.000000) translate(-93.000000, -53.250000) " x="90" y="32" width="6" height="42.5"></rect>
        <line x1="197.5" y1="94" x2="197.5" y2="88" id="Path-21-Copy-2-Copy" stroke="#001141" stroke-width="1.33574"></line>
        <line x1="230.5" y1="132" x2="230.5" y2="126" id="Path-21-Copy-2-Copy-2" stroke="#001141" stroke-width="1.33574"></line>
        <line x1="197.5" y1="56" x2="197.5" y2="50" id="Path-21-Copy-3-Copy" stroke="#001141" stroke-width="1.33574"></line>
        <g id="icon/status/warning-filled/16" transform="translate(235.000000, 69.000000)">
            <mask id="mask-10" fill="white">
                <use xlink:href="#path-9"></use>
            </mask>
            <use id="icon-color" fill="#FDD13A" xlink:href="#path-9"></use>
            <mask id="mask-12" fill="white">
                <use xlink:href="#path-11"></use>
            </mask>
            <use id="icon-color" fill="#000000" xlink:href="#path-11"></use>
        </g>
    </g>
</svg>