<?xml version="1.0" encoding="UTF-8"?>
<svg width="320px" height="180px" viewBox="0 0 320 180" version="1.1" xmlns="http://www.w3.org/2000/svg" xmlns:xlink="http://www.w3.org/1999/xlink">
    <title>network-diagram</title>
    <g id="network-diagram" stroke="none" stroke-width="1" fill="none" fill-rule="evenodd">
        <g id="Group-3" transform="translate(77.000000, 50.000000)">
            <rect id="Rectangle" stroke="#007D79" stroke-width="0.5" fill="#D9FBFB" x="0" y="0" width="25.6335079" height="10.9090909"></rect>
            <rect id="Rectangle-Copy-2" stroke="#007D79" stroke-width="0.5" fill="#D9FBFB" x="41.6544503" y="0" width="25.6335079" height="10.9090909"></rect>
            <rect id="Rectangle-Copy-6" stroke="#007D79" stroke-width="0.5" fill="#D9FBFB" x="83.3089005" y="0" width="25.6335079" height="10.9090909"></rect>
            <rect id="Rectangle-Copy-11" stroke="#007D79" stroke-width="0.5" fill="#D9FBFB" x="83.3089005" y="34.5454545" width="25.6335079" height="10.9090909"></rect>
            <rect id="Rectangle-Copy-10" stroke="#007D79" stroke-width="0.5" fill="#D9FBFB" x="83.3089005" y="17.2727273" width="25.6335079" height="10.9090909"></rect>
            <rect id="Rectangle-Copy-16" stroke="#007D79" stroke-width="0.5" fill="#D9FBFB" x="127.366492" y="34.5454545" width="25.6335079" height="10.9090909"></rect>
            <rect id="Rectangle-Copy-17" stroke="#007D79" stroke-width="0.5" fill="#D9FBFB" x="127.366492" y="51.8181818" width="25.6335079" height="10.9090909"></rect>
            <rect id="Rectangle-Copy-18" stroke="#007D79" stroke-width="0.5" fill="#D9FBFB" x="127.366492" y="69.0909091" width="25.6335079" height="10.9090909"></rect>
            <rect id="Rectangle-Copy-23" stroke="#007D79" stroke-width="0.5" fill="#D9FBFB" x="127.366492" y="0" width="25.6335079" height="10.9090909"></rect>
            <rect id="Rectangle-Copy-24" x="153.366492" y="0" width="12.633508" height="10.9090909"></rect>
            <rect id="Rectangle-Copy-3" stroke="#007D79" stroke-width="0.5" fill="#D9FBFB" x="41.6544503" y="17.2727273" width="25.6335079" height="10.9090909"></rect>
            <rect id="Rectangle-Copy-5" stroke="#007D79" stroke-width="0.5" fill="#D9FBFB" x="41.6544503" y="34.5454545" width="25.6335079" height="10.9090909"></rect>
            <rect id="Rectangle-Copy-12" stroke="#007D79" stroke-width="0.5" fill="#D9FBFB" x="41.6544503" y="69.0909091" width="25.6335079" height="10.9090909"></rect>
            <rect id="Rectangle-Copy-9" stroke="#007D79" stroke-width="0.5" fill="#D9FBFB" x="41.6544503" y="51.8181818" width="25.6335079" height="10.9090909"></rect>
            <path d="M109.743455,8.18181818 L115.624084,8.18181818 C116.436029,8.18181818 117.094241,8.83304036 117.094241,9.63636364 L117.094241,22.1074115 C117.094241,22.8352169 117.661342,23.6363636 118.577246,23.6363636 C119.187848,23.6363636 121.049534,23.6363636 124.162304,23.6363636" id="Rectangle-Copy-15" stroke="#005D5D" stroke-width="0.6" stroke-dasharray="0.6400000095367432,0.6400000095367432" transform="translate(116.952880, 15.909091) scale(1, -1) translate(-116.952880, -15.909091) "></path>
            <g id="Group-2" transform="translate(25.633508, 2.108480)">
                <line x1="0" y1="1.52788388" x2="14.4188482" y2="1.52788388" id="Path-2" stroke="#8D8D8D" stroke-width="0.6"></line>
                <polygon id="Rectangle-Copy-13" fill="#005D5D" transform="translate(14.653154, 1.527884) scale(-1, 1) translate(-14.653154, -1.527884) " points="15.8547251 -1.73732092e-13 15.8547251 3.05576776 13.4515838 1.52788388"></polygon>
            </g>
            <g id="Group-2-Copy" transform="translate(67.287958, 2.108480)">
                <line x1="0" y1="1.52788388" x2="14.4188482" y2="1.52788388" id="Path-2" stroke="#005D5D" stroke-width="0.6"></line>
                <polygon id="Rectangle-Copy-13" fill="#005D5D" transform="translate(14.653154, 1.527884) scale(-1, 1) translate(-14.653154, -1.527884) " points="15.8547251 -1.73732092e-13 15.8547251 3.05576776 13.4515838 1.52788388"></polygon>
            </g>
            <g id="Group-2-Copy-4" transform="translate(118.471865, 3.636364) scale(-1, 1) translate(-118.471865, -3.636364) translate(108.942408, 2.108480)">
                <line x1="0" y1="1.52788388" x2="16.8219895" y2="1.52788388" id="Path-2" stroke="#005D5D" stroke-width="0.6"></line>
                <polygon id="Rectangle-Copy-13" fill="#005D5D" transform="translate(17.857343, 1.527884) scale(-1, 1) translate(-17.857343, -1.527884) " points="19.0589136 -1.73732092e-13 19.0589136 3.05576776 16.6557723 1.52788388"></polygon>
            </g>
            <g id="Group-2-Copy-5" transform="translate(118.471865, 38.181818) scale(-1, 1) translate(-118.471865, -38.181818) translate(108.942408, 36.653934)">
                <line x1="0" y1="1.52788388" x2="16.8219895" y2="1.52788388" id="Path-2" stroke="#005D5D" stroke-width="0.6"></line>
                <polygon id="Rectangle-Copy-13" fill="#005D5D" transform="translate(17.857343, 1.527884) scale(-1, 1) translate(-17.857343, -1.527884) " points="19.0589136 -1.73732092e-13 19.0589136 3.05576776 16.6557723 1.52788388"></polygon>
            </g>
            <g id="Group-2-Copy-2" transform="translate(67.287958, 19.381207)">
                <line x1="0" y1="1.52788388" x2="14.4188482" y2="1.52788388" id="Path-2" stroke="#005D5D" stroke-width="0.6"></line>
                <polygon id="Rectangle-Copy-13" fill="#005D5D" transform="translate(14.653154, 1.527884) scale(-1, 1) translate(-14.653154, -1.527884) " points="15.8547251 -1.73732092e-13 15.8547251 3.05576776 13.4515838 1.52788388"></polygon>
            </g>
            <g id="Group-2-Copy-3" transform="translate(67.287958, 36.653934)">
                <line x1="0" y1="1.52788388" x2="14.4188482" y2="1.52788388" id="Path-2" stroke="#005D5D" stroke-width="0.6"></line>
                <polygon id="Rectangle-Copy-13" fill="#005D5D" transform="translate(14.653154, 1.527884) scale(-1, 1) translate(-14.653154, -1.527884) " points="15.8547251 -1.73732092e-13 15.8547251 3.05576776 13.4515838 1.52788388"></polygon>
            </g>
            <polygon id="Rectangle-Copy-14" fill="#005D5D" transform="translate(40.286662, 20.909091) scale(-1, 1) translate(-40.286662, -20.909091) " points="41.488233 19.381207 41.488233 22.4369748 39.0850916 20.9090909"></polygon>
            <g id="Group" transform="translate(31.240838, 18.181818)">
                <polygon id="Rectangle-Copy-21" fill="#005D5D" transform="translate(9.045825, 20.000000) scale(-1, 1) translate(-9.045825, -20.000000) " points="10.2473953 18.4721161 10.2473953 21.5278839 7.84425393 20"></polygon>
                <path d="M0,0 L0,18.4 C1.082166e-16,19.2836556 0.7163444,20 1.6,20 L8.0104712,20 L8.0104712,20" id="Path-3-Copy" stroke="#005D5D" stroke-width="0.6"></path>
            </g>
            <g id="Group-Copy" transform="translate(31.240838, 35.454545)">
                <polygon id="Rectangle-Copy-21" fill="#005D5D" transform="translate(9.045825, 20.000000) scale(-1, 1) translate(-9.045825, -20.000000) " points="10.2473953 18.4721161 10.2473953 21.5278839 7.84425393 20"></polygon>
                <path d="M0,0 L0,18.4 C1.082166e-16,19.2836556 0.7163444,20 1.6,20 L8.0104712,20 L8.0104712,20" id="Path-3-Copy" stroke="#005D5D" stroke-width="0.6"></path>
            </g>
            <g id="Group-Copy-2" transform="translate(31.240838, 52.727273)">
                <polygon id="Rectangle-Copy-21" fill="#005D5D" transform="translate(9.045825, 20.000000) scale(-1, 1) translate(-9.045825, -20.000000) " points="10.2473953 18.4721161 10.2473953 21.5278839 7.84425393 20"></polygon>
                <path d="M0,0 L0,18.4 C1.082166e-16,19.2836556 0.7163444,20 1.6,20 L8.0104712,20 L8.0104712,20" id="Path-3-Copy" stroke="#005D5D" stroke-width="0.6"></path>
            </g>
            <g id="Group-Copy-3" transform="translate(118.554974, 52.727273)">
                <polygon id="Rectangle-Copy-21" fill="#005D5D" transform="translate(7.443730, 20.000000) scale(-1, 1) translate(-7.443730, -20.000000) " points="8.64530105 18.4721161 8.64530105 21.5278839 6.24215969 20"></polygon>
                <path d="M0,0 L0,18.4 C-1.63184838e-15,19.2836556 0.7163444,20 1.6,20 L6.40837696,20 L6.40837696,20" id="Path-3-Copy" stroke="#005D5D" stroke-width="0.6"></path>
            </g>
            <path d="M25.6335079,3.63636364 L29.6408377,3.63636364 C30.5244933,3.63636364 31.2408377,4.35270804 31.2408377,5.23636364 L31.2408377,19.3090909 C31.2408377,20.1927465 31.9571821,20.9090909 32.8408377,20.9090909 L39.2513089,20.9090909 L39.2513089,20.9090909" id="Path-3" stroke="#005D5D" stroke-width="0.6"></path>
            <path d="M112.947644,38.1818182 L116.954974,38.1818182 C117.838629,38.1818182 118.554974,38.8981626 118.554974,39.7818182 L118.554974,53.8545455 C118.554974,54.7382011 119.271318,55.4545455 120.154974,55.4545455 L126.565445,55.4545455 L126.565445,55.4545455" id="Path-3-Copy-2" stroke="#005D5D" stroke-width="0.6"></path>
            <polygon id="Rectangle-Copy-13" fill="#005D5D" transform="translate(125.998704, 55.454545) scale(-1, 1) translate(-125.998704, -55.454545) " points="127.200275 53.9266616 127.200275 56.9824293 124.797134 55.4545455"></polygon>
            <polygon id="Rectangle-Copy-19" fill="#005D5D" transform="translate(126.164921, 8.181818) scale(-1, 1) translate(-126.164921, -8.181818) " points="127.366492 6.6539343 127.366492 9.70970206 124.963351 8.18181818"></polygon>
        </g>
    </g>
</svg>