<?xml version="1.0" encoding="UTF-8"?>
<svg width="320px" height="180px" viewBox="0 0 320 180" version="1.1" xmlns="http://www.w3.org/2000/svg" xmlns:xlink="http://www.w3.org/1999/xlink">
    <title>radar</title>
    <g id="radar" stroke="none" stroke-width="1" fill="none" fill-rule="evenodd">
        <g id="Group" transform="translate(91.000000, 24.000000)">
            <polygon id="Polygon-Copy" stroke="#C6C6C6" stroke-width="0.9604" points="68.8437647 0 137.687529 50.0480353 111.391551 131.027458 26.2959782 131.027458 2.32639695e-13 50.0480353"></polygon>
            <polygon id="Polygon-Copy-2" stroke="#C6C6C6" stroke-width="0.9604" points="68.971109 18.7026184 121.708976 57.0419895 101.564904 119.076395 36.3773145 119.076395 16.2332417 57.0419895"></polygon>
            <line x1="68.9597648" y1="1.66511135" x2="69.7747148" y2="75.686828" id="Line-Copy-3" stroke="#C6C6C6" stroke-width="0.9604" stroke-linecap="square"></line>
            <polygon id="Polygon-Copy-3" stroke="#C6C6C6" stroke-width="0.9604" points="69.335821 36.324577 104.996665 62.2492946 91.3754344 104.196369 47.2962075 104.196369 33.6749773 62.2492946"></polygon>
            <polygon id="Polygon-Copy-4" stroke="#C6C6C6" stroke-width="0.9604" points="69.8380864 54.4874509 88.9241717 68.3626519 81.6339358 90.8131987 58.0422369 90.8131987 50.752001 68.3626519"></polygon>
            <line x1="26.4104573" y1="131.645829" x2="69.9681833" y2="76.2213564" id="Line-Copy-4" stroke="#C6C6C6" stroke-width="0.9604" stroke-linecap="square"></line>
            <line x1="111.154495" y1="132" x2="69.1713545" y2="75.4392291" id="Line-Copy-5" stroke="#C6C6C6" stroke-width="0.9604" stroke-linecap="square"></line>
            <line x1="137.747812" y1="51.2490364" x2="70.378075" y2="75.7934" id="Line-Copy-6" stroke="#C6C6C6" stroke-width="0.9604" stroke-linecap="square"></line>
            <line x1="0.526295218" y1="50.6472665" x2="70.7326526" y2="75.686828" id="Line-Copy-7" stroke="#C6C6C6" stroke-width="0.9604" stroke-linecap="square"></line>
            <path d="M68.5795772,18.2278337 C68.8537944,17.953931 130.507567,47.4346666 137.120356,50.5978423 L137.120356,50.5978423 L111.288983,130.273815 C108.261046,127.908416 97.2151942,119.281048 85.9568383,110.507133 L85.9568383,110.507133 L84.3377031,109.245436 L84.3377031,109.245436 L83.5315188,108.617554 C83.3972342,108.513012 83.2629978,108.408529 83.1288227,108.304114 L82.3246078,107.678529 C81.9229699,107.366225 81.5221135,107.054714 81.1223852,106.744255 L80.3245358,106.124821 C68.382442,96.8566959 57.6638532,88.6934674 57.5332247,88.6934674 C57.3944767,88.6934674 47.4024825,81.2417825 37.0164918,73.4680353 L35.8168979,72.5700408 C31.6159669,69.4248973 27.410114,66.2719504 23.8223627,63.5807855 L22.8146482,62.8248523 C19.0203418,59.9783863 16.038653,57.7394956 14.6881032,56.7251163 C17.7861365,54.5166708 29.3799006,46.2514186 41.024236,37.9425027 L42.542655,36.8589777 C55.6927412,27.4748477 68.4382374,18.3690114 68.5795772,18.2278337 Z" id="2-copy" stroke="#6929C4" stroke-width="1.4406" fill-opacity="0.3" fill="#6929C4"></path>
            <path d="M69.8195135,31.0005346 C69.9974941,31.1890836 70.1392693,31.3556057 70.3037938,31.5520394 C70.8758706,32.2350695 71.7069411,33.2614333 72.7254039,34.5371412 C75.1417045,37.5637549 78.608457,41.9887424 82.1753679,46.5675092 L82.1753679,46.5675092 L83.0032316,47.6306601 C83.1913461,47.8723357 83.3795348,48.1141712 83.5676597,48.3559858 L84.131705,49.0811855 C84.6952825,49.8059605 85.2570428,50.5289186 85.8132565,51.2451759 L86.3674832,51.9590188 L86.3674832,51.9590188 L86.9171836,52.6673093 C91.9328259,59.1312066 96.2735057,64.7584691 97.0668217,65.7872846 L97.0668217,65.7872846 L101.757681,121.024025 C98.5828774,120.39777 87.8028912,118.271694 76.4210306,116.031019 L75.3354483,115.81732 L71.839994,115.129404 C71.3966222,115.042165 70.9537524,114.955046 70.5117905,114.868125 L69.6291976,114.694574 C56.4120713,112.095984 44.2556853,109.724163 44.1220955,109.724163 C44.1013051,109.724163 43.970617,108.841757 43.7301296,108.432955 C43.0566166,107.288058 42.076553,105.594619 40.8786678,103.510482 C38.2002133,98.8503801 34.4339944,92.2390644 30.5699762,85.4370654 L29.7694535,84.0276119 L28.8543678,82.4158503 C28.3234981,81.4806401 27.7935385,80.5467333 27.2670414,79.6186679 L26.741793,78.6927179 C21.0661536,68.686329 15.8967316,59.5430547 14.4787262,57.0329822 C17.3542807,55.6890376 28.5890991,50.4372909 40.2331732,44.9815355 L40.2331732,44.9815355 L41.9232942,44.1895521 C42.8933597,43.7349315 43.8634499,43.2799916 44.8290872,42.8268479 L45.7930745,42.3743813 C56.8580441,37.1797035 67.1367433,32.3158492 69.8195135,31.0005346 Z" id="2-copy-3" stroke="#009D9A" stroke-width="1.4406" fill-opacity="0.3" fill="#009D9A"></path>
        </g>
    </g>
</svg>