<?xml version="1.0" encoding="UTF-8"?>
<svg width="320px" height="180px" viewBox="0 0 320 180" version="1.1" xmlns="http://www.w3.org/2000/svg" xmlns:xlink="http://www.w3.org/1999/xlink">
    <title>tree-diagram</title>
    <g id="tree-diagram" stroke="none" stroke-width="1" fill="none" fill-rule="evenodd">
        <path d="M172.5,75 C201.166667,75 186.833333,65 215.5,65" id="line-copy-9" stroke="#8D8D8D" stroke-width="0.75" stroke-linecap="round" stroke-linejoin="round" transform="translate(194.000000, 70.000000) scale(1, -1) translate(-194.000000, -70.000000) "></path>
        <path d="M172.5,95 C201.166667,95 186.833333,65 215.5,65" id="line-copy-10" stroke="#8D8D8D" stroke-width="0.75" stroke-linecap="round" stroke-linejoin="round" transform="translate(194.000000, 80.000000) scale(1, -1) translate(-194.000000, -80.000000) "></path>
        <line x1="172.5" y1="65" x2="215.5" y2="65" id="line-copy-11" stroke="#8D8D8D" stroke-width="0.75" stroke-linecap="round" stroke-linejoin="round" transform="translate(194.000000, 65.000000) scale(1, -1) translate(-194.000000, -65.000000) "></line>
        <path d="M172.5,85 C201.166667,85 186.833333,65 215.5,65" id="line-copy-12" stroke="#8D8D8D" stroke-width="0.75" stroke-linecap="round" stroke-linejoin="round" transform="translate(194.000000, 75.000000) scale(1, -1) translate(-194.000000, -75.000000) "></path>
        <path d="M172.5,65 C201.166667,65 186.833333,55 215.5,55" id="line-copy-13" stroke="#8D8D8D" stroke-width="0.75" stroke-linecap="round" stroke-linejoin="round"></path>
        <path d="M172.5,65 C201.166667,65 186.833333,45 215.5,45" id="line-copy-14" stroke="#8D8D8D" stroke-width="0.75" stroke-linecap="round" stroke-linejoin="round"></path>
        <path d="M172.5,65 C201.166667,65 186.833333,35 215.5,35" id="line-copy-15" stroke="#8D8D8D" stroke-width="0.75" stroke-linecap="round" stroke-linejoin="round"></path>
        <circle id="Oval-Copy-11" fill="#A8A8A8" cx="217.5" cy="35" r="2"></circle>
        <rect id="Rectangle-Copy-203" fill="#A8A8A8" x="223.5" y="33" width="24" height="4"></rect>
        <circle id="Oval-Copy-12" fill="#A8A8A8" cx="217.5" cy="55" r="2"></circle>
        <rect id="Rectangle-Copy-204" fill="#A8A8A8" x="223.5" y="53" width="28" height="4"></rect>
        <circle id="Oval-Copy-13" fill="#A8A8A8" cx="217.5" cy="65" r="2"></circle>
        <rect id="Rectangle-Copy-205" fill="#A8A8A8" x="223.5" y="63" width="28" height="4"></rect>
        <circle id="Oval-Copy-14" fill="#A8A8A8" cx="217.5" cy="75" r="2"></circle>
        <rect id="Rectangle-Copy-206" fill="#A8A8A8" x="223.5" y="73" width="28" height="4"></rect>
        <circle id="Oval-Copy-15" fill="#A8A8A8" cx="217.5" cy="95" r="2"></circle>
        <rect id="Rectangle-Copy-207" fill="#A8A8A8" x="223.5" y="93" width="28" height="4"></rect>
        <circle id="Oval-Copy-16" fill="#A8A8A8" cx="217.5" cy="85" r="2"></circle>
        <rect id="Rectangle-Copy-208" fill="#A8A8A8" x="223.5" y="83" width="21" height="4"></rect>
        <circle id="Oval-Copy-17" fill="#A8A8A8" cx="217.5" cy="45" r="2"></circle>
        <rect id="Rectangle-Copy-209" fill="#A8A8A8" x="223.5" y="43" width="21" height="4"></rect>
        <circle id="Oval-Copy-18" fill="#A8A8A8" cx="217.5" cy="135" r="2"></circle>
        <rect id="Rectangle-Copy-210" fill="#A8A8A8" x="223.5" y="133" width="17" height="4"></rect>
        <circle id="Oval-Copy-20" fill="#A8A8A8" cx="217.5" cy="125" r="2"></circle>
        <rect id="Rectangle-Copy-211" fill="#A8A8A8" x="223.5" y="123" width="17" height="4"></rect>
        <path d="M172.5,145 C201.166667,145 186.833333,135 215.5,135" id="line-copy-16" stroke="#8D8D8D" stroke-width="0.75" stroke-linecap="round" stroke-linejoin="round" transform="translate(194.000000, 140.000000) scale(1, -1) translate(-194.000000, -140.000000) "></path>
        <path d="M172.5,135 C201.166667,135 186.833333,125 215.5,125" id="line-copy-17" stroke="#8D8D8D" stroke-width="0.75" stroke-linecap="round" stroke-linejoin="round"></path>
        <circle id="Oval-Copy-22" fill="#A8A8A8" cx="217.5" cy="145" r="2"></circle>
        <rect id="Rectangle-Copy-212" fill="#A8A8A8" x="223.5" y="143" width="17" height="4"></rect>
        <line x1="172.5" y1="135" x2="215.5" y2="135" id="line-copy-18" stroke="#8D8D8D" stroke-width="0.75" stroke-linecap="round" stroke-linejoin="round" transform="translate(194.000000, 135.000000) scale(1, -1) translate(-194.000000, -135.000000) "></line>
        <line x1="99.5" y1="108" x2="142.5" y2="108" id="line-copy-19" stroke="#525252" stroke-width="0.75" stroke-linecap="round" stroke-linejoin="round" transform="translate(121.000000, 108.000000) scale(1, -1) translate(-121.000000, -108.000000) "></line>
        <line x1="172.5" y1="108" x2="215.5" y2="108" id="line-copy-20" stroke="#8D8D8D" stroke-width="0.75" stroke-linecap="round" stroke-linejoin="round" transform="translate(194.000000, 108.000000) scale(1, -1) translate(-194.000000, -108.000000) "></line>
        <path d="M99.5,135 C128.166667,135 113.833333,108 142.5,108" id="line-copy-21" stroke="#525252" stroke-width="0.75" stroke-linecap="round" stroke-linejoin="round" transform="translate(121.000000, 121.500000) scale(1, -1) translate(-121.000000, -121.500000) "></path>
        <path d="M99.5,108 C128.166667,108 113.833333,65 142.5,65" id="line-copy-22" stroke="#525252" stroke-width="0.75" stroke-linecap="round" stroke-linejoin="round"></path>
        <circle id="Oval-Copy-23" fill="#525252" cx="97.5" cy="108" r="2"></circle>
        <rect id="Rectangle-Copy-213" fill="#6F6F6F" x="63.5" y="106" width="28" height="4"></rect>
        <circle id="Oval-Copy-34" fill="#525252" cx="170.5" cy="108" r="2"></circle>
        <rect id="Rectangle-Copy-214" fill="#6F6F6F" x="142.5" y="106" width="22" height="4"></rect>
        <circle id="Oval-Copy-35" fill="#525252" cx="170.5" cy="65" r="2"></circle>
        <rect id="Rectangle-Copy-215" fill="#6F6F6F" x="142.5" y="63" width="22" height="4"></rect>
        <circle id="Oval-Copy-60" fill="#525252" cx="170.5" cy="135" r="2"></circle>
        <rect id="Rectangle-Copy-216" fill="#6F6F6F" x="142.5" y="133" width="22" height="4"></rect>
        <circle id="Oval-Copy-68" fill="#A8A8A8" cx="217.5" cy="108" r="2"></circle>
        <rect id="Rectangle-Copy-217" fill="#A8A8A8" x="223.5" y="106" width="28" height="4"></rect>
    </g>
</svg>