<?xml version="1.0" encoding="UTF-8"?>
<svg width="240px" height="240px" viewBox="0 0 240 240" version="1.1" xmlns="http://www.w3.org/2000/svg" xmlns:xlink="http://www.w3.org/1999/xlink">
    <!-- Generator: Sketch 58 (84663) - https://sketch.com -->
    <title>Group 17barstack</title>
    <desc>Created with Sketch.</desc>
    <g id="Data-vis-pages" stroke="none" stroke-width="1" fill="none" fill-rule="evenodd">
        <g id="Dataviz-overview-1-Copy-2" transform="translate(40, 96)">
            <g id="Group-17">
                <g id="Group-16">
                    <rect id="Rectangle-9" fill="#97C1FF" x="145" y="22" width="4" height="68"></rect>
                    <rect id="Rectangle-9" fill="#0062FF" x="140" y="49" width="4" height="41"></rect>
                    <polygon id="Rectangle-9" fill="#97C1FF" points="117 9 121 9 121 90 117 90"></polygon>
                    <rect id="Rectangle-9" fill="#0062FF" x="112" y="28" width="4" height="62"></rect>
                    <polygon id="Rectangle-9" fill="#97C1FF" points="89 41 93 41 93 90 89 90"></polygon>
                    <rect id="Rectangle-9" fill="#0062FF" x="84" y="60" width="4" height="30"></rect>
                    <polygon id="Rectangle-9" fill="#97C1FF" points="62 34 66 34 66 90 62 90"></polygon>
                    <rect id="Rectangle-9" fill="#0062FF" x="57" y="72" width="4" height="18"></rect>
                    <polygon id="Rectangle-9" fill="#97C1FF" points="33 57 37 57 37 90 33 90"></polygon>
                    <rect id="Rectangle-9" fill="#0062FF" x="28" y="65" width="4" height="25"></rect>
                    <rect id="Rectangle-9" fill="#97C1FF" x="5" y="0" width="4" height="90"></rect>
                    <rect id="Rectangle-9-Copy" fill="#0062FF" x="0" y="40" width="4" height="50"></rect>
                </g>
            </g>
        </g>
    </g>
</svg>
