<svg xmlns="http://www.w3.org/2000/svg" width="240" height="240" viewBox="0 0 240 240">
  <g fill="none" fill-rule="evenodd">
    <circle cx="120.5" cy="137.5" r="56.5" fill="#FFF" fill-rule="nonzero"/>
    <path fill="#6EA6FF" fill-rule="nonzero" d="M120.312127,138.246 L148.286423,186.699793 C140.080514,191.344633 130.597451,193.996 120.495127,193.996 C89.6030797,193.996 64.5016362,169.203477 64.0026966,138.430331 L64.0011272,138.246 L120.312127,138.246 Z"/>
    <path fill="#0062FF" fill-rule="nonzero" d="M121.495127,81.0046791 C152.238098,81.5384611 176.995127,106.626074 176.995127,137.496 C176.995127,158.061759 166.007173,176.061144 149.581698,185.943723 L121.495127,137.295 L121.495127,81.0046791 Z"/>
    <path fill="#C9DEFF" fill-rule="nonzero" d="M105.377019,83.0413342 L119.767127,136.74625 L64,136.74625 C64.3334344,111.107885 81.7436868,89.5883341 105.377019,83.0413342 Z"/>
    <path fill="#97C1FF" fill-rule="nonzero" d="M119.995127,81 L119.995127,131.801 L106.828257,82.6601381 C110.914824,81.6449597 115.17713,81.0746439 119.560796,81.0035694 L119.995127,81 Z"/>
    <rect width="115" height="128" x="62" y="79"/>
  </g>
</svg>
