<?xml version="1.0" encoding="UTF-8"?>
<svg width="321px" height="320px" viewBox="0 0 321 320" version="1.1" xmlns="http://www.w3.org/2000/svg" xmlns:xlink="http://www.w3.org/1999/xlink">
    <!-- Generator: Sketch 61 (89581) - https://sketch.com -->
    <title>radar copy</title>
    <desc>Created with Sketch.</desc>
    <g id="radar-copy" stroke="none" stroke-width="1" fill="none" fill-rule="evenodd">
        <g id="Group" transform="translate(-1.000000, -3.000000)">
            <polygon id="Polygon-Copy" stroke="#9FC8FF" stroke-width="1.3460175" points="159.916538 73.3110529 256.650284 143.781459 219.701281 257.804971 100.131795 257.804971 63.1827916 143.781459"></polygon>
            <polygon id="Polygon-Copy-2" stroke="#9FC8FF" stroke-width="1.3460175" points="159.916538 96.9111193 233.9475 150.380945 205.670189 236.896939 114.162887 236.896939 85.8855752 150.380945"></polygon>
            <polygon id="Polygon-Copy-3" stroke="#9FC8FF" stroke-width="1.3460175" points="159.916538 119.793417 211.065203 156.810988 191.528151 216.706677 128.304924 216.706677 108.767873 156.810988"></polygon>
            <polygon id="Polygon-Copy-4" stroke="#9FC8FF" stroke-width="1.3460175" points="159.916538 141.329697 189.528923 162.92328 178.217998 197.862432 141.615077 197.862432 130.304153 162.92328"></polygon>
            <line x1="100.292652" y1="257.329655" x2="159.503074" y2="171.617231" id="Line-Copy-3" stroke="#9FC8FF" stroke-width="1.3460175" stroke-linecap="square"></line>
            <line x1="219.368188" y1="257.828347" x2="159.503074" y2="171.617231" id="Line-Copy-4" stroke="#9FC8FF" stroke-width="1.3460175" stroke-linecap="square"></line>
            <line x1="63.9222995" y1="144.62521" x2="159.503074" y2="171.617231" id="Line-Copy-5" stroke="#9FC8FF" stroke-width="1.3460175" stroke-linecap="square"></line>
            <line x1="160.079532" y1="74.3096044" x2="159.503074" y2="171.617231" id="Line-Copy-6" stroke="#9FC8FF" stroke-width="1.3460175" stroke-linecap="square"></line>
            <line x1="256.734988" y1="144.126517" x2="159.503074" y2="171.617231" id="Line-Copy-7" stroke="#9FC8FF" stroke-width="1.3460175" stroke-linecap="square"></line>
        </g>
        <polygon id="2-copy" stroke="#005EFF" stroke-width="2.01902625" fill-opacity="0.2" fill="#408BFC" fill-rule="nonzero" points="159.176083 116.795557 85.14512 147.75396 126.871663 213.708817 204.940678 233.89908 210.324748 153.13803"></polygon>
    </g>
</svg>