<?xml version="1.0" encoding="UTF-8"?>
<svg width="320px" height="180px" viewBox="0 0 320 180" version="1.1" xmlns="http://www.w3.org/2000/svg" xmlns:xlink="http://www.w3.org/1999/xlink">
    <title>geo-connection</title>
    <g id="geo-connection" stroke="none" stroke-width="1" fill="none" fill-rule="evenodd">
        <polyline id="Fill-59-Copy" stroke="#FFFFFF" stroke-width="0.584799207" fill="#E0E0E0" points="188.956571 86.8540281 189.71344 86.9397975 191.855868 86.9244816 192.478454 87.6719011 193.619862 87.2185483 194.657505 87.2185483 195.74703 86.7131211 196.439809 86.6273517 196.94032 86.679426 199.033917 85.4970328 200.416424 85.0467431 201.164137 84.1032791 200.645316 83.2026999 200.74908 82.3021206 201.164137 81.1932441 200.300452 80.1885162 200.507981 79.7719217 202.580215 79.80868 202.751121 78.8376472 202.235351 75.1924454 202.339116 73.6547216 200.47441 73.2258743 199.644295 72.6009826 198.368605 72.8766701 197.022721 72.8092798 195.847742 71.979154 194.086801 71.9087006 193.119351 71.5258012 192.740917 72.4294437 192.258718 72.8766701 192.188524 73.6057105 190.876211 73.676164 190.427583 74.1938439 188.013537 72.8092798 187.336017 72.7357632 187.171215 73.6057105 187.223097 74.5614273 186.460124 74.5614273 185.907732 75.5202073 184.802947 76.0654559 183.524204 77.6950756 183.524204 78.3169041 184.699183 78.9081007 184.836518 79.80868 184.354319 80.154821 183.283105 79.5299293 182.211891 79.8423751 181.107106 79.5299293 180.350237 79.6340779 178.830395 80.6388058 178.000281 80.8134079 177.243412 80.5683523 176.413297 80.7766496 175.72357 80.3263599 174.411256 80.1211259 173.135566 80.2926648 173.23933 80.9512517 172.928037 81.3310878 171.719488 81.0217051 171.063331 80.2926648 170.20575 80.611237 169.653357 80.8899878 169.40005 80.893051 169.992117 81.2973927 169.934132 81.9774219 170.48042 82.403206 170.446849 83.3007221 171.200666 83.3405436 171.789682 83.0985512 172.78765 84.069584 173.617765 83.3068485 174.377686 83.3068485 174.762224 84.1063423 174.786639 84.0757104 176.376674 84.7679924 178.867018 83.3099117 179.901609 83.5886624 181.561838 83.4508186 181.424503 84.4218514 183.77446 85.8094786 186.67986 86.3639169 188.269896 86.2260731 188.959623 86.8509649 188.956571 86.8540281"></polyline>
        <polyline id="Fill-61-Copy" stroke="#FFFFFF" stroke-width="0.584799207" fill="#E0E0E0" points="192.130538 58.9728289 192.478454 59.7325012 192.893511 59.2454532 193.723626 59.4016761 194.190565 59.1596837 196.146828 59.4568136 196.076634 60.0112519 196.906749 60.8628201 197.684981 60.7586714 198.39302 61.3682472 197.92608 62.4281126 198.307567 63.00093 198.652431 63.1939113 198.609704 64.1128698 199.265861 64.3916205 199.714489 63.9045725 200.334023 63.9045725 199.229238 62.449555 199.680918 62.1371091 201.924058 63.3838294 203.340136 63.2122905 203.095985 64.0424163 204.130576 64.8756053 205.92814 64.4590108 207.341166 64.9093004 210.243515 67.0229048 211.140771 68.582071 211.967833 68.6157661 212.382891 68.1317814 213.658581 68.1654765 214.384931 68.928212 214.659602 70.2116906 212.450032 70.0033934 211.415441 70.9376678 210.206892 71.0418164 208.861008 72.3926853 207.100066 72.6346777 205.271983 73.2932646 204.823355 72.9134285 203.718571 72.9471236 202.580215 73.7098591 200.47441 73.2258743 199.644295 72.6009826 198.368605 72.8766701 197.022721 72.8092798 195.847742 71.979154 194.086801 71.9087006 193.119351 71.5258012 192.740917 72.4294437 192.258718 72.8766701 192.188524 73.6057105 190.876211 73.676164 190.427583 74.1938439 188.013537 72.8092798 187.336017 72.7357632 187.345173 72.702068 185.425533 70.4781886 184.488602 69.8502337 182.846685 68.722978 181.912806 68.1991716 181.653395 67.4854473 181.723588 66.3214332 180.719516 64.7592039 179.456033 63.9934052 179.404151 63.2796808 179.82226 62.9672349 180.280044 63.3501342 181.073536 63.7299704 182.764283 62.1738674 183.594398 62.103414 184.525225 61.0282326 185.562868 60.9945374 186.078638 60.1981068 187.668673 60.1644116 188.358401 60.3359505 189.151892 59.8519658 189.151892 58.9850816 190.635112 59.3312226 191.257698 58.9146282 191.947425 59.2607692 192.130538 58.9728289"></polyline>
        <polyline id="Fill-64-Copy" stroke="#FFFFFF" stroke-width="0.584799207" fill="#E0E0E0" points="161.510911 80.265096 162.295247 80.500962 163.158932 80.0169772 164.333911 80.4305085 164.678774 79.8423751 164.57501 79.2542417 165.539408 78.9081007 165.887323 79.8423751 166.473287 80.0169772 166.955485 79.5636244 167.611642 79.6003828 168.923955 80.5683523 169.992117 81.2973927 169.924976 82.0938233 169.647254 82.7187151 169.958547 83.2731533 171.200666 83.3405436 171.789682 83.0985512 172.78765 84.069584 173.617765 83.3068485 174.377686 83.3068485 174.762224 84.1063423 173.819189 85.2550404 174.30444 86.7805114 172.436683 87.1971059 172.229154 89.0013276 171.399039 88.3059824 170.568925 88.3764359 168.493639 87.8219976 168.493639 89.1391714 167.526189 90.8760029 167.04399 89.9019069 165.521096 89.1391714 165.661483 88.0302949 164.553647 87.3349497 162.826276 90.3185014 161.581104 89.7640632 159.716399 91.1516904 158.684859 90.7657279 158.532265 89.9601076 157.982924 89.509818 157.635009 88.330488 157.15281 87.4299087 155.736732 87.3594552 155.080576 87.9506518 155.532255 89.1299818 154.357277 89.6109034 153.319634 89.509818 153.21587 88.7470825 153.771314 88.4683317 154.338966 88.5020269 154.320655 87.5677525 154.528183 86.1127349 155.773355 84.1369743 156.496653 83.8612867 157.42748 82.6482616 158.291165 82.2684254 158.117208 81.3678462 157.119239 80.847103 157.738773 80.0843675 158.843558 80.0169772 159.12128 80.6388058 159.981913 80.7429544 161.510911 80.265096"></polyline>
        <path d="M152.47426,59.5701518 L152.87711,58.5164128 L153.188403,56.9174251 L152.907629,55.5206083 L153.527163,54.7578728 L154.116178,53.7899032 L155.391868,53.4774574 L156.600417,53.7531449 L157.290145,53.3733087 L156.774375,52.4727295 L157.393909,52.0224398 L157.531244,50.9809536 L157.808967,50.3928202 L157.326768,49.9425305 L156.151789,49.9762257 L156.014454,49.3543971 L156.42646,48.4170595 L157.42748,48.8673492 L158.050066,48.3496692 L158.065325,47.4092684 L158.446812,46.5730162 L158.513953,46.0338939 L158.788624,45.6846897 L158.813039,45.4794557 L157.891368,45.1823258 L157.165017,44.5298653 L155.825237,43.8375833 L154.415263,44.0550701 L153.579045,44.7810473 L152.782501,44.4563486 L152.275887,44.7810473 L151.116168,44.8178056 L150.029695,46.018578 L148.290117,46.9651052 L147.926942,46.71086 L146.913714,47.1090753 L146.877091,48.2730894 L145.934057,48.9990665 L146.223986,50.1293854 L146.007302,51.1463661 L145.607504,51.9826183 L145.280952,52.5646253 L144.557654,53.109874 L144.594276,53.8389143 L145.68075,54.8191367 L146.660407,55.1101402 L145.570882,55.1101402 L145.064268,55.548177 L144.737715,55.8391806 L145.174136,56.3844292 L145.717372,56.4548827 L145.753995,56.9296779 L144.884206,56.9633731 L144.087662,56.1271209 L143.254496,55.7289055 L142.457952,56.0566674 L142.747882,56.4947042 L143.507803,56.5651577 L144.19753,57.2206814 L144.447785,57.1104064 L145.354197,57.7291718 L144.484408,57.4014099 L143.941171,57.4381683 L142.638014,57.0031946 L141.804847,57.0031946 L141.771277,57.0277001 L142.30841,57.2880717 L142.757038,57.9803537 L143.483388,57.9803537 L143.965587,58.5010969 L144.484408,57.9803537 L145.381664,57.8057516 L145.589193,57.496369 L146.27892,57.4259155 L146.556643,56.7336334 L148.177197,56.7673286 L148.729589,57.3217668 L149.559704,57.3217668 L150.008332,57.9803537 L151.284022,57.9099003 L151.717391,58.7063309 L151.662457,59.3159067 L152.47426,59.5701518 L152.47426,59.5701518 Z M143.324689,55.4287125 L144.157856,55.0672555 L144.517979,55.5726826 L144.047988,55.7013368 L143.886237,55.4654708 L143.324689,55.4287125 L143.324689,55.4287125 Z M143.742799,54.4515533 L144.411163,54.4668693 L145.296211,54.8313895 L145.11615,55.0672555 L144.627847,54.9569804 L144.481356,54.6659769 L143.904549,54.8681478 L143.742799,54.4515533 L143.742799,54.4515533 Z" id="Fill-65-Copy" stroke="#FFFFFF" stroke-width="0.584799207" fill="#E0E0E0"></path>
        <polygon id="Fill-71-Copy" stroke="#FFFFFF" stroke-width="0.584799207" fill="#E0E0E0" points="158.684859 90.7657279 158.532265 89.9601076 157.982924 89.509818 157.635009 88.330488 157.15281 87.4299087 155.736732 87.3594552 155.080576 87.9506518 155.532255 89.1299818 154.357277 89.6109034 153.319634 89.509818 153.21587 88.7470825 153.771314 88.4683317 154.338966 88.5020269 154.320655 87.5677525 154.528183 86.1127349 155.773355 84.1369743 156.496653 83.8612867 157.42748 82.6482616 158.291165 82.2684254 158.117208 81.3678462 157.119239 80.847103 157.738773 80.0843675 158.843558 80.0169772 159.12128 80.6388058 159.981913 80.7429544 161.535326 80.2589696 161.086698 79.321632 160.259635 78.8039521 160.189442 77.4163248 160.674693 75.7530101 161.327797 75.1311815 161.327797 74.4021411 161.846619 72.9471236 162.917833 71.8382471 161.983954 71.2164185 161.086698 71.2164185 159.948342 70.6956754 159.087709 70.9744261 158.465123 70.7293706 157.635009 70.7293706 156.841517 71.0081213 156.014454 70.3158393 156.014454 69.7246427 155.117198 69.0323606 154.424419 69.2069627 153.21587 68.9619072 152.666529 68.0613279 151.906608 68.0613279 151.491551 68.3400786 150.627866 67.7151869 149.663468 67.6477966 148.558683 66.2601693 147.936097 66.1223256 147.52104 65.6383408 146.935077 65.6383408 146.416255 65.9844818 145.415235 65.4637387 145.348093 64.1465649 144.691937 63.8371822 144.105974 63.3501342 143.516959 63.3838294 142.171074 62.2780161 142.000168 61.4815854 140.895384 61.0649909 140.687855 59.4016761 140.135463 58.9942712 139.992024 59.2546428 138.289068 59.839713 137.892322 59.5119511 136.515919 60.311445 136.189367 61.254909 136.406051 62.3852279 136.116122 64.1649441 134.739719 65.5127498 134.739719 66.0916936 133.216825 66.5297305 132.420281 66.5664888 131.550492 66.2754853 129.74072 67.2557076 129.3043 68.095023 129.630852 68.67703 130.464019 68.9680335 129.340922 69.7675274 127.964519 70.0585309 126.07845 69.8012225 125.245284 69.3662489 124.558608 69.7675274 124.268679 69.1120037 123.652197 68.6402717 123.942126 67.874473 123.182205 67.5099528 122.385662 67.8040195 121.259514 67.7672612 120.7529 67.5467111 121.079452 68.6402717 120.899391 69.1120037 122.492478 70.6037796 122.202548 71.0755116 122.419233 71.8045519 122.239171 72.5305291 122.745785 73.1860528 122.855653 74.022305 121.18932 73.801755 120.46297 74.0560001 119.776294 73.8752716 118.943128 74.0927585 118.616576 73.7649966 117.566725 74.6380071 116.226945 72.858291 115.463972 72.6040458 114.340876 72.858291 113.434464 73.6945431 112.964473 73.440298 112.421236 73.9487883 111.951245 73.6210265 110.971587 73.7313015 110.355105 74.3470036 108.905457 74.4572787 108.252352 75.2200142 108.615527 75.8387795 109.448694 75.547776 110.28186 75.8020212 110.498544 76.129783 109.595184 75.9490545 109.051948 76.019508 109.3785 76.9323401 109.66843 76.240058 110.245237 76.4575449 110.391728 77.0763102 109.848491 77.2937971 108.978702 77.6215589 109.015325 77.8758041 109.848491 77.8758041 110.211666 78.8958479 110.101798 79.4747918 111.081456 78.8223313 111.768131 79.0030598 112.347991 78.8958479 113.870884 79.5115501 114.194385 80.059862 114.810867 80.059862 115.860718 80.7490808 116.623691 80.059862 117.093682 80.1670738 116.91362 80.7123225 117.166927 81.0400843 117.963471 80.5683523 118.433462 81.0400843 118.073339 81.9835483 118.506708 82.6758303 119.086567 82.7125887 119.992979 82.1305817 120.972636 82.2408567 121.586066 83.0771089 120.826145 82.639072 119.956356 82.6758303 119.413119 83.4385659 119.919733 83.6591159 120.102847 84.6025799 119.666426 85.4020737 119.84954 86.0239023 120.646084 86.1311141 121.839373 87.62289 123.002144 87.8036185 124.122188 88.4591422 124.088617 89.2953943 124.521986 89.9846132 124.158811 90.9311404 123.942126 91.0414154 123.725442 91.8776676 124.521986 92.0583961 125.971634 93.1856518 127.09473 95.9149583 125.861766 94.714186 125.535214 93.550172 124.558608 93.0416816 124.088617 93.3663803 123.615574 95.767925 123.652197 97.513946 124.412118 98.0224364 123.795636 98.4972316 123.54538 101.768724 122.675591 104.605242 121.567755 105.266892 122.391765 105.723308 122.49553 105.965301 123.084545 106.069449 123.255451 107.074177 123.118116 107.836913 124.534193 107.66231 126.429418 108.425046 127.329726 109.396079 128.294124 108.945789 129.365338 110.054666 130.677651 110.017907 131.333808 110.367111 132.16087 109.500227 134.336869 109.429774 135.163931 109.880064 136.476245 109.74222 137.858752 110.504955 140.09884 110.296658 141.688876 111.264628 142.290098 111.469862 142.238216 111.007319 141.878093 109.622755 142.238216 107.987009 142.348084 107.187515 143.434557 106.20423 145.10089 104.42145 145.647179 104.387755 146.190416 104.785971 147.276889 104.933004 148.433556 105.625286 149.233151 105.625286 149.95645 105.040216 150.646177 104.969762 153.542422 106.786237 154.342018 107.478519 156.478342 107.585731 157.384754 106.822995 157.20164 106.351263 158.037858 105.297524 161.043972 103.039949 161.214877 103.012381 160.891377 101.977021 161.513963 100.522003 160.061262 100.522003 158.538369 99.4805171 158.33084 96.9809501 157.155862 95.7311667 157.848641 94.9684312 158.953426 94.8305874 159.231148 93.2346629 158.33084 92.4014739 158.193505 91.2221439 158.608562 90.7350959"></polygon>
        <polygon id="Path" fill="#E0E0E0" points="168.68896 117.185783 167.239311 116.570081 166.986004 116.132044 167.312557 115.623554 167.67268 115.69707 167.419373 115.259034 167.095872 115.259034 167.129443 114.606573 166.47939 114.242053 166.189461 113.770321 166.549584 113.549771 166.549584 113.188314 165.862908 112.823794 165.682847 112.131512 166.226083 112.131512 166.406145 111.696538 165.862908 111.188048 166.516013 110.024034 167.965661 109.515543 168.542469 108.933536 169.12538 109.549238 169.485503 109.549238 169.631994 108.676228 169.342065 108.060526 169.522126 107.224274 169.992117 107.224274 170.245424 108.605774 170.138608 109.843305 170.645222 111.770055 170.065363 113.987808 170.101986 115.225338 169.595372 116.750809"></polygon>
        <polygon id="Fill-62-Copy" stroke="#FFFFFF" stroke-width="0.584799207" fill="#E0E0E0" points="164.712345 33.3124459 166.473287 33.7964307 166.992108 34.038423 167.83443 33.8913897 168.759153 34.8899912 169.702188 35.0002662 169.195574 36.0907636 168.725582 36.5655588 168.978889 37.1077442 169.73881 37.3282943 170.025688 38.1308513 170.767298 37.5856026 171.020605 37.0801755 171.472285 36.8075512 171.83546 37.3160415 173.044009 38.1859888 173.297316 37.8398478 174.057237 37.2425248 174.435671 37.4600117 174.453983 38.2748215 173.819189 39.037557 173.242382 38.9487243 172.393956 39.5276682 173.602505 39.8891251 174.038926 39.6900175 174.905663 39.7819133 175.210852 40.3087828 176.205769 40.216887 176.367519 39.5276682 177.035883 38.6025833 178.787669 38.329959 178.842603 37.8949853 179.800897 37.4048741 179.907713 36.914763 180.32277 36.6972761 181.570994 36.8259303 180.576077 37.2241457 180.215954 37.6039818 180.054204 37.4783908 179.559797 37.9807548 179.919921 38.345275 180.899578 37.6560561 181.949428 37.5457811 182.382797 37.3282943 182.709349 37.8367846 183.545568 37.9807548 184.738857 39.1815271 185.718514 39.0007986 186.261751 39.8370508 186.078638 40.7468197 186.948427 41.4360385 187.748022 41.3288267 188.327882 41.837317 189.191567 41.7913691 189.704285 43.9478583 189.56695 45.5407196 188.218014 46.2360648 188.218014 46.8946517 189.704285 48.487513 189.530327 49.4585458 190.220054 50.359125 190.220054 51.0851022 190.635112 52.0898301 190.256677 52.9230191 191.120362 54.8987797 191.752104 55.247984 192.322808 55.9954035 192.393001 58.550108 191.947425 59.2607692 191.257698 58.9146282 190.635112 59.3312226 189.151892 58.9850816 189.151892 59.8519658 188.358401 60.3359505 187.668673 60.1644116 186.078638 60.1981068 185.562868 60.9945374 184.525225 61.0282326 183.594398 62.103414 182.764283 62.1738674 181.073536 63.7299704 180.280044 63.3501342 179.82226 62.9672349 179.404151 63.2796808 179.456033 63.9934052 180.719516 64.7592039 181.723588 66.3214332 181.653395 67.4854473 181.912806 68.1991716 182.846685 68.722978 184.488602 69.8502337 185.425533 70.4781886 187.345173 72.702068 187.171215 73.6057105 187.223097 74.5614273 186.460124 74.5614273 185.907732 75.5202073 184.802947 76.0654559 183.524204 77.6950756 183.524204 78.3169041 184.699183 78.9081007 184.836518 79.80868 184.354319 80.154821 183.283105 79.5299293 182.211891 79.8423751 181.107106 79.5299293 180.350237 79.6340779 178.830395 80.6388058 178.000281 80.8134079 177.243412 80.5683523 176.413297 80.7766496 175.72357 80.3263599 174.411256 80.1211259 173.135566 80.2926648 173.23933 80.9512517 172.928037 81.3310878 171.719488 81.0217051 171.063331 80.2926648 170.20575 80.611237 169.653357 80.8899878 169.40005 80.893051 168.923955 80.5683523 167.611642 79.6003828 166.955485 79.5636244 166.473287 80.0169772 165.887323 79.8423751 165.539408 78.9081007 164.57501 79.2542417 164.678774 79.8423751 164.333911 80.4305085 163.158932 80.0169772 162.295247 80.500962 161.510911 80.265096 161.086698 79.321632 160.259635 78.8039521 160.189442 77.4163248 160.674693 75.7530101 161.327797 75.1311815 161.327797 74.4021411 161.846619 72.9471236 162.917833 71.8382471 161.983954 71.2164185 161.086698 71.2164185 159.948342 70.6956754 159.087709 70.9744261 158.465123 70.7293706 157.635009 70.7293706 156.841517 71.0081213 156.014454 70.3158393 156.014454 69.7246427 155.117198 69.0323606 155.18434 67.5099528 154.66857 67.0566 154.461042 66.0181769 153.319634 64.5968545 153.011393 64.5968545 153.563785 63.282744 152.97477 62.3791015 153.011393 61.7909681 152.285043 60.3022554 152.596336 59.6099734 152.47426 59.5701518 152.87711 58.5164128 153.188403 56.9174251 152.907629 55.5206083 153.527163 54.7578728 154.116178 53.7899032 155.391868 53.4774574 156.600417 53.7531449 157.290145 53.3733087 156.774375 52.4727295 157.393909 52.0224398 157.531244 50.9809536 157.808967 50.3928202 157.326768 49.9425305 156.151789 49.9762257 156.014454 49.3543971 156.42646 48.4170595 157.42748 48.8673492 158.050066 48.3496692 158.065325 47.4092684 158.446812 46.5730162 158.513953 46.0338939 158.788624 45.6846897 158.813039 45.4794557 158.687911 44.6003188 157.638061 44.4195903 157.20164 43.5833381 157.384754 42.6368109 159.521078 42.0548039 160.13756 41.7638004 161.190462 42.5265359 161.190462 43.6200964 161.987006 44.5635604 162.456997 44.0550701 162.023629 43.2188179 162.023629 42.5265359 162.456997 42.3458074 163.143673 42.9645727 163.073479 44.0550701 164.12333 45.2558425 163.689961 44.3460736 163.653339 42.9645727 163.470225 42.1650789 164.050085 41.2185517 164.810006 41.0745815 165.572979 41.4727969 166.586207 41.0745815 168.096893 42.7409595 170.175231 43.1453012 168.197605 42.3213018 166.696075 40.7468197 165.536356 40.673303 164.886303 40.2720245 164.886303 39.5828057 165.646224 39.0007986 164.776435 38.45555 164.776435 37.3282943 163.943268 37.6897513 163.906646 36.8534991 164.703189 36.8534991 165.572979 36.5288004 164.523128 35.5455149 164.593321 34.8562961 164.086707 34.8195377 163.433603 34.3815009 163.506848 33.582007 163.451914 33.3737098"></polygon>
        <path d="M161.214877,103.012381 L160.891377,101.977021 L161.513963,100.522003 L160.061262,100.522003 L158.538369,99.4805171 L158.33084,96.9809501 L157.155862,95.7311667 L157.848641,94.9684312 L158.953426,94.8305874 L159.231148,93.2346629 L158.33084,92.4014739 L158.193505,91.2221439 L158.608562,90.7350959 L159.716399,91.1516904 L161.581104,89.7640632 L162.826276,90.3185014 L164.553647,87.3349497 L165.661483,88.0302949 L165.521096,89.1391714 L167.04399,89.9019069 L167.526189,90.8760029 L168.493639,89.1391714 L168.493639,87.8219976 L170.568925,88.3764359 L171.399039,88.3059824 L172.229154,89.0013276 L172.436683,87.1971059 L174.30444,86.7805114 L173.819189,85.2550404 L174.786639,84.0757104 L176.376674,84.7679924 L178.867018,83.3099117 L179.901609,83.5886624 L181.561838,83.4508186 L181.424503,84.4218514 L183.77446,85.8094786 L186.67986,86.3639169 L188.269896,86.2260731 L188.959623,86.8509649 L187.854838,88.4468894 L188.199702,89.2096249 L187.577116,90.1806577 L187.812112,91.8194669 L186.731742,91.5499057 L186.078638,91.8776676 L185.391962,92.5668864 L184.342111,92.5668864 L183.362454,93.4398969 L182.312603,93.5869303 L181.949428,94.3129075 L182.456042,95.3329513 L183.109147,96.1692035 L182.382797,97.2597009 L181.949428,97.6211579 L182.492665,98.8249934 L182.636104,100.203431 L183.14577,100.932471 L185.245471,102.059727 L186.40519,102.678493 L186.985049,103.477986 L190.101031,106.642267 L190.174276,107.478519 L190.571022,107.696006 L190.607645,108.676228 L191.260749,109.622755 L192.130538,110.514145 L192.820266,111.586263 L194.224136,112.67676 L194.901656,113.375169 L195.789756,113.549771 L196.406239,113.923481 L198.219062,113.914291 L198.978983,114.131778 L200.138702,113.951049 L200.971868,114.386023 L200.788755,115.041547 L199.595465,115.877799 L199.558842,116.315836 L200.028834,117.078571 L201.008491,117.078571 L202.818263,117.513545 L206.587349,119.55057 L208.05836,120.65332 L209.013602,121.661111 L210.573119,122.059326 L211.363559,122.613764 L211.732838,123.260098 L211.586347,124.497629 L211.180445,125.088826 L211.296417,125.866877 L211.037006,126.078238 L210.997332,126.353925 L210.151958,126.001658 L209.486646,125.162342 L209.086848,124.280142 L209.20282,123.557228 L208.683998,123.244783 L207.203831,123.22334 L206.913901,122.788366 L205.934244,122.316634 L205.287243,122.405467 L204.84777,122.678091 L204.521218,123.842105 L203.977981,124.424113 L204.032915,125.045941 L203.871165,125.768855 L203.181438,126.24365 L203.18449,126.957375 L203.50799,127.441359 L204.267911,127.551634 L205.607691,128.82286 L205.873206,129.371172 L205.71756,130.60564 L205.970867,131.043677 L205.644314,131.732895 L204.811148,131.953445 L204.014604,132.789698 L203.907788,135.007451 L202.601578,136.06119 L202.421517,137.081233 L201.731789,138.024698 L200.355386,138.134973 L199.305535,137.081233 L199.268913,136.352193 L199.497805,135.987673 L200.077664,135.662974 L200.645316,135.007451 L200.76434,134.100745 L200.645316,133.154218 L200.919986,132.988805 L201.295369,132.970426 L201.805035,132.351661 L201.841657,131.47865 L201.295369,130.679156 L200.898623,128.969894 L200.392009,128.31437 L200.175325,126.859352 L199.738904,125.333881 L199.052228,124.898908 L198.50594,125.223606 L197.276028,124.932603 L196.87623,124.133109 L195.899625,124.059592 L195.426581,123.58786 L195.646318,123.186582 L195.753134,122.243118 L195.139704,121.443624 L194.269914,121.370107 L193.433696,121.406866 L193.506942,120.751342 L192.710398,120.460338 L192.167161,120.677825 L191.550679,120.27961 L190.537451,118.389619 L189.594417,118.316102 L188.617811,117.914824 L188.001329,118.496831 L187.13154,118.496831 L186.948427,117.697337 L186.151883,117.152088 L185.245471,117.005055 L183.362454,115.586795 L181.406192,113.078039 L180.78971,112.860552 L180.609648,112.094753 L179.739859,110.933803 L178.363456,110.897044 L178.216965,110.024034 L176.913807,108.786503 L176.187457,107.876734 L175.064361,107.331485 L175.100984,105.986743 L174.341063,105.515011 L174.30444,104.678759 L173.434651,103.2605 L173.047061,102.519206 L172.775443,102.00459 L172.375645,101.238791 L170.971775,100.822196 L170.02874,100.203431 L166.839514,99.3671789 L164.376637,100.74868 L164.340014,101.548174 L163.506848,102.604976 L161.214877,103.012381 L161.214877,103.012381 Z M164.721501,119.228934 L165.032794,119.182986 L165.109091,118.748013 L165.514993,118.297723 L165.136558,117.966898 L164.980912,118.435567 L164.684878,118.600979 L164.721501,119.228934 L164.721501,119.228934 Z M176.916859,111.393282 L177.472304,111.656717 L177.280034,111.221743 L176.916859,111.393282 L176.916859,111.393282 Z M173.114202,108.648659 L172.699145,109.083633 L173.217967,109.29193 L174.203728,108.942726 L174.963649,108.976421 L174.841573,108.455678 L174.392945,107.916556 L174.167105,108.229002 L173.114202,108.648659 L173.114202,108.648659 Z M167.202689,132.170932 L167.565864,131.953445 L168.035855,132.170932 L168.725582,131.879929 L168.798828,130.789431 L169.085706,130.133908 L169.992117,130.207424 L170.571977,130.789431 L171.115214,130.789431 L171.478389,130.097149 L171.478389,128.31437 L171.65845,127.80588 L171.441766,125.87913 L171.804941,124.133109 L170.571977,123.042612 L171.624879,122.35033 L171.768318,121.624352 L171.515011,120.497097 L170.898529,119.804815 L170.208802,118.533589 L169.848679,118.898109 L169.015512,118.242585 L168.289162,118.316102 L166.549584,120.389885 L165.789663,120.42358 L164.703189,119.768056 L164.703189,120.824859 L164.523128,121.514077 L165.283049,122.279876 L165.46311,123.005853 L166.079593,123.551102 L166.079593,124.678358 L165.392917,125.407398 L165.682847,125.989405 L166.622829,126.059859 L166.622829,126.461137 L166.04297,127.150356 L165.609601,128.82286 L166.009399,129.444689 L166.47939,131.408197 L167.202689,132.170932 L167.202689,132.170932 Z M197.529335,144.82499 L197.456089,143.627281 L197.929132,143.045274 L197.819264,141.988472 L196.949475,140.790762 L197.819264,138.462734 L198.689053,137.660177 L198.869115,136.388951 L198.145817,135.515941 L196.949475,136.679955 L196.442861,136.606438 L195.389959,136.024431 L194.376731,137.114929 L192.203784,136.970958 L190.427583,137.516207 L189.161048,137.261962 L188.254636,136.643197 L187.204786,136.753472 L186.621874,137.225204 L186.298374,136.787167 L185.138655,137.335479 L184.992164,138.897708 L186.008444,139.844235 L187.021672,139.663507 L188.834496,140.897974 L189.811101,141.152219 L190.717513,142.135505 L192.856889,142.934999 L193.290257,142.643995 L194.23024,143.336277 L194.413353,144.099013 L196.622923,144.972023 L197.529335,144.82499 L197.529335,144.82499 Z" id="Fill-73-Copy" stroke="#FFFFFF" stroke-width="0.584799207" fill="#E0E0E0"></path>
        <path d="M121.567755,105.266892 L122.391765,105.723308 L122.49553,105.965301 L123.084545,106.069449 L123.255451,107.074177 L123.118116,107.836913 L124.534193,107.66231 L126.429418,108.425046 L127.329726,109.396079 L128.294124,108.945789 L129.365338,110.054666 L130.677651,110.017907 L131.333808,110.367111 L132.16087,109.500227 L134.336869,109.429774 L135.163931,109.880064 L136.476245,109.74222 L137.858752,110.504955 L140.09884,110.296658 L141.688876,111.264628 L142.290098,111.469862 L142.348084,111.987542 L141.588163,112.496032 L141.84147,114.024566 L141.719394,115.213086 L141.231092,116.116728 L139.424372,117.207226 C139.424372,117.207226 138.701074,118.202764 138.612569,118.239522 C138.521012,118.276281 137.095779,118.858288 137.095779,118.858288 L135.249384,118.766392 L134.059147,119.61796 L132.975725,120.196904 L133.479287,120.634941 L133.244292,121.759133 L132.578979,122.175728 L132.469111,122.065453 L132.636965,121.915356 L132.130351,121.734627 L130.753948,124.096351 L129.777343,124.571146 L127.927897,127.661909 L127.38466,128.351128 L128.181204,129.732629 L128.397888,130.679156 L129.124238,131.080435 L130.317528,132.716181 L129.267677,133.733162 L127.67459,134.13444 L127.711212,135.261696 L126.188319,137.405932 L126.008257,138.824191 L126.405003,139.22547 L126.008257,139.844235 L124.378547,139.914689 L121.47925,141.299253 L121.47925,142.279475 L120.356154,144.099013 L119.339874,143.627281 L118.433462,142.824724 L117.963471,143.664039 L117.20355,144.3165 L116.407006,143.697734 L115.57384,143.664039 L115.247287,144.062254 L113.941078,143.915221 L111.981764,143.369972 L111.188272,143.808009 L109.470057,144.025496 L107.971578,145.529525 L106.201481,145.747012 L105.533117,146.344335 L105.496494,147.125449 L104.089572,147.885122 L102.533107,147.63394 L100.946124,146.053331 L100.021401,143.841704 L100.222826,143.535385 L98.2726668,141.648457 L96.862693,141.486108 L96.0814087,141.271684 L96.0386823,140.144428 L95.3489548,139.035552 L96.4537395,136.952579 L97.6287177,135.981547 L97.7660528,135.077904 L96.7314616,135.010514 L96.0386823,133.622887 L97.5585242,132.094352 L97.4913826,130.152287 L96.383546,129.456942 L95.1414261,127.098282 L96.3164044,126.819531 L97.1465189,126.960438 L98.3886387,125.223606 L97.5585242,124.393481 L98.5961673,123.351994 L98.7365544,120.297989 L98.5290257,119.048206 L100.32659,117.314437 L101.016317,117.314437 L101.294039,116.343405 L100.32659,114.955777 L100.186203,113.773384 L97.9064399,113.497697 L97.0061319,114.398276 L94.3784533,113.843838 L92.7884178,114.677027 L92.3733605,113.981681 L92.5137476,112.943258 L91.7049963,112.722708 L89.5808798,113.056597 L89.5564647,112.787035 L90.6826126,111.80375 L89.8830171,111.65978 L90.4293056,111.077773 L90.0661306,110.713253 L90.2828149,109.696272 L89.5228939,110.422249 L89.1597188,110.278279 L89.4130258,108.933536 L89.013228,108.749745 L89.0498507,108.204496 L88.4364205,108.425046 L88,107.405002 L88.506614,106.351263 L90.3194376,105.695739 L90.9359196,105.986743 L92.4557616,105.806014 L93.1821118,105.257703 L92.6022524,104.859487 L92.4923843,104.203964 L94.2319625,103.223741 L94.4852695,103.551503 L95.2116197,103.039949 L96.4049092,103.297258 L97.4211891,104.568484 L98.2909782,103.842507 L99.2675835,103.842507 L100.39068,104.314239 L101.623644,103.805748 L103.146538,103.367711 L103.470038,103.805748 L104.703002,104.494967 L108.108913,105.040216 L109.66843,105.404736 L111.984815,104.42145 L113.724394,104.568484 L114.050946,105.331219 L115.753901,105.658981 L116.623691,104.785971 L117.456857,104.785971 L119.992979,106.277746 L120.46297,105.585464 L121.152698,105.515011 L121.567755,105.266892 L121.567755,105.266892 Z M144.682781,126.317167 L146.236194,126.455011 L146.996115,126.871605 L147.237214,126.38762 L146.272817,125.382892 L144.89031,125.65858 L144.682781,126.317167 L144.682781,126.317167 Z M141.923871,129.539648 L142.335877,128.292928 L143.40709,127.321895 L142.439641,127.251441 L141.334856,127.079902 L140.404029,127.701731 L140.196501,128.53492 L141.16395,128.847366 L141.923871,129.539648 L141.923871,129.539648 Z M136.088655,132.72537 L136.641047,131.962635 L137.159869,131.444955 L136.778382,130.820063 L135.536262,131.202963 L135.398927,132.069847 L136.088655,132.72537 L136.088655,132.72537 Z" id="Fill-74-Copy" stroke="#FFFFFF" stroke-width="0.584799207" fill="#E0E0E0"></path>
        <polyline id="Fill-49-Copy" stroke="#FFFFFF" stroke-width="0.584799207" fill="#E0E0E0" points="218.09298 89.5557659 219.04517 88.5724804 219.872232 88.330488 220.32086 87.497299 221.599603 87.6014476 222.460236 86.7713218 222.426666 85.8370474 224.117413 83.3068485 225.118434 80.3631183 226.119454 78.4915062 227.260862 78.283209 227.743061 77.2110908 227.294433 76.0317608 226.085883 75.2353301 224.947528 74.1570856 223.876314 74.8524308 222.393095 74.5062898 220.458196 74.6441335 219.356463 74.3347509 217.766427 74.4725946 216.939365 75.7530101 216.075679 76.4483553 215.971915 77.3458714 214.626031 75.9276122 213.072618 77.2447859 211.726734 77.6950756 211.589399 78.5956549 209.034966 78.8376472 207.411359 79.3920855 205.720611 79.0796396 202.522229 77.2233436 202.613786 77.8666145 202.751121 78.8376472 202.580215 79.80868 200.507981 79.7719217 200.300452 80.1885162 201.164137 81.1932441 200.74908 82.3021206 200.645316 83.2026999 201.164137 84.1032791 200.416424 85.0467431 200.202792 85.1141334 201.405237 86.5017607 201.58835 88.0854324 202.439828 88.2600345 204.408298 90.1316465 205.409318 90.5145459 206.169239 91.1026793 208.653479 91.5192738 210.414421 92.1411023 211.174342 91.1731328 211.693163 91.4610731 212.358475 90.7197799 213.454105 90.1561521 214.259804 90.2694903 214.54363 89.8161375 215.688089 88.8512311 216.414439 89.0962867 217.41546 89.3229631 218.09298 89.5557659"></polyline>
        <path d="M212.776585,96.3131737 L212.657561,95.5381854 L213.59144,95.1889812 L214.040068,95.1889812 L214.040068,94.809145 L213.142812,94.6008478 L212.657561,94.1873165 L212.382891,92.937533 L211.793876,91.5192738 L211.174342,91.1731328 L210.414421,92.1411023 L208.653479,91.5192738 L206.169239,91.1026793 L205.409318,90.5145459 L204.408298,90.1316465 L202.439828,88.2600345 L201.58835,88.0854324 L201.612765,88.3059824 L199.537479,88.3059824 L196.63513,89.8345166 L196.427602,91.0843001 L194.904708,91.8470356 L194.630038,93.5103504 L193.662588,93.5808039 L191.865024,92.7476149 L190.894522,93.0263656 L189.652403,93.9300081 L187.967758,94.0249671 L187.964707,94.132179 L188.254636,96.0221702 L189.34111,97.042214 L189.231242,97.403671 L189.667662,97.7681912 L190.827381,95.8782 L191.007442,94.8581561 L191.730741,94.021904 L192.890459,93.9882088 L193.146818,94.9316728 L194.086801,95.6944083 L194.376731,97.1126675 L195.063406,98.45741 L196.516107,99.8052158 L196.87623,99.8787324 L197.709396,100.785438 L196.986098,100.531193 L196.152932,100.641468 L195.789756,101.440962 L196.226177,102.277214 L197.276028,102.277214 L198.325878,103.297258 L199.378781,103.658715 L199.738904,104.494967 L200.245518,105.076974 L201.331991,104.859487 L203.437797,105.034089 L204.600567,105.616096 L206.923057,108.020704 L206.269952,108.094221 L205.180427,107.509151 L205.763338,108.238191 L206.758255,108.464868 L206.755203,108.458741 L207.100066,107.628615 L203.752141,103.851696 L199.885395,100.457676 L199.74806,99.903238 L200.059353,99.557097 L199.436767,98.7606663 L199.265861,97.9642357 L198.298411,96.8553592 L197.675825,96.8890543 L197.642255,96.1967723 L198.023741,95.8138729 L198.023741,94.5671526 L198.402176,94.116863 L199.540531,94.9837471 L199.922018,95.642334 L200.541552,95.501427 L200.578174,94.8428402 L201.438808,94.7049964 L202.027823,94.7417547 L202.510022,94.2210116 L203.269943,94.6713013 L203.685,94.2884019 L204.441869,94.463004 L204.856926,95.2594347 L205.47646,94.809145 L206.547674,95.1889812 L207.307595,94.8795985 L207.548694,95.1889812 L208.723673,95.0511374 L209.724693,95.4340368 L210.347279,95.3298881 L211.311677,96.1263188 L212.657561,96.1600139 L212.776585,96.3131737 L212.776585,96.3131737 Z M202.809107,107.714385 C202.876249,107.68069 204.466284,107.68069 204.466284,107.68069 L205.085818,108.268823 L203.63617,108.164674 L202.809107,107.714385 L202.809107,107.714385 Z M201.704322,106.672899 L204.154991,106.709657 L203.153971,107.193642 L201.704322,106.672899 L201.704322,106.672899 Z M201.737893,105.567085 L203.63617,105.567085 L204.051227,105.842773 L203.1204,106.293062 L202.186521,106.155219 L201.737893,105.567085 L201.737893,105.567085 Z M194.904708,99.4345692 L195.4571,99.572413 L196.076634,100.402539 L195.73177,100.647594 L194.904708,99.4345692 L194.904708,99.4345692 Z M194.144787,98.1510906 L195.008472,99.0516698 L194.111216,98.8096775 L194.144787,98.1510906 L194.144787,98.1510906 Z M194.352316,101.061126 L195.319765,101.857556 L195.560865,102.690745 L194.352316,101.061126 L194.352316,101.061126 Z M193.143766,99.4682643 L193.870117,99.7807102 L193.973881,100.472992 L193.143766,99.4682643 L193.143766,99.4682643 Z M191.453019,96.8706751 L192.661568,97.7375593 L193.076625,98.9842796 L192.695138,99.0516698 L191.868076,98.1510906 L192.072553,97.875403 L191.453019,96.8706751 L191.453019,96.8706751 Z M192.24651,94.9286096 L193.629017,97.0085189 L192.936238,97.2842064 L192.557803,96.8002217 L191.868076,96.6286827 L191.764312,95.2747506 C191.764312,95.2778138 192.176317,94.9286096 192.24651,94.9286096 L192.24651,94.9286096 Z" id="Fill-56-Copy" stroke="#FFFFFF" stroke-width="0.584799207" fill="#E0E0E0"></path>
        <polyline id="Fill-58-Copy" stroke="#FFFFFF" stroke-width="0.584799207" fill="#E0E0E0" points="187.967758 94.0249671 189.652403 93.9300081 190.894522 93.0263656 191.865024 92.7476149 193.662588 93.5808039 194.630038 93.5103504 194.904708 91.8470356 196.427602 91.0843001 196.63513 89.8345166 199.537479 88.3059824 201.612765 88.3059824 201.405237 86.5017607 200.202792 85.1141334 199.033917 85.4970328 196.94032 86.679426 196.439809 86.6273517 195.74703 86.7131211 194.657505 87.2185483 193.619862 87.2185483 192.478454 87.6719011 191.855868 86.9244816 189.71344 86.9397975 188.956571 86.8540281 187.854838 88.4468894 188.199702 89.2096249 187.577116 90.1806577 187.812112 91.8194669 187.891461 91.8409092 188.834496 92.2758829 188.797873 92.9314066 188.001329 93.1488934 187.967758 94.0249671"></polyline>
        <polyline id="Fill-60-Copy" stroke="#FFFFFF" stroke-width="0.584799207" fill="#E0E0E0" points="214.650446 70.1596163 214.909857 70.3035865 215.807113 70.2698913 216.377817 69.399944 217.140789 69.1395725 217.882399 69.2253419 219.023807 69.2253419 219.698275 69.6940107 220.302549 69.069119 221.080781 68.9649703 221.825443 69.3141746 222.432769 69.0354238 224.230333 69.1028141 226.223219 70.2790809 227.260862 70.3495344 227.328003 68.8945169 227.120475 67.5773431 230.056394 64.2874719 230.4684 62.8324543 231.19475 62.0697188 231.988242 62.0329605 232.253756 60.6024485 231.908893 60.0112519 231.768505 59.2638324 232.183563 58.7247101 231.026896 57.9956697 230.471452 56.5866001 229.867177 55.9617083 229.815295 53.7531449 229.916007 52.4727295 228.95161 50.9135633 228.570123 49.4922409 229.296473 48.3129109 230.260871 47.9667699 230.2273 44.9525862 229.674908 44.4686014 229.470431 43.2923346 228.814275 42.2876067 228.087924 40.0667904 227.260862 38.7159215 227.328003 37.5733499 226.809182 35.8058865 226.156077 35.7384962 225.084863 34.871612 218.767448 35.4934406 212.685028 35.153426 212.129584 35.3647864 210.499874 36.8198039 209.12347 37.1445026 208.760295 36.8198039 210.13975 36.0540052 211.406285 34.746021 210.972917 34.7827794 209.956637 35.7997601 208.180436 36.6360122 206.114305 36.0540052 205.680937 34.9267495 206.007489 34.1272557 207.093963 34.274289 207.600577 34.6020509 207.637199 34.274289 206.297419 33.6187654 203.871165 33 201.985096 33.9832855 200.608693 33.8730105 199.195667 34.4182592 198.325878 35.6190316 196.949475 35.6557899 196.079686 36.6360122 196.079686 37.401811 194.593415 37.4355061 192.347223 38.6730368 190.827381 38.7833118 190.284144 39.9473258 189.920969 41.1082767 189.594417 41.2920684 189.667662 41.7638004 189.191567 41.7913691 189.704285 43.9478583 189.56695 45.5407196 188.218014 46.2360648 188.218014 46.8946517 189.704285 48.487513 189.530327 49.4585458 190.220054 50.359125 190.220054 51.0851022 190.635112 52.0898301 190.256677 52.9230191 191.120362 54.8987797 191.752104 55.247984 192.322808 55.9954035 192.393001 58.550108 192.130538 58.9728289 192.478454 59.7325012 192.893511 59.2454532 193.723626 59.4016761 194.190565 59.1596837 196.146828 59.4568136 196.076634 60.0112519 196.906749 60.8628201 197.684981 60.7586714 198.39302 61.3682472 197.92608 62.4281126 198.307567 63.00093 198.652431 63.1939113 198.609704 64.1128698 199.265861 64.3916205 199.714489 63.9045725 200.334023 63.9045725 199.229238 62.449555 199.680918 62.1371091 201.924058 63.3838294 203.340136 63.2122905 203.095985 64.0424163 204.130576 64.8756053 205.92814 64.4590108 207.341166 64.9093004 210.243515 67.0229048 211.140771 68.582071 211.967833 68.6157661 212.382891 68.1317814 213.658581 68.1654765 214.384931 68.928212 214.650446 70.1596163"></polyline>
        <circle id="Oval-Copy-66" stroke="#6929C4" stroke-width="1.375" fill-opacity="0.3" fill="#6929C4" cx="210.5" cy="56.5" r="3.8125"></circle>
        <path d="M182,109 C184.666667,83.6666667 194.333333,66 211,56" id="Path-9" stroke="#6929C4" stroke-width="1.25" stroke-linecap="round"></path>
        <circle id="Oval-Copy-70" stroke="#6929C4" stroke-width="1.25" fill-opacity="0.3" fill="#6929C4" cx="181.5" cy="108.5" r="3.875"></circle>
        <circle id="Oval-Copy-71" stroke="#6929C4" stroke-width="1.25" fill-opacity="0.3" fill="#6929C4" cx="138" cy="80" r="3.875"></circle>
        <path d="M138,80 C157.6,80.4 179.3,97.3 182,109" id="Path-Copy-4" stroke="#6929C4" stroke-width="1.25" stroke-linecap="round"></path>
        <circle id="Oval-Copy-72" stroke="#6929C4" stroke-width="1.25" fill-opacity="0.3" fill="#6929C4" cx="108.5" cy="123.5" r="3.875"></circle>
        <polygon id="Rectangle-Copy-321" fill="#6929C4" transform="translate(163.650000, 88.183267) rotate(33.000000) translate(-163.650000, -88.183267) " points="166.3 85.1546957 166.3 91.2118386 161 88.1832672"></polygon>
        <polygon id="Rectangle-Copy-325" fill="#6929C4" transform="translate(190.650000, 77.028571) rotate(123.000000) translate(-190.650000, -77.028571) " points="193.3 74 193.3 80.0571429 188 77.0285714"></polygon>
        <polygon id="Rectangle-Copy-324" fill="#6929C4" transform="translate(143.650000, 107.028571) scale(-1, 1) rotate(16.000000) translate(-143.650000, -107.028571) " points="146.3 104 146.3 110.057143 141 107.028571"></polygon>
        <path d="M109,123 C119.494141,112.193848 145,101 182,109" id="Path-Copy-3" stroke="#6929C4" stroke-width="1.25" stroke-linecap="round"></path>
        <polygon id="Fill-50-Copy" stroke="#FFFFFF" stroke-width="0.584799207" fill="#E0E0E0" points="205.660689 79.0354175 207.384602 79.3539922 209.040056 78.7886783 211.644596 78.5419391 211.784625 77.6236944 213.15691 77.164572 214.740794 75.821561 216.113078 77.2676403 216.218878 76.3525189 217.099505 75.643534 217.942791 74.3380024 219.564016 74.1974548 220.68736 74.5129062 222.660214 74.3723585 224.172527 74.7252893 225.476353 73.8788801 225.684841 72.2172944 226.689938 70.0716001 226.565468 70.0622303 224.533491 68.8628903 222.700666 68.7941781 222.081427 69.0783967 221.322158 68.7223426 220.528661 68.8285342 219.912533 69.4656836 219.224835 68.9878215 218.061038 68.9878215 217.304881 68.9003697 216.526942 69.1658486 215.945044 70.0528605 215.030187 70.0872166 214.765688 69.9404223 214.775023 69.9935181 212.522112 69.781135 211.467226 70.7337358 210.234971 70.8399273 208.862686 72.2172944 207.067203 72.4640336 205.203261 73.1355391 204.745833 72.7482522 203.619377 72.7826083 202.458692 73.5603054 202.212863 73.5040863 202.107063 75.0719735 202.399568 77.142709"></polygon>
    </g>
</svg>