<?xml version="1.0" encoding="UTF-8"?>
<svg width="240px" height="240px" viewBox="0 0 240 240" version="1.1"
    xmlns="http://www.w3.org/2000/svg" xmlns:xlink="http://www.w3.org/1999/xlink">
    <!-- Generator: Sketch 58 (84663) - https://sketch.com -->
    <title>Group 5heatmap</title>
    <desc>Created with Sketch.</desc>
    <g id="Data-vis-pages" stroke="none" stroke-width="1" fill="none" fill-rule="evenodd">
        <g id="Dataviz-overview-1-Copy-2" transform="translate(48,96)">
            <g id="Group-5">
                <rect id="Rectangle-2-Copy-3" fill="#D5E6FF" x="0" y="0" width="16" height="16"></rect>
                <rect id="Rectangle-2-Copy-47" fill="#D5E6FF" x="0" y="33" width="16" height="16"></rect>
                <rect id="Rectangle-2-Copy-14" fill="#97C1FF" x="0" y="17" width="16" height="15"></rect>
                <rect id="Rectangle-2-Copy-48" fill="#D5E6FF" x="0" y="50" width="16" height="16"></rect>
                <rect id="Rectangle-2-Copy-9" fill="#D5E6FF" x="67" y="0" width="15" height="16"></rect>
                <rect id="Rectangle-2-Copy-49" fill="#408BFC" x="67" y="33" width="15" height="16"></rect>
                <rect id="Rectangle-2-Copy-15" fill="#408BFC" x="67" y="17" width="15" height="15"></rect>
                <rect id="Rectangle-2-Copy-50" fill="#408BFC" x="67" y="50" width="15" height="16"></rect>
                <rect id="Rectangle-2-Copy-6" fill="#97C1FF" x="17" y="0" width="15" height="16"></rect>
                <rect id="Rectangle-2-Copy-51" fill="#97C1FF" x="17" y="33" width="15" height="16"></rect>
                <rect id="Rectangle-2-Copy-16" fill="#408BFC" x="17" y="17" width="15" height="15"></rect>
                <rect id="Rectangle-2-Copy-52" fill="#97C1FF" x="17" y="50" width="15" height="16"></rect>
                <rect id="Rectangle-2-Copy-10" fill="#D5E6FF" x="83" y="0" width="16" height="16"></rect>
                <rect id="Rectangle-2-Copy-53" fill="#408BFC" x="83" y="33" width="16" height="16"></rect>
                <rect id="Rectangle-2-Copy-17" fill="#97C1FF" x="83" y="17" width="16" height="15"></rect>
                <rect id="Rectangle-2-Copy-54" fill="#97C1FF" x="83" y="50" width="16" height="16"></rect>
                <rect id="Rectangle-2-Copy-7" fill="#408BFC" x="33" y="0" width="16" height="16"></rect>
                <rect id="Rectangle-2-Copy-55" fill="#408BFC" x="33" y="33" width="16" height="16"></rect>
                <rect id="Rectangle-2-Copy-18" fill="#0062FF" x="33" y="17" width="16" height="15"></rect>
                <rect id="Rectangle-2-Copy-56" fill="#97C1FF" x="33" y="50" width="16" height="16"></rect>
                <rect id="Rectangle-2-Copy-11" fill="#D5E6FF" x="100" y="0" width="16" height="16"></rect>
                <rect id="Rectangle-2-Copy-57" fill="#408BFC" x="100" y="33" width="16" height="16"></rect>
                <rect id="Rectangle-2-Copy-19" fill="#97C1FF" x="100" y="17" width="16" height="15"></rect>
                <rect id="Rectangle-2-Copy-58" fill="#408BFC" x="100" y="50" width="16" height="16"></rect>
                <rect id="Rectangle-2-Copy-8" fill="#408BFC" x="50" y="0" width="16" height="16"></rect>
                <rect id="Rectangle-2-Copy-59" fill="#0062FF" x="50" y="33" width="16" height="16"></rect>
                <rect id="Rectangle-2-Copy-20" fill="#0062FF" x="50" y="17" width="16" height="15"></rect>
                <rect id="Rectangle-2-Copy-60" fill="#408BFC" x="50" y="50" width="16" height="16"></rect>
                <rect id="Rectangle-2-Copy-12" fill="#97C1FF" x="117" y="0" width="15" height="16"></rect>
                <rect id="Rectangle-2-Copy-61" fill="#408BFC" x="117" y="33" width="15" height="16"></rect>
                <rect id="Rectangle-2-Copy-21" fill="#408BFC" x="117" y="17" width="15" height="15"></rect>
                <rect id="Rectangle-2-Copy-62" fill="#408BFC" x="117" y="50" width="15" height="16"></rect>
                <rect id="Rectangle-2-Copy-13" fill="#D5E6FF" x="133" y="0" width="16" height="16"></rect>
                <rect id="Rectangle-2-Copy-63" fill="#D5E6FF" x="133" y="33" width="16" height="16"></rect>
                <rect id="Rectangle-2-Copy-22" fill="#D5E6FF" x="133" y="17" width="16" height="15"></rect>
                <rect id="Rectangle-2-Copy-64" fill="#D5E6FF" x="133" y="50" width="16" height="16"></rect>
                <rect id="Rectangle-2-Copy-83" fill="#D5E6FF" x="0" y="67" width="16" height="15"></rect>
                <rect id="Rectangle-2-Copy-82" fill="#D5E6FF" x="0" y="83" width="16" height="16"></rect>
                <rect id="Rectangle-2-Copy-81" fill="#97C1FF" x="67" y="67" width="15" height="15"></rect>
                <rect id="Rectangle-2-Copy-80" fill="#D5E6FF" x="67" y="83" width="15" height="16"></rect>
                <rect id="Rectangle-2-Copy-79" fill="#D5E6FF" x="17" y="67" width="15" height="15"></rect>
                <rect id="Rectangle-2-Copy-78" fill="#97C1FF" x="17" y="83" width="15" height="16"></rect>
                <rect id="Rectangle-2-Copy-77" fill="#D5E6FF" x="83" y="67" width="16" height="15"></rect>
                <rect id="Rectangle-2-Copy-76" fill="#D5E6FF" x="83" y="83" width="16" height="16"></rect>
                <rect id="Rectangle-2-Copy-75" fill="#D5E6FF" x="33" y="67" width="16" height="15"></rect>
                <rect id="Rectangle-2-Copy-74" fill="#97C1FF" x="33" y="83" width="16" height="16"></rect>
                <rect id="Rectangle-2-Copy-73" fill="#97C1FF" x="100" y="67" width="16" height="15"></rect>
                <rect id="Rectangle-2-Copy-72" fill="#D5E6FF" x="100" y="83" width="16" height="16"></rect>
                <rect id="Rectangle-2-Copy-70" fill="#97C1FF" x="50" y="67" width="16" height="15"></rect>
                <rect id="Rectangle-2-Copy-69" fill="#97C1FF" x="50" y="83" width="16" height="16"></rect>
                <rect id="Rectangle-2-Copy-68" fill="#97C1FF" x="117" y="67" width="15" height="15"></rect>
                <rect id="Rectangle-2-Copy-67" fill="#D5E6FF" x="117" y="83" width="15" height="16"></rect>
                <rect id="Rectangle-2-Copy-66" fill="#D5E6FF" x="133" y="67" width="16" height="15"></rect>
                <rect id="Rectangle-2-Copy-65" fill="#D5E6FF" x="133" y="83" width="16" height="16"></rect>
            </g>
        </g>
    </g>
</svg>