<?xml version="1.0" encoding="utf-8"?>
<!-- Generator: Adobe Illustrator 19.0.0, SVG Export Plug-In . SVG Version: 6.00 Build 0)  -->
<svg version="1.1" id="Layer_1" xmlns="http://www.w3.org/2000/svg" xmlns:xlink="http://www.w3.org/1999/xlink" x="0px" y="0px"
	 viewBox="0 0 100 100" style="enable-background:new 0 0 100 100;" xml:space="preserve">
<style type="text/css">
	.st0{fill:none;}
	.st1{fill:none;stroke:#231F20;stroke-width:15;stroke-miterlimit:10;}
	.st2{fill:url(#lines);}
</style>
<pattern  width="100" height="100" patternUnits="userSpaceOnUse" id="lines" viewBox="1487.125 -1982.818 100 100" style="overflow:visible;">
	<g id="XMLID_257_">
		<polygon id="XMLID_1009_" class="st0" points="1487.125,-1982.818 1587.125,-1982.818 1587.125,-1882.818 1487.125,-1882.818 		
			"/>
		<line id="XMLID_1008_" class="st1" x1="1205.303" y1="-5.303" x2="3138.812" y2="-1938.811"/>
		<line id="XMLID_1007_" class="st1" x1="1155.303" y1="-5.303" x2="3088.812" y2="-1938.811"/>
		<line id="XMLID_1006_" class="st1" x1="1105.303" y1="-5.303" x2="3038.812" y2="-1938.811"/>
		<line id="XMLID_1005_" class="st1" x1="1055.303" y1="-5.303" x2="2988.812" y2="-1938.811"/>
		<line id="XMLID_1004_" class="st1" x1="1005.303" y1="-5.303" x2="2938.812" y2="-1938.811"/>
		<line id="XMLID_1003_" class="st1" x1="955.303" y1="-5.303" x2="2888.812" y2="-1938.811"/>
		<line id="XMLID_1002_" class="st1" x1="905.303" y1="-5.303" x2="2838.812" y2="-1938.811"/>
		<line id="XMLID_1001_" class="st1" x1="855.303" y1="-5.303" x2="2788.812" y2="-1938.811"/>
		<line id="XMLID_1000_" class="st1" x1="805.303" y1="-5.303" x2="2738.812" y2="-1938.811"/>
		<line id="XMLID_999_" class="st1" x1="755.303" y1="-5.303" x2="2688.812" y2="-1938.811"/>
		<line id="XMLID_998_" class="st1" x1="705.303" y1="-5.303" x2="2638.812" y2="-1938.811"/>
		<line id="XMLID_997_" class="st1" x1="655.303" y1="-5.303" x2="2588.812" y2="-1938.811"/>
		<line id="XMLID_996_" class="st1" x1="605.303" y1="-5.303" x2="2538.812" y2="-1938.811"/>
		<line id="XMLID_995_" class="st1" x1="555.303" y1="-5.303" x2="2488.812" y2="-1938.811"/>
		<line id="XMLID_994_" class="st1" x1="505.303" y1="-5.303" x2="2438.812" y2="-1938.811"/>
		<line id="XMLID_993_" class="st1" x1="455.303" y1="-5.303" x2="2388.812" y2="-1938.811"/>
		<line id="XMLID_992_" class="st1" x1="405.303" y1="-5.303" x2="2338.812" y2="-1938.811"/>
		<line id="XMLID_991_" class="st1" x1="355.303" y1="-5.303" x2="2288.812" y2="-1938.811"/>
		<line id="XMLID_990_" class="st1" x1="305.303" y1="-5.303" x2="2238.812" y2="-1938.811"/>
		<line id="XMLID_989_" class="st1" x1="255.303" y1="-5.303" x2="2188.812" y2="-1938.811"/>
		<line id="XMLID_988_" class="st1" x1="205.303" y1="-5.303" x2="2138.812" y2="-1938.811"/>
		<line id="XMLID_987_" class="st1" x1="155.303" y1="-5.303" x2="2088.812" y2="-1938.811"/>
		<line id="XMLID_986_" class="st1" x1="105.303" y1="-5.303" x2="2038.812" y2="-1938.811"/>
		<line id="XMLID_985_" class="st1" x1="55.303" y1="-5.303" x2="1988.812" y2="-1938.811"/>
		<line id="XMLID_984_" class="st1" x1="5.303" y1="-5.303" x2="1938.812" y2="-1938.811"/>
		<line id="XMLID_983_" class="st1" x1="1205.303" y1="-105.303" x2="3138.812" y2="-2038.811"/>
		<line id="XMLID_982_" class="st1" x1="1155.303" y1="-105.303" x2="3088.812" y2="-2038.811"/>
		<line id="XMLID_981_" class="st1" x1="1105.303" y1="-105.303" x2="3038.812" y2="-2038.811"/>
		<line id="XMLID_980_" class="st1" x1="1055.303" y1="-105.303" x2="2988.812" y2="-2038.811"/>
		<line id="XMLID_979_" class="st1" x1="1005.303" y1="-105.303" x2="2938.812" y2="-2038.811"/>
		<line id="XMLID_978_" class="st1" x1="955.303" y1="-105.303" x2="2888.812" y2="-2038.811"/>
		<line id="XMLID_977_" class="st1" x1="905.303" y1="-105.303" x2="2838.812" y2="-2038.811"/>
		<line id="XMLID_976_" class="st1" x1="855.303" y1="-105.303" x2="2788.812" y2="-2038.811"/>
		<line id="XMLID_975_" class="st1" x1="805.303" y1="-105.303" x2="2738.812" y2="-2038.811"/>
		<line id="XMLID_974_" class="st1" x1="755.303" y1="-105.303" x2="2688.812" y2="-2038.811"/>
		<line id="XMLID_973_" class="st1" x1="705.303" y1="-105.303" x2="2638.812" y2="-2038.811"/>
		<line id="XMLID_972_" class="st1" x1="655.303" y1="-105.303" x2="2588.812" y2="-2038.811"/>
		<line id="XMLID_971_" class="st1" x1="605.303" y1="-105.303" x2="2538.812" y2="-2038.811"/>
		<line id="XMLID_970_" class="st1" x1="555.303" y1="-105.303" x2="2488.812" y2="-2038.811"/>
		<line id="XMLID_969_" class="st1" x1="505.303" y1="-105.303" x2="2438.812" y2="-2038.811"/>
		<line id="XMLID_968_" class="st1" x1="455.303" y1="-105.303" x2="2388.812" y2="-2038.811"/>
		<line id="XMLID_967_" class="st1" x1="405.303" y1="-105.303" x2="2338.812" y2="-2038.811"/>
		<line id="XMLID_966_" class="st1" x1="355.303" y1="-105.303" x2="2288.812" y2="-2038.811"/>
		<line id="XMLID_965_" class="st1" x1="305.303" y1="-105.303" x2="2238.812" y2="-2038.811"/>
		<line id="XMLID_964_" class="st1" x1="255.303" y1="-105.303" x2="2188.812" y2="-2038.811"/>
		<line id="XMLID_963_" class="st1" x1="205.303" y1="-105.303" x2="2138.812" y2="-2038.811"/>
		<line id="XMLID_962_" class="st1" x1="155.303" y1="-105.303" x2="2088.812" y2="-2038.811"/>
		<line id="XMLID_961_" class="st1" x1="105.303" y1="-105.303" x2="2038.812" y2="-2038.811"/>
		<line id="XMLID_960_" class="st1" x1="55.303" y1="-105.303" x2="1988.812" y2="-2038.811"/>
		<line id="XMLID_959_" class="st1" x1="5.303" y1="-105.303" x2="1938.812" y2="-2038.811"/>
		<line id="XMLID_958_" class="st1" x1="1205.303" y1="-205.303" x2="3138.812" y2="-2138.811"/>
		<line id="XMLID_957_" class="st1" x1="1155.303" y1="-205.303" x2="3088.812" y2="-2138.811"/>
		<line id="XMLID_956_" class="st1" x1="1105.303" y1="-205.303" x2="3038.812" y2="-2138.811"/>
		<line id="XMLID_955_" class="st1" x1="1055.303" y1="-205.303" x2="2988.812" y2="-2138.811"/>
		<line id="XMLID_954_" class="st1" x1="1005.303" y1="-205.303" x2="2938.812" y2="-2138.811"/>
		<line id="XMLID_953_" class="st1" x1="955.303" y1="-205.303" x2="2888.812" y2="-2138.811"/>
		<line id="XMLID_952_" class="st1" x1="905.303" y1="-205.303" x2="2838.812" y2="-2138.811"/>
		<line id="XMLID_951_" class="st1" x1="855.303" y1="-205.303" x2="2788.812" y2="-2138.811"/>
		<line id="XMLID_950_" class="st1" x1="805.303" y1="-205.303" x2="2738.812" y2="-2138.811"/>
		<line id="XMLID_949_" class="st1" x1="755.303" y1="-205.303" x2="2688.812" y2="-2138.811"/>
		<line id="XMLID_948_" class="st1" x1="705.303" y1="-205.303" x2="2638.812" y2="-2138.811"/>
		<line id="XMLID_947_" class="st1" x1="655.303" y1="-205.303" x2="2588.812" y2="-2138.811"/>
		<line id="XMLID_946_" class="st1" x1="605.303" y1="-205.303" x2="2538.812" y2="-2138.811"/>
		<line id="XMLID_945_" class="st1" x1="555.303" y1="-205.303" x2="2488.812" y2="-2138.811"/>
		<line id="XMLID_944_" class="st1" x1="505.303" y1="-205.303" x2="2438.812" y2="-2138.811"/>
		<line id="XMLID_943_" class="st1" x1="455.303" y1="-205.303" x2="2388.812" y2="-2138.811"/>
		<line id="XMLID_942_" class="st1" x1="405.303" y1="-205.303" x2="2338.812" y2="-2138.811"/>
		<line id="XMLID_941_" class="st1" x1="355.303" y1="-205.303" x2="2288.812" y2="-2138.811"/>
		<line id="XMLID_940_" class="st1" x1="305.303" y1="-205.303" x2="2238.812" y2="-2138.811"/>
		<line id="XMLID_939_" class="st1" x1="255.303" y1="-205.303" x2="2188.812" y2="-2138.811"/>
		<line id="XMLID_938_" class="st1" x1="205.303" y1="-205.303" x2="2138.812" y2="-2138.811"/>
		<line id="XMLID_937_" class="st1" x1="155.303" y1="-205.303" x2="2088.812" y2="-2138.811"/>
		<line id="XMLID_936_" class="st1" x1="105.303" y1="-205.303" x2="2038.812" y2="-2138.811"/>
		<line id="XMLID_935_" class="st1" x1="55.303" y1="-205.303" x2="1988.812" y2="-2138.811"/>
		<line id="XMLID_934_" class="st1" x1="5.303" y1="-205.303" x2="1938.812" y2="-2138.811"/>
		<line id="XMLID_933_" class="st1" x1="1205.303" y1="-305.303" x2="3138.812" y2="-2238.811"/>
		<line id="XMLID_932_" class="st1" x1="1155.303" y1="-305.303" x2="3088.812" y2="-2238.811"/>
		<line id="XMLID_931_" class="st1" x1="1105.303" y1="-305.303" x2="3038.812" y2="-2238.811"/>
		<line id="XMLID_930_" class="st1" x1="1055.303" y1="-305.303" x2="2988.812" y2="-2238.811"/>
		<line id="XMLID_929_" class="st1" x1="1005.303" y1="-305.303" x2="2938.812" y2="-2238.811"/>
		<line id="XMLID_928_" class="st1" x1="955.303" y1="-305.303" x2="2888.812" y2="-2238.811"/>
		<line id="XMLID_927_" class="st1" x1="905.303" y1="-305.303" x2="2838.812" y2="-2238.811"/>
		<line id="XMLID_926_" class="st1" x1="855.303" y1="-305.303" x2="2788.812" y2="-2238.811"/>
		<line id="XMLID_925_" class="st1" x1="805.303" y1="-305.303" x2="2738.812" y2="-2238.811"/>
		<line id="XMLID_924_" class="st1" x1="755.303" y1="-305.303" x2="2688.812" y2="-2238.811"/>
		<line id="XMLID_923_" class="st1" x1="705.303" y1="-305.303" x2="2638.812" y2="-2238.811"/>
		<line id="XMLID_922_" class="st1" x1="655.303" y1="-305.303" x2="2588.812" y2="-2238.811"/>
		<line id="XMLID_921_" class="st1" x1="605.303" y1="-305.303" x2="2538.812" y2="-2238.811"/>
		<line id="XMLID_920_" class="st1" x1="555.303" y1="-305.303" x2="2488.812" y2="-2238.811"/>
		<line id="XMLID_919_" class="st1" x1="505.303" y1="-305.303" x2="2438.812" y2="-2238.811"/>
		<line id="XMLID_918_" class="st1" x1="455.303" y1="-305.303" x2="2388.812" y2="-2238.811"/>
		<line id="XMLID_917_" class="st1" x1="405.303" y1="-305.303" x2="2338.812" y2="-2238.811"/>
		<line id="XMLID_916_" class="st1" x1="355.303" y1="-305.303" x2="2288.812" y2="-2238.811"/>
		<line id="XMLID_915_" class="st1" x1="305.303" y1="-305.303" x2="2238.812" y2="-2238.811"/>
		<line id="XMLID_914_" class="st1" x1="255.303" y1="-305.303" x2="2188.812" y2="-2238.811"/>
		<line id="XMLID_913_" class="st1" x1="205.303" y1="-305.303" x2="2138.812" y2="-2238.811"/>
		<line id="XMLID_912_" class="st1" x1="155.303" y1="-305.303" x2="2088.812" y2="-2238.811"/>
		<line id="XMLID_911_" class="st1" x1="105.303" y1="-305.303" x2="2038.812" y2="-2238.811"/>
		<line id="XMLID_910_" class="st1" x1="55.303" y1="-305.303" x2="1988.812" y2="-2238.811"/>
		<line id="XMLID_909_" class="st1" x1="5.303" y1="-305.303" x2="1938.812" y2="-2238.811"/>
		<line id="XMLID_908_" class="st1" x1="1205.303" y1="-405.303" x2="3138.812" y2="-2338.811"/>
		<line id="XMLID_907_" class="st1" x1="1155.303" y1="-405.303" x2="3088.812" y2="-2338.811"/>
		<line id="XMLID_906_" class="st1" x1="1105.303" y1="-405.303" x2="3038.812" y2="-2338.811"/>
		<line id="XMLID_905_" class="st1" x1="1055.303" y1="-405.303" x2="2988.812" y2="-2338.811"/>
		<line id="XMLID_904_" class="st1" x1="1005.303" y1="-405.303" x2="2938.812" y2="-2338.811"/>
		<line id="XMLID_903_" class="st1" x1="955.303" y1="-405.303" x2="2888.812" y2="-2338.811"/>
		<line id="XMLID_902_" class="st1" x1="905.303" y1="-405.303" x2="2838.812" y2="-2338.811"/>
		<line id="XMLID_901_" class="st1" x1="855.303" y1="-405.303" x2="2788.812" y2="-2338.811"/>
		<line id="XMLID_900_" class="st1" x1="805.303" y1="-405.303" x2="2738.812" y2="-2338.811"/>
		<line id="XMLID_899_" class="st1" x1="755.303" y1="-405.303" x2="2688.812" y2="-2338.811"/>
		<line id="XMLID_898_" class="st1" x1="705.303" y1="-405.303" x2="2638.812" y2="-2338.811"/>
		<line id="XMLID_897_" class="st1" x1="655.303" y1="-405.303" x2="2588.812" y2="-2338.811"/>
		<line id="XMLID_896_" class="st1" x1="605.303" y1="-405.303" x2="2538.812" y2="-2338.811"/>
		<line id="XMLID_895_" class="st1" x1="555.303" y1="-405.303" x2="2488.812" y2="-2338.811"/>
		<line id="XMLID_894_" class="st1" x1="505.303" y1="-405.303" x2="2438.812" y2="-2338.811"/>
		<line id="XMLID_893_" class="st1" x1="455.303" y1="-405.303" x2="2388.812" y2="-2338.811"/>
		<line id="XMLID_892_" class="st1" x1="405.303" y1="-405.303" x2="2338.812" y2="-2338.811"/>
		<line id="XMLID_891_" class="st1" x1="355.303" y1="-405.303" x2="2288.812" y2="-2338.811"/>
		<line id="XMLID_890_" class="st1" x1="305.303" y1="-405.303" x2="2238.812" y2="-2338.811"/>
		<line id="XMLID_889_" class="st1" x1="255.303" y1="-405.303" x2="2188.812" y2="-2338.811"/>
		<line id="XMLID_888_" class="st1" x1="205.303" y1="-405.303" x2="2138.812" y2="-2338.811"/>
		<line id="XMLID_887_" class="st1" x1="155.303" y1="-405.303" x2="2088.812" y2="-2338.811"/>
		<line id="XMLID_886_" class="st1" x1="105.303" y1="-405.303" x2="2038.812" y2="-2338.811"/>
		<line id="XMLID_885_" class="st1" x1="55.303" y1="-405.303" x2="1988.812" y2="-2338.811"/>
		<line id="XMLID_884_" class="st1" x1="5.303" y1="-405.303" x2="1938.812" y2="-2338.811"/>
		<line id="XMLID_883_" class="st1" x1="1205.303" y1="-505.303" x2="3138.812" y2="-2438.811"/>
		<line id="XMLID_882_" class="st1" x1="1155.303" y1="-505.303" x2="3088.812" y2="-2438.811"/>
		<line id="XMLID_881_" class="st1" x1="1105.303" y1="-505.303" x2="3038.812" y2="-2438.811"/>
		<line id="XMLID_880_" class="st1" x1="1055.303" y1="-505.303" x2="2988.812" y2="-2438.811"/>
		<line id="XMLID_879_" class="st1" x1="1005.303" y1="-505.303" x2="2938.812" y2="-2438.811"/>
		<line id="XMLID_878_" class="st1" x1="955.303" y1="-505.303" x2="2888.812" y2="-2438.811"/>
		<line id="XMLID_877_" class="st1" x1="905.303" y1="-505.303" x2="2838.812" y2="-2438.811"/>
		<line id="XMLID_876_" class="st1" x1="855.303" y1="-505.303" x2="2788.812" y2="-2438.811"/>
		<line id="XMLID_875_" class="st1" x1="805.303" y1="-505.303" x2="2738.812" y2="-2438.811"/>
		<line id="XMLID_874_" class="st1" x1="755.303" y1="-505.303" x2="2688.812" y2="-2438.811"/>
		<line id="XMLID_873_" class="st1" x1="705.303" y1="-505.303" x2="2638.812" y2="-2438.811"/>
		<line id="XMLID_872_" class="st1" x1="655.303" y1="-505.303" x2="2588.812" y2="-2438.811"/>
		<line id="XMLID_871_" class="st1" x1="605.303" y1="-505.303" x2="2538.812" y2="-2438.811"/>
		<line id="XMLID_870_" class="st1" x1="555.303" y1="-505.303" x2="2488.812" y2="-2438.811"/>
		<line id="XMLID_869_" class="st1" x1="505.303" y1="-505.303" x2="2438.812" y2="-2438.811"/>
		<line id="XMLID_868_" class="st1" x1="455.303" y1="-505.303" x2="2388.812" y2="-2438.811"/>
		<line id="XMLID_867_" class="st1" x1="405.303" y1="-505.303" x2="2338.812" y2="-2438.811"/>
		<line id="XMLID_866_" class="st1" x1="355.303" y1="-505.303" x2="2288.812" y2="-2438.811"/>
		<line id="XMLID_865_" class="st1" x1="305.303" y1="-505.303" x2="2238.812" y2="-2438.811"/>
		<line id="XMLID_864_" class="st1" x1="255.303" y1="-505.303" x2="2188.812" y2="-2438.811"/>
		<line id="XMLID_863_" class="st1" x1="205.303" y1="-505.303" x2="2138.812" y2="-2438.811"/>
		<line id="XMLID_862_" class="st1" x1="155.303" y1="-505.303" x2="2088.812" y2="-2438.811"/>
		<line id="XMLID_861_" class="st1" x1="105.303" y1="-505.303" x2="2038.812" y2="-2438.811"/>
		<line id="XMLID_860_" class="st1" x1="55.303" y1="-505.303" x2="1988.812" y2="-2438.811"/>
		<line id="XMLID_859_" class="st1" x1="5.303" y1="-505.303" x2="1938.812" y2="-2438.811"/>
		<line id="XMLID_858_" class="st1" x1="1205.303" y1="-605.303" x2="3138.812" y2="-2538.811"/>
		<line id="XMLID_857_" class="st1" x1="1155.303" y1="-605.303" x2="3088.812" y2="-2538.811"/>
		<line id="XMLID_856_" class="st1" x1="1105.303" y1="-605.303" x2="3038.812" y2="-2538.811"/>
		<line id="XMLID_855_" class="st1" x1="1055.303" y1="-605.303" x2="2988.812" y2="-2538.811"/>
		<line id="XMLID_854_" class="st1" x1="1005.303" y1="-605.303" x2="2938.812" y2="-2538.811"/>
		<line id="XMLID_853_" class="st1" x1="955.303" y1="-605.303" x2="2888.812" y2="-2538.811"/>
		<line id="XMLID_852_" class="st1" x1="905.303" y1="-605.303" x2="2838.812" y2="-2538.811"/>
		<line id="XMLID_851_" class="st1" x1="855.303" y1="-605.303" x2="2788.812" y2="-2538.811"/>
		<line id="XMLID_850_" class="st1" x1="805.303" y1="-605.303" x2="2738.812" y2="-2538.811"/>
		<line id="XMLID_849_" class="st1" x1="755.303" y1="-605.303" x2="2688.812" y2="-2538.811"/>
		<line id="XMLID_848_" class="st1" x1="705.303" y1="-605.303" x2="2638.812" y2="-2538.811"/>
		<line id="XMLID_847_" class="st1" x1="655.303" y1="-605.303" x2="2588.812" y2="-2538.811"/>
		<line id="XMLID_846_" class="st1" x1="605.303" y1="-605.303" x2="2538.812" y2="-2538.811"/>
		<line id="XMLID_845_" class="st1" x1="555.303" y1="-605.303" x2="2488.812" y2="-2538.811"/>
		<line id="XMLID_844_" class="st1" x1="505.303" y1="-605.303" x2="2438.812" y2="-2538.811"/>
		<line id="XMLID_843_" class="st1" x1="455.303" y1="-605.303" x2="2388.812" y2="-2538.811"/>
		<line id="XMLID_842_" class="st1" x1="405.303" y1="-605.303" x2="2338.812" y2="-2538.811"/>
		<line id="XMLID_841_" class="st1" x1="355.303" y1="-605.303" x2="2288.812" y2="-2538.811"/>
		<line id="XMLID_840_" class="st1" x1="305.303" y1="-605.303" x2="2238.812" y2="-2538.811"/>
		<line id="XMLID_839_" class="st1" x1="255.303" y1="-605.303" x2="2188.812" y2="-2538.811"/>
		<line id="XMLID_838_" class="st1" x1="205.303" y1="-605.303" x2="2138.812" y2="-2538.811"/>
		<line id="XMLID_837_" class="st1" x1="155.303" y1="-605.303" x2="2088.812" y2="-2538.811"/>
		<line id="XMLID_836_" class="st1" x1="105.303" y1="-605.303" x2="2038.812" y2="-2538.811"/>
		<line id="XMLID_835_" class="st1" x1="55.303" y1="-605.303" x2="1988.812" y2="-2538.811"/>
		<line id="XMLID_834_" class="st1" x1="5.303" y1="-605.303" x2="1938.812" y2="-2538.811"/>
		<line id="XMLID_833_" class="st1" x1="1205.303" y1="-705.303" x2="3138.812" y2="-2638.811"/>
		<line id="XMLID_832_" class="st1" x1="1155.303" y1="-705.303" x2="3088.812" y2="-2638.811"/>
		<line id="XMLID_831_" class="st1" x1="1105.303" y1="-705.303" x2="3038.812" y2="-2638.811"/>
		<line id="XMLID_830_" class="st1" x1="1055.303" y1="-705.303" x2="2988.812" y2="-2638.811"/>
		<line id="XMLID_829_" class="st1" x1="1005.303" y1="-705.303" x2="2938.812" y2="-2638.811"/>
		<line id="XMLID_828_" class="st1" x1="955.303" y1="-705.303" x2="2888.812" y2="-2638.811"/>
		<line id="XMLID_827_" class="st1" x1="905.303" y1="-705.303" x2="2838.812" y2="-2638.811"/>
		<line id="XMLID_826_" class="st1" x1="855.303" y1="-705.303" x2="2788.812" y2="-2638.811"/>
		<line id="XMLID_825_" class="st1" x1="805.303" y1="-705.303" x2="2738.812" y2="-2638.811"/>
		<line id="XMLID_824_" class="st1" x1="755.303" y1="-705.303" x2="2688.812" y2="-2638.811"/>
		<line id="XMLID_823_" class="st1" x1="705.303" y1="-705.303" x2="2638.812" y2="-2638.811"/>
		<line id="XMLID_822_" class="st1" x1="655.303" y1="-705.303" x2="2588.812" y2="-2638.811"/>
		<line id="XMLID_821_" class="st1" x1="605.303" y1="-705.303" x2="2538.812" y2="-2638.811"/>
		<line id="XMLID_820_" class="st1" x1="555.303" y1="-705.303" x2="2488.812" y2="-2638.811"/>
		<line id="XMLID_819_" class="st1" x1="505.303" y1="-705.303" x2="2438.812" y2="-2638.811"/>
		<line id="XMLID_818_" class="st1" x1="455.303" y1="-705.303" x2="2388.812" y2="-2638.811"/>
		<line id="XMLID_817_" class="st1" x1="405.303" y1="-705.303" x2="2338.812" y2="-2638.811"/>
		<line id="XMLID_816_" class="st1" x1="355.303" y1="-705.303" x2="2288.812" y2="-2638.811"/>
		<line id="XMLID_815_" class="st1" x1="305.303" y1="-705.303" x2="2238.812" y2="-2638.811"/>
		<line id="XMLID_814_" class="st1" x1="255.303" y1="-705.303" x2="2188.812" y2="-2638.811"/>
		<line id="XMLID_813_" class="st1" x1="205.303" y1="-705.303" x2="2138.812" y2="-2638.811"/>
		<line id="XMLID_812_" class="st1" x1="155.303" y1="-705.303" x2="2088.812" y2="-2638.811"/>
		<line id="XMLID_811_" class="st1" x1="105.303" y1="-705.303" x2="2038.812" y2="-2638.811"/>
		<line id="XMLID_810_" class="st1" x1="55.303" y1="-705.303" x2="1988.812" y2="-2638.811"/>
		<line id="XMLID_809_" class="st1" x1="5.303" y1="-705.303" x2="1938.812" y2="-2638.811"/>
		<line id="XMLID_808_" class="st1" x1="1205.303" y1="-805.303" x2="3138.812" y2="-2738.811"/>
		<line id="XMLID_807_" class="st1" x1="1155.303" y1="-805.303" x2="3088.812" y2="-2738.811"/>
		<line id="XMLID_806_" class="st1" x1="1105.303" y1="-805.303" x2="3038.812" y2="-2738.811"/>
		<line id="XMLID_805_" class="st1" x1="1055.303" y1="-805.303" x2="2988.812" y2="-2738.811"/>
		<line id="XMLID_804_" class="st1" x1="1005.303" y1="-805.303" x2="2938.812" y2="-2738.811"/>
		<line id="XMLID_803_" class="st1" x1="955.303" y1="-805.303" x2="2888.812" y2="-2738.811"/>
		<line id="XMLID_802_" class="st1" x1="905.303" y1="-805.303" x2="2838.812" y2="-2738.811"/>
		<line id="XMLID_801_" class="st1" x1="855.303" y1="-805.303" x2="2788.812" y2="-2738.811"/>
		<line id="XMLID_800_" class="st1" x1="805.303" y1="-805.303" x2="2738.812" y2="-2738.811"/>
		<line id="XMLID_799_" class="st1" x1="755.303" y1="-805.303" x2="2688.812" y2="-2738.811"/>
		<line id="XMLID_798_" class="st1" x1="705.303" y1="-805.303" x2="2638.812" y2="-2738.811"/>
		<line id="XMLID_797_" class="st1" x1="655.303" y1="-805.303" x2="2588.812" y2="-2738.811"/>
		<line id="XMLID_796_" class="st1" x1="605.303" y1="-805.303" x2="2538.812" y2="-2738.811"/>
		<line id="XMLID_795_" class="st1" x1="555.303" y1="-805.303" x2="2488.812" y2="-2738.811"/>
		<line id="XMLID_794_" class="st1" x1="505.303" y1="-805.303" x2="2438.812" y2="-2738.811"/>
		<line id="XMLID_793_" class="st1" x1="455.303" y1="-805.303" x2="2388.812" y2="-2738.811"/>
		<line id="XMLID_792_" class="st1" x1="405.303" y1="-805.303" x2="2338.812" y2="-2738.811"/>
		<line id="XMLID_791_" class="st1" x1="355.303" y1="-805.303" x2="2288.812" y2="-2738.811"/>
		<line id="XMLID_790_" class="st1" x1="305.303" y1="-805.303" x2="2238.812" y2="-2738.811"/>
		<line id="XMLID_789_" class="st1" x1="255.303" y1="-805.303" x2="2188.812" y2="-2738.811"/>
		<line id="XMLID_788_" class="st1" x1="205.303" y1="-805.303" x2="2138.812" y2="-2738.811"/>
		<line id="XMLID_787_" class="st1" x1="155.303" y1="-805.303" x2="2088.812" y2="-2738.811"/>
		<line id="XMLID_786_" class="st1" x1="105.303" y1="-805.303" x2="2038.812" y2="-2738.811"/>
		<line id="XMLID_785_" class="st1" x1="55.303" y1="-805.303" x2="1988.812" y2="-2738.811"/>
		<line id="XMLID_784_" class="st1" x1="5.303" y1="-805.303" x2="1938.812" y2="-2738.811"/>
		<line id="XMLID_783_" class="st1" x1="1205.303" y1="-905.303" x2="3138.812" y2="-2838.811"/>
		<line id="XMLID_782_" class="st1" x1="1155.303" y1="-905.303" x2="3088.812" y2="-2838.811"/>
		<line id="XMLID_781_" class="st1" x1="1105.303" y1="-905.303" x2="3038.812" y2="-2838.811"/>
		<line id="XMLID_780_" class="st1" x1="1055.303" y1="-905.303" x2="2988.812" y2="-2838.811"/>
		<line id="XMLID_779_" class="st1" x1="1005.303" y1="-905.303" x2="2938.812" y2="-2838.811"/>
		<line id="XMLID_778_" class="st1" x1="955.303" y1="-905.303" x2="2888.812" y2="-2838.811"/>
		<line id="XMLID_777_" class="st1" x1="905.303" y1="-905.303" x2="2838.812" y2="-2838.811"/>
		<line id="XMLID_776_" class="st1" x1="855.303" y1="-905.303" x2="2788.812" y2="-2838.811"/>
		<line id="XMLID_775_" class="st1" x1="805.303" y1="-905.303" x2="2738.812" y2="-2838.811"/>
		<line id="XMLID_774_" class="st1" x1="755.303" y1="-905.303" x2="2688.812" y2="-2838.811"/>
		<line id="XMLID_773_" class="st1" x1="705.303" y1="-905.303" x2="2638.812" y2="-2838.811"/>
		<line id="XMLID_772_" class="st1" x1="655.303" y1="-905.303" x2="2588.812" y2="-2838.811"/>
		<line id="XMLID_771_" class="st1" x1="605.303" y1="-905.303" x2="2538.812" y2="-2838.811"/>
		<line id="XMLID_770_" class="st1" x1="555.303" y1="-905.303" x2="2488.812" y2="-2838.811"/>
		<line id="XMLID_769_" class="st1" x1="505.303" y1="-905.303" x2="2438.812" y2="-2838.811"/>
		<line id="XMLID_768_" class="st1" x1="455.303" y1="-905.303" x2="2388.812" y2="-2838.811"/>
		<line id="XMLID_767_" class="st1" x1="405.303" y1="-905.303" x2="2338.812" y2="-2838.811"/>
		<line id="XMLID_766_" class="st1" x1="355.303" y1="-905.303" x2="2288.812" y2="-2838.811"/>
		<line id="XMLID_765_" class="st1" x1="305.303" y1="-905.303" x2="2238.812" y2="-2838.811"/>
		<line id="XMLID_764_" class="st1" x1="255.303" y1="-905.303" x2="2188.812" y2="-2838.811"/>
		<line id="XMLID_763_" class="st1" x1="205.303" y1="-905.303" x2="2138.812" y2="-2838.811"/>
		<line id="XMLID_762_" class="st1" x1="155.303" y1="-905.303" x2="2088.812" y2="-2838.811"/>
		<line id="XMLID_761_" class="st1" x1="105.303" y1="-905.303" x2="2038.812" y2="-2838.811"/>
		<line id="XMLID_760_" class="st1" x1="55.303" y1="-905.303" x2="1988.812" y2="-2838.811"/>
		<line id="XMLID_759_" class="st1" x1="5.303" y1="-905.303" x2="1938.812" y2="-2838.811"/>
		<line id="XMLID_758_" class="st1" x1="1205.303" y1="-1005.303" x2="3138.812" y2="-2938.811"/>
		<line id="XMLID_757_" class="st1" x1="1155.303" y1="-1005.303" x2="3088.812" y2="-2938.811"/>
		<line id="XMLID_756_" class="st1" x1="1105.303" y1="-1005.303" x2="3038.812" y2="-2938.811"/>
		<line id="XMLID_755_" class="st1" x1="1055.303" y1="-1005.303" x2="2988.812" y2="-2938.811"/>
		<line id="XMLID_754_" class="st1" x1="1005.303" y1="-1005.303" x2="2938.812" y2="-2938.811"/>
		<line id="XMLID_753_" class="st1" x1="955.303" y1="-1005.303" x2="2888.812" y2="-2938.811"/>
		<line id="XMLID_752_" class="st1" x1="905.303" y1="-1005.303" x2="2838.812" y2="-2938.811"/>
		<line id="XMLID_751_" class="st1" x1="855.303" y1="-1005.303" x2="2788.812" y2="-2938.811"/>
		<line id="XMLID_750_" class="st1" x1="805.303" y1="-1005.303" x2="2738.812" y2="-2938.811"/>
		<line id="XMLID_749_" class="st1" x1="755.303" y1="-1005.303" x2="2688.812" y2="-2938.811"/>
		<line id="XMLID_748_" class="st1" x1="705.303" y1="-1005.303" x2="2638.812" y2="-2938.811"/>
		<line id="XMLID_747_" class="st1" x1="655.303" y1="-1005.303" x2="2588.812" y2="-2938.811"/>
		<line id="XMLID_746_" class="st1" x1="605.303" y1="-1005.303" x2="2538.812" y2="-2938.811"/>
		<line id="XMLID_745_" class="st1" x1="555.303" y1="-1005.303" x2="2488.812" y2="-2938.811"/>
		<line id="XMLID_744_" class="st1" x1="505.303" y1="-1005.303" x2="2438.812" y2="-2938.811"/>
		<line id="XMLID_743_" class="st1" x1="455.303" y1="-1005.303" x2="2388.812" y2="-2938.811"/>
		<line id="XMLID_742_" class="st1" x1="405.303" y1="-1005.303" x2="2338.812" y2="-2938.811"/>
		<line id="XMLID_741_" class="st1" x1="355.303" y1="-1005.303" x2="2288.812" y2="-2938.811"/>
		<line id="XMLID_740_" class="st1" x1="305.303" y1="-1005.303" x2="2238.812" y2="-2938.811"/>
		<line id="XMLID_739_" class="st1" x1="255.303" y1="-1005.303" x2="2188.812" y2="-2938.811"/>
		<line id="XMLID_738_" class="st1" x1="205.303" y1="-1005.303" x2="2138.812" y2="-2938.811"/>
		<line id="XMLID_737_" class="st1" x1="155.303" y1="-1005.303" x2="2088.812" y2="-2938.811"/>
		<line id="XMLID_736_" class="st1" x1="105.303" y1="-1005.303" x2="2038.812" y2="-2938.811"/>
		<line id="XMLID_735_" class="st1" x1="55.303" y1="-1005.303" x2="1988.812" y2="-2938.811"/>
		<line id="XMLID_734_" class="st1" x1="5.303" y1="-1005.303" x2="1938.812" y2="-2938.811"/>
		<line id="XMLID_733_" class="st1" x1="1205.303" y1="-1105.303" x2="3138.812" y2="-3038.811"/>
		<line id="XMLID_732_" class="st1" x1="1155.303" y1="-1105.303" x2="3088.812" y2="-3038.811"/>
		<line id="XMLID_731_" class="st1" x1="1105.303" y1="-1105.303" x2="3038.812" y2="-3038.811"/>
		<line id="XMLID_730_" class="st1" x1="1055.303" y1="-1105.303" x2="2988.812" y2="-3038.811"/>
		<line id="XMLID_729_" class="st1" x1="1005.303" y1="-1105.303" x2="2938.812" y2="-3038.811"/>
		<line id="XMLID_728_" class="st1" x1="955.303" y1="-1105.303" x2="2888.812" y2="-3038.811"/>
		<line id="XMLID_727_" class="st1" x1="905.303" y1="-1105.303" x2="2838.812" y2="-3038.811"/>
		<line id="XMLID_726_" class="st1" x1="855.303" y1="-1105.303" x2="2788.812" y2="-3038.811"/>
		<line id="XMLID_725_" class="st1" x1="805.303" y1="-1105.303" x2="2738.812" y2="-3038.811"/>
		<line id="XMLID_724_" class="st1" x1="755.303" y1="-1105.303" x2="2688.812" y2="-3038.811"/>
		<line id="XMLID_723_" class="st1" x1="705.303" y1="-1105.303" x2="2638.812" y2="-3038.811"/>
		<line id="XMLID_722_" class="st1" x1="655.303" y1="-1105.303" x2="2588.812" y2="-3038.811"/>
		<line id="XMLID_721_" class="st1" x1="605.303" y1="-1105.303" x2="2538.812" y2="-3038.811"/>
		<line id="XMLID_720_" class="st1" x1="555.303" y1="-1105.303" x2="2488.812" y2="-3038.811"/>
		<line id="XMLID_719_" class="st1" x1="505.303" y1="-1105.303" x2="2438.812" y2="-3038.811"/>
		<line id="XMLID_718_" class="st1" x1="455.303" y1="-1105.303" x2="2388.812" y2="-3038.811"/>
		<line id="XMLID_717_" class="st1" x1="405.303" y1="-1105.303" x2="2338.812" y2="-3038.811"/>
		<line id="XMLID_716_" class="st1" x1="355.303" y1="-1105.303" x2="2288.812" y2="-3038.811"/>
		<line id="XMLID_715_" class="st1" x1="305.303" y1="-1105.303" x2="2238.812" y2="-3038.811"/>
		<line id="XMLID_714_" class="st1" x1="255.303" y1="-1105.303" x2="2188.812" y2="-3038.811"/>
		<line id="XMLID_713_" class="st1" x1="205.303" y1="-1105.303" x2="2138.812" y2="-3038.811"/>
		<line id="XMLID_712_" class="st1" x1="155.303" y1="-1105.303" x2="2088.812" y2="-3038.811"/>
		<line id="XMLID_711_" class="st1" x1="105.303" y1="-1105.303" x2="2038.812" y2="-3038.811"/>
		<line id="XMLID_710_" class="st1" x1="55.303" y1="-1105.303" x2="1988.812" y2="-3038.811"/>
		<line id="XMLID_709_" class="st1" x1="5.303" y1="-1105.303" x2="1938.812" y2="-3038.811"/>
		<line id="XMLID_708_" class="st1" x1="1205.303" y1="-1205.303" x2="3138.812" y2="-3138.811"/>
		<line id="XMLID_707_" class="st1" x1="1155.303" y1="-1205.303" x2="3088.812" y2="-3138.811"/>
		<line id="XMLID_706_" class="st1" x1="1105.303" y1="-1205.303" x2="3038.812" y2="-3138.811"/>
		<line id="XMLID_705_" class="st1" x1="1055.303" y1="-1205.303" x2="2988.812" y2="-3138.811"/>
		<line id="XMLID_704_" class="st1" x1="1005.303" y1="-1205.303" x2="2938.812" y2="-3138.811"/>
		<line id="XMLID_703_" class="st1" x1="955.303" y1="-1205.303" x2="2888.812" y2="-3138.811"/>
		<line id="XMLID_702_" class="st1" x1="905.303" y1="-1205.303" x2="2838.812" y2="-3138.811"/>
		<line id="XMLID_701_" class="st1" x1="855.303" y1="-1205.303" x2="2788.812" y2="-3138.811"/>
		<line id="XMLID_700_" class="st1" x1="805.303" y1="-1205.303" x2="2738.812" y2="-3138.811"/>
		<line id="XMLID_699_" class="st1" x1="755.303" y1="-1205.303" x2="2688.812" y2="-3138.811"/>
		<line id="XMLID_698_" class="st1" x1="705.303" y1="-1205.303" x2="2638.812" y2="-3138.811"/>
		<line id="XMLID_697_" class="st1" x1="655.303" y1="-1205.303" x2="2588.812" y2="-3138.811"/>
		<line id="XMLID_696_" class="st1" x1="605.303" y1="-1205.303" x2="2538.812" y2="-3138.811"/>
		<line id="XMLID_695_" class="st1" x1="555.303" y1="-1205.303" x2="2488.812" y2="-3138.811"/>
		<line id="XMLID_694_" class="st1" x1="505.303" y1="-1205.303" x2="2438.812" y2="-3138.811"/>
		<line id="XMLID_693_" class="st1" x1="455.303" y1="-1205.303" x2="2388.812" y2="-3138.811"/>
		<line id="XMLID_692_" class="st1" x1="405.303" y1="-1205.303" x2="2338.812" y2="-3138.811"/>
		<line id="XMLID_691_" class="st1" x1="355.303" y1="-1205.303" x2="2288.812" y2="-3138.811"/>
		<line id="XMLID_690_" class="st1" x1="305.303" y1="-1205.303" x2="2238.812" y2="-3138.811"/>
		<line id="XMLID_689_" class="st1" x1="255.303" y1="-1205.303" x2="2188.812" y2="-3138.811"/>
		<line id="XMLID_688_" class="st1" x1="205.303" y1="-1205.303" x2="2138.812" y2="-3138.811"/>
		<line id="XMLID_687_" class="st1" x1="155.303" y1="-1205.303" x2="2088.812" y2="-3138.811"/>
		<line id="XMLID_686_" class="st1" x1="105.303" y1="-1205.303" x2="2038.812" y2="-3138.811"/>
		<line id="XMLID_685_" class="st1" x1="55.303" y1="-1205.303" x2="1988.812" y2="-3138.811"/>
		<line id="XMLID_684_" class="st1" x1="5.303" y1="-1205.303" x2="1938.812" y2="-3138.811"/>
		<line id="XMLID_683_" class="st1" x1="1205.303" y1="-1305.303" x2="3138.812" y2="-3238.811"/>
		<line id="XMLID_682_" class="st1" x1="1155.303" y1="-1305.303" x2="3088.812" y2="-3238.811"/>
		<line id="XMLID_681_" class="st1" x1="1105.303" y1="-1305.303" x2="3038.812" y2="-3238.811"/>
		<line id="XMLID_680_" class="st1" x1="1055.303" y1="-1305.303" x2="2988.812" y2="-3238.811"/>
		<line id="XMLID_679_" class="st1" x1="1005.303" y1="-1305.303" x2="2938.812" y2="-3238.811"/>
		<line id="XMLID_678_" class="st1" x1="955.303" y1="-1305.303" x2="2888.812" y2="-3238.811"/>
		<line id="XMLID_677_" class="st1" x1="905.303" y1="-1305.303" x2="2838.812" y2="-3238.811"/>
		<line id="XMLID_676_" class="st1" x1="855.303" y1="-1305.303" x2="2788.812" y2="-3238.811"/>
		<line id="XMLID_675_" class="st1" x1="805.303" y1="-1305.303" x2="2738.812" y2="-3238.811"/>
		<line id="XMLID_674_" class="st1" x1="755.303" y1="-1305.303" x2="2688.812" y2="-3238.811"/>
		<line id="XMLID_673_" class="st1" x1="705.303" y1="-1305.303" x2="2638.812" y2="-3238.811"/>
		<line id="XMLID_672_" class="st1" x1="655.303" y1="-1305.303" x2="2588.812" y2="-3238.811"/>
		<line id="XMLID_671_" class="st1" x1="605.303" y1="-1305.303" x2="2538.812" y2="-3238.811"/>
		<line id="XMLID_670_" class="st1" x1="555.303" y1="-1305.303" x2="2488.812" y2="-3238.811"/>
		<line id="XMLID_669_" class="st1" x1="505.303" y1="-1305.303" x2="2438.812" y2="-3238.811"/>
		<line id="XMLID_668_" class="st1" x1="455.303" y1="-1305.303" x2="2388.812" y2="-3238.811"/>
		<line id="XMLID_667_" class="st1" x1="405.303" y1="-1305.303" x2="2338.812" y2="-3238.811"/>
		<line id="XMLID_666_" class="st1" x1="355.303" y1="-1305.303" x2="2288.812" y2="-3238.811"/>
		<line id="XMLID_665_" class="st1" x1="305.303" y1="-1305.303" x2="2238.812" y2="-3238.811"/>
		<line id="XMLID_664_" class="st1" x1="255.303" y1="-1305.303" x2="2188.812" y2="-3238.811"/>
		<line id="XMLID_663_" class="st1" x1="205.303" y1="-1305.303" x2="2138.812" y2="-3238.811"/>
		<line id="XMLID_662_" class="st1" x1="155.303" y1="-1305.303" x2="2088.812" y2="-3238.811"/>
		<line id="XMLID_661_" class="st1" x1="105.303" y1="-1305.303" x2="2038.812" y2="-3238.811"/>
		<line id="XMLID_660_" class="st1" x1="55.303" y1="-1305.303" x2="1988.812" y2="-3238.811"/>
		<line id="XMLID_659_" class="st1" x1="5.303" y1="-1305.303" x2="1938.812" y2="-3238.811"/>
		<line id="XMLID_658_" class="st1" x1="1205.303" y1="-1405.303" x2="3138.812" y2="-3338.811"/>
		<line id="XMLID_657_" class="st1" x1="1155.303" y1="-1405.303" x2="3088.812" y2="-3338.811"/>
		<line id="XMLID_656_" class="st1" x1="1105.303" y1="-1405.303" x2="3038.812" y2="-3338.811"/>
		<line id="XMLID_655_" class="st1" x1="1055.303" y1="-1405.303" x2="2988.812" y2="-3338.811"/>
		<line id="XMLID_654_" class="st1" x1="1005.303" y1="-1405.303" x2="2938.812" y2="-3338.811"/>
		<line id="XMLID_653_" class="st1" x1="955.303" y1="-1405.303" x2="2888.812" y2="-3338.811"/>
		<line id="XMLID_652_" class="st1" x1="905.303" y1="-1405.303" x2="2838.812" y2="-3338.811"/>
		<line id="XMLID_651_" class="st1" x1="855.303" y1="-1405.303" x2="2788.812" y2="-3338.811"/>
		<line id="XMLID_650_" class="st1" x1="805.303" y1="-1405.303" x2="2738.812" y2="-3338.811"/>
		<line id="XMLID_649_" class="st1" x1="755.303" y1="-1405.303" x2="2688.812" y2="-3338.811"/>
		<line id="XMLID_648_" class="st1" x1="705.303" y1="-1405.303" x2="2638.812" y2="-3338.811"/>
		<line id="XMLID_647_" class="st1" x1="655.303" y1="-1405.303" x2="2588.812" y2="-3338.811"/>
		<line id="XMLID_646_" class="st1" x1="605.303" y1="-1405.303" x2="2538.812" y2="-3338.811"/>
		<line id="XMLID_645_" class="st1" x1="555.303" y1="-1405.303" x2="2488.812" y2="-3338.811"/>
		<line id="XMLID_644_" class="st1" x1="505.303" y1="-1405.303" x2="2438.812" y2="-3338.811"/>
		<line id="XMLID_643_" class="st1" x1="455.303" y1="-1405.303" x2="2388.812" y2="-3338.811"/>
		<line id="XMLID_642_" class="st1" x1="405.303" y1="-1405.303" x2="2338.812" y2="-3338.811"/>
		<line id="XMLID_641_" class="st1" x1="355.303" y1="-1405.303" x2="2288.812" y2="-3338.811"/>
		<line id="XMLID_640_" class="st1" x1="305.303" y1="-1405.303" x2="2238.812" y2="-3338.811"/>
		<line id="XMLID_639_" class="st1" x1="255.303" y1="-1405.303" x2="2188.812" y2="-3338.811"/>
		<line id="XMLID_638_" class="st1" x1="205.303" y1="-1405.303" x2="2138.812" y2="-3338.811"/>
		<line id="XMLID_637_" class="st1" x1="155.303" y1="-1405.303" x2="2088.812" y2="-3338.811"/>
		<line id="XMLID_636_" class="st1" x1="105.303" y1="-1405.303" x2="2038.812" y2="-3338.811"/>
		<line id="XMLID_635_" class="st1" x1="55.303" y1="-1405.303" x2="1988.812" y2="-3338.811"/>
		<line id="XMLID_634_" class="st1" x1="5.303" y1="-1405.303" x2="1938.812" y2="-3338.811"/>
		<line id="XMLID_633_" class="st1" x1="1205.303" y1="-1505.303" x2="3138.812" y2="-3438.811"/>
		<line id="XMLID_632_" class="st1" x1="1155.303" y1="-1505.303" x2="3088.812" y2="-3438.811"/>
		<line id="XMLID_631_" class="st1" x1="1105.303" y1="-1505.303" x2="3038.812" y2="-3438.811"/>
		<line id="XMLID_630_" class="st1" x1="1055.303" y1="-1505.303" x2="2988.812" y2="-3438.811"/>
		<line id="XMLID_629_" class="st1" x1="1005.303" y1="-1505.303" x2="2938.812" y2="-3438.811"/>
		<line id="XMLID_628_" class="st1" x1="955.303" y1="-1505.303" x2="2888.812" y2="-3438.811"/>
		<line id="XMLID_627_" class="st1" x1="905.303" y1="-1505.303" x2="2838.812" y2="-3438.811"/>
		<line id="XMLID_626_" class="st1" x1="855.303" y1="-1505.303" x2="2788.812" y2="-3438.811"/>
		<line id="XMLID_625_" class="st1" x1="805.303" y1="-1505.303" x2="2738.812" y2="-3438.811"/>
		<line id="XMLID_624_" class="st1" x1="755.303" y1="-1505.303" x2="2688.812" y2="-3438.811"/>
		<line id="XMLID_623_" class="st1" x1="705.303" y1="-1505.303" x2="2638.812" y2="-3438.811"/>
		<line id="XMLID_622_" class="st1" x1="655.303" y1="-1505.303" x2="2588.812" y2="-3438.811"/>
		<line id="XMLID_621_" class="st1" x1="605.303" y1="-1505.303" x2="2538.812" y2="-3438.811"/>
		<line id="XMLID_620_" class="st1" x1="555.303" y1="-1505.303" x2="2488.812" y2="-3438.811"/>
		<line id="XMLID_619_" class="st1" x1="505.303" y1="-1505.303" x2="2438.812" y2="-3438.811"/>
		<line id="XMLID_618_" class="st1" x1="455.303" y1="-1505.303" x2="2388.812" y2="-3438.811"/>
		<line id="XMLID_617_" class="st1" x1="405.303" y1="-1505.303" x2="2338.812" y2="-3438.811"/>
		<line id="XMLID_616_" class="st1" x1="355.303" y1="-1505.303" x2="2288.812" y2="-3438.811"/>
		<line id="XMLID_615_" class="st1" x1="305.303" y1="-1505.303" x2="2238.812" y2="-3438.811"/>
		<line id="XMLID_614_" class="st1" x1="255.303" y1="-1505.303" x2="2188.812" y2="-3438.811"/>
		<line id="XMLID_613_" class="st1" x1="205.303" y1="-1505.303" x2="2138.812" y2="-3438.811"/>
		<line id="XMLID_612_" class="st1" x1="155.303" y1="-1505.303" x2="2088.812" y2="-3438.811"/>
		<line id="XMLID_611_" class="st1" x1="105.303" y1="-1505.303" x2="2038.812" y2="-3438.811"/>
		<line id="XMLID_610_" class="st1" x1="55.303" y1="-1505.303" x2="1988.812" y2="-3438.811"/>
		<line id="XMLID_609_" class="st1" x1="5.303" y1="-1505.303" x2="1938.812" y2="-3438.811"/>
		<line id="XMLID_608_" class="st1" x1="1205.303" y1="-1605.303" x2="3138.812" y2="-3538.811"/>
		<line id="XMLID_607_" class="st1" x1="1155.303" y1="-1605.303" x2="3088.812" y2="-3538.811"/>
		<line id="XMLID_606_" class="st1" x1="1105.303" y1="-1605.303" x2="3038.812" y2="-3538.811"/>
		<line id="XMLID_605_" class="st1" x1="1055.303" y1="-1605.303" x2="2988.812" y2="-3538.811"/>
		<line id="XMLID_604_" class="st1" x1="1005.303" y1="-1605.303" x2="2938.812" y2="-3538.811"/>
		<line id="XMLID_603_" class="st1" x1="955.303" y1="-1605.303" x2="2888.812" y2="-3538.811"/>
		<line id="XMLID_602_" class="st1" x1="905.303" y1="-1605.303" x2="2838.812" y2="-3538.811"/>
		<line id="XMLID_601_" class="st1" x1="855.303" y1="-1605.303" x2="2788.812" y2="-3538.811"/>
		<line id="XMLID_600_" class="st1" x1="805.303" y1="-1605.303" x2="2738.812" y2="-3538.811"/>
		<line id="XMLID_599_" class="st1" x1="755.303" y1="-1605.303" x2="2688.812" y2="-3538.811"/>
		<line id="XMLID_598_" class="st1" x1="705.303" y1="-1605.303" x2="2638.812" y2="-3538.811"/>
		<line id="XMLID_597_" class="st1" x1="655.303" y1="-1605.303" x2="2588.812" y2="-3538.811"/>
		<line id="XMLID_596_" class="st1" x1="605.303" y1="-1605.303" x2="2538.812" y2="-3538.811"/>
		<line id="XMLID_595_" class="st1" x1="555.303" y1="-1605.303" x2="2488.812" y2="-3538.811"/>
		<line id="XMLID_594_" class="st1" x1="505.303" y1="-1605.303" x2="2438.812" y2="-3538.811"/>
		<line id="XMLID_593_" class="st1" x1="455.303" y1="-1605.303" x2="2388.812" y2="-3538.811"/>
		<line id="XMLID_592_" class="st1" x1="405.303" y1="-1605.303" x2="2338.812" y2="-3538.811"/>
		<line id="XMLID_591_" class="st1" x1="355.303" y1="-1605.303" x2="2288.812" y2="-3538.811"/>
		<line id="XMLID_590_" class="st1" x1="305.303" y1="-1605.303" x2="2238.812" y2="-3538.811"/>
		<line id="XMLID_589_" class="st1" x1="255.303" y1="-1605.303" x2="2188.812" y2="-3538.811"/>
		<line id="XMLID_588_" class="st1" x1="205.303" y1="-1605.303" x2="2138.812" y2="-3538.811"/>
		<line id="XMLID_587_" class="st1" x1="155.303" y1="-1605.303" x2="2088.812" y2="-3538.811"/>
		<line id="XMLID_586_" class="st1" x1="105.303" y1="-1605.303" x2="2038.812" y2="-3538.811"/>
		<line id="XMLID_585_" class="st1" x1="55.303" y1="-1605.303" x2="1988.812" y2="-3538.811"/>
		<line id="XMLID_584_" class="st1" x1="5.303" y1="-1605.303" x2="1938.812" y2="-3538.811"/>
		<line id="XMLID_583_" class="st1" x1="1205.303" y1="-1705.303" x2="3138.812" y2="-3638.811"/>
		<line id="XMLID_581_" class="st1" x1="1155.303" y1="-1705.303" x2="3088.812" y2="-3638.811"/>
		<line id="XMLID_580_" class="st1" x1="1105.303" y1="-1705.303" x2="3038.812" y2="-3638.811"/>
		<line id="XMLID_579_" class="st1" x1="1055.303" y1="-1705.303" x2="2988.812" y2="-3638.811"/>
		<line id="XMLID_578_" class="st1" x1="1005.303" y1="-1705.303" x2="2938.812" y2="-3638.811"/>
		<line id="XMLID_577_" class="st1" x1="955.303" y1="-1705.303" x2="2888.812" y2="-3638.811"/>
		<line id="XMLID_576_" class="st1" x1="905.303" y1="-1705.303" x2="2838.812" y2="-3638.811"/>
		<line id="XMLID_575_" class="st1" x1="855.303" y1="-1705.303" x2="2788.812" y2="-3638.811"/>
		<line id="XMLID_574_" class="st1" x1="805.303" y1="-1705.303" x2="2738.812" y2="-3638.811"/>
		<line id="XMLID_573_" class="st1" x1="755.303" y1="-1705.303" x2="2688.812" y2="-3638.811"/>
		<line id="XMLID_572_" class="st1" x1="705.303" y1="-1705.303" x2="2638.812" y2="-3638.811"/>
		<line id="XMLID_571_" class="st1" x1="655.303" y1="-1705.303" x2="2588.812" y2="-3638.811"/>
		<line id="XMLID_570_" class="st1" x1="605.303" y1="-1705.303" x2="2538.812" y2="-3638.811"/>
		<line id="XMLID_569_" class="st1" x1="555.303" y1="-1705.303" x2="2488.812" y2="-3638.811"/>
		<line id="XMLID_568_" class="st1" x1="505.303" y1="-1705.303" x2="2438.812" y2="-3638.811"/>
		<line id="XMLID_567_" class="st1" x1="455.303" y1="-1705.303" x2="2388.812" y2="-3638.811"/>
		<line id="XMLID_566_" class="st1" x1="405.303" y1="-1705.303" x2="2338.812" y2="-3638.811"/>
		<line id="XMLID_565_" class="st1" x1="355.303" y1="-1705.303" x2="2288.812" y2="-3638.811"/>
		<line id="XMLID_564_" class="st1" x1="305.303" y1="-1705.303" x2="2238.812" y2="-3638.811"/>
		<line id="XMLID_563_" class="st1" x1="255.303" y1="-1705.303" x2="2188.812" y2="-3638.811"/>
		<line id="XMLID_562_" class="st1" x1="205.303" y1="-1705.303" x2="2138.812" y2="-3638.811"/>
		<line id="XMLID_561_" class="st1" x1="155.303" y1="-1705.303" x2="2088.812" y2="-3638.811"/>
		<line id="XMLID_560_" class="st1" x1="105.303" y1="-1705.303" x2="2038.812" y2="-3638.811"/>
		<line id="XMLID_559_" class="st1" x1="55.303" y1="-1705.303" x2="1988.812" y2="-3638.811"/>
		<line id="XMLID_558_" class="st1" x1="5.303" y1="-1705.303" x2="1938.812" y2="-3638.811"/>
		<line id="XMLID_557_" class="st1" x1="1205.303" y1="-1805.303" x2="3138.812" y2="-3738.811"/>
		<line id="XMLID_306_" class="st1" x1="1155.303" y1="-1805.303" x2="3088.812" y2="-3738.811"/>
		<line id="XMLID_305_" class="st1" x1="1105.303" y1="-1805.303" x2="3038.812" y2="-3738.811"/>
		<line id="XMLID_304_" class="st1" x1="1055.303" y1="-1805.303" x2="2988.812" y2="-3738.811"/>
		<line id="XMLID_303_" class="st1" x1="1005.303" y1="-1805.303" x2="2938.812" y2="-3738.811"/>
		<line id="XMLID_302_" class="st1" x1="955.303" y1="-1805.303" x2="2888.812" y2="-3738.811"/>
		<line id="XMLID_301_" class="st1" x1="905.303" y1="-1805.303" x2="2838.812" y2="-3738.811"/>
		<line id="XMLID_300_" class="st1" x1="855.303" y1="-1805.303" x2="2788.812" y2="-3738.811"/>
		<line id="XMLID_299_" class="st1" x1="805.303" y1="-1805.303" x2="2738.812" y2="-3738.811"/>
		<line id="XMLID_298_" class="st1" x1="755.303" y1="-1805.303" x2="2688.812" y2="-3738.811"/>
		<line id="XMLID_297_" class="st1" x1="705.303" y1="-1805.303" x2="2638.812" y2="-3738.811"/>
		<line id="XMLID_296_" class="st1" x1="655.303" y1="-1805.303" x2="2588.812" y2="-3738.811"/>
		<line id="XMLID_295_" class="st1" x1="605.303" y1="-1805.303" x2="2538.812" y2="-3738.811"/>
		<line id="XMLID_294_" class="st1" x1="555.303" y1="-1805.303" x2="2488.812" y2="-3738.811"/>
		<line id="XMLID_293_" class="st1" x1="505.303" y1="-1805.303" x2="2438.812" y2="-3738.811"/>
		<line id="XMLID_292_" class="st1" x1="455.303" y1="-1805.303" x2="2388.812" y2="-3738.811"/>
		<line id="XMLID_291_" class="st1" x1="405.303" y1="-1805.303" x2="2338.812" y2="-3738.811"/>
		<line id="XMLID_290_" class="st1" x1="355.303" y1="-1805.303" x2="2288.812" y2="-3738.811"/>
		<line id="XMLID_289_" class="st1" x1="305.303" y1="-1805.303" x2="2238.812" y2="-3738.811"/>
		<line id="XMLID_288_" class="st1" x1="255.303" y1="-1805.303" x2="2188.812" y2="-3738.811"/>
		<line id="XMLID_287_" class="st1" x1="205.303" y1="-1805.303" x2="2138.812" y2="-3738.811"/>
		<line id="XMLID_286_" class="st1" x1="155.303" y1="-1805.303" x2="2088.812" y2="-3738.811"/>
		<line id="XMLID_285_" class="st1" x1="105.303" y1="-1805.303" x2="2038.812" y2="-3738.811"/>
		<line id="XMLID_284_" class="st1" x1="55.303" y1="-1805.303" x2="1988.812" y2="-3738.811"/>
		<line id="XMLID_283_" class="st1" x1="5.303" y1="-1805.303" x2="1938.812" y2="-3738.811"/>
		<line id="XMLID_282_" class="st1" x1="1205.303" y1="-1905.303" x2="3138.812" y2="-3838.811"/>
		<line id="XMLID_281_" class="st1" x1="1155.303" y1="-1905.303" x2="3088.812" y2="-3838.811"/>
		<line id="XMLID_280_" class="st1" x1="1105.303" y1="-1905.303" x2="3038.812" y2="-3838.811"/>
		<line id="XMLID_279_" class="st1" x1="1055.303" y1="-1905.303" x2="2988.812" y2="-3838.811"/>
		<line id="XMLID_278_" class="st1" x1="1005.303" y1="-1905.303" x2="2938.812" y2="-3838.811"/>
		<line id="XMLID_277_" class="st1" x1="955.303" y1="-1905.303" x2="2888.812" y2="-3838.811"/>
		<line id="XMLID_276_" class="st1" x1="905.303" y1="-1905.303" x2="2838.812" y2="-3838.811"/>
		<line id="XMLID_275_" class="st1" x1="855.303" y1="-1905.303" x2="2788.812" y2="-3838.811"/>
		<line id="XMLID_274_" class="st1" x1="805.303" y1="-1905.303" x2="2738.812" y2="-3838.811"/>
		<line id="XMLID_273_" class="st1" x1="755.303" y1="-1905.303" x2="2688.812" y2="-3838.811"/>
		<line id="XMLID_272_" class="st1" x1="705.303" y1="-1905.303" x2="2638.812" y2="-3838.811"/>
		<line id="XMLID_271_" class="st1" x1="655.303" y1="-1905.303" x2="2588.812" y2="-3838.811"/>
		<line id="XMLID_270_" class="st1" x1="605.303" y1="-1905.303" x2="2538.812" y2="-3838.811"/>
		<line id="XMLID_269_" class="st1" x1="555.303" y1="-1905.303" x2="2488.812" y2="-3838.811"/>
		<line id="XMLID_268_" class="st1" x1="505.303" y1="-1905.303" x2="2438.812" y2="-3838.811"/>
		<line id="XMLID_267_" class="st1" x1="455.303" y1="-1905.303" x2="2388.812" y2="-3838.811"/>
		<line id="XMLID_266_" class="st1" x1="405.303" y1="-1905.303" x2="2338.812" y2="-3838.811"/>
		<line id="XMLID_265_" class="st1" x1="355.303" y1="-1905.303" x2="2288.812" y2="-3838.811"/>
		<line id="XMLID_264_" class="st1" x1="305.303" y1="-1905.303" x2="2238.812" y2="-3838.811"/>
		<line id="XMLID_263_" class="st1" x1="255.303" y1="-1905.303" x2="2188.812" y2="-3838.811"/>
		<line id="XMLID_262_" class="st1" x1="205.303" y1="-1905.303" x2="2138.812" y2="-3838.811"/>
		<line id="XMLID_261_" class="st1" x1="155.303" y1="-1905.303" x2="2088.812" y2="-3838.811"/>
		<line id="XMLID_260_" class="st1" x1="105.303" y1="-1905.303" x2="2038.812" y2="-3838.811"/>
		<line id="XMLID_259_" class="st1" x1="55.303" y1="-1905.303" x2="1988.812" y2="-3838.811"/>
		<line id="XMLID_258_" class="st1" x1="5.303" y1="-1905.303" x2="1938.812" y2="-3838.811"/>
	</g>
</pattern>
<rect id="XMLID_1_" class="st2" width="100" height="100"/>
</svg>
