<?xml version="1.0" encoding="UTF-8"?>
<svg width="240px" height="240px" viewBox="0 0 240 240" version="1.1" xmlns="http://www.w3.org/2000/svg" xmlns:xlink="http://www.w3.org/1999/xlink">
    <!-- Generator: Sketch 58 (84663) - https://sketch.com -->
    <title>Group 8</title>
    <desc>Created with Sketch.</desc>
    <g id="Data-vis-pages" stroke="none" stroke-width="1" fill="none" fill-rule="evenodd">
        <g id="Dataviz-overview-1-Copy-2" transform="translate(48,112)" fill="#0062FF">
            <g id="Group-8">
                <rect id="Rectangle-9-Copy-2" x="0" y="48" width="6" height="40"></rect>
                <rect id="Rectangle-9-Copy-4" x="14" y="39" width="6" height="49"></rect>
                <rect id="Rectangle-9-Copy-14" x="77" y="44" width="6" height="44"></rect>
                <rect id="Rectangle-9-Copy-6" x="28" y="31" width="6" height="57"></rect>
                <rect id="Rectangle-9-Copy-19" x="119" y="23" width="6" height="65"></rect>
                <rect id="Rectangle-9-Copy-20" x="126" y="29" width="6" height="59"></rect>
                <rect id="Rectangle-9-Copy-17" x="105" y="10" width="6" height="78"></rect>
                <rect id="Rectangle-9-Copy-22" x="140" y="0" width="6" height="88"></rect>
                <rect id="Rectangle-9-Copy-3" x="7" y="65" width="6" height="23"></rect>
                <rect id="Rectangle-9-Copy-13" x="70" y="65" width="6" height="23"></rect>
                <rect id="Rectangle-9-Copy-7" x="35" y="58" width="6" height="30"></rect>
                <rect id="Rectangle-9-Copy-15" x="84" y="58" width="6" height="30"></rect>
                <rect id="Rectangle-9-Copy-18" x="112" y="58" width="6" height="30"></rect>
                <rect id="Rectangle-9-Copy-8" x="98" y="75" width="6" height="13"></rect>
                <rect id="Rectangle-9-Copy-11" x="42" y="35" width="6" height="53"></rect>
                <rect id="Rectangle-9-Copy-9" x="49" y="72" width="6" height="16"></rect>
                <rect id="Rectangle-9-Copy-5" x="21" y="52" width="6" height="36"></rect>
                <rect id="Rectangle-9-Copy-12" x="63" y="52" width="6" height="36"></rect>
                <rect id="Rectangle-9-Copy-16" x="91" y="49" width="6" height="39"></rect>
                <rect id="Rectangle-9-Copy-21" x="133" y="49" width="6" height="39"></rect>
                <rect id="Rectangle-9-Copy-10" x="56" y="75" width="6" height="13"></rect>
            </g>
        </g>
    </g>
</svg>
