<?xml version="1.0" encoding="UTF-8"?>
<svg width="240px" height="240px" viewBox="0 0 240 240" version="1.1"
    xmlns="http://www.w3.org/2000/svg" xmlns:xlink="http://www.w3.org/1999/xlink">
    <!-- Generator: Sketch 58 (84663) - https://sketch.com -->
    <title>Group 10alluvial</title>
    <desc>Created with Sketch.</desc>
    <g id="Data-vis-pages" stroke="none" stroke-width="1" fill="none" fill-rule="evenodd">
        <g id="Dataviz-overview-1-Copy-2" transform="translate(48, 96)">
            <g id="Group-10">
                <path
                    d="M86.64849,79.6021804 C82.6890598,80.0059019 70.6882621,83.2133825 64.1120798,84.7960699 C60.6328775,85.6332347 55.1641595,86.136029 55,85.9676053 C63.1173219,85.6332347 80.3467236,78.23993 85.7786895,76.8380504 C91.6173789,75.3321445 96.091339,75.5823032 101.065128,75.5823032 C113.65641,75.5823032 123.510883,67.0001254 127.908889,64.1914126 C131.057322,62.1827124 133.750028,60.382065 141,59 C132.630313,61.3876535 129.565185,63.8570421 126.747521,66.034166 C123.932308,68.2112899 116.40792,74.8243966 108.354302,77.090686 C101.175385,79.1092935 93.0384615,78.9532539 86.64849,79.6021804 M147.834698,66.0425455 C147.834698,66.0425455 140.040809,66.9505262 135.821895,68.2197198 C132.483771,69.2217148 129.222131,70.6096634 124.472769,74.5780583 C118.465134,79.5954553 112.691883,83.0715119 105.117575,85.1175609 C112.459966,82.4406262 117.01442,80.3921032 122.972711,74.5780583 C129.313418,68.3854819 136.320269,63.533847 142.160135,63.533847 C142.325437,63.533847 147.499158,63.0316125 147.499158,63.0316125 L147.499158,55.0008083 C147.499158,55.0008083 136.821111,54.8325722 128.812576,59.3502087 C120.804041,63.8678453 118.968443,66.2948998 114.961708,68.5537181 C111.505159,70.5032787 107.454015,71.7328874 98.110724,71.7328874 C87.4302099,71.7328874 82.1750713,73.5735892 76.7941054,75.8324075 C72.4148232,77.2104599 66.4096554,79.9319277 61.4012369,81.1021589 C60.0294731,81.4237869 54.7792688,82.2525975 47.8883758,82.4406262 C29.6804308,82.9354386 0,82.4406262 0,82.4406262 L0,98 L54.0613133,98 C54.0613133,98 68.0651474,97.717957 76.2513211,96.8297688 C82.4267258,96.1617722 96.6081984,95.8252998 102.282761,95.4913015 C107.954857,95.1573032 115.129478,93.1483651 123.305783,86.7925007 C131.482088,80.4316882 138.155867,76.5845223 144.496574,76.5845223 C148,76.5845223 148,76.4162861 148,76.4162861 C148,76.4162861 147.333856,66.0425455 147.834698,66.0425455"
                    id="Fill-1-Copy-3" fill="#0F62FE" opacity="0.3"></path>
                <path
                    d="M148,80.7789916 L145.494798,80.7789916 C138.459439,80.7789916 132.431606,75.6807487 126.403773,68.4137764 C123.408423,64.8049911 114.850634,52.4373058 102.547419,52.4373058 C101.515137,52.4373058 100.48038,52.4249554 99.4456227,52.4051948 L99.4456227,52.3113318 C100.55712,52.2471098 102.012712,52.1902979 103.656441,52.1902979 C107.283043,52.1902979 114.058475,53.6105933 121.225036,57.6170614 C121.950356,58.0221543 122.653397,58.4247772 123.34406,58.8224599 C129.545178,62.3769035 134.558057,65.4472116 147.913358,65.4472116 L147.913358,64.646906 C134.773425,64.646906 129.844713,61.6259995 123.745091,58.1258976 C123.051952,57.7282149 122.346436,57.323122 121.616164,56.915559 C114.315927,52.8349885 107.379587,51.3899924 103.656441,51.3899924 C102.020138,51.3899924 100.564547,51.4443341 99.4456227,51.5060861 L99.4456227,51.4443341 C101.398789,51.189916 104.750611,50.8737459 109.513465,50.8737459 C122.886094,50.8737459 127.438531,53.8131398 138.098016,53.8131398 L147.913358,53.8131398 C147.913358,53.8131398 147.537082,21.6724726 147.913358,21.6724726 L138.494096,21.6724726 C126.51022,21.6724726 113.380189,19.0640693 101.794868,19.0640693 C100.750209,19.0640693 99.9605259,19.0640693 99.3639314,19.0640693 L99.3589804,18.9504456 L147.913358,18.9504456 L147.913358,9.27267634 L147.913358,4.63633817 L147.913358,0 L0,0 L0,9.27267634 L99.3193724,9.27267634 C75.3342923,9.28255666 74.0495099,12.2787624 55.6243937,12.2787624 L0,12.2787624 L0,16.5396486 L0,19.7334607 L55.6243937,19.7334607 C74.0470344,19.7334607 75.7130432,16.7372549 99.3193724,16.7273746 L99.3193724,17.8537306 L99.28224,16.7965368 C75.1733851,16.7965368 68.0538588,22.0528648 49.5965611,22.0528648 L0,22.0528648 L0,27.3141329 L0,34.5811052 L49.8490617,34.5811052 C68.1132707,34.5811052 75.5694644,28.6949071 98.7252534,28.5714031 L98.7252534,28.5788133 C97.0740976,28.5936338 95.5095842,28.662796 94.0119091,28.7739496 L92.2295521,28.7739496 C92.1305322,28.7813598 82.2706319,29.5767252 72.0517847,33.5560224 C61.3229853,37.7329259 53.7751982,38.2961039 47.8018265,38.2961039 L0.0891178537,38.2961039 L0.0891178537,38.8963331 L47.8018265,38.8963331 C53.8296591,38.8963331 61.4492356,38.3282149 72.2696283,34.1142602 C74.6807614,33.1781003 77.0671395,32.4222562 79.3099388,31.8072065 C67.3706219,36.0532722 61.0135483,42.9744334 48.2152343,42.9744334 L0,42.9744334 L0,47.2328495 L0,81.1519735 L49.8490617,81.1519735 C72.3438932,81.1519735 76.9780216,69.5129615 95.1902452,67.9148205 L96.0541933,67.9148205 C102.648914,67.9148205 108.332653,69.4709702 114.179775,75.9302266 L124.396146,87.2086071 C129.668953,92.7193532 138.206938,97 146.242398,97 L148,97 C148,97 147.628676,81.3372294 148,80.7789916"
                    id="Fill-1" fill="#0062FF"></path>
            </g>
        </g>
    </g>
</svg>