<?xml version="1.0" encoding="UTF-8"?>
<svg width="240px" height="240px" viewBox="0 0 240 240" version="1.1" xmlns="http://www.w3.org/2000/svg" xmlns:xlink="http://www.w3.org/1999/xlink">
    <!-- Generator: Sketch 58 (84663) - https://sketch.com -->
    <title>Group 12bubble</title>
    <desc>Created with Sketch.</desc>
    <g id="Data-vis-pages" stroke="none" stroke-width="1" fill="none" fill-rule="evenodd" fill-opacity="0.3">
        <g id="Dataviz-overview-1-Copy-2" transform="translate(48, 96)" fill="#0062FF" stroke="#0062FF" stroke-width="1.5">
            <g id="Group-12">
                <circle id="Oval-Copy-105" cx="74.5" cy="28.5" r="8.75"></circle>
                <circle id="Oval-Copy-107" cx="13.25" cy="40.25" r="2.5"></circle>
                <circle id="Oval-Copy-108" cx="96.25" cy="73.25" r="2.5"></circle>
                <circle id="Oval-Copy-109" cx="99.25" cy="69.25" r="2.5"></circle>
                <circle id="Oval-Copy-110" cx="129.25" cy="58.25" r="2.5"></circle>
                <circle id="Oval-Copy-111" cx="3.25" cy="25.25" r="2.5"></circle>
                <circle id="Oval-Copy-112" cx="3.25" cy="34.25" r="2.5"></circle>
                <circle id="Oval-Copy-114" cx="77.25" cy="66.25" r="2.5"></circle>
                <circle id="Oval-Copy-116" cx="28" cy="53" r="9.25"></circle>
                <circle id="Oval-Copy-117" cx="58" cy="28.5" r="7.75"></circle>
                <ellipse id="Oval-Copy-118" cx="48.5" cy="38" rx="15.75" ry="15.25"></ellipse>
                <circle id="Oval-Copy-119" cx="49" cy="64" r="5.25"></circle>
                <circle id="Oval-Copy-120" cx="114" cy="34" r="3.25"></circle>
                <circle id="Oval-Copy-127" cx="105.5" cy="82.5" r="3.75"></circle>
                <circle id="Oval-Copy-121" cx="94.5" cy="49.5" r="5.75"></circle>
                <circle id="Oval-Copy-122" cx="79" cy="35" r="4.25"></circle>
                <circle id="Oval-Copy-123" cx="132" cy="38" r="5.25"></circle>
                <circle id="Oval-Copy-124" style="mix-blend-mode: multiply;" cx="125" cy="44.5" r="7.75"></circle>
                <circle id="Oval-Copy-125" cx="142.5" cy="63.5" r="5.75"></circle>
                <ellipse id="Oval-Copy-126" cx="37.5" cy="23" rx="21.75" ry="22.25"></ellipse>
            </g>
        </g>
    </g>
</svg>
