<?xml version="1.0" encoding="UTF-8"?>
<svg width="240px" height="240px" viewBox="0 0 240 240" version="1.1"
    xmlns="http://www.w3.org/2000/svg" xmlns:xlink="http://www.w3.org/1999/xlink">
    <!-- Generator: Sketch 58 (84663) - https://sketch.com -->
    <title>Group 13geo-choropleth</title>
    <desc>Created with Sketch.</desc>
    <g id="Data-vis-pages" stroke="none" stroke-width="1" fill="none" fill-rule="evenodd">
        <g id="Dataviz-overview-1-Copy-2" transform="translate(48, 80)" fill="#0062FF">
            <g id="Group-13">
                <polyline id="Fill-49-Copy" stroke="#FFFFFF" stroke-width="0.584799207"
                    fill-opacity="0.2"
                    points="130.09298 56.5557659 131.04517 55.5724804 131.872232 55.330488 132.32086 54.497299 133.599603 54.6014476 134.460236 53.7713218 134.426666 52.8370474 136.117413 50.3068485 137.118434 47.3631183 138.119454 45.4915062 139.260862 45.283209 139.743061 44.2110908 139.294433 43.0317608 138.085883 42.2353301 136.947528 41.1570856 135.876314 41.8524308 134.393095 41.5062898 132.458196 41.6441335 131.356463 41.3347509 129.766427 41.4725946 128.939365 42.7530101 128.075679 43.4483553 127.971915 44.3458714 126.626031 42.9276122 125.072618 44.2447859 123.726734 44.6950756 123.589399 45.5956549 121.034966 45.8376472 119.411359 46.3920855 117.720611 46.0796396 114.522229 44.2233436 114.613786 44.8666145 114.751121 45.8376472 114.580215 46.80868 112.507981 46.7719217 112.300452 47.1885162 113.164137 48.1932441 112.74908 49.3021206 112.645316 50.2026999 113.164137 51.1032791 112.416424 52.0467431 112.202792 52.1141334 113.405237 53.5017607 113.58835 55.0854324 114.439828 55.2600345 116.408298 57.1316465 117.409318 57.5145459 118.169239 58.1026793 120.653479 58.5192738 122.414421 59.1411023 123.174342 58.1731328 123.693163 58.4610731 124.358475 57.7197799 125.454105 57.1561521 126.259804 57.2694903 126.54363 56.8161375 127.688089 55.8512311 128.414439 56.0962867 129.41546 56.3229631 130.09298 56.5557659"></polyline>
                <path
                    d="M124.776585,63.3131737 L124.657561,62.5381854 L125.59144,62.1889812 L126.040068,62.1889812 L126.040068,61.809145 L125.142812,61.6008478 L124.657561,61.1873165 L124.382891,59.937533 L123.793876,58.5192738 L123.174342,58.1731328 L122.414421,59.1411023 L120.653479,58.5192738 L118.169239,58.1026793 L117.409318,57.5145459 L116.408298,57.1316465 L114.439828,55.2600345 L113.58835,55.0854324 L113.612765,55.3059824 L111.537479,55.3059824 L108.63513,56.8345166 L108.427602,58.0843001 L106.904708,58.8470356 L106.630038,60.5103504 L105.662588,60.5808039 L103.865024,59.7476149 L102.894522,60.0263656 L101.652403,60.9300081 L99.9677585,61.0249671 L99.9647066,61.132179 L100.254636,63.0221702 L101.34111,64.042214 L101.231242,64.403671 L101.667662,64.7681912 L102.827381,62.8782 L103.007442,61.8581561 L103.730741,61.021904 L104.890459,60.9882088 L105.146818,61.9316728 L106.086801,62.6944083 L106.376731,64.1126675 L107.063406,65.45741 L108.516107,66.8052158 L108.87623,66.8787324 L109.709396,67.7854381 L108.986098,67.5311929 L108.152932,67.641468 L107.789756,68.4409618 L108.226177,69.277214 L109.276028,69.277214 L110.325878,70.2972579 L111.378781,70.6587148 L111.738904,71.494967 L112.245518,72.076974 L113.331991,71.8594872 L115.437797,72.0340893 L116.600567,72.6160963 L118.923057,75.0207043 L118.269952,75.0942209 L117.180427,74.5091507 L117.763338,75.2381911 L118.758255,75.4648675 L118.755203,75.4587411 L119.100066,74.6286153 L115.752141,70.8516961 L111.885395,67.4576763 L111.74806,66.903238 L112.059353,66.557097 L111.436767,65.7606663 L111.265861,64.9642357 L110.298411,63.8553592 L109.675825,63.8890543 L109.642255,63.1967723 L110.023741,62.8138729 L110.023741,61.5671526 L110.402176,61.116863 L111.540531,61.9837471 L111.922018,62.642334 L112.541552,62.501427 L112.578174,61.8428402 L113.438808,61.7049964 L114.027823,61.7417547 L114.510022,61.2210116 L115.269943,61.6713013 L115.685,61.2884019 L116.441869,61.463004 L116.856926,62.2594347 L117.47646,61.809145 L118.547674,62.1889812 L119.307595,61.8795985 L119.548694,62.1889812 L120.723673,62.0511374 L121.724693,62.4340368 L122.347279,62.3298881 L123.311677,63.1263188 L124.657561,63.1600139 L124.776585,63.3131737 L124.776585,63.3131737 Z M114.809107,74.7143848 C114.876249,74.6806896 116.466284,74.6806896 116.466284,74.6806896 L117.085818,75.268823 L115.63617,75.1646744 L114.809107,74.7143848 L114.809107,74.7143848 Z M113.704322,73.6728985 L116.154991,73.7096569 L115.153971,74.1936417 L113.704322,73.6728985 L113.704322,73.6728985 Z M113.737893,72.5670852 L115.63617,72.5670852 L116.051227,72.8427728 L115.1204,73.2930624 L114.186521,73.1552186 L113.737893,72.5670852 L113.737893,72.5670852 Z M106.904708,66.4345692 L107.4571,66.572413 L108.076634,67.4025388 L107.73177,67.6475943 L106.904708,66.4345692 L106.904708,66.4345692 Z M106.144787,65.1510906 L107.008472,66.0516698 L106.111216,65.8096775 L106.144787,65.1510906 L106.144787,65.1510906 Z M106.352316,68.0611256 L107.319765,68.8575563 L107.560865,69.6907453 L106.352316,68.0611256 L106.352316,68.0611256 Z M105.143766,66.4682643 L105.870117,66.7807102 L105.973881,67.4729922 L105.143766,66.4682643 L105.143766,66.4682643 Z M103.453019,63.8706751 L104.661568,64.7375593 L105.076625,65.9842796 L104.695138,66.0516698 L103.868076,65.1510906 L104.072553,64.875403 L103.453019,63.8706751 L103.453019,63.8706751 Z M104.24651,61.9286096 L105.629017,64.0085189 L104.936238,64.2842064 L104.557803,63.8002217 L103.868076,63.6286827 L103.764312,62.2747506 C103.764312,62.2778138 104.176317,61.9286096 104.24651,61.9286096 L104.24651,61.9286096 Z"
                    id="Fill-56-Copy" stroke="#FFFFFF" stroke-width="0.584799207" fill-opacity="0.2"></path>
                <polyline id="Fill-58-Copy" stroke="#FFFFFF" stroke-width="0.584799207"
                    fill-opacity="0.2"
                    points="99.9677585 61.0249671 101.652403 60.9300081 102.894522 60.0263656 103.865024 59.7476149 105.662588 60.5808039 106.630038 60.5103504 106.904708 58.8470356 108.427602 58.0843001 108.63513 56.8345166 111.537479 55.3059824 113.612765 55.3059824 113.405237 53.5017607 112.202792 52.1141334 111.033917 52.4970328 108.94032 53.679426 108.439809 53.6273517 107.74703 53.7131211 106.657505 54.2185483 105.619862 54.2185483 104.478454 54.6719011 103.855868 53.9244816 101.71344 53.9397975 100.956571 53.8540281 99.8548385 55.4468894 100.199702 56.2096249 99.5771164 57.1806577 99.812112 58.8194669 99.8914612 58.8409092 100.834496 59.2758829 100.797873 59.9314066 100.001329 60.1488934 99.9677585 61.0249671"></polyline>
                <polyline id="Fill-59-Copy" stroke="#FFFFFF" stroke-width="0.584799207"
                    fill-opacity="0.2"
                    points="100.956571 53.8540281 101.71344 53.9397975 103.855868 53.9244816 104.478454 54.6719011 105.619862 54.2185483 106.657505 54.2185483 107.74703 53.7131211 108.439809 53.6273517 108.94032 53.679426 111.033917 52.4970328 112.416424 52.0467431 113.164137 51.1032791 112.645316 50.2026999 112.74908 49.3021206 113.164137 48.1932441 112.300452 47.1885162 112.507981 46.7719217 114.580215 46.80868 114.751121 45.8376472 114.235351 42.1924454 114.339116 40.6547216 112.47441 40.2258743 111.644295 39.6009826 110.368605 39.8766701 109.022721 39.8092798 107.847742 38.979154 106.086801 38.9087006 105.119351 38.5258012 104.740917 39.4294437 104.258718 39.8766701 104.188524 40.6057105 102.876211 40.676164 102.427583 41.1938439 100.013537 39.8092798 99.3360169 39.7357632 99.1712148 40.6057105 99.2230969 41.5614273 98.4601241 41.5614273 97.9077317 42.5202073 96.802947 43.0654559 95.5242044 44.6950756 95.5242044 45.3169041 96.6991827 45.9081007 96.8365178 46.80868 96.3543189 47.154821 95.283105 46.5299293 94.2118911 46.8423751 93.1071063 46.5299293 92.3502373 46.6340779 90.8303953 47.6388058 90.0002808 47.8134079 89.2434117 47.5683523 88.4132972 47.7766496 87.7235697 47.3263599 86.4112564 47.1211259 85.1355657 47.2926648 85.23933 47.9512517 84.9280371 48.3310878 83.719488 48.0217051 83.0633314 47.2926648 82.2057499 47.611237 81.6533575 47.8899878 81.4000505 47.893051 81.9921174 48.2973927 81.9341315 48.9774219 82.4804201 49.403206 82.4468493 50.3007221 83.2006665 50.3405436 83.7896816 50.0985512 84.7876501 51.069584 85.6177646 50.3068485 86.3776856 50.3068485 86.7622239 51.1063423 86.786639 51.0757104 88.3766745 51.7679924 90.867018 50.3099117 91.9016092 50.5886624 93.5618382 50.4508186 93.4245031 51.4218514 95.7744595 52.8094786 98.6798603 53.3639169 100.269896 53.2260731 100.959623 53.8509649 100.956571 53.8540281"></polyline>
                <polyline id="Fill-61-Copy" stroke="#FFFFFF" stroke-width="0.584799207"
                    fill-opacity="0.2"
                    points="104.130538 25.9728289 104.478454 26.7325012 104.893511 26.2454532 105.723626 26.4016761 106.190565 26.1596837 108.146828 26.4568136 108.076634 27.0112519 108.906749 27.8628201 109.684981 27.7586714 110.39302 28.3682472 109.92608 29.4281126 110.307567 30.00093 110.652431 30.1939113 110.609704 31.1128698 111.265861 31.3916205 111.714489 30.9045725 112.334023 30.9045725 111.229238 29.449555 111.680918 29.1371091 113.924058 30.3838294 115.340136 30.2122905 115.095985 31.0424163 116.130576 31.8756053 117.92814 31.4590108 119.341166 31.9093004 122.243515 34.0229048 123.140771 35.582071 123.967833 35.6157661 124.382891 35.1317814 125.658581 35.1654765 126.384931 35.928212 126.659602 37.2116906 124.450032 37.0033934 123.415441 37.9376678 122.206892 38.0418164 120.861008 39.3926853 119.100066 39.6346777 117.271983 40.2932646 116.823355 39.9134285 115.718571 39.9471236 114.580215 40.7098591 112.47441 40.2258743 111.644295 39.6009826 110.368605 39.8766701 109.022721 39.8092798 107.847742 38.979154 106.086801 38.9087006 105.119351 38.5258012 104.740917 39.4294437 104.258718 39.8766701 104.188524 40.6057105 102.876211 40.676164 102.427583 41.1938439 100.013537 39.8092798 99.3360169 39.7357632 99.3451726 39.702068 97.4255328 37.4781886 96.4886021 36.8502337 94.8466845 35.722978 93.9128057 35.1991716 93.6533949 34.4854473 93.7235884 33.3214332 92.7195161 31.7592039 91.456033 30.9934052 91.4041509 30.2796808 91.82226 29.9672349 92.2800437 30.3501342 93.0735355 30.7299704 94.7642834 29.1738674 95.5943979 29.103414 96.5252248 28.0282326 97.562868 27.9945374 98.0786376 27.1981068 99.6686731 27.1644116 100.358401 27.3359505 101.151892 26.8519658 101.151892 25.9850816 102.635112 26.3312226 103.257698 25.9146282 103.947425 26.2607692 104.130538 25.9728289"></polyline>
                <polyline id="Fill-64-Copy" stroke="#FFFFFF" stroke-width="0.584799207"
                    fill-opacity="0.2"
                    points="73.5109109 47.265096 74.295247 47.500962 75.1589323 47.0169772 76.3339106 47.4305085 76.6787743 46.8423751 76.57501 46.2542417 77.5394077 45.9081007 77.8873234 46.8423751 78.4732865 47.0169772 78.9554854 46.5636244 79.6116421 46.6003828 80.9239554 47.5683523 81.9921174 48.2973927 81.9249758 49.0938233 81.6472537 49.7187151 81.9585466 50.2731533 83.2006665 50.3405436 83.7896816 50.0985512 84.7876501 51.069584 85.6177646 50.3068485 86.3776856 50.3068485 86.7622239 51.1063423 85.8191894 52.2550404 86.3044402 53.7805114 84.4366826 54.1971059 84.2291539 56.0013276 83.3990394 55.3059824 82.5689249 55.3764359 80.4936387 54.8219976 80.4936387 56.1391714 79.5261891 57.8760029 79.0439902 56.9019069 77.5210964 56.1391714 77.6614834 55.0302949 76.5536468 54.3349497 74.8262762 57.3185014 73.5811044 56.7640632 71.7163987 58.1516904 70.6848594 57.7657279 70.5322648 56.9601076 69.9829243 56.509818 69.6350087 55.330488 69.1528098 54.4299087 67.7367322 54.3594552 67.0805755 54.9506518 67.5322554 56.1299818 66.3572772 56.6109034 65.3196341 56.509818 65.2158698 55.7470825 65.771314 55.4683317 66.3389659 55.5020269 66.3206545 54.5677525 66.5281831 53.1127349 67.7733549 51.1369743 68.4966532 50.8612867 69.4274801 49.6482616 70.2911654 49.2684254 70.1172076 48.3678462 69.119239 47.847103 69.738773 47.0843675 70.8435577 47.0169772 71.1212799 47.6388058 71.9819133 47.7429544 73.5109109 47.265096"></polyline>
                <path
                    d="M64.4742602,26.5701518 L64.8771098,25.5164128 L65.1884028,23.9174251 L64.9076287,22.5206083 L65.5271627,21.7578728 L66.1161778,20.7899032 L67.3918684,20.4774574 L68.6004175,20.7531449 L69.290145,20.3733087 L68.7743753,19.4727295 L69.3939093,19.0224398 L69.5312444,17.9809536 L69.8089665,17.3928202 L69.3267677,16.9425305 L68.1517894,16.9762257 L68.0144543,16.3543971 L68.4264597,15.4170595 L69.4274801,15.8673492 L70.0500659,15.3496692 L70.0653254,14.4092684 L70.4468118,13.5730162 L70.5139535,13.0338939 L70.7886237,12.6846897 L70.8130388,12.4794557 L69.8913676,12.1823258 L69.1650174,11.5298653 L67.825237,10.8375833 L66.4152632,11.0550701 L65.5790449,11.7810473 L64.7825012,11.4563486 L64.2758872,11.7810473 L63.1161684,11.8178056 L62.029695,13.018578 L60.2901169,13.9651052 L59.9269418,13.71086 L58.9137138,14.1090753 L58.8770911,15.2730894 L57.9340566,15.9990665 L58.2239863,17.1293854 L58.007302,18.1463661 L57.6075042,18.9826183 L57.2809518,19.5646253 L56.5576536,20.109874 L56.5942763,20.8389143 L57.6807496,21.8191367 L58.6604068,22.1101402 L57.5708815,22.1101402 L57.0642676,22.548177 L56.7377152,22.8391806 L57.1741356,23.3844292 L57.7173723,23.4548827 L57.753995,23.9296779 L56.884206,23.9633731 L56.0876623,23.1271209 L55.2544959,22.7289055 L54.4579522,23.0566674 L54.7478819,23.4947042 L55.5078029,23.5651577 L56.1975304,24.2206814 L56.4477855,24.1104064 L57.3541972,24.7291718 L56.4844082,24.4014099 L55.9411715,24.4381683 L54.6380138,24.0031946 L53.8048474,24.0031946 L53.7712766,24.0277001 L54.3084095,24.2880717 L54.7570376,24.9803537 L55.4833877,24.9803537 L55.9655866,25.5010969 L56.4844082,24.9803537 L57.3816643,24.8057516 L57.5891929,24.496369 L58.2789204,24.4259155 L58.5566425,23.7336334 L60.1771969,23.7673286 L60.7295893,24.3217668 L61.5597038,24.3217668 L62.0083318,24.9803537 L63.2840225,24.9099003 L63.7173911,25.7063309 L63.662457,26.3159067 L64.4742602,26.5701518 L64.4742602,26.5701518 Z M55.3246894,22.4287125 L56.1578558,22.0672555 L56.517979,22.5726826 L56.0479877,22.7013368 L55.8862374,22.4654708 L55.3246894,22.4287125 L55.3246894,22.4287125 Z M55.7427985,21.4515533 L56.4111628,21.4668693 L57.2962113,21.8313895 L57.1161497,22.0672555 L56.6278471,21.9569804 L56.4813563,21.6659769 L55.9045488,21.8681478 L55.7427985,21.4515533 L55.7427985,21.4515533 Z"
                    id="Fill-65-Copy" stroke="#FFFFFF" stroke-width="0.584799207" fill-opacity="0.2"></path>
                <polygon id="Fill-71-Copy"
                    points="70.6848594 57.7657279 70.5322648 56.9601076 69.9829243 56.509818 69.6350087 55.330488 69.1528098 54.4299087 67.7367322 54.3594552 67.0805755 54.9506518 67.5322554 56.1299818 66.3572772 56.6109034 65.3196341 56.509818 65.2158698 55.7470825 65.771314 55.4683317 66.3389659 55.5020269 66.3206545 54.5677525 66.5281831 53.1127349 67.7733549 51.1369743 68.4966532 50.8612867 69.4274801 49.6482616 70.2911654 49.2684254 70.1172076 48.3678462 69.119239 47.847103 69.738773 47.0843675 70.8435577 47.0169772 71.1212799 47.6388058 71.9819133 47.7429544 73.5353261 47.2589696 73.086698 46.321632 72.2596354 45.8039521 72.1894419 44.4163248 72.6746927 42.7530101 73.3277974 42.1311815 73.3277974 41.4021411 73.846619 39.9471236 74.9178329 38.8382471 73.9839541 38.2164185 73.086698 38.2164185 71.9483425 37.6956754 71.0877091 37.9744261 70.4651232 37.7293706 69.6350087 37.7293706 68.8415169 38.0081213 68.0144543 37.3158393 68.0144543 36.7246427 67.1171982 36.0323606 66.4244188 36.2069627 65.2158698 35.9619072 64.6665293 35.0613279 63.9066083 35.0613279 63.4915511 35.3400786 62.6278658 34.7151869 61.6634681 34.6477966 60.5586833 33.2601693 59.9360975 33.1223256 59.5210402 32.6383408 58.9350771 32.6383408 58.4162555 32.9844818 57.4152351 32.4637387 57.3480935 31.1465649 56.6919368 30.8371822 56.1059736 30.3501342 55.5169586 30.3838294 54.1710744 29.2780161 54.0001685 28.4815854 52.8953837 28.0649909 52.6878551 26.4016761 52.1354628 25.9942712 51.9920239 26.2546428 50.2890684 26.839713 49.8923225 26.5119511 48.5159194 27.311445 48.189367 28.254909 48.4060513 29.3852279 48.1161216 31.1649441 46.7397186 32.5127498 46.7397186 33.0916936 45.2168247 33.5297305 44.420281 33.5664888 43.5504919 33.2754853 41.7407203 34.2557076 41.3042998 35.095023 41.6308522 35.67703 42.4640185 35.9680335 41.3409225 36.7675274 39.9645194 37.0585309 38.0784504 36.8012225 37.2452841 36.3662489 36.5586085 36.7675274 36.2686788 36.1120037 35.6521967 35.6402717 35.9421264 34.874473 35.1822054 34.5099528 34.3856617 34.8040195 33.2595137 34.7672612 32.7528997 34.5467111 33.0794521 35.6402717 32.8993905 36.1120037 34.4924779 37.6037796 34.2025482 38.0755116 34.4192325 38.8045519 34.2391709 39.5305291 34.7457849 40.1860528 34.855653 41.022305 33.1893202 40.801755 32.46297 41.0560001 31.7762945 40.8752716 30.9431281 41.0927585 30.6165757 40.7649966 29.566725 41.6380071 28.2269446 39.858291 27.4639717 39.6040458 26.3408757 39.858291 25.4344639 40.6945431 24.9644726 40.440298 24.4212359 40.9487883 23.9512446 40.6210265 22.9715874 40.7313015 22.3551053 41.3470036 20.9054569 41.4572787 20.2523521 42.2200142 20.6155272 42.8387795 21.4486936 42.547776 22.28186 42.8020212 22.4985443 43.129783 21.5951844 42.9490545 21.0519477 43.019508 21.3785001 43.9323401 21.6684298 43.240058 22.2452373 43.4575449 22.391728 44.0763102 21.8484914 44.2937971 20.9787023 44.6215589 21.015325 44.8758041 21.8484914 44.8758041 22.2116664 45.8958479 22.1017984 46.4747918 23.0814555 45.8223313 23.7681311 46.0030598 24.3479905 45.8958479 25.8708844 46.5115501 26.1943849 47.059862 26.810867 47.059862 27.8607176 47.7490808 28.6236905 47.059862 29.0936818 47.1670738 28.9136202 47.7123225 29.1669272 48.0400843 29.9634709 47.5683523 30.4334622 48.0400843 30.073339 48.9835483 30.5067076 49.6758303 31.086567 49.7125887 31.9929788 49.1305817 32.9726359 49.2408567 33.5860661 50.0771089 32.8261451 49.639072 31.9563561 49.6758303 31.4131194 50.4385659 31.9197334 50.6591159 32.1028468 51.6025799 31.6664264 52.4020737 31.8495399 53.0239023 32.6460835 53.1311141 33.8393731 54.62289 35.0021438 54.8036185 36.122188 55.4591422 36.0886172 56.2953943 36.5219858 56.9846132 36.1588107 57.9311404 35.9421264 58.0414154 35.7254421 58.8776676 36.5219858 59.0583961 37.9716342 60.1856518 39.0947303 62.9149583 37.8617661 61.714186 37.5352137 60.550172 36.5586085 60.0416816 36.0886172 60.3663803 35.615574 62.767925 35.6521967 64.513946 36.4121177 65.0224364 35.7956356 65.4972316 35.5453805 68.7687236 34.6755914 71.605242 33.5677548 72.2668921 34.3917655 72.7233082 34.4955298 72.9653005 35.0845449 73.0694492 35.2554508 74.0741771 35.1181157 74.8369126 36.5341933 74.6623105 38.429418 75.425046 39.329726 76.3960787 40.2941237 75.9457891 41.3653376 77.0546656 42.6776509 77.0179073 43.3338076 77.3671115 44.1608702 76.5002274 46.3368689 76.4297739 47.1639315 76.8800635 48.4762448 76.7422198 49.8587517 77.5049553 52.0988401 77.296658 53.6888755 78.2646276 54.2900982 78.4698616 54.238216 78.0073192 53.8780928 76.6227552 54.238216 74.9870091 54.3480841 74.1875153 55.4345575 73.2042297 57.1008903 71.4214504 57.6471788 71.3877552 58.1904155 71.7859705 59.2768889 71.9330039 60.4335558 72.6252859 61.2331514 72.6252859 61.9564497 72.0402157 62.6461771 71.9697622 65.5424222 73.7862368 66.3420178 74.4785188 68.4783418 74.5857306 69.3847536 73.8229951 69.2016401 73.3512631 70.0378584 72.2975241 73.0439715 70.0399495 73.2148775 70.0123807 72.8913769 68.9770209 73.5139628 67.5220034 72.0612625 67.5220034 70.5383686 66.4805171 70.33084 63.9809501 69.1558617 62.7311667 69.8486411 61.9684312 70.9534258 61.8305874 71.231148 60.2346629 70.33084 59.4014739 70.1935049 58.2221439 70.6085621 57.7350959"></polygon>
                <polygon id="Path"
                    points="80.6889598 84.1857832 79.2393113 83.570081 78.9860043 83.1320441 79.3125567 82.6235538 79.6726799 82.6970705 79.4193729 82.2590336 79.0958724 82.2590336 79.1294432 81.6065731 78.4793903 81.2420529 78.1894606 80.7703209 78.5495838 80.5497709 78.5495838 80.1883139 77.8629082 79.8237937 77.6828466 79.1315117 78.2260833 79.1315117 78.4061449 78.696538 77.8629082 78.1880477 78.516013 77.0240337 79.9656615 76.5155433 80.542469 75.9335363 81.1253803 76.5492385 81.4855035 76.5492385 81.6319942 75.676228 81.3420646 75.0605258 81.5221262 74.2242736 81.9921174 74.2242736 82.2454244 75.6057745 82.1386082 76.8433052 82.6452222 78.7700547 82.0653628 80.9878078 82.1019855 82.2253385 81.5953716 83.7508095"></polygon>
                <polygon id="Fill-62-Copy" stroke="#FFFFFF" stroke-width="0.584799207"
                    fill-opacity="0.2"
                    points="76.7123451 0.312445871 78.4732865 0.796430652 78.9921081 1.03842304 79.8344301 0.891389692 80.7591533 1.8899912 81.7021878 2.00026622 81.1955738 3.09076357 80.7255825 3.56555877 80.9788895 4.10774425 81.7388105 4.32829428 82.0256883 5.13085132 82.7672979 4.58560264 83.0206049 4.0801755 83.4722848 3.80755116 83.8354599 4.3160415 85.044009 5.18598883 85.297316 4.83984781 86.0572369 4.24252482 86.4356715 4.46001165 86.4539828 5.27482148 85.8191894 6.03755698 85.2423819 5.94872433 84.3939561 6.52766816 85.6025051 6.88912514 86.0389256 6.69001748 86.9056628 6.78191333 87.2108519 7.30878283 88.2057686 7.21688699 88.3675188 6.52766816 89.0358831 5.60258332 90.7876688 5.32995898 90.8426028 4.89498532 91.8008968 4.40487415 91.907713 3.91476298 92.3227702 3.69727614 93.5709939 3.82593033 92.5760772 4.22414565 92.215954 4.60398181 92.0542038 4.47839082 91.5597973 4.98075477 91.9199205 5.34527496 92.8995777 4.65605612 93.9494284 4.54578111 94.382797 4.32829428 94.7093494 4.83678462 95.5455677 4.98075477 96.7388573 6.18152714 97.7185144 6.00079865 98.2617511 6.83705083 98.0786376 7.74681969 98.9484267 8.43603853 99.7480223 8.32882671 100.327882 8.83731705 101.191567 8.79136913 101.704285 10.9478583 101.56695 12.5407196 100.218014 13.2360648 100.218014 13.8946517 101.704285 15.487513 101.530327 16.4585458 102.220054 17.359125 102.220054 18.0851022 102.635112 19.0898301 102.256677 19.9230191 103.120362 21.8987797 103.752104 22.247984 104.322808 22.9954035 104.393001 25.550108 103.947425 26.2607692 103.257698 25.9146282 102.635112 26.3312226 101.151892 25.9850816 101.151892 26.8519658 100.358401 27.3359505 99.6686731 27.1644116 98.0786376 27.1981068 97.562868 27.9945374 96.5252248 28.0282326 95.5943979 29.103414 94.7642834 29.1738674 93.0735355 30.7299704 92.2800437 30.3501342 91.82226 29.9672349 91.4041509 30.2796808 91.456033 30.9934052 92.7195161 31.7592039 93.7235884 33.3214332 93.6533949 34.4854473 93.9128057 35.1991716 94.8466845 35.722978 96.4886021 36.8502337 97.4255328 37.4781886 99.3451726 39.702068 99.1712148 40.6057105 99.2230969 41.5614273 98.4601241 41.5614273 97.9077317 42.5202073 96.802947 43.0654559 95.5242044 44.6950756 95.5242044 45.3169041 96.6991827 45.9081007 96.8365178 46.80868 96.3543189 47.154821 95.283105 46.5299293 94.2118911 46.8423751 93.1071063 46.5299293 92.3502373 46.6340779 90.8303953 47.6388058 90.0002808 47.8134079 89.2434117 47.5683523 88.4132972 47.7766496 87.7235697 47.3263599 86.4112564 47.1211259 85.1355657 47.2926648 85.23933 47.9512517 84.9280371 48.3310878 83.719488 48.0217051 83.0633314 47.2926648 82.2057499 47.611237 81.6533575 47.8899878 81.4000505 47.893051 80.9239554 47.5683523 79.6116421 46.6003828 78.9554854 46.5636244 78.4732865 47.0169772 77.8873234 46.8423751 77.5394077 45.9081007 76.57501 46.2542417 76.6787743 46.8423751 76.3339106 47.4305085 75.1589323 47.0169772 74.295247 47.500962 73.5109109 47.265096 73.086698 46.321632 72.2596354 45.8039521 72.1894419 44.4163248 72.6746927 42.7530101 73.3277974 42.1311815 73.3277974 41.4021411 73.846619 39.9471236 74.9178329 38.8382471 73.9839541 38.2164185 73.086698 38.2164185 71.9483425 37.6956754 71.0877091 37.9744261 70.4651232 37.7293706 69.6350087 37.7293706 68.8415169 38.0081213 68.0144543 37.3158393 68.0144543 36.7246427 67.1171982 36.0323606 67.1843398 34.5099528 66.6685702 34.0566 66.4610415 33.0181769 65.3196341 31.5968545 65.0113931 31.5968545 65.5637854 30.282744 64.9747704 29.3791015 65.0113931 28.7909681 64.2850429 27.3022554 64.5963358 26.6099734 64.4742602 26.5701518 64.8771098 25.5164128 65.1884028 23.9174251 64.9076287 22.5206083 65.5271627 21.7578728 66.1161778 20.7899032 67.3918684 20.4774574 68.6004175 20.7531449 69.290145 20.3733087 68.7743753 19.4727295 69.3939093 19.0224398 69.5312444 17.9809536 69.8089665 17.3928202 69.3267677 16.9425305 68.1517894 16.9762257 68.0144543 16.3543971 68.4264597 15.4170595 69.4274801 15.8673492 70.0500659 15.3496692 70.0653254 14.4092684 70.4468118 13.5730162 70.5139535 13.0338939 70.7886237 12.6846897 70.8130388 12.4794557 70.6879113 11.6003188 69.6380606 11.4195903 69.2016401 10.5833381 69.3847536 9.63681089 71.5210777 9.05480388 72.1375597 8.76380037 73.1904623 9.52653588 73.1904623 10.6200964 73.987006 11.5635604 74.4569973 11.0550701 74.0236287 10.2188179 74.0236287 9.52653588 74.4569973 9.34580739 75.1436729 9.96457274 75.0734794 11.0550701 76.1233301 12.2558425 75.6899615 11.3460736 75.6533388 9.96457274 75.4702253 9.16507889 76.0500847 8.21855169 76.8100057 8.07458154 77.5729785 8.47279686 78.5862065 8.07458154 80.0968928 9.74095952 82.1752309 10.1453012 80.1976052 9.32130183 78.6960746 7.74681969 77.5363558 7.67330302 76.8863029 7.2720245 76.8863029 6.58280566 77.6462239 6.00079865 76.7764348 5.45554997 76.7764348 4.32829428 75.9432685 4.68975127 75.9066458 3.85349908 76.7031895 3.85349908 77.5729785 3.52880043 76.5231279 2.54551489 76.5933214 1.85629606 76.0867074 1.81953772 75.4336026 1.38150086 75.506848 0.582007015 75.4519139 0.373709768"></polygon>
                <path
                    d="M73.2148775,70.0123807 L72.8913769,68.9770209 L73.5139628,67.5220034 L72.0612625,67.5220034 L70.5383686,66.4805171 L70.33084,63.9809501 L69.1558617,62.7311667 L69.8486411,61.9684312 L70.9534258,61.8305874 L71.231148,60.2346629 L70.33084,59.4014739 L70.1935049,58.2221439 L70.6085621,57.7350959 L71.7163987,58.1516904 L73.5811044,56.7640632 L74.8262762,57.3185014 L76.5536468,54.3349497 L77.6614834,55.0302949 L77.5210964,56.1391714 L79.0439902,56.9019069 L79.5261891,57.8760029 L80.4936387,56.1391714 L80.4936387,54.8219976 L82.5689249,55.3764359 L83.3990394,55.3059824 L84.2291539,56.0013276 L84.4366826,54.1971059 L86.3044402,53.7805114 L85.8191894,52.2550404 L86.786639,51.0757104 L88.3766745,51.7679924 L90.867018,50.3099117 L91.9016092,50.5886624 L93.5618382,50.4508186 L93.4245031,51.4218514 L95.7744595,52.8094786 L98.6798603,53.3639169 L100.269896,53.2260731 L100.959623,53.8509649 L99.8548385,55.4468894 L100.199702,56.2096249 L99.5771164,57.1806577 L99.812112,58.8194669 L98.7317424,58.5499057 L98.0786376,58.8776676 L97.391962,59.5668864 L96.3421114,59.5668864 L95.3624542,60.4398969 L94.3126035,60.5869303 L93.9494284,61.3129075 L94.4560424,62.3329513 L95.1091472,63.1692035 L94.382797,64.2597009 L93.9494284,64.6211579 L94.4926651,65.8249934 L94.636104,67.2034311 L95.1457699,67.9324715 L97.2454712,69.0597272 L98.40519,69.6784925 L98.9850494,70.4779864 L102.101031,73.6422666 L102.174276,74.4785188 L102.571022,74.6960056 L102.607645,75.676228 L103.260749,76.6227552 L104.130538,77.5141448 L104.820266,78.586263 L106.224136,79.6767604 L106.901656,80.3751688 L107.789756,80.5497709 L108.406239,80.9234807 L110.219062,80.9142911 L110.978983,81.1317779 L112.138702,80.9510494 L112.971868,81.3860231 L112.788755,82.0415468 L111.595465,82.877799 L111.558842,83.3158358 L112.028834,84.0785713 L113.008491,84.0785713 L114.818263,84.513545 L118.587349,86.5505696 L120.05836,87.6533197 L121.013602,88.6611108 L122.573119,89.0593261 L123.363559,89.6137644 L123.732838,90.2600985 L123.586347,91.4976292 L123.180445,92.0888258 L123.296417,92.8668773 L123.037006,93.0782377 L122.997332,93.3539252 L122.151958,93.0016578 L121.486646,92.1623425 L121.086848,91.2801424 L121.20282,90.5572284 L120.683998,90.2447825 L119.203831,90.2233401 L118.913901,89.7883665 L117.934244,89.3166345 L117.287243,89.4054671 L116.84777,89.6780915 L116.521218,90.8421055 L115.977981,91.4241125 L116.032915,92.0459411 L115.871165,92.768855 L115.181438,93.2436502 L115.18449,93.9573746 L115.50799,94.4413594 L116.267911,94.5516344 L117.607691,95.8228603 L117.873206,96.3711721 L117.71756,97.6056397 L117.970867,98.0436765 L117.644314,98.7328953 L116.811148,98.9534454 L116.014604,99.7896976 L115.907788,102.007451 L114.601578,103.06119 L114.421517,104.081233 L113.731789,105.024698 L112.355386,105.134973 L111.305535,104.081233 L111.268913,103.352193 L111.497805,102.987673 L112.077664,102.662974 L112.645316,102.007451 L112.76434,101.100745 L112.645316,100.154218 L112.919986,99.9888052 L113.295369,99.9704261 L113.805035,99.3516607 L113.841657,98.4786502 L113.295369,97.6791563 L112.898623,95.9698936 L112.392009,95.3143699 L112.175325,93.8593524 L111.738904,92.3338814 L111.052228,91.8989077 L110.50594,92.2236064 L109.276028,91.9326029 L108.87623,91.133109 L107.899625,91.0595923 L107.426581,90.5878603 L107.646318,90.1865818 L107.753134,89.2431178 L107.139704,88.443624 L106.269914,88.3701073 L105.433696,88.4068656 L105.506942,87.7513419 L104.710398,87.4603384 L104.167161,87.6778253 L103.550679,87.2796099 L102.537451,85.3896187 L101.594417,85.316102 L100.617811,84.9148235 L100.001329,85.4968305 L99.1315402,85.4968305 L98.9484267,84.6973367 L98.151883,84.152088 L97.2454712,84.0050547 L95.3624542,82.5867955 L93.4061917,80.0780389 L92.7897096,79.8605521 L92.609648,79.0947534 L91.7398589,77.9338025 L90.3634559,77.8970442 L90.2169651,77.0240337 L88.9138074,75.786503 L88.1874572,74.8767341 L87.0643611,74.3314854 L87.1009838,72.9867429 L86.3410629,72.5150109 L86.3044402,71.6787587 L85.4346511,70.2604995 L85.0470609,69.5192064 L84.7754425,69.0045896 L84.3756447,68.2387909 L82.9717746,67.8221964 L82.0287401,67.2034311 L78.8395135,66.3671789 L76.3766371,67.7486798 L76.3400144,68.5481736 L75.506848,69.6049758 L73.2148775,70.0123807 L73.2148775,70.0123807 Z M76.7215008,86.2289341 L77.0327937,86.1829862 L77.109091,85.7480125 L77.5149926,85.2977229 L77.136558,84.9668978 L76.9809116,85.4355666 L76.6848781,85.6009792 L76.7215008,86.2289341 L76.7215008,86.2289341 Z M88.9168593,78.3932818 L89.4723036,78.6567165 L89.2800344,78.2217429 L88.9168593,78.3932818 L88.9168593,78.3932818 Z M85.1142025,75.6486592 L84.6991452,76.0836329 L85.2179668,76.2919301 L86.2037277,75.9427259 L86.9636487,75.976421 L86.8415731,75.4556779 L86.392945,74.9165556 L86.167105,75.2290015 L85.1142025,75.6486592 L85.1142025,75.6486592 Z M79.2026886,99.1709322 L79.5658637,98.9534454 L80.035855,99.1709322 L80.7255825,98.8799287 L80.7988279,97.7894313 L81.0857057,97.1339077 L81.9921174,97.2074243 L82.5719768,97.7894313 L83.1152135,97.7894313 L83.4783886,97.0971493 L83.4783886,95.3143699 L83.6584502,94.8058796 L83.4417659,92.8791301 L83.804941,91.133109 L82.5719768,90.0426117 L83.6248794,89.3503296 L83.7683183,88.6243524 L83.5150113,87.4970968 L82.8985292,86.8048147 L82.2088017,85.5335889 L81.8486785,85.8981091 L81.0155122,85.2425854 L80.289162,85.316102 L78.5495838,87.3898849 L77.7896628,87.4235801 L76.7031895,86.7680564 L76.7031895,87.8248586 L76.5231279,88.5140774 L77.2830488,89.2798761 L77.4631104,90.0058533 L78.0795925,90.551102 L78.0795925,91.6783577 L77.3929169,92.407398 L77.6828466,92.9894051 L78.6228292,93.0598585 L78.6228292,93.4611371 L78.0429698,94.1503559 L77.6096012,95.8228603 L78.009399,96.4446888 L78.4793903,98.4081967 L79.2026886,99.1709322 L79.2026886,99.1709322 Z M109.529335,111.82499 L109.456089,110.627281 L109.929132,110.045274 L109.819264,108.988472 L108.949475,107.790762 L109.819264,105.462734 L110.689053,104.660177 L110.869115,103.388951 L110.145817,102.515941 L108.949475,103.679955 L108.442861,103.606438 L107.389959,103.024431 L106.376731,104.114929 L104.203784,103.970958 L102.427583,104.516207 L101.161048,104.261962 L100.254636,103.643197 L99.2047856,103.753472 L98.6218743,104.225204 L98.2983738,103.787167 L97.138655,104.335479 L96.9921642,105.897708 L98.0084441,106.844235 L99.0216721,106.663507 L100.834496,107.897974 L101.811101,108.152219 L102.717513,109.135505 L104.856889,109.934999 L105.290257,109.643995 L106.23024,110.336277 L106.413353,111.099013 L108.622923,111.972023 L109.529335,111.82499 L109.529335,111.82499 Z"
                    id="Fill-73-Copy" stroke="#FFFFFF" stroke-width="0.584799207" fill-opacity="0.2"></path>
                <path
                    d="M33.5677548,72.2668921 L34.3917655,72.7233082 L34.4955298,72.9653005 L35.0845449,73.0694492 L35.2554508,74.0741771 L35.1181157,74.8369126 L36.5341933,74.6623105 L38.429418,75.425046 L39.329726,76.3960787 L40.2941237,75.9457891 L41.3653376,77.0546656 L42.6776509,77.0179073 L43.3338076,77.3671115 L44.1608702,76.5002274 L46.3368689,76.4297739 L47.1639315,76.8800635 L48.4762448,76.7422198 L49.8587517,77.5049553 L52.0988401,77.296658 L53.6888755,78.2646276 L54.2900982,78.4698616 L54.3480841,78.9875416 L53.5881631,79.4960319 L53.8414701,81.0245661 L53.7193945,82.2130857 L53.2310918,83.1167282 L51.424372,84.2072255 C51.424372,84.2072255 50.7010737,85.2027638 50.6125689,85.2395222 C50.5210121,85.2762805 49.0957788,85.8582875 49.0957788,85.8582875 L47.2493844,85.7663917 L46.0591467,86.6179598 L44.9757253,87.1969037 L45.4792874,87.6349405 L45.2442917,88.759133 L44.5789794,89.1757275 L44.4691113,89.0654525 L44.6369653,88.915356 L44.1303513,88.7346275 L42.7539482,91.0963507 L41.777343,91.5711459 L39.9278967,94.6619094 L39.38466,95.3511283 L40.1812037,96.7326291 L40.397888,97.6791563 L41.1242382,98.0804349 L42.3175278,99.7161809 L41.2676771,100.733162 L39.6745897,101.13444 L39.7112124,102.261696 L38.1883185,104.405932 L38.0082569,105.824191 L38.4050028,106.22547 L38.0082569,106.844235 L36.3785469,106.914689 L33.4792499,108.299253 L33.4792499,109.279475 L32.3561538,111.099013 L31.339874,110.627281 L30.4334622,109.824724 L29.9634709,110.664039 L29.2035499,111.3165 L28.4070062,110.697734 L27.5738398,110.664039 L27.2472874,111.062254 L25.9410779,110.915221 L23.9817635,110.369972 L23.1882717,110.808009 L21.4700568,111.025496 L19.9715781,112.529525 L18.201481,112.747012 L17.5331168,113.344335 L17.4964941,114.125449 L16.0895721,114.885122 L14.5331074,114.63394 L12.9461238,113.053331 L12.0214007,110.841704 L12.2228255,110.535385 L10.2726668,108.648457 L8.86269296,108.486108 L8.08140873,108.271684 L8.03868225,107.144428 L7.34895477,106.035552 L8.4537395,103.952579 L9.62871773,102.981547 L9.76605285,102.077904 L8.73146163,102.010514 L8.03868225,100.622887 L9.55852423,99.0943523 L9.49138261,97.1522868 L8.38354599,96.4569416 L7.14142615,94.0982816 L8.31640438,93.8195309 L9.14651887,93.9604378 L10.3886387,92.2236064 L9.55852423,91.3934806 L10.5961673,90.3519943 L10.7365544,87.2979891 L10.5290257,86.0482056 L12.3265898,84.3144373 L13.0163173,84.3144373 L13.2940394,83.3434046 L12.3265898,81.9557773 L12.1862028,80.7733841 L9.90643986,80.4976966 L9.00613186,81.3982759 L6.37845327,80.8438376 L4.78841779,81.6770266 L4.37336054,80.9816814 L4.51374755,79.9432583 L3.7049963,79.7227083 L1.5808798,80.0565965 L1.55646467,79.7870354 L2.68261264,78.8037499 L1.88301706,78.6597797 L2.42930565,78.0777727 L2.06613056,77.7132525 L2.28281485,76.6962718 L1.52289387,77.422249 L1.15971878,77.2782788 L1.41302577,75.9335363 L1.01322798,75.7497446 L1.04985068,75.204496 L0.436420487,75.425046 L0,74.4050021 L0.506613992,73.3512631 L2.31943755,72.6957394 L2.93591964,72.9867429 L4.45576161,72.8060144 L5.18211179,72.2577025 L4.6022524,71.8594872 L4.49238431,71.2039635 L6.23196247,70.2237412 L6.48526947,70.551503 L7.21161965,70.0399495 L8.40490923,70.2972579 L9.42118911,71.5684837 L10.2909782,70.8425065 L11.2675835,70.8425065 L12.3906796,71.3142385 L13.6236437,70.8057482 L15.1465376,70.3677113 L15.4700381,70.8057482 L16.7030023,71.494967 L20.1089132,72.0402157 L21.6684298,72.4047359 L23.9848154,71.4214504 L25.7243936,71.5684837 L26.050946,72.3312192 L27.7539014,72.6589811 L28.6236905,71.7859705 L29.4568569,71.7859705 L31.9929788,73.2777464 L32.46297,72.5854644 L33.1526975,72.5150109 L33.5677548,72.2668921 L33.5677548,72.2668921 Z M56.6827811,93.3171669 L58.2361939,93.4550107 L58.9961149,93.8716052 L59.2372143,93.3876204 L58.2728166,92.3828925 L56.8903097,92.65858 L56.6827811,93.3171669 L56.6827811,93.3171669 Z M53.9238712,96.5396479 L54.3358765,95.2929276 L55.4070905,94.3218948 L54.4396408,94.2514413 L53.3348561,94.0799024 L52.4040292,94.701731 L52.1965006,95.53492 L53.1639502,95.8473658 L53.9238712,96.5396479 L53.9238712,96.5396479 Z M48.0886546,99.7253705 L48.641047,98.962635 L49.1598685,98.444955 L48.7783821,97.8200633 L47.5362622,98.2029626 L47.3989271,99.0698468 L48.0886546,99.7253705 L48.0886546,99.7253705 Z"
                    id="Fill-74-Copy" stroke="#FFFFFF" stroke-width="0.584799207" fill-opacity="0.2"></path>
                <polyline id="Fill-60-Copy" stroke="#FFFFFF" stroke-width="0.584799207"
                    fill-opacity="0.2"
                    points="126.650446 37.1596163 126.909857 37.3035865 127.807113 37.2698913 128.377817 36.399944 129.140789 36.1395725 129.882399 36.2253419 131.023807 36.2253419 131.698275 36.6940107 132.302549 36.069119 133.080781 35.9649703 133.825443 36.3141746 134.432769 36.0354238 136.230333 36.1028141 138.223219 37.2790809 139.260862 37.3495344 139.328003 35.8945169 139.120475 34.5773431 142.056394 31.2874719 142.4684 29.8324543 143.19475 29.0697188 143.988242 29.0329605 144.253756 27.6024485 143.908893 27.0112519 143.768505 26.2638324 144.183563 25.7247101 143.026896 24.9956697 142.471452 23.5866001 141.867177 22.9617083 141.815295 20.7531449 141.916007 19.4727295 140.95161 17.9135633 140.570123 16.4922409 141.296473 15.3129109 142.260871 14.9667699 142.2273 11.9525862 141.674908 11.4686014 141.470431 10.2923346 140.814275 9.28760669 140.087924 7.06679044 139.260862 5.71592153 139.328003 4.57334986 138.809182 2.80588645 138.156077 2.73849617 137.084863 1.87161203 130.767448 2.49344058 124.685028 2.15342596 124.129584 2.3647864 122.499874 3.81980394 121.12347 4.14450259 120.760295 3.81980394 122.13975 3.05400523 123.406285 1.74602105 122.972917 1.78277938 121.956637 2.79976006 120.180436 3.63601225 118.114305 3.05400523 117.680937 1.92674954 118.007489 1.12725569 119.093963 1.27428904 119.600577 1.60205089 119.637199 1.27428904 118.297419 0.618765353 115.871165 -3.62376795e-13 113.985096 0.983285536 112.608693 0.873010523 111.195667 1.4182592 110.325878 2.61903157 108.949475 2.65578991 108.079686 3.63601225 108.079686 4.40181095 106.593415 4.4355061 104.347223 5.6730368 102.827381 5.78331181 102.284144 6.94732585 101.920969 8.10827668 101.594417 8.29206837 101.667662 8.76380037 101.191567 8.79136913 101.704285 10.9478583 101.56695 12.5407196 100.218014 13.2360648 100.218014 13.8946517 101.704285 15.487513 101.530327 16.4585458 102.220054 17.359125 102.220054 18.0851022 102.635112 19.0898301 102.256677 19.9230191 103.120362 21.8987797 103.752104 22.247984 104.322808 22.9954035 104.393001 25.550108 104.130538 25.9728289 104.478454 26.7325012 104.893511 26.2454532 105.723626 26.4016761 106.190565 26.1596837 108.146828 26.4568136 108.076634 27.0112519 108.906749 27.8628201 109.684981 27.7586714 110.39302 28.3682472 109.92608 29.4281126 110.307567 30.00093 110.652431 30.1939113 110.609704 31.1128698 111.265861 31.3916205 111.714489 30.9045725 112.334023 30.9045725 111.229238 29.449555 111.680918 29.1371091 113.924058 30.3838294 115.340136 30.2122905 115.095985 31.0424163 116.130576 31.8756053 117.92814 31.4590108 119.341166 31.9093004 122.243515 34.0229048 123.140771 35.582071 123.967833 35.6157661 124.382891 35.1317814 125.658581 35.1654765 126.384931 35.928212 126.650446 37.1596163"></polyline>
                <polygon id="Fill-50-Copy" stroke="#FFFFFF" stroke-width="0.584799207"
                    fill-opacity="0.2"
                    points="117.660689 46.0354175 119.384602 46.3539922 121.040056 45.7886783 123.644596 45.5419391 123.784625 44.6236944 125.15691 44.164572 126.740794 42.821561 128.113078 44.2676403 128.218878 43.3525189 129.099505 42.643534 129.942791 41.3380024 131.564016 41.1974548 132.68736 41.5129062 134.660214 41.3723585 136.172527 41.7252893 137.476353 40.8788801 137.684841 39.2172944 138.689938 37.0716001 138.565468 37.0622303 136.533491 35.8628903 134.700666 35.7941781 134.081427 36.0783967 133.322158 35.7223426 132.528661 35.8285342 131.912533 36.4656836 131.224835 35.9878215 130.061038 35.9878215 129.304881 35.9003697 128.526942 36.1658486 127.945044 37.0528605 127.030187 37.0872166 126.765688 36.9404223 126.775023 36.9935181 124.522112 36.781135 123.467226 37.7337358 122.234971 37.8399273 120.862686 39.2172944 119.067203 39.4640336 117.203261 40.1355391 116.745833 39.7482522 115.619377 39.7826083 114.458692 40.5603054 114.212863 40.5040863 114.107063 42.0719735 114.399568 44.142709"></polygon>
            </g>
        </g>
    </g>
</svg>