<?xml version="1.0" encoding="UTF-8"?>
<svg width="239px" height="239px" viewBox="0 0 239 239" version="1.1"
	xmlns="http://www.w3.org/2000/svg" xmlns:xlink="http://www.w3.org/1999/xlink">
	<title>tree-diagram</title>
	<g id="tree-diagram" stroke="none" stroke-width="1" fill="none" fill-rule="evenodd">
		<g id="Group-7" transform="translate(23.000000, 76.000000)">
			<g id="Group-4" transform="translate(109.000000, 0.000000)">
				<g id="level-05" transform="translate(0.000000, 2.000000)" stroke="#0F62FE"
					stroke-linecap="round" stroke-linejoin="round" stroke-width="0.75">
					<path d="M0,40 C28.6666667,40 14.3333333,30 43,30" id="line"
						transform="translate(21.500000, 35.000000) scale(1, -1) translate(-21.500000, -35.000000) "></path>
					<path d="M0,50 C28.6666667,50 14.3333333,30 43,30" id="line"
						transform="translate(21.500000, 40.000000) scale(1, -1) translate(-21.500000, -40.000000) "></path>
					<path d="M0,60 C28.6666667,60 14.3333333,30 43,30" id="line"
						transform="translate(21.500000, 45.000000) scale(1, -1) translate(-21.500000, -45.000000) "></path>
					<line x1="0" y1="30" x2="43" y2="30" id="line"
						transform="translate(21.500000, 30.000000) scale(1, -1) translate(-21.500000, -30.000000) "></line>
					<path d="M0,30 C28.6666667,30 14.3333333,20 43,20" id="line"></path>
					<path d="M0,30 C28.6666667,30 14.3333333,10 43,10" id="line"></path>
					<path d="M0,30 C28.6666667,30 14.3333333,0 43,0" id="line"></path>
				</g>
				<g id="Group-3" transform="translate(43.000000, 0.000000)" fill="#0F62FE">
					<circle id="Oval" cx="2" cy="2" r="2"></circle>
					<rect id="Rectangle" x="8" y="0" width="24" height="4"></rect>
				</g>
				<g id="Group-2" transform="translate(43.000000, 20.000000)" fill="#0F62FE">
					<circle id="Oval-Copy" cx="2" cy="2" r="2"></circle>
					<rect id="Rectangle-Copy" x="8" y="0" width="28" height="4"></rect>
				</g>
				<g id="Group-2-Copy" transform="translate(43.000000, 30.000000)" fill="#0F62FE">
					<circle id="Oval-Copy" cx="2" cy="2" r="2"></circle>
					<rect id="Rectangle-Copy" x="8" y="0" width="28" height="4"></rect>
				</g>
				<g id="Group-2-Copy-2" transform="translate(43.000000, 40.000000)" fill="#0F62FE">
					<circle id="Oval-Copy" cx="2" cy="2" r="2"></circle>
					<rect id="Rectangle-Copy" x="8" y="0" width="28" height="4"></rect>
				</g>
				<g id="Group-2-Copy-11" transform="translate(43.000000, 60.000000)" fill="#0F62FE">
					<circle id="Oval-Copy" cx="2" cy="2" r="2"></circle>
					<rect id="Rectangle-Copy" x="8" y="0" width="28" height="4"></rect>
				</g>
				<g id="Group-2-Copy-3" transform="translate(43.000000, 50.000000)" fill="#0F62FE">
					<circle id="Oval-Copy" cx="2" cy="2" r="2"></circle>
					<rect id="Rectangle-Copy" x="8" y="0" width="21" height="4"></rect>
				</g>
				<g id="Group-2-Copy-10" transform="translate(43.000000, 10.000000)" fill="#0F62FE">
					<circle id="Oval-Copy" cx="2" cy="2" r="2"></circle>
					<rect id="Rectangle-Copy" x="8" y="0" width="21" height="4"></rect>
				</g>
			</g>
			<g id="Group-6" transform="translate(109.000000, 90.000000)">
				<g id="Group" transform="translate(43.000000, 0.000000)" fill="#0F62FE">
					<g id="Group-2-Copy-6" transform="translate(0.000000, 10.000000)">
						<circle id="Oval-Copy" cx="2" cy="2" r="2"></circle>
						<rect id="Rectangle-Copy" x="8" y="0" width="17" height="4"></rect>
					</g>
					<g id="Group-2-Copy-8">
						<circle id="Oval-Copy" cx="2" cy="2" r="2"></circle>
						<rect id="Rectangle-Copy" x="8" y="0" width="17" height="4"></rect>
					</g>
					<g id="Group-2-Copy-7" transform="translate(0.000000, 20.000000)">
						<circle id="Oval-Copy" cx="2" cy="2" r="2"></circle>
						<rect id="Rectangle-Copy" x="8" y="0" width="17" height="4"></rect>
					</g>
				</g>
				<path d="M0,22 C28.6666667,22 14.3333333,12 43,12" id="line" stroke="#0F62FE"
					stroke-width="0.75" stroke-linecap="round" stroke-linejoin="round"
					transform="translate(21.500000, 17.000000) scale(1, -1) translate(-21.500000, -17.000000) "></path>
				<line x1="0" y1="12" x2="43" y2="12" id="line" stroke="#0F62FE" stroke-width="0.75"
					stroke-linecap="round" stroke-linejoin="round"
					transform="translate(21.500000, 12.000000) scale(1, -1) translate(-21.500000, -12.000000) "></line>
				<path d="M0,12 C28.6666667,12 14.3333333,2 43,2" id="line" stroke="#0F62FE"
					stroke-width="0.75" stroke-linecap="round" stroke-linejoin="round"></path>
			</g>
			<line x1="36" y1="75" x2="79" y2="75" id="line-copy-7" stroke="#0F62FE" stroke-width="0.75"
				stroke-linecap="round" stroke-linejoin="round"
				transform="translate(57.500000, 75.000000) scale(1, -1) translate(-57.500000, -75.000000) "></line>
			<line x1="109" y1="75" x2="152" y2="75" id="line-copy-8" stroke="#0F62FE" stroke-width="0.75"
				stroke-linecap="round" stroke-linejoin="round"
				transform="translate(130.500000, 75.000000) scale(1, -1) translate(-130.500000, -75.000000) "></line>
			<path d="M36,102 C64.6666667,102 50.3333333,75 79,75" id="line" stroke="#0F62FE"
				stroke-width="0.75" stroke-linecap="round" stroke-linejoin="round"
				transform="translate(57.500000, 88.500000) scale(1, -1) translate(-57.500000, -88.500000) "></path>
			<path d="M36,75 C64.6666667,75 50.3333333,32 79,32" id="line" stroke="#0F62FE"
				stroke-width="0.75" stroke-linecap="round" stroke-linejoin="round"></path>
			<g id="Group-5" transform="translate(0.000000, 73.000000)" fill="#0F62FE">
				<circle id="Oval-Copy" cx="34" cy="2" r="2"></circle>
				<rect id="Rectangle-Copy" x="0" y="0" width="28" height="4"></rect>
			</g>
			<g id="Group-5-Copy-3" transform="translate(79.000000, 73.000000)" fill="#0F62FE">
				<circle id="Oval-Copy" cx="28" cy="2" r="2"></circle>
				<rect id="Rectangle-Copy" x="0" y="0" width="22" height="4"></rect>
			</g>
			<g id="Group-5-Copy-4" transform="translate(79.000000, 30.000000)" fill="#0F62FE">
				<circle id="Oval-Copy" cx="28" cy="2" r="2"></circle>
				<rect id="Rectangle-Copy" x="0" y="0" width="22" height="4"></rect>
			</g>
			<g id="Group-5-Copy-5" transform="translate(79.000000, 100.000000)" fill="#0F62FE">
				<circle id="Oval-Copy" cx="28" cy="2" r="2"></circle>
				<rect id="Rectangle-Copy" x="0" y="0" width="22" height="4"></rect>
			</g>
			<g id="Group-2-Copy-11" transform="translate(152.000000, 73.000000)" fill="#0F62FE">
				<circle id="Oval-Copy" cx="2" cy="2" r="2"></circle>
				<rect id="Rectangle-Copy" x="8" y="0" width="28" height="4"></rect>
			</g>
		</g>
	</g>
</svg>