<?xml version="1.0" encoding="UTF-8"?>
<svg width="239px" height="239px" viewBox="0 0 239 239" version="1.1" xmlns="http://www.w3.org/2000/svg" xmlns:xlink="http://www.w3.org/1999/xlink">
	<title>wordcloud</title>
	<g id="wordcloud" stroke="none" stroke-width="1" fill="none" fill-rule="evenodd">
		<path d="M51.392,100 L51.392,99.44 L50.552,99.44 L50.552,96.432 L51.456,96.432 L51.456,95.872 L50.552,95.872 L50.552,94.728 L49.976,94.728 L49.976,95.496 C49.976,95.6346667 49.9506667,95.732 49.9,95.788 C49.8493333,95.844 49.7546667,95.872 49.616,95.872 L49.616,95.872 L49.232,95.872 L49.232,96.432 L49.912,96.432 L49.912,99.32 C49.912,99.5226667 49.9693333,99.6866667 50.084,99.812 C50.1986667,99.9373333 50.368,100 50.592,100 L50.592,100 L51.392,100 Z M54.04,100.096 C54.4293333,100.096 54.7653333,100.009333 55.048,99.836 C55.3306667,99.6626667 55.5386667,99.4346667 55.672,99.152 L55.672,99.152 L55.216,98.824 C55.1093333,99.0533333 54.9586667,99.2293333 54.764,99.352 C54.5693333,99.4746667 54.3413333,99.536 54.08,99.536 C53.888,99.536 53.716,99.504 53.564,99.44 C53.412,99.376 53.284,99.288 53.18,99.176 C53.076,99.064 52.996,98.932 52.94,98.78 C52.884,98.628 52.856,98.464 52.856,98.288 L52.856,98.288 L52.856,98.096 L55.824,98.096 L55.824,97.792 C55.824,97.4986667 55.7826667,97.2293333 55.7,96.984 C55.6173333,96.7386667 55.4986667,96.5266667 55.344,96.348 C55.1893333,96.1693333 55.0026667,96.0293333 54.784,95.928 C54.5653333,95.8266667 54.3173333,95.776 54.04,95.776 C53.7573333,95.776 53.5026667,95.8266667 53.276,95.928 C53.0493333,96.0293333 52.8546667,96.1746667 52.692,96.364 C52.5293333,96.5533333 52.404,96.7813333 52.316,97.048 C52.228,97.3146667 52.184,97.6106667 52.184,97.936 C52.184,98.2666667 52.228,98.564 52.316,98.828 C52.404,99.092 52.5293333,99.3186667 52.692,99.508 C52.8546667,99.6973333 53.0493333,99.8426667 53.276,99.944 C53.5026667,100.045333 53.7573333,100.096 54.04,100.096 Z M55.136,97.616 L52.856,97.616 L52.856,97.56 C52.856,97.3786667 52.8853333,97.212 52.944,97.06 C53.0026667,96.908 53.084,96.776 53.188,96.664 C53.292,96.552 53.416,96.4653333 53.56,96.404 C53.704,96.3426667 53.864,96.312 54.04,96.312 C54.3706667,96.312 54.636,96.4226667 54.836,96.644 C55.036,96.8653333 55.136,97.16 55.136,97.528 L55.136,97.528 L55.136,97.616 Z M57.52,100 L57.52,97.136 C57.52,97.0026667 57.548,96.8866667 57.604,96.788 C57.66,96.6893333 57.7333333,96.608 57.824,96.544 C57.9146667,96.48 58.0186667,96.432 58.136,96.4 C58.2533333,96.368 58.376,96.352 58.504,96.352 C58.808,96.352 59.032,96.4453333 59.176,96.632 C59.32,96.8186667 59.392,97.096 59.392,97.464 L59.392,97.464 L59.392,100 L60.032,100 L60.032,97.136 C60.032,97.0026667 60.0586667,96.8866667 60.112,96.788 C60.1653333,96.6893333 60.2373333,96.608 60.328,96.544 C60.4186667,96.48 60.5213333,96.432 60.636,96.4 C60.7506667,96.368 60.872,96.352 61,96.352 C61.3146667,96.352 61.544,96.4453333 61.688,96.632 C61.832,96.8186667 61.904,97.096 61.904,97.464 L61.904,97.464 L61.904,100 L62.544,100 L62.544,97.352 C62.544,96.8506667 62.4253333,96.4626667 62.188,96.188 C61.9506667,95.9133333 61.6213333,95.776 61.2,95.776 C60.848,95.776 60.5693333,95.86 60.364,96.028 C60.1586667,96.196 60.0186667,96.392 59.944,96.616 L59.944,96.616 L59.928,96.616 C59.816,96.3173333 59.6453333,96.1026667 59.416,95.972 C59.1866667,95.8413333 58.936,95.776 58.664,95.776 C58.504,95.776 58.3653333,95.796 58.248,95.836 C58.1306667,95.876 58.028,95.9306667 57.94,96 C57.852,96.0693333 57.7773333,96.1506667 57.716,96.244 C57.6546667,96.3373333 57.6,96.4373333 57.552,96.544 L57.552,96.544 L57.52,96.544 L57.52,95.872 L56.88,95.872 L56.88,100 L57.52,100 Z M64.504,101.6 L64.504,99.328 L64.536,99.328 C64.7813333,99.84 65.184,100.096 65.744,100.096 C66,100.096 66.232,100.045333 66.44,99.944 C66.648,99.8426667 66.8253333,99.6986667 66.972,99.512 C67.1186667,99.3253333 67.2306667,99.0986667 67.308,98.832 C67.3853333,98.5653333 67.424,98.2666667 67.424,97.936 C67.424,97.6053333 67.3853333,97.3066667 67.308,97.04 C67.2306667,96.7733333 67.1186667,96.5466667 66.972,96.36 C66.8253333,96.1733333 66.648,96.0293333 66.44,95.928 C66.232,95.8266667 66,95.776 65.744,95.776 C65.456,95.776 65.2093333,95.8386667 65.004,95.964 C64.7986667,96.0893333 64.6426667,96.2826667 64.536,96.544 L64.536,96.544 L64.504,96.544 L64.504,95.872 L63.864,95.872 L63.864,101.6 L64.504,101.6 Z M65.568,99.52 C65.424,99.52 65.2866667,99.5013333 65.156,99.464 C65.0253333,99.4266667 64.912,99.372 64.816,99.3 C64.72,99.228 64.644,99.14 64.588,99.036 C64.532,98.932 64.504,98.8133333 64.504,98.68 L64.504,98.68 L64.504,97.144 C64.504,97.032 64.532,96.9266667 64.588,96.828 C64.644,96.7293333 64.72,96.6453333 64.816,96.576 C64.912,96.5066667 65.0253333,96.452 65.156,96.412 C65.2866667,96.372 65.424,96.352 65.568,96.352 C65.9306667,96.352 66.216,96.4653333 66.424,96.692 C66.632,96.9186667 66.736,97.216 66.736,97.584 L66.736,97.584 L66.736,98.288 C66.736,98.656 66.632,98.9533333 66.424,99.18 C66.216,99.4066667 65.9306667,99.52 65.568,99.52 Z M69.856,100.096 C70.0266667,100.096 70.176,100.074667 70.304,100.032 C70.432,99.9893333 70.5413333,99.932 70.632,99.86 C70.7226667,99.788 70.7986667,99.7053333 70.86,99.612 C70.9213333,99.5186667 70.9733333,99.424 71.016,99.328 L71.016,99.328 L71.048,99.328 L71.048,100 L71.688,100 L71.688,95.872 L71.048,95.872 L71.048,98.728 C71.048,98.8666667 71.02,98.9853333 70.964,99.084 C70.908,99.1826667 70.8333333,99.264 70.74,99.328 C70.6466667,99.392 70.54,99.44 70.42,99.472 C70.3,99.504 70.176,99.52 70.048,99.52 C69.4186667,99.52 69.104,99.1493333 69.104,98.408 L69.104,98.408 L69.104,95.872 L68.464,95.872 L68.464,98.52 C68.464,99.0213333 68.5893333,99.4093333 68.84,99.684 C69.0906667,99.9586667 69.4293333,100.096 69.856,100.096 Z M74.288,100.096 C74.7626667,100.096 75.136,99.9813333 75.408,99.752 C75.68,99.5226667 75.816,99.208 75.816,98.808 C75.816,98.4933333 75.72,98.2386667 75.528,98.044 C75.336,97.8493333 75.0106667,97.7173333 74.552,97.648 L74.552,97.648 L74.232,97.6 C73.976,97.5573333 73.78,97.4906667 73.644,97.4 C73.508,97.3093333 73.44,97.1626667 73.44,96.96 C73.44,96.7626667 73.508,96.6066667 73.644,96.492 C73.78,96.3773333 73.9813333,96.32 74.248,96.32 C74.5146667,96.32 74.736,96.372 74.912,96.476 C75.088,96.58 75.2213333,96.696 75.312,96.824 L75.312,96.824 L75.736,96.44 C75.5653333,96.232 75.3666667,96.0693333 75.14,95.952 C74.9133333,95.8346667 74.632,95.776 74.296,95.776 C74.088,95.776 73.8933333,95.8013333 73.712,95.852 C73.5306667,95.9026667 73.3746667,95.9786667 73.244,96.08 C73.1133333,96.1813333 73.0106667,96.308 72.936,96.46 C72.8613333,96.612 72.824,96.7893333 72.824,96.992 C72.824,97.184 72.8573333,97.3493333 72.924,97.488 C72.9906667,97.6266667 73.084,97.7426667 73.204,97.836 C73.324,97.9293333 73.464,98.004 73.624,98.06 C73.784,98.116 73.96,98.1573333 74.152,98.184 L74.152,98.184 L74.48,98.232 C74.752,98.2746667 74.94,98.3533333 75.044,98.468 C75.148,98.5826667 75.2,98.72 75.2,98.88 C75.2,99.0933333 75.124,99.2586667 74.972,99.376 C74.82,99.4933333 74.608,99.552 74.336,99.552 C74.0746667,99.552 73.8453333,99.4973333 73.648,99.388 C73.4506667,99.2786667 73.272,99.1226667 73.112,98.92 L73.112,98.92 L72.656,99.288 C72.8426667,99.5333333 73.0653333,99.7293333 73.324,99.876 C73.5826667,100.022667 73.904,100.096 74.288,100.096 Z" id="tempus" fill="#97C1FF" fill-rule="nonzero"></path>
		<path d="M149.544,92 L149.544,88.432 L150.432,88.432 L150.432,87.872 L149.544,87.872 L149.544,86.64 L150.432,86.64 L150.432,86.08 L149.808,86.08 C149.504,86.08 149.277333,86.168 149.128,86.344 C148.978667,86.52 148.904,86.752 148.904,87.04 L148.904,87.04 L148.904,87.872 L148.232,87.872 L148.232,88.432 L148.904,88.432 L148.904,92 L149.544,92 Z M152.824,92.096 C153.213333,92.096 153.549333,92.0093333 153.832,91.836 C154.114667,91.6626667 154.322667,91.4346667 154.456,91.152 L154.456,91.152 L154,90.824 C153.893333,91.0533333 153.742667,91.2293333 153.548,91.352 C153.353333,91.4746667 153.125333,91.536 152.864,91.536 C152.672,91.536 152.5,91.504 152.348,91.44 C152.196,91.376 152.068,91.288 151.964,91.176 C151.86,91.064 151.78,90.932 151.724,90.78 C151.668,90.628 151.64,90.464 151.64,90.288 L151.64,90.288 L151.64,90.096 L154.608,90.096 L154.608,89.792 C154.608,89.4986667 154.566667,89.2293333 154.484,88.984 C154.401333,88.7386667 154.282667,88.5266667 154.128,88.348 C153.973333,88.1693333 153.786667,88.0293333 153.568,87.928 C153.349333,87.8266667 153.101333,87.776 152.824,87.776 C152.541333,87.776 152.286667,87.8266667 152.06,87.928 C151.833333,88.0293333 151.638667,88.1746667 151.476,88.364 C151.313333,88.5533333 151.188,88.7813333 151.1,89.048 C151.012,89.3146667 150.968,89.6106667 150.968,89.936 C150.968,90.2666667 151.012,90.564 151.1,90.828 C151.188,91.092 151.313333,91.3186667 151.476,91.508 C151.638667,91.6973333 151.833333,91.8426667 152.06,91.944 C152.286667,92.0453333 152.541333,92.096 152.824,92.096 Z M153.92,89.616 L151.64,89.616 L151.64,89.56 C151.64,89.3786667 151.669333,89.212 151.728,89.06 C151.786667,88.908 151.868,88.776 151.972,88.664 C152.076,88.552 152.2,88.4653333 152.344,88.404 C152.488,88.3426667 152.648,88.312 152.824,88.312 C153.154667,88.312 153.42,88.4226667 153.62,88.644 C153.82,88.8653333 153.92,89.16 153.92,89.528 L153.92,89.528 L153.92,89.616 Z M156.912,92 L156.912,91.44 L156.304,91.44 L156.304,86.08 L155.664,86.08 L155.664,91.336 C155.664,91.528 155.721333,91.6866667 155.836,91.812 C155.950667,91.9373333 156.12,92 156.344,92 L156.344,92 L156.912,92 Z M158.16,86.904 C158.298667,86.904 158.398667,86.8706667 158.46,86.804 C158.521333,86.7373333 158.552,86.6506667 158.552,86.544 L158.552,86.544 L158.552,86.44 C158.552,86.3333333 158.521333,86.2466667 158.46,86.18 C158.398667,86.1133333 158.298667,86.08 158.16,86.08 C158.021333,86.08 157.921333,86.1133333 157.86,86.18 C157.798667,86.2466667 157.768,86.3333333 157.768,86.44 L157.768,86.44 L157.768,86.544 C157.768,86.6506667 157.798667,86.7373333 157.86,86.804 C157.921333,86.8706667 158.021333,86.904 158.16,86.904 Z M158.48,92 L158.48,87.872 L157.84,87.872 L157.84,92 L158.48,92 Z M161.08,92.096 C161.554667,92.096 161.928,91.9813333 162.2,91.752 C162.472,91.5226667 162.608,91.208 162.608,90.808 C162.608,90.4933333 162.512,90.2386667 162.32,90.044 C162.128,89.8493333 161.802667,89.7173333 161.344,89.648 L161.344,89.648 L161.024,89.6 C160.768,89.5573333 160.572,89.4906667 160.436,89.4 C160.3,89.3093333 160.232,89.1626667 160.232,88.96 C160.232,88.7626667 160.3,88.6066667 160.436,88.492 C160.572,88.3773333 160.773333,88.32 161.04,88.32 C161.306667,88.32 161.528,88.372 161.704,88.476 C161.88,88.58 162.013333,88.696 162.104,88.824 L162.104,88.824 L162.528,88.44 C162.357333,88.232 162.158667,88.0693333 161.932,87.952 C161.705333,87.8346667 161.424,87.776 161.088,87.776 C160.88,87.776 160.685333,87.8013333 160.504,87.852 C160.322667,87.9026667 160.166667,87.9786667 160.036,88.08 C159.905333,88.1813333 159.802667,88.308 159.728,88.46 C159.653333,88.612 159.616,88.7893333 159.616,88.992 C159.616,89.184 159.649333,89.3493333 159.716,89.488 C159.782667,89.6266667 159.876,89.7426667 159.996,89.836 C160.116,89.9293333 160.256,90.004 160.416,90.06 C160.576,90.116 160.752,90.1573333 160.944,90.184 L160.944,90.184 L161.272,90.232 C161.544,90.2746667 161.732,90.3533333 161.836,90.468 C161.94,90.5826667 161.992,90.72 161.992,90.88 C161.992,91.0933333 161.916,91.2586667 161.764,91.376 C161.612,91.4933333 161.4,91.552 161.128,91.552 C160.866667,91.552 160.637333,91.4973333 160.44,91.388 C160.242667,91.2786667 160.064,91.1226667 159.904,90.92 L159.904,90.92 L159.448,91.288 C159.634667,91.5333333 159.857333,91.7293333 160.116,91.876 C160.374667,92.0226667 160.696,92.096 161.08,92.096 Z" id="felis" fill="#97C1FF" fill-rule="nonzero"></path>
		<path d="M47.088,146 L47.088,138.864 L48.864,138.864 L48.864,137.744 L47.088,137.744 L47.088,135.28 L48.864,135.28 L48.864,134.16 L47.616,134.16 C47.008,134.16 46.5546667,134.336 46.256,134.688 C45.9573333,135.04 45.808,135.504 45.808,136.08 L45.808,136.08 L45.808,137.744 L44.464,137.744 L44.464,138.864 L45.808,138.864 L45.808,146 L47.088,146 Z M52.656,146.192 C53.232,146.192 53.728,146.064 54.144,145.808 C54.56,145.552 54.8586667,145.168 55.04,144.656 L55.04,144.656 L55.12,144.656 C55.1733333,145.04 55.304,145.36 55.512,145.616 C55.72,145.872 56.064,146 56.544,146 L56.544,146 L57.264,146 L57.264,144.88 L56.32,144.88 L56.32,140.336 C56.32,139.461333 56.0426667,138.778667 55.488,138.288 C54.9333333,137.797333 54.1546667,137.552 53.152,137.552 C52.4053333,137.552 51.7866667,137.709333 51.296,138.024 C50.8053333,138.338667 50.448,138.72 50.224,139.168 L50.224,139.168 L50.992,139.888 C51.216,139.514667 51.496,139.216 51.832,138.992 C52.168,138.768 52.5866667,138.656 53.088,138.656 C53.7493333,138.656 54.24,138.810667 54.56,139.12 C54.88,139.429333 55.04,139.877333 55.04,140.464 L55.04,140.464 L55.04,141.28 L53.408,141.28 C52.2026667,141.28 51.3146667,141.488 50.744,141.904 C50.1733333,142.32 49.888,142.917333 49.888,143.696 C49.888,144.464 50.1306667,145.072 50.616,145.52 C51.1013333,145.968 51.7813333,146.192 52.656,146.192 Z M52.864,145.104 C52.3626667,145.104 51.9653333,144.992 51.672,144.768 C51.3786667,144.544 51.232,144.229333 51.232,143.824 L51.232,143.824 L51.232,143.488 C51.232,143.082667 51.4,142.773333 51.736,142.56 C52.072,142.346667 52.608,142.24 53.344,142.24 L53.344,142.24 L55.04,142.24 L55.04,143.6 C55.04,143.813333 54.9866667,144.010667 54.88,144.192 C54.7733333,144.373333 54.624,144.533333 54.432,144.672 C54.24,144.810667 54.0106667,144.917333 53.744,144.992 C53.4773333,145.066667 53.184,145.104 52.864,145.104 Z M60.368,146 L60.368,140.272 C60.368,140.005333 60.424,139.773333 60.536,139.576 C60.648,139.378667 60.7946667,139.216 60.976,139.088 C61.1573333,138.96 61.3653333,138.864 61.6,138.8 C61.8346667,138.736 62.08,138.704 62.336,138.704 C62.944,138.704 63.392,138.890667 63.68,139.264 C63.968,139.637333 64.112,140.192 64.112,140.928 L64.112,140.928 L64.112,146 L65.392,146 L65.392,140.272 C65.392,140.005333 65.4453333,139.773333 65.552,139.576 C65.6586667,139.378667 65.8026667,139.216 65.984,139.088 C66.1653333,138.96 66.3706667,138.864 66.6,138.8 C66.8293333,138.736 67.072,138.704 67.328,138.704 C67.9573333,138.704 68.416,138.890667 68.704,139.264 C68.992,139.637333 69.136,140.192 69.136,140.928 L69.136,140.928 L69.136,146 L70.416,146 L70.416,140.704 C70.416,139.701333 70.1786667,138.925333 69.704,138.376 C69.2293333,137.826667 68.5706667,137.552 67.728,137.552 C67.024,137.552 66.4666667,137.72 66.056,138.056 C65.6453333,138.392 65.3653333,138.784 65.216,139.232 L65.216,139.232 L65.184,139.232 C64.96,138.634667 64.6186667,138.205333 64.16,137.944 C63.7013333,137.682667 63.2,137.552 62.656,137.552 C62.336,137.552 62.0586667,137.592 61.824,137.672 C61.5893333,137.752 61.384,137.861333 61.208,138 C61.032,138.138667 60.8826667,138.301333 60.76,138.488 C60.6373333,138.674667 60.528,138.874667 60.432,139.088 L60.432,139.088 L60.368,139.088 L60.368,137.744 L59.088,137.744 L59.088,146 L60.368,146 Z M76.16,146.192 C76.9386667,146.192 77.6106667,146.018667 78.176,145.672 C78.7413333,145.325333 79.1573333,144.869333 79.424,144.304 L79.424,144.304 L78.512,143.648 C78.2986667,144.106667 77.9973333,144.458667 77.608,144.704 C77.2186667,144.949333 76.7626667,145.072 76.24,145.072 C75.856,145.072 75.512,145.008 75.208,144.88 C74.904,144.752 74.648,144.576 74.44,144.352 C74.232,144.128 74.072,143.864 73.96,143.56 C73.848,143.256 73.792,142.928 73.792,142.576 L73.792,142.576 L73.792,142.192 L79.728,142.192 L79.728,141.584 C79.728,140.997333 79.6453333,140.458667 79.48,139.968 C79.3146667,139.477333 79.0773333,139.053333 78.768,138.696 C78.4586667,138.338667 78.0853333,138.058667 77.648,137.856 C77.2106667,137.653333 76.7146667,137.552 76.16,137.552 C75.5946667,137.552 75.0853333,137.653333 74.632,137.856 C74.1786667,138.058667 73.7893333,138.349333 73.464,138.728 C73.1386667,139.106667 72.888,139.562667 72.712,140.096 C72.536,140.629333 72.448,141.221333 72.448,141.872 C72.448,142.533333 72.536,143.128 72.712,143.656 C72.888,144.184 73.1386667,144.637333 73.464,145.016 C73.7893333,145.394667 74.1786667,145.685333 74.632,145.888 C75.0853333,146.090667 75.5946667,146.192 76.16,146.192 Z M78.352,141.232 L73.792,141.232 L73.792,141.12 C73.792,140.757333 73.8506667,140.424 73.968,140.12 C74.0853333,139.816 74.248,139.552 74.456,139.328 C74.664,139.104 74.912,138.930667 75.2,138.808 C75.488,138.685333 75.808,138.624 76.16,138.624 C76.8213333,138.624 77.352,138.845333 77.752,139.288 C78.152,139.730667 78.352,140.32 78.352,141.056 L78.352,141.056 L78.352,141.232 Z M84.32,146.192 C85.2693333,146.192 86.016,145.962667 86.56,145.504 C87.104,145.045333 87.376,144.416 87.376,143.616 C87.376,142.986667 87.184,142.477333 86.8,142.088 C86.416,141.698667 85.7653333,141.434667 84.848,141.296 L84.848,141.296 L84.208,141.2 C83.696,141.114667 83.304,140.981333 83.032,140.8 C82.76,140.618667 82.624,140.325333 82.624,139.92 C82.624,139.525333 82.76,139.213333 83.032,138.984 C83.304,138.754667 83.7066667,138.64 84.24,138.64 C84.7733333,138.64 85.216,138.744 85.568,138.952 C85.92,139.16 86.1866667,139.392 86.368,139.648 L86.368,139.648 L87.216,138.88 C86.8746667,138.464 86.4773333,138.138667 86.024,137.904 C85.5706667,137.669333 85.008,137.552 84.336,137.552 C83.92,137.552 83.5306667,137.602667 83.168,137.704 C82.8053333,137.805333 82.4933333,137.957333 82.232,138.16 C81.9706667,138.362667 81.7653333,138.616 81.616,138.92 C81.4666667,139.224 81.392,139.578667 81.392,139.984 C81.392,140.368 81.4586667,140.698667 81.592,140.976 C81.7253333,141.253333 81.912,141.485333 82.152,141.672 C82.392,141.858667 82.672,142.008 82.992,142.12 C83.312,142.232 83.664,142.314667 84.048,142.368 L84.048,142.368 L84.704,142.464 C85.248,142.549333 85.624,142.706667 85.832,142.936 C86.04,143.165333 86.144,143.44 86.144,143.76 C86.144,144.186667 85.992,144.517333 85.688,144.752 C85.384,144.986667 84.96,145.104 84.416,145.104 C83.8933333,145.104 83.4346667,144.994667 83.04,144.776 C82.6453333,144.557333 82.288,144.245333 81.968,143.84 L81.968,143.84 L81.056,144.576 C81.4293333,145.066667 81.8746667,145.458667 82.392,145.752 C82.9093333,146.045333 83.552,146.192 84.32,146.192 Z" id="fames" fill="#97C1FF" fill-rule="nonzero"></path>
		<path d="M52.94,128.4 L52.94,119.808 L51.98,119.808 L51.98,120.816 L51.932,120.816 C51.772,120.424 51.538,120.134 51.23,119.946 C50.922,119.758 50.552,119.664 50.12,119.664 C49.736,119.664 49.388,119.74 49.076,119.892 C48.764,120.044 48.498,120.26 48.278,120.54 C48.058,120.82 47.89,121.16 47.774,121.56 C47.658,121.96 47.6,122.408 47.6,122.904 C47.6,123.4 47.658,123.848 47.774,124.248 C47.89,124.648 48.058,124.988 48.278,125.268 C48.498,125.548 48.764,125.764 49.076,125.916 C49.388,126.068 49.736,126.144 50.12,126.144 C50.952,126.144 51.556,125.76 51.932,124.992 L51.932,124.992 L51.98,124.992 L51.98,128.4 L52.94,128.4 Z M50.384,125.28 C49.84,125.28 49.412,125.11 49.1,124.77 C48.788,124.43 48.632,123.984 48.632,123.432 L48.632,123.432 L48.632,122.376 C48.632,121.824 48.788,121.378 49.1,121.038 C49.412,120.698 49.84,120.528 50.384,120.528 C50.6,120.528 50.806,120.558 51.002,120.618 C51.198,120.678 51.368,120.76 51.512,120.864 C51.656,120.968 51.77,121.094 51.854,121.242 C51.938,121.39 51.98,121.548 51.98,121.716 L51.98,121.716 L51.98,124.02 C51.98,124.22 51.938,124.398 51.854,124.554 C51.77,124.71 51.656,124.842 51.512,124.95 C51.368,125.058 51.198,125.14 51.002,125.196 C50.806,125.252 50.6,125.28 50.384,125.28 Z M57.008,126.144 C57.264,126.144 57.488,126.112 57.68,126.048 C57.872,125.984 58.036,125.898 58.172,125.79 C58.308,125.682 58.422,125.558 58.514,125.418 C58.606,125.278 58.684,125.136 58.748,124.992 L58.748,124.992 L58.796,124.992 L58.796,126 L59.756,126 L59.756,119.808 L58.796,119.808 L58.796,124.092 C58.796,124.3 58.754,124.478 58.67,124.626 C58.586,124.774 58.474,124.896 58.334,124.992 C58.194,125.088 58.034,125.16 57.854,125.208 C57.674,125.256 57.488,125.28 57.296,125.28 C56.352,125.28 55.88,124.724 55.88,123.612 L55.88,123.612 L55.88,119.808 L54.92,119.808 L54.92,123.78 C54.92,124.532 55.108,125.114 55.484,125.526 C55.86,125.938 56.368,126.144 57.008,126.144 Z M62.276,118.356 C62.484,118.356 62.634,118.306 62.726,118.206 C62.818,118.106 62.864,117.976 62.864,117.816 L62.864,117.816 L62.864,117.66 C62.864,117.5 62.818,117.37 62.726,117.27 C62.634,117.17 62.484,117.12 62.276,117.12 C62.068,117.12 61.918,117.17 61.826,117.27 C61.734,117.37 61.688,117.5 61.688,117.66 L61.688,117.66 L61.688,117.816 C61.688,117.976 61.734,118.106 61.826,118.206 C61.918,118.306 62.068,118.356 62.276,118.356 Z M62.756,126 L62.756,119.808 L61.796,119.808 L61.796,126 L62.756,126 Z M66.656,126.144 C67.368,126.144 67.928,125.972 68.336,125.628 C68.744,125.284 68.948,124.812 68.948,124.212 C68.948,123.74 68.804,123.358 68.516,123.066 C68.228,122.774 67.74,122.576 67.052,122.472 L67.052,122.472 L66.572,122.4 C66.188,122.336 65.894,122.236 65.69,122.1 C65.486,121.964 65.384,121.744 65.384,121.44 C65.384,121.144 65.486,120.91 65.69,120.738 C65.894,120.566 66.196,120.48 66.596,120.48 C66.996,120.48 67.328,120.558 67.592,120.714 C67.856,120.87 68.056,121.044 68.192,121.236 L68.192,121.236 L68.828,120.66 C68.572,120.348 68.274,120.104 67.934,119.928 C67.594,119.752 67.172,119.664 66.668,119.664 C66.356,119.664 66.064,119.702 65.792,119.778 C65.52,119.854 65.286,119.968 65.09,120.12 C64.894,120.272 64.74,120.462 64.628,120.69 C64.516,120.918 64.46,121.184 64.46,121.488 C64.46,121.776 64.51,122.024 64.61,122.232 C64.71,122.44 64.85,122.614 65.03,122.754 C65.21,122.894 65.42,123.006 65.66,123.09 C65.9,123.174 66.164,123.236 66.452,123.276 L66.452,123.276 L66.944,123.348 C67.352,123.412 67.634,123.53 67.79,123.702 C67.946,123.874 68.024,124.08 68.024,124.32 C68.024,124.64 67.91,124.888 67.682,125.064 C67.454,125.24 67.136,125.328 66.728,125.328 C66.336,125.328 65.992,125.246 65.696,125.082 C65.4,124.918 65.132,124.684 64.892,124.38 L64.892,124.38 L64.208,124.932 C64.488,125.3 64.822,125.594 65.21,125.814 C65.598,126.034 66.08,126.144 66.656,126.144 Z" id="quis" fill="#408BFC" fill-rule="nonzero"></path>
		<path d="M166.064,135.192 C166.405333,135.192 166.704,135.149333 166.96,135.064 C167.216,134.978667 167.434667,134.864 167.616,134.72 C167.797333,134.576 167.949333,134.410667 168.072,134.224 C168.194667,134.037333 168.298667,133.848 168.384,133.656 L168.384,133.656 L168.448,133.656 L168.448,135 L169.728,135 L169.728,126.744 L168.448,126.744 L168.448,132.456 C168.448,132.733333 168.392,132.970667 168.28,133.168 C168.168,133.365333 168.018667,133.528 167.832,133.656 C167.645333,133.784 167.432,133.88 167.192,133.944 C166.952,134.008 166.704,134.04 166.448,134.04 C165.189333,134.04 164.56,133.298667 164.56,131.816 L164.56,131.816 L164.56,126.744 L163.28,126.744 L163.28,132.04 C163.28,133.042667 163.530667,133.818667 164.032,134.368 C164.533333,134.917333 165.210667,135.192 166.064,135.192 Z M173.728,135 L173.728,129.4 C173.728,129.005333 173.922667,128.677333 174.312,128.416 C174.701333,128.154667 175.242667,128.024 175.936,128.024 L175.936,128.024 L176.688,128.024 L176.688,126.744 L176.192,126.744 C175.52,126.744 174.992,126.898667 174.608,127.208 C174.224,127.517333 173.957333,127.869333 173.808,128.264 L173.808,128.264 L173.728,128.264 L173.728,126.744 L172.448,126.744 L172.448,135 L173.728,135 Z M179.6,135 L179.6,129.272 C179.6,129.005333 179.656,128.773333 179.768,128.576 C179.88,128.378667 180.032,128.216 180.224,128.088 C180.416,127.96 180.632,127.864 180.872,127.8 C181.112,127.736 181.36,127.704 181.616,127.704 C182.864,127.704 183.488,128.445333 183.488,129.928 L183.488,129.928 L183.488,135 L184.768,135 L184.768,129.704 C184.768,128.701333 184.52,127.925333 184.024,127.376 C183.528,126.826667 182.853333,126.552 182,126.552 C181.381333,126.552 180.888,126.690667 180.52,126.968 C180.152,127.245333 179.866667,127.618667 179.664,128.088 L179.664,128.088 L179.6,128.088 L179.6,126.744 L178.32,126.744 L178.32,135 L179.6,135 Z M189.52,135.192 C190.096,135.192 190.592,135.064 191.008,134.808 C191.424,134.552 191.722667,134.168 191.904,133.656 L191.904,133.656 L191.984,133.656 C192.037333,134.04 192.168,134.36 192.376,134.616 C192.584,134.872 192.928,135 193.408,135 L193.408,135 L194.128,135 L194.128,133.88 L193.184,133.88 L193.184,129.336 C193.184,128.461333 192.906667,127.778667 192.352,127.288 C191.797333,126.797333 191.018667,126.552 190.016,126.552 C189.269333,126.552 188.650667,126.709333 188.16,127.024 C187.669333,127.338667 187.312,127.72 187.088,128.168 L187.088,128.168 L187.856,128.888 C188.08,128.514667 188.36,128.216 188.696,127.992 C189.032,127.768 189.450667,127.656 189.952,127.656 C190.613333,127.656 191.104,127.810667 191.424,128.12 C191.744,128.429333 191.904,128.877333 191.904,129.464 L191.904,129.464 L191.904,130.28 L190.272,130.28 C189.066667,130.28 188.178667,130.488 187.608,130.904 C187.037333,131.32 186.752,131.917333 186.752,132.696 C186.752,133.464 186.994667,134.072 187.48,134.52 C187.965333,134.968 188.645333,135.192 189.52,135.192 Z M189.728,134.104 C189.226667,134.104 188.829333,133.992 188.536,133.768 C188.242667,133.544 188.096,133.229333 188.096,132.824 L188.096,132.824 L188.096,132.488 C188.096,132.082667 188.264,131.773333 188.6,131.56 C188.936,131.346667 189.472,131.24 190.208,131.24 L190.208,131.24 L191.904,131.24 L191.904,132.6 C191.904,132.813333 191.850667,133.010667 191.744,133.192 C191.637333,133.373333 191.488,133.533333 191.296,133.672 C191.104,133.810667 190.874667,133.917333 190.608,133.992 C190.341333,134.066667 190.048,134.104 189.728,134.104 Z" id="urna" fill="#97C1FF" fill-rule="nonzero"></path>
		<path d="M83,92.712 C83.416,92.712 83.716,92.612 83.9,92.412 C84.084,92.212 84.176,91.952 84.176,91.632 L84.176,91.632 L84.176,91.32 C84.176,91 84.084,90.74 83.9,90.54 C83.716,90.34 83.416,90.24 83,90.24 C82.584,90.24 82.284,90.34 82.1,90.54 C81.916,90.74 81.824,91 81.824,91.32 L81.824,91.32 L81.824,91.632 C81.824,91.952 81.916,92.212 82.1,92.412 C82.284,92.612 82.584,92.712 83,92.712 Z M83.96,108 L83.96,95.616 L82.04,95.616 L82.04,108 L83.96,108 Z M89.96,112.8 L89.96,105.984 L90.056,105.984 C90.792,107.52 92,108.288 93.68,108.288 C94.448,108.288 95.144,108.136 95.768,107.832 C96.392,107.528 96.924,107.096 97.364,106.536 C97.804,105.976 98.14,105.296 98.372,104.496 C98.604,103.696 98.72,102.8 98.72,101.808 C98.72,100.816 98.604,99.92 98.372,99.12 C98.14,98.32 97.804,97.64 97.364,97.08 C96.924,96.52 96.392,96.088 95.768,95.784 C95.144,95.48 94.448,95.328 93.68,95.328 C92.816,95.328 92.076,95.516 91.46,95.892 C90.844,96.268 90.376,96.848 90.056,97.632 L90.056,97.632 L89.96,97.632 L89.96,95.616 L88.04,95.616 L88.04,112.8 L89.96,112.8 Z M93.152,106.56 C92.72,106.56 92.308,106.504 91.916,106.392 C91.524,106.28 91.184,106.116 90.896,105.9 C90.608,105.684 90.38,105.42 90.212,105.108 C90.044,104.796 89.96,104.44 89.96,104.04 L89.96,104.04 L89.96,99.432 C89.96,99.096 90.044,98.78 90.212,98.484 C90.38,98.188 90.608,97.936 90.896,97.728 C91.184,97.52 91.524,97.356 91.916,97.236 C92.308,97.116 92.72,97.056 93.152,97.056 C94.24,97.056 95.096,97.396 95.72,98.076 C96.344,98.756 96.656,99.648 96.656,100.752 L96.656,100.752 L96.656,102.864 C96.656,103.968 96.344,104.86 95.72,105.54 C95.096,106.22 94.24,106.56 93.152,106.56 Z M105.68,108.288 C107.104,108.288 108.224,107.944 109.04,107.256 C109.856,106.568 110.264,105.624 110.264,104.424 C110.264,103.48 109.976,102.716 109.4,102.132 C108.824,101.548 107.848,101.152 106.472,100.944 L106.472,100.944 L105.512,100.8 C104.744,100.672 104.156,100.472 103.748,100.2 C103.34,99.928 103.136,99.488 103.136,98.88 C103.136,98.288 103.34,97.82 103.748,97.476 C104.156,97.132 104.76,96.96 105.56,96.96 C106.36,96.96 107.024,97.116 107.552,97.428 C108.08,97.74 108.48,98.088 108.752,98.472 L108.752,98.472 L110.024,97.32 C109.512,96.696 108.916,96.208 108.236,95.856 C107.556,95.504 106.712,95.328 105.704,95.328 C105.08,95.328 104.496,95.404 103.952,95.556 C103.408,95.708 102.94,95.936 102.548,96.24 C102.156,96.544 101.848,96.924 101.624,97.38 C101.4,97.836 101.288,98.368 101.288,98.976 C101.288,99.552 101.388,100.048 101.588,100.464 C101.788,100.88 102.068,101.228 102.428,101.508 C102.788,101.788 103.208,102.012 103.688,102.18 C104.168,102.348 104.696,102.472 105.272,102.552 L105.272,102.552 L106.256,102.696 C107.072,102.824 107.636,103.06 107.948,103.404 C108.26,103.748 108.416,104.16 108.416,104.64 C108.416,105.28 108.188,105.776 107.732,106.128 C107.276,106.48 106.64,106.656 105.824,106.656 C105.04,106.656 104.352,106.492 103.76,106.164 C103.168,105.836 102.632,105.368 102.152,104.76 L102.152,104.76 L100.784,105.864 C101.344,106.6 102.012,107.188 102.788,107.628 C103.564,108.068 104.528,108.288 105.68,108.288 Z M117.704,108.288 C118.216,108.288 118.664,108.224 119.048,108.096 C119.432,107.968 119.76,107.796 120.032,107.58 C120.304,107.364 120.532,107.116 120.716,106.836 C120.9,106.556 121.056,106.272 121.184,105.984 L121.184,105.984 L121.28,105.984 L121.28,108 L123.2,108 L123.2,95.616 L121.28,95.616 L121.28,104.184 C121.28,104.6 121.196,104.956 121.028,105.252 C120.86,105.548 120.636,105.792 120.356,105.984 C120.076,106.176 119.756,106.32 119.396,106.416 C119.036,106.512 118.664,106.56 118.28,106.56 C116.392,106.56 115.448,105.448 115.448,103.224 L115.448,103.224 L115.448,95.616 L113.528,95.616 L113.528,103.56 C113.528,105.064 113.904,106.228 114.656,107.052 C115.408,107.876 116.424,108.288 117.704,108.288 Z M129.2,108 L129.2,99.408 C129.2,99.008 129.284,98.66 129.452,98.364 C129.62,98.068 129.84,97.824 130.112,97.632 C130.384,97.44 130.696,97.296 131.048,97.2 C131.4,97.104 131.768,97.056 132.152,97.056 C133.064,97.056 133.736,97.336 134.168,97.896 C134.6,98.456 134.816,99.288 134.816,100.392 L134.816,100.392 L134.816,108 L136.736,108 L136.736,99.408 C136.736,99.008 136.816,98.66 136.976,98.364 C137.136,98.068 137.352,97.824 137.624,97.632 C137.896,97.44 138.204,97.296 138.548,97.2 C138.892,97.104 139.256,97.056 139.64,97.056 C140.584,97.056 141.272,97.336 141.704,97.896 C142.136,98.456 142.352,99.288 142.352,100.392 L142.352,100.392 L142.352,108 L144.272,108 L144.272,100.056 C144.272,98.552 143.916,97.388 143.204,96.564 C142.492,95.74 141.504,95.328 140.24,95.328 C139.184,95.328 138.348,95.58 137.732,96.084 C137.116,96.588 136.696,97.176 136.472,97.848 L136.472,97.848 L136.424,97.848 C136.088,96.952 135.576,96.308 134.888,95.916 C134.2,95.524 133.448,95.328 132.632,95.328 C132.152,95.328 131.736,95.388 131.384,95.508 C131.032,95.628 130.724,95.792 130.46,96 C130.196,96.208 129.972,96.452 129.788,96.732 C129.604,97.012 129.44,97.312 129.296,97.632 L129.296,97.632 L129.2,97.632 L129.2,95.616 L127.28,95.616 L127.28,108 L129.2,108 Z" id="ipsum" fill="#97C1FF" fill-rule="nonzero"></path>
		<path d="M59.272,188 L59.272,185.928 L50.956,185.928 L50.956,168.456 L48.604,168.456 L48.604,188 L59.272,188 Z M67.868,188.336 C68.8386667,188.336 69.7206667,188.158667 70.514,187.804 C71.3073333,187.449333 71.9933333,186.940667 72.572,186.278 C73.1506667,185.615333 73.5986667,184.822 73.916,183.898 C74.2333333,182.974 74.392,181.933333 74.392,180.776 C74.392,179.637333 74.2333333,178.601333 73.916,177.668 C73.5986667,176.734667 73.1506667,175.936667 72.572,175.274 C71.9933333,174.611333 71.3073333,174.102667 70.514,173.748 C69.7206667,173.393333 68.8386667,173.216 67.868,173.216 C66.8973333,173.216 66.0106667,173.393333 65.208,173.748 C64.4053333,174.102667 63.7193333,174.611333 63.15,175.274 C62.5806667,175.936667 62.1373333,176.734667 61.82,177.668 C61.5026667,178.601333 61.344,179.637333 61.344,180.776 C61.344,181.933333 61.5026667,182.974 61.82,183.898 C62.1373333,184.822 62.5806667,185.615333 63.15,186.278 C63.7193333,186.940667 64.4053333,187.449333 65.208,187.804 C66.0106667,188.158667 66.8973333,188.336 67.868,188.336 Z M67.868,186.348 C66.6546667,186.348 65.6653333,185.974667 64.9,185.228 C64.1346667,184.481333 63.752,183.342667 63.752,181.812 L63.752,181.812 L63.752,179.74 C63.752,178.209333 64.1346667,177.070667 64.9,176.324 C65.6653333,175.577333 66.6546667,175.204 67.868,175.204 C69.0813333,175.204 70.0706667,175.577333 70.836,176.324 C71.6013333,177.070667 71.984,178.209333 71.984,179.74 L71.984,179.74 L71.984,181.812 C71.984,183.342667 71.6013333,184.481333 70.836,185.228 C70.0706667,185.974667 69.0813333,186.348 67.868,186.348 Z M80.328,188 L80.328,178.2 C80.328,177.509333 80.6686667,176.935333 81.35,176.478 C82.0313333,176.020667 82.9786667,175.792 84.192,175.792 L84.192,175.792 L85.508,175.792 L85.508,173.552 L84.64,173.552 C83.464,173.552 82.54,173.822667 81.868,174.364 C81.196,174.905333 80.7293333,175.521333 80.468,176.212 L80.468,176.212 L80.328,176.212 L80.328,173.552 L78.088,173.552 L78.088,188 L80.328,188 Z M93.796,188.336 C95.1586667,188.336 96.3346667,188.032667 97.324,187.426 C98.3133333,186.819333 99.0413333,186.021333 99.508,185.032 L99.508,185.032 L97.912,183.884 C97.5386667,184.686667 97.0113333,185.302667 96.33,185.732 C95.6486667,186.161333 94.8506667,186.376 93.936,186.376 C93.264,186.376 92.662,186.264 92.13,186.04 C91.598,185.816 91.15,185.508 90.786,185.116 C90.422,184.724 90.142,184.262 89.946,183.73 C89.75,183.198 89.652,182.624 89.652,182.008 L89.652,182.008 L89.652,181.336 L100.04,181.336 L100.04,180.272 C100.04,179.245333 99.8953333,178.302667 99.606,177.444 C99.3166667,176.585333 98.9013333,175.843333 98.36,175.218 C97.8186667,174.592667 97.1653333,174.102667 96.4,173.748 C95.6346667,173.393333 94.7666667,173.216 93.796,173.216 C92.8066667,173.216 91.9153333,173.393333 91.122,173.748 C90.3286667,174.102667 89.6473333,174.611333 89.078,175.274 C88.5086667,175.936667 88.07,176.734667 87.762,177.668 C87.454,178.601333 87.3,179.637333 87.3,180.776 C87.3,181.933333 87.454,182.974 87.762,183.898 C88.07,184.822 88.5086667,185.615333 89.078,186.278 C89.6473333,186.940667 90.3286667,187.449333 91.122,187.804 C91.9153333,188.158667 92.8066667,188.336 93.796,188.336 Z M97.632,179.656 L89.652,179.656 L89.652,179.46 C89.652,178.825333 89.7546667,178.242 89.96,177.71 C90.1653333,177.178 90.45,176.716 90.814,176.324 C91.178,175.932 91.612,175.628667 92.116,175.414 C92.62,175.199333 93.18,175.092 93.796,175.092 C94.9533333,175.092 95.882,175.479333 96.582,176.254 C97.282,177.028667 97.632,178.06 97.632,179.348 L97.632,179.348 L97.632,179.656 Z M105.976,188 L105.976,177.976 C105.976,177.509333 106.074,177.103333 106.27,176.758 C106.466,176.412667 106.722667,176.128 107.04,175.904 C107.357333,175.68 107.721333,175.512 108.132,175.4 C108.542667,175.288 108.972,175.232 109.42,175.232 C110.484,175.232 111.268,175.558667 111.772,176.212 C112.276,176.865333 112.528,177.836 112.528,179.124 L112.528,179.124 L112.528,188 L114.768,188 L114.768,177.976 C114.768,177.509333 114.861333,177.103333 115.048,176.758 C115.234667,176.412667 115.486667,176.128 115.804,175.904 C116.121333,175.68 116.480667,175.512 116.882,175.4 C117.283333,175.288 117.708,175.232 118.156,175.232 C119.257333,175.232 120.06,175.558667 120.564,176.212 C121.068,176.865333 121.32,177.836 121.32,179.124 L121.32,179.124 L121.32,188 L123.56,188 L123.56,178.732 C123.56,176.977333 123.144667,175.619333 122.314,174.658 C121.483333,173.696667 120.330667,173.216 118.856,173.216 C117.624,173.216 116.648667,173.51 115.93,174.098 C115.211333,174.686 114.721333,175.372 114.46,176.156 L114.46,176.156 L114.404,176.156 C114.012,175.110667 113.414667,174.359333 112.612,173.902 C111.809333,173.444667 110.932,173.216 109.98,173.216 C109.42,173.216 108.934667,173.286 108.524,173.426 C108.113333,173.566 107.754,173.757333 107.446,174 C107.138,174.242667 106.876667,174.527333 106.662,174.854 C106.447333,175.180667 106.256,175.530667 106.088,175.904 L106.088,175.904 L105.976,175.904 L105.976,173.552 L103.736,173.552 L103.736,188 L105.976,188 Z" id="Lorem" fill="#97C1FF" fill-rule="nonzero"></path>
		<path d="M150.8,111 L150.8,101.704 L150.848,101.704 L152.192,104.184 L156.272,111 L157.824,111 L157.824,99.832 L156.512,99.832 L156.512,109.128 L156.464,109.128 L155.12,106.648 L151.04,99.832 L149.488,99.832 L149.488,111 L150.8,111 Z M162.784,111.192 C163.36,111.192 163.856,111.064 164.272,110.808 C164.688,110.552 164.986667,110.168 165.168,109.656 L165.168,109.656 L165.248,109.656 C165.301333,110.04 165.432,110.36 165.64,110.616 C165.848,110.872 166.192,111 166.672,111 L166.672,111 L167.392,111 L167.392,109.88 L166.448,109.88 L166.448,105.336 C166.448,104.461333 166.170667,103.778667 165.616,103.288 C165.061333,102.797333 164.282667,102.552 163.28,102.552 C162.533333,102.552 161.914667,102.709333 161.424,103.024 C160.933333,103.338667 160.576,103.72 160.352,104.168 L160.352,104.168 L161.12,104.888 C161.344,104.514667 161.624,104.216 161.96,103.992 C162.296,103.768 162.714667,103.656 163.216,103.656 C163.877333,103.656 164.368,103.810667 164.688,104.12 C165.008,104.429333 165.168,104.877333 165.168,105.464 L165.168,105.464 L165.168,106.28 L163.536,106.28 C162.330667,106.28 161.442667,106.488 160.872,106.904 C160.301333,107.32 160.016,107.917333 160.016,108.696 C160.016,109.464 160.258667,110.072 160.744,110.52 C161.229333,110.968 161.909333,111.192 162.784,111.192 Z M162.992,110.104 C162.490667,110.104 162.093333,109.992 161.8,109.768 C161.506667,109.544 161.36,109.229333 161.36,108.824 L161.36,108.824 L161.36,108.488 C161.36,108.082667 161.528,107.773333 161.864,107.56 C162.2,107.346667 162.736,107.24 163.472,107.24 L163.472,107.24 L165.168,107.24 L165.168,108.6 C165.168,108.813333 165.114667,109.010667 165.008,109.192 C164.901333,109.373333 164.752,109.533333 164.56,109.672 C164.368,109.810667 164.138667,109.917333 163.872,109.992 C163.605333,110.066667 163.312,110.104 162.992,110.104 Z M170.496,111 L170.496,105.272 C170.496,105.005333 170.552,104.773333 170.664,104.576 C170.776,104.378667 170.922667,104.216 171.104,104.088 C171.285333,103.96 171.493333,103.864 171.728,103.8 C171.962667,103.736 172.208,103.704 172.464,103.704 C173.072,103.704 173.52,103.890667 173.808,104.264 C174.096,104.637333 174.24,105.192 174.24,105.928 L174.24,105.928 L174.24,111 L175.52,111 L175.52,105.272 C175.52,105.005333 175.573333,104.773333 175.68,104.576 C175.786667,104.378667 175.930667,104.216 176.112,104.088 C176.293333,103.96 176.498667,103.864 176.728,103.8 C176.957333,103.736 177.2,103.704 177.456,103.704 C178.085333,103.704 178.544,103.890667 178.832,104.264 C179.12,104.637333 179.264,105.192 179.264,105.928 L179.264,105.928 L179.264,111 L180.544,111 L180.544,105.704 C180.544,104.701333 180.306667,103.925333 179.832,103.376 C179.357333,102.826667 178.698667,102.552 177.856,102.552 C177.152,102.552 176.594667,102.72 176.184,103.056 C175.773333,103.392 175.493333,103.784 175.344,104.232 L175.344,104.232 L175.312,104.232 C175.088,103.634667 174.746667,103.205333 174.288,102.944 C173.829333,102.682667 173.328,102.552 172.784,102.552 C172.464,102.552 172.186667,102.592 171.952,102.672 C171.717333,102.752 171.512,102.861333 171.336,103 C171.16,103.138667 171.010667,103.301333 170.888,103.488 C170.765333,103.674667 170.656,103.874667 170.56,104.088 L170.56,104.088 L170.496,104.088 L170.496,102.744 L169.216,102.744 L169.216,111 L170.496,111 Z" id="Nam" fill="#408BFC" fill-rule="nonzero"></path>
		<path d="M151.48,185.192 C152.034667,185.192 152.538667,185.090667 152.992,184.888 C153.445333,184.685333 153.837333,184.394667 154.168,184.016 C154.498667,183.637333 154.754667,183.184 154.936,182.656 C155.117333,182.128 155.208,181.533333 155.208,180.872 C155.208,180.221333 155.117333,179.629333 154.936,179.096 C154.754667,178.562667 154.498667,178.106667 154.168,177.728 C153.837333,177.349333 153.445333,177.058667 152.992,176.856 C152.538667,176.653333 152.034667,176.552 151.48,176.552 C150.925333,176.552 150.418667,176.653333 149.96,176.856 C149.501333,177.058667 149.109333,177.349333 148.784,177.728 C148.458667,178.106667 148.205333,178.562667 148.024,179.096 C147.842667,179.629333 147.752,180.221333 147.752,180.872 C147.752,181.533333 147.842667,182.128 148.024,182.656 C148.205333,183.184 148.458667,183.637333 148.784,184.016 C149.109333,184.394667 149.501333,184.685333 149.96,184.888 C150.418667,185.090667 150.925333,185.192 151.48,185.192 Z M151.48,184.056 C150.786667,184.056 150.221333,183.842667 149.784,183.416 C149.346667,182.989333 149.128,182.338667 149.128,181.464 L149.128,181.464 L149.128,180.28 C149.128,179.405333 149.346667,178.754667 149.784,178.328 C150.221333,177.901333 150.786667,177.688 151.48,177.688 C152.173333,177.688 152.738667,177.901333 153.176,178.328 C153.613333,178.754667 153.832,179.405333 153.832,180.28 L153.832,180.28 L153.832,181.464 C153.832,182.338667 153.613333,182.989333 153.176,183.416 C152.738667,183.842667 152.173333,184.056 151.48,184.056 Z M158.6,185 L158.6,179.4 C158.6,179.005333 158.794667,178.677333 159.184,178.416 C159.573333,178.154667 160.114667,178.024 160.808,178.024 L160.808,178.024 L161.56,178.024 L161.56,176.744 L161.064,176.744 C160.392,176.744 159.864,176.898667 159.48,177.208 C159.096,177.517333 158.829333,177.869333 158.68,178.264 L158.68,178.264 L158.6,178.264 L158.6,176.744 L157.32,176.744 L157.32,185 L158.6,185 Z M166.264,185.192 C167.053333,185.192 167.712,185.016 168.24,184.664 C168.768,184.312 169.165333,183.837333 169.432,183.24 L169.432,183.24 L168.504,182.616 C168.045333,183.576 167.298667,184.056 166.264,184.056 C165.506667,184.056 164.933333,183.824 164.544,183.36 C164.154667,182.896 163.96,182.301333 163.96,181.576 L163.96,181.576 L163.96,180.168 C163.96,179.805333 164.008,179.472 164.104,179.168 C164.2,178.864 164.344,178.602667 164.536,178.384 C164.728,178.165333 164.968,177.994667 165.256,177.872 C165.544,177.749333 165.88,177.688 166.264,177.688 C166.776,177.688 167.202667,177.805333 167.544,178.04 C167.885333,178.274667 168.130667,178.605333 168.28,179.032 L168.28,179.032 L169.352,178.488 C169.106667,177.912 168.736,177.445333 168.24,177.088 C167.744,176.730667 167.085333,176.552 166.264,176.552 C165.688,176.552 165.170667,176.653333 164.712,176.856 C164.253333,177.058667 163.866667,177.346667 163.552,177.72 C163.237333,178.093333 162.997333,178.546667 162.832,179.08 C162.666667,179.613333 162.584,180.210667 162.584,180.872 C162.584,181.533333 162.666667,182.130667 162.832,182.664 C162.997333,183.197333 163.237333,183.650667 163.552,184.024 C163.866667,184.397333 164.253333,184.685333 164.712,184.888 C165.170667,185.090667 165.688,185.192 166.264,185.192 Z M171.88,174.808 C172.157333,174.808 172.357333,174.741333 172.48,174.608 C172.602667,174.474667 172.664,174.301333 172.664,174.088 L172.664,174.088 L172.664,173.88 C172.664,173.666667 172.602667,173.493333 172.48,173.36 C172.357333,173.226667 172.157333,173.16 171.88,173.16 C171.602667,173.16 171.402667,173.226667 171.28,173.36 C171.157333,173.493333 171.096,173.666667 171.096,173.88 L171.096,173.88 L171.096,174.088 C171.096,174.301333 171.157333,174.474667 171.28,174.608 C171.402667,174.741333 171.602667,174.808 171.88,174.808 Z M172.52,185 L172.52,176.744 L171.24,176.744 L171.24,185 L172.52,185 Z" id="orci" fill="#408BFC" fill-rule="nonzero"></path>
		<path d="M77.008,131 L81.376,118.616 L79.528,118.616 L77.32,124.76 L75.976,128.984 L75.856,128.984 L74.512,124.76 L72.352,118.616 L70.432,118.616 L74.776,131 L77.008,131 Z M88.528,131.288 C89.36,131.288 90.116,131.136 90.796,130.832 C91.476,130.528 92.064,130.092 92.56,129.524 C93.056,128.956 93.44,128.276 93.712,127.484 C93.984,126.692 94.12,125.8 94.12,124.808 C94.12,123.832 93.984,122.944 93.712,122.144 C93.44,121.344 93.056,120.66 92.56,120.092 C92.064,119.524 91.476,119.088 90.796,118.784 C90.116,118.48 89.36,118.328 88.528,118.328 C87.696,118.328 86.936,118.48 86.248,118.784 C85.56,119.088 84.972,119.524 84.484,120.092 C83.996,120.66 83.616,121.344 83.344,122.144 C83.072,122.944 82.936,123.832 82.936,124.808 C82.936,125.8 83.072,126.692 83.344,127.484 C83.616,128.276 83.996,128.956 84.484,129.524 C84.972,130.092 85.56,130.528 86.248,130.832 C86.936,131.136 87.696,131.288 88.528,131.288 Z M88.528,129.584 C87.488,129.584 86.64,129.264 85.984,128.624 C85.328,127.984 85,127.008 85,125.696 L85,125.696 L85,123.92 C85,122.608 85.328,121.632 85.984,120.992 C86.64,120.352 87.488,120.032 88.528,120.032 C89.568,120.032 90.416,120.352 91.072,120.992 C91.728,121.632 92.056,122.608 92.056,123.92 L92.056,123.92 L92.056,125.696 C92.056,127.008 91.728,127.984 91.072,128.624 C90.416,129.264 89.568,129.584 88.528,129.584 Z M101.032,131 L101.032,129.32 L99.208,129.32 L99.208,113.24 L97.288,113.24 L97.288,129.008 C97.288,129.584 97.46,130.06 97.804,130.436 C98.148,130.812 98.656,131 99.328,131 L99.328,131 L101.032,131 Z M107.872,131.288 C108.384,131.288 108.832,131.224 109.216,131.096 C109.6,130.968 109.928,130.796 110.2,130.58 C110.472,130.364 110.7,130.116 110.884,129.836 C111.068,129.556 111.224,129.272 111.352,128.984 L111.352,128.984 L111.448,128.984 L111.448,131 L113.368,131 L113.368,118.616 L111.448,118.616 L111.448,127.184 C111.448,127.6 111.364,127.956 111.196,128.252 C111.028,128.548 110.804,128.792 110.524,128.984 C110.244,129.176 109.924,129.32 109.564,129.416 C109.204,129.512 108.832,129.56 108.448,129.56 C106.56,129.56 105.616,128.448 105.616,126.224 L105.616,126.224 L105.616,118.616 L103.696,118.616 L103.696,126.56 C103.696,128.064 104.072,129.228 104.824,130.052 C105.576,130.876 106.592,131.288 107.872,131.288 Z M122.584,131 L122.584,129.32 L120.064,129.32 L120.064,120.296 L122.776,120.296 L122.776,118.616 L120.064,118.616 L120.064,115.184 L118.336,115.184 L118.336,117.488 C118.336,117.904 118.26,118.196 118.108,118.364 C117.956,118.532 117.672,118.616 117.256,118.616 L117.256,118.616 L116.104,118.616 L116.104,120.296 L118.144,120.296 L118.144,128.96 C118.144,129.568 118.316,130.06 118.66,130.436 C119.004,130.812 119.512,131 120.184,131 L120.184,131 L122.584,131 Z M127.792,135.8 L127.792,128.984 L127.888,128.984 C128.624,130.52 129.832,131.288 131.512,131.288 C132.28,131.288 132.976,131.136 133.6,130.832 C134.224,130.528 134.756,130.096 135.196,129.536 C135.636,128.976 135.972,128.296 136.204,127.496 C136.436,126.696 136.552,125.8 136.552,124.808 C136.552,123.816 136.436,122.92 136.204,122.12 C135.972,121.32 135.636,120.64 135.196,120.08 C134.756,119.52 134.224,119.088 133.6,118.784 C132.976,118.48 132.28,118.328 131.512,118.328 C130.648,118.328 129.908,118.516 129.292,118.892 C128.676,119.268 128.208,119.848 127.888,120.632 L127.888,120.632 L127.792,120.632 L127.792,118.616 L125.872,118.616 L125.872,135.8 L127.792,135.8 Z M130.984,129.56 C130.552,129.56 130.14,129.504 129.748,129.392 C129.356,129.28 129.016,129.116 128.728,128.9 C128.44,128.684 128.212,128.42 128.044,128.108 C127.876,127.796 127.792,127.44 127.792,127.04 L127.792,127.04 L127.792,122.432 C127.792,122.096 127.876,121.78 128.044,121.484 C128.212,121.188 128.44,120.936 128.728,120.728 C129.016,120.52 129.356,120.356 129.748,120.236 C130.14,120.116 130.552,120.056 130.984,120.056 C132.072,120.056 132.928,120.396 133.552,121.076 C134.176,121.756 134.488,122.648 134.488,123.752 L134.488,123.752 L134.488,125.864 C134.488,126.968 134.176,127.86 133.552,128.54 C132.928,129.22 132.072,129.56 130.984,129.56 Z M142.96,131.288 C143.824,131.288 144.568,131.096 145.192,130.712 C145.816,130.328 146.264,129.752 146.536,128.984 L146.536,128.984 L146.656,128.984 C146.736,129.56 146.932,130.04 147.244,130.424 C147.556,130.808 148.072,131 148.792,131 L148.792,131 L149.872,131 L149.872,129.32 L148.456,129.32 L148.456,122.504 C148.456,121.192 148.04,120.168 147.208,119.432 C146.376,118.696 145.208,118.328 143.704,118.328 C142.584,118.328 141.656,118.564 140.92,119.036 C140.184,119.508 139.648,120.08 139.312,120.752 L139.312,120.752 L140.464,121.832 C140.8,121.272 141.22,120.824 141.724,120.488 C142.228,120.152 142.856,119.984 143.608,119.984 C144.6,119.984 145.336,120.216 145.816,120.68 C146.296,121.144 146.536,121.816 146.536,122.696 L146.536,122.696 L146.536,123.92 L144.088,123.92 C142.28,123.92 140.948,124.232 140.092,124.856 C139.236,125.48 138.808,126.376 138.808,127.544 C138.808,128.696 139.172,129.608 139.9,130.28 C140.628,130.952 141.648,131.288 142.96,131.288 Z M143.272,129.656 C142.52,129.656 141.924,129.488 141.484,129.152 C141.044,128.816 140.824,128.344 140.824,127.736 L140.824,127.736 L140.824,127.232 C140.824,126.624 141.076,126.16 141.58,125.84 C142.084,125.52 142.888,125.36 143.992,125.36 L143.992,125.36 L146.536,125.36 L146.536,127.4 C146.536,127.72 146.456,128.016 146.296,128.288 C146.136,128.56 145.912,128.8 145.624,129.008 C145.336,129.216 144.992,129.376 144.592,129.488 C144.192,129.6 143.752,129.656 143.272,129.656 Z M157.744,131 L157.744,129.32 L155.224,129.32 L155.224,120.296 L157.936,120.296 L157.936,118.616 L155.224,118.616 L155.224,115.184 L153.496,115.184 L153.496,117.488 C153.496,117.904 153.42,118.196 153.268,118.364 C153.116,118.532 152.832,118.616 152.416,118.616 L152.416,118.616 L151.264,118.616 L151.264,120.296 L153.304,120.296 L153.304,128.96 C153.304,129.568 153.476,130.06 153.82,130.436 C154.164,130.812 154.672,131 155.344,131 L155.344,131 L157.744,131 Z" id="volutpat" fill="#0062FF" fill-rule="nonzero"></path>
		<path d="M121.76,88.288 C123.184,88.288 124.304,87.944 125.12,87.256 C125.936,86.568 126.344,85.624 126.344,84.424 C126.344,83.48 126.056,82.716 125.48,82.132 C124.904,81.548 123.928,81.152 122.552,80.944 L122.552,80.944 L121.592,80.8 C120.824,80.672 120.236,80.472 119.828,80.2 C119.42,79.928 119.216,79.488 119.216,78.88 C119.216,78.288 119.42,77.82 119.828,77.476 C120.236,77.132 120.84,76.96 121.64,76.96 C122.44,76.96 123.104,77.116 123.632,77.428 C124.16,77.74 124.56,78.088 124.832,78.472 L124.832,78.472 L126.104,77.32 C125.592,76.696 124.996,76.208 124.316,75.856 C123.636,75.504 122.792,75.328 121.784,75.328 C121.16,75.328 120.576,75.404 120.032,75.556 C119.488,75.708 119.02,75.936 118.628,76.24 C118.236,76.544 117.928,76.924 117.704,77.38 C117.48,77.836 117.368,78.368 117.368,78.976 C117.368,79.552 117.468,80.048 117.668,80.464 C117.868,80.88 118.148,81.228 118.508,81.508 C118.868,81.788 119.288,82.012 119.768,82.18 C120.248,82.348 120.776,82.472 121.352,82.552 L121.352,82.552 L122.336,82.696 C123.152,82.824 123.716,83.06 124.028,83.404 C124.34,83.748 124.496,84.16 124.496,84.64 C124.496,85.28 124.268,85.776 123.812,86.128 C123.356,86.48 122.72,86.656 121.904,86.656 C121.12,86.656 120.432,86.492 119.84,86.164 C119.248,85.836 118.712,85.368 118.232,84.76 L118.232,84.76 L116.864,85.864 C117.424,86.6 118.092,87.188 118.868,87.628 C119.644,88.068 120.608,88.288 121.76,88.288 Z M130.688,72.712 C131.104,72.712 131.404,72.612 131.588,72.412 C131.772,72.212 131.864,71.952 131.864,71.632 L131.864,71.632 L131.864,71.32 C131.864,71 131.772,70.74 131.588,70.54 C131.404,70.34 131.104,70.24 130.688,70.24 C130.272,70.24 129.972,70.34 129.788,70.54 C129.604,70.74 129.512,71 129.512,71.32 L129.512,71.32 L129.512,71.632 C129.512,71.952 129.604,72.212 129.788,72.412 C129.972,72.612 130.272,72.712 130.688,72.712 Z M131.648,88 L131.648,75.616 L129.728,75.616 L129.728,88 L131.648,88 Z M140.864,88 L140.864,86.32 L138.344,86.32 L138.344,77.296 L141.056,77.296 L141.056,75.616 L138.344,75.616 L138.344,72.184 L136.616,72.184 L136.616,74.488 C136.616,74.904 136.54,75.196 136.388,75.364 C136.236,75.532 135.952,75.616 135.536,75.616 L135.536,75.616 L134.384,75.616 L134.384,77.296 L136.424,77.296 L136.424,85.96 C136.424,86.568 136.596,87.06 136.94,87.436 C137.284,87.812 137.792,88 138.464,88 L138.464,88 L140.864,88 Z" id="sit" fill="#0062FF" fill-rule="nonzero"></path>
		<path d="M79.648,166.288 C80.832,166.288 81.82,166.024 82.612,165.496 C83.404,164.968 84,164.256 84.4,163.36 L84.4,163.36 L83.008,162.424 C82.32,163.864 81.2,164.584 79.648,164.584 C78.512,164.584 77.652,164.236 77.068,163.54 C76.484,162.844 76.192,161.952 76.192,160.864 L76.192,160.864 L76.192,158.752 C76.192,158.208 76.264,157.708 76.408,157.252 C76.552,156.796 76.768,156.404 77.056,156.076 C77.344,155.748 77.704,155.492 78.136,155.308 C78.568,155.124 79.072,155.032 79.648,155.032 C80.416,155.032 81.056,155.208 81.568,155.56 C82.08,155.912 82.448,156.408 82.672,157.048 L82.672,157.048 L84.28,156.232 C83.912,155.368 83.356,154.668 82.612,154.132 C81.868,153.596 80.88,153.328 79.648,153.328 C78.784,153.328 78.008,153.48 77.32,153.784 C76.632,154.088 76.052,154.52 75.58,155.08 C75.108,155.64 74.748,156.32 74.5,157.12 C74.252,157.92 74.128,158.816 74.128,159.808 C74.128,160.8 74.252,161.696 74.5,162.496 C74.748,163.296 75.108,163.976 75.58,164.536 C76.052,165.096 76.632,165.528 77.32,165.832 C78.008,166.136 78.784,166.288 79.648,166.288 Z M91.792,166.288 C92.624,166.288 93.38,166.136 94.06,165.832 C94.74,165.528 95.328,165.092 95.824,164.524 C96.32,163.956 96.704,163.276 96.976,162.484 C97.248,161.692 97.384,160.8 97.384,159.808 C97.384,158.832 97.248,157.944 96.976,157.144 C96.704,156.344 96.32,155.66 95.824,155.092 C95.328,154.524 94.74,154.088 94.06,153.784 C93.38,153.48 92.624,153.328 91.792,153.328 C90.96,153.328 90.2,153.48 89.512,153.784 C88.824,154.088 88.236,154.524 87.748,155.092 C87.26,155.66 86.88,156.344 86.608,157.144 C86.336,157.944 86.2,158.832 86.2,159.808 C86.2,160.8 86.336,161.692 86.608,162.484 C86.88,163.276 87.26,163.956 87.748,164.524 C88.236,165.092 88.824,165.528 89.512,165.832 C90.2,166.136 90.96,166.288 91.792,166.288 Z M91.792,164.584 C90.752,164.584 89.904,164.264 89.248,163.624 C88.592,162.984 88.264,162.008 88.264,160.696 L88.264,160.696 L88.264,158.92 C88.264,157.608 88.592,156.632 89.248,155.992 C89.904,155.352 90.752,155.032 91.792,155.032 C92.832,155.032 93.68,155.352 94.336,155.992 C94.992,156.632 95.32,157.608 95.32,158.92 L95.32,158.92 L95.32,160.696 C95.32,162.008 94.992,162.984 94.336,163.624 C93.68,164.264 92.832,164.584 91.792,164.584 Z M102.472,166 L102.472,157.408 C102.472,157.008 102.556,156.66 102.724,156.364 C102.892,156.068 103.12,155.824 103.408,155.632 C103.696,155.44 104.02,155.296 104.38,155.2 C104.74,155.104 105.112,155.056 105.496,155.056 C107.368,155.056 108.304,156.168 108.304,158.392 L108.304,158.392 L108.304,166 L110.224,166 L110.224,158.056 C110.224,156.552 109.852,155.388 109.108,154.564 C108.364,153.74 107.352,153.328 106.072,153.328 C105.144,153.328 104.404,153.536 103.852,153.952 C103.3,154.368 102.872,154.928 102.568,155.632 L102.568,155.632 L102.472,155.632 L102.472,153.616 L100.552,153.616 L100.552,166 L102.472,166 Z M117.904,166.288 C119.328,166.288 120.448,165.944 121.264,165.256 C122.08,164.568 122.488,163.624 122.488,162.424 C122.488,161.48 122.2,160.716 121.624,160.132 C121.048,159.548 120.072,159.152 118.696,158.944 L118.696,158.944 L117.736,158.8 C116.968,158.672 116.38,158.472 115.972,158.2 C115.564,157.928 115.36,157.488 115.36,156.88 C115.36,156.288 115.564,155.82 115.972,155.476 C116.38,155.132 116.984,154.96 117.784,154.96 C118.584,154.96 119.248,155.116 119.776,155.428 C120.304,155.74 120.704,156.088 120.976,156.472 L120.976,156.472 L122.248,155.32 C121.736,154.696 121.14,154.208 120.46,153.856 C119.78,153.504 118.936,153.328 117.928,153.328 C117.304,153.328 116.72,153.404 116.176,153.556 C115.632,153.708 115.164,153.936 114.772,154.24 C114.38,154.544 114.072,154.924 113.848,155.38 C113.624,155.836 113.512,156.368 113.512,156.976 C113.512,157.552 113.612,158.048 113.812,158.464 C114.012,158.88 114.292,159.228 114.652,159.508 C115.012,159.788 115.432,160.012 115.912,160.18 C116.392,160.348 116.92,160.472 117.496,160.552 L117.496,160.552 L118.48,160.696 C119.296,160.824 119.86,161.06 120.172,161.404 C120.484,161.748 120.64,162.16 120.64,162.64 C120.64,163.28 120.412,163.776 119.956,164.128 C119.5,164.48 118.864,164.656 118.048,164.656 C117.264,164.656 116.576,164.492 115.984,164.164 C115.392,163.836 114.856,163.368 114.376,162.76 L114.376,162.76 L113.008,163.864 C113.568,164.6 114.236,165.188 115.012,165.628 C115.788,166.068 116.752,166.288 117.904,166.288 Z M130.528,166.288 C131.696,166.288 132.704,166.028 133.552,165.508 C134.4,164.988 135.024,164.304 135.424,163.456 L135.424,163.456 L134.056,162.472 C133.736,163.16 133.284,163.688 132.7,164.056 C132.116,164.424 131.432,164.608 130.648,164.608 C130.072,164.608 129.556,164.512 129.1,164.32 C128.644,164.128 128.26,163.864 127.948,163.528 C127.636,163.192 127.396,162.796 127.228,162.34 C127.06,161.884 126.976,161.392 126.976,160.864 L126.976,160.864 L126.976,160.288 L135.88,160.288 L135.88,159.376 C135.88,158.496 135.756,157.688 135.508,156.952 C135.26,156.216 134.904,155.58 134.44,155.044 C133.976,154.508 133.416,154.088 132.76,153.784 C132.104,153.48 131.36,153.328 130.528,153.328 C129.68,153.328 128.916,153.48 128.236,153.784 C127.556,154.088 126.972,154.524 126.484,155.092 C125.996,155.66 125.62,156.344 125.356,157.144 C125.092,157.944 124.96,158.832 124.96,159.808 C124.96,160.8 125.092,161.692 125.356,162.484 C125.62,163.276 125.996,163.956 126.484,164.524 C126.972,165.092 127.556,165.528 128.236,165.832 C128.916,166.136 129.68,166.288 130.528,166.288 Z M133.816,158.848 L126.976,158.848 L126.976,158.68 C126.976,158.136 127.064,157.636 127.24,157.18 C127.416,156.724 127.66,156.328 127.972,155.992 C128.284,155.656 128.656,155.396 129.088,155.212 C129.52,155.028 130,154.936 130.528,154.936 C131.52,154.936 132.316,155.268 132.916,155.932 C133.516,156.596 133.816,157.48 133.816,158.584 L133.816,158.584 L133.816,158.848 Z M148.888,170.8 L148.888,153.616 L146.968,153.616 L146.968,155.632 L146.872,155.632 C146.552,154.848 146.084,154.268 145.468,153.892 C144.852,153.516 144.112,153.328 143.248,153.328 C142.48,153.328 141.784,153.48 141.16,153.784 C140.536,154.088 140.004,154.52 139.564,155.08 C139.124,155.64 138.788,156.32 138.556,157.12 C138.324,157.92 138.208,158.816 138.208,159.808 C138.208,160.8 138.324,161.696 138.556,162.496 C138.788,163.296 139.124,163.976 139.564,164.536 C140.004,165.096 140.536,165.528 141.16,165.832 C141.784,166.136 142.48,166.288 143.248,166.288 C144.912,166.288 146.12,165.52 146.872,163.984 L146.872,163.984 L146.968,163.984 L146.968,170.8 L148.888,170.8 Z M143.776,164.56 C142.688,164.56 141.832,164.22 141.208,163.54 C140.584,162.86 140.272,161.968 140.272,160.864 L140.272,160.864 L140.272,158.752 C140.272,157.648 140.584,156.756 141.208,156.076 C141.832,155.396 142.688,155.056 143.776,155.056 C144.208,155.056 144.62,155.116 145.012,155.236 C145.404,155.356 145.744,155.52 146.032,155.728 C146.32,155.936 146.548,156.188 146.716,156.484 C146.884,156.78 146.968,157.096 146.968,157.432 L146.968,157.432 L146.968,162.04 C146.968,162.44 146.884,162.796 146.716,163.108 C146.548,163.42 146.32,163.684 146.032,163.9 C145.744,164.116 145.404,164.28 145.012,164.392 C144.62,164.504 144.208,164.56 143.776,164.56 Z M157.024,166.288 C157.536,166.288 157.984,166.224 158.368,166.096 C158.752,165.968 159.08,165.796 159.352,165.58 C159.624,165.364 159.852,165.116 160.036,164.836 C160.22,164.556 160.376,164.272 160.504,163.984 L160.504,163.984 L160.6,163.984 L160.6,166 L162.52,166 L162.52,153.616 L160.6,153.616 L160.6,162.184 C160.6,162.6 160.516,162.956 160.348,163.252 C160.18,163.548 159.956,163.792 159.676,163.984 C159.396,164.176 159.076,164.32 158.716,164.416 C158.356,164.512 157.984,164.56 157.6,164.56 C155.712,164.56 154.768,163.448 154.768,161.224 L154.768,161.224 L154.768,153.616 L152.848,153.616 L152.848,161.56 C152.848,163.064 153.224,164.228 153.976,165.052 C154.728,165.876 155.744,166.288 157.024,166.288 Z M169.768,166.288 C170.632,166.288 171.376,166.096 172,165.712 C172.624,165.328 173.072,164.752 173.344,163.984 L173.344,163.984 L173.464,163.984 C173.544,164.56 173.74,165.04 174.052,165.424 C174.364,165.808 174.88,166 175.6,166 L175.6,166 L176.68,166 L176.68,164.32 L175.264,164.32 L175.264,157.504 C175.264,156.192 174.848,155.168 174.016,154.432 C173.184,153.696 172.016,153.328 170.512,153.328 C169.392,153.328 168.464,153.564 167.728,154.036 C166.992,154.508 166.456,155.08 166.12,155.752 L166.12,155.752 L167.272,156.832 C167.608,156.272 168.028,155.824 168.532,155.488 C169.036,155.152 169.664,154.984 170.416,154.984 C171.408,154.984 172.144,155.216 172.624,155.68 C173.104,156.144 173.344,156.816 173.344,157.696 L173.344,157.696 L173.344,158.92 L170.896,158.92 C169.088,158.92 167.756,159.232 166.9,159.856 C166.044,160.48 165.616,161.376 165.616,162.544 C165.616,163.696 165.98,164.608 166.708,165.28 C167.436,165.952 168.456,166.288 169.768,166.288 Z M170.08,164.656 C169.328,164.656 168.732,164.488 168.292,164.152 C167.852,163.816 167.632,163.344 167.632,162.736 L167.632,162.736 L167.632,162.232 C167.632,161.624 167.884,161.16 168.388,160.84 C168.892,160.52 169.696,160.36 170.8,160.36 L170.8,160.36 L173.344,160.36 L173.344,162.4 C173.344,162.72 173.264,163.016 173.104,163.288 C172.944,163.56 172.72,163.8 172.432,164.008 C172.144,164.216 171.8,164.376 171.4,164.488 C171,164.6 170.56,164.656 170.08,164.656 Z M184.552,166 L184.552,164.32 L182.032,164.32 L182.032,155.296 L184.744,155.296 L184.744,153.616 L182.032,153.616 L182.032,150.184 L180.304,150.184 L180.304,152.488 C180.304,152.904 180.228,153.196 180.076,153.364 C179.924,153.532 179.64,153.616 179.224,153.616 L179.224,153.616 L178.072,153.616 L178.072,155.296 L180.112,155.296 L180.112,163.96 C180.112,164.568 180.284,165.06 180.628,165.436 C180.972,165.812 181.48,166 182.152,166 L182.152,166 L184.552,166 Z" id="consequat" fill="#408BFC" fill-rule="nonzero"></path>
		<path d="M114.472,147.192 C115.048,147.192 115.544,147.064 115.96,146.808 C116.376,146.552 116.674667,146.168 116.856,145.656 L116.856,145.656 L116.936,145.656 C116.989333,146.04 117.12,146.36 117.328,146.616 C117.536,146.872 117.88,147 118.36,147 L118.36,147 L119.08,147 L119.08,145.88 L118.136,145.88 L118.136,141.336 C118.136,140.461333 117.858667,139.778667 117.304,139.288 C116.749333,138.797333 115.970667,138.552 114.968,138.552 C114.221333,138.552 113.602667,138.709333 113.112,139.024 C112.621333,139.338667 112.264,139.72 112.04,140.168 L112.04,140.168 L112.808,140.888 C113.032,140.514667 113.312,140.216 113.648,139.992 C113.984,139.768 114.402667,139.656 114.904,139.656 C115.565333,139.656 116.056,139.810667 116.376,140.12 C116.696,140.429333 116.856,140.877333 116.856,141.464 L116.856,141.464 L116.856,142.28 L115.224,142.28 C114.018667,142.28 113.130667,142.488 112.56,142.904 C111.989333,143.32 111.704,143.917333 111.704,144.696 C111.704,145.464 111.946667,146.072 112.432,146.52 C112.917333,146.968 113.597333,147.192 114.472,147.192 Z M114.68,146.104 C114.178667,146.104 113.781333,145.992 113.488,145.768 C113.194667,145.544 113.048,145.229333 113.048,144.824 L113.048,144.824 L113.048,144.488 C113.048,144.082667 113.216,143.773333 113.552,143.56 C113.888,143.346667 114.424,143.24 115.16,143.24 L115.16,143.24 L116.856,143.24 L116.856,144.6 C116.856,144.813333 116.802667,145.010667 116.696,145.192 C116.589333,145.373333 116.44,145.533333 116.248,145.672 C116.056,145.810667 115.826667,145.917333 115.56,145.992 C115.293333,146.066667 115,146.104 114.68,146.104 Z M122.184,147 L122.184,141.4 C122.184,141.005333 122.378667,140.677333 122.768,140.416 C123.157333,140.154667 123.698667,140.024 124.392,140.024 L124.392,140.024 L125.144,140.024 L125.144,138.744 L124.648,138.744 C123.976,138.744 123.448,138.898667 123.064,139.208 C122.68,139.517333 122.413333,139.869333 122.264,140.264 L122.264,140.264 L122.184,140.264 L122.184,138.744 L120.904,138.744 L120.904,147 L122.184,147 Z M129.848,147.192 C130.637333,147.192 131.296,147.016 131.824,146.664 C132.352,146.312 132.749333,145.837333 133.016,145.24 L133.016,145.24 L132.088,144.616 C131.629333,145.576 130.882667,146.056 129.848,146.056 C129.090667,146.056 128.517333,145.824 128.128,145.36 C127.738667,144.896 127.544,144.301333 127.544,143.576 L127.544,143.576 L127.544,142.168 C127.544,141.805333 127.592,141.472 127.688,141.168 C127.784,140.864 127.928,140.602667 128.12,140.384 C128.312,140.165333 128.552,139.994667 128.84,139.872 C129.128,139.749333 129.464,139.688 129.848,139.688 C130.36,139.688 130.786667,139.805333 131.128,140.04 C131.469333,140.274667 131.714667,140.605333 131.864,141.032 L131.864,141.032 L132.936,140.488 C132.690667,139.912 132.32,139.445333 131.824,139.088 C131.328,138.730667 130.669333,138.552 129.848,138.552 C129.272,138.552 128.754667,138.653333 128.296,138.856 C127.837333,139.058667 127.450667,139.346667 127.136,139.72 C126.821333,140.093333 126.581333,140.546667 126.416,141.08 C126.250667,141.613333 126.168,142.210667 126.168,142.872 C126.168,143.533333 126.250667,144.130667 126.416,144.664 C126.581333,145.197333 126.821333,145.650667 127.136,146.024 C127.450667,146.397333 127.837333,146.685333 128.296,146.888 C128.754667,147.090667 129.272,147.192 129.848,147.192 Z M137.528,147.192 C137.869333,147.192 138.168,147.149333 138.424,147.064 C138.68,146.978667 138.898667,146.864 139.08,146.72 C139.261333,146.576 139.413333,146.410667 139.536,146.224 C139.658667,146.037333 139.762667,145.848 139.848,145.656 L139.848,145.656 L139.912,145.656 L139.912,147 L141.192,147 L141.192,138.744 L139.912,138.744 L139.912,144.456 C139.912,144.733333 139.856,144.970667 139.744,145.168 C139.632,145.365333 139.482667,145.528 139.296,145.656 C139.109333,145.784 138.896,145.88 138.656,145.944 C138.416,146.008 138.168,146.04 137.912,146.04 C136.653333,146.04 136.024,145.298667 136.024,143.816 L136.024,143.816 L136.024,138.744 L134.744,138.744 L134.744,144.04 C134.744,145.042667 134.994667,145.818667 135.496,146.368 C135.997333,146.917333 136.674667,147.192 137.528,147.192 Z" id="arcu" fill="#97C1FF" fill-rule="nonzero"></path>
		<path d="M95.232,146.096 C95.6213333,146.096 95.9573333,146.009333 96.24,145.836 C96.5226667,145.662667 96.7306667,145.434667 96.864,145.152 L96.864,145.152 L96.408,144.824 C96.3013333,145.053333 96.1506667,145.229333 95.956,145.352 C95.7613333,145.474667 95.5333333,145.536 95.272,145.536 C95.08,145.536 94.908,145.504 94.756,145.44 C94.604,145.376 94.476,145.288 94.372,145.176 C94.268,145.064 94.188,144.932 94.132,144.78 C94.076,144.628 94.048,144.464 94.048,144.288 L94.048,144.288 L94.048,144.096 L97.016,144.096 L97.016,143.792 C97.016,143.498667 96.9746667,143.229333 96.892,142.984 C96.8093333,142.738667 96.6906667,142.526667 96.536,142.348 C96.3813333,142.169333 96.1946667,142.029333 95.976,141.928 C95.7573333,141.826667 95.5093333,141.776 95.232,141.776 C94.9493333,141.776 94.6946667,141.826667 94.468,141.928 C94.2413333,142.029333 94.0466667,142.174667 93.884,142.364 C93.7213333,142.553333 93.596,142.781333 93.508,143.048 C93.42,143.314667 93.376,143.610667 93.376,143.936 C93.376,144.266667 93.42,144.564 93.508,144.828 C93.596,145.092 93.7213333,145.318667 93.884,145.508 C94.0466667,145.697333 94.2413333,145.842667 94.468,145.944 C94.6946667,146.045333 94.9493333,146.096 95.232,146.096 Z M96.328,143.616 L94.048,143.616 L94.048,143.56 C94.048,143.378667 94.0773333,143.212 94.136,143.06 C94.1946667,142.908 94.276,142.776 94.38,142.664 C94.484,142.552 94.608,142.465333 94.752,142.404 C94.896,142.342667 95.056,142.312 95.232,142.312 C95.5626667,142.312 95.828,142.422667 96.028,142.644 C96.228,142.865333 96.328,143.16 96.328,143.528 L96.328,143.528 L96.328,143.616 Z M99.784,146 L99.784,145.44 L98.944,145.44 L98.944,142.432 L99.848,142.432 L99.848,141.872 L98.944,141.872 L98.944,140.728 L98.368,140.728 L98.368,141.496 C98.368,141.634667 98.3426667,141.732 98.292,141.788 C98.2413333,141.844 98.1466667,141.872 98.008,141.872 L98.008,141.872 L97.624,141.872 L97.624,142.432 L98.304,142.432 L98.304,145.32 C98.304,145.522667 98.3613333,145.686667 98.476,145.812 C98.5906667,145.937333 98.76,146 98.984,146 L98.984,146 L99.784,146 Z M102.12,146.096 C102.594667,146.096 102.968,145.981333 103.24,145.752 C103.512,145.522667 103.648,145.208 103.648,144.808 C103.648,144.493333 103.552,144.238667 103.36,144.044 C103.168,143.849333 102.842667,143.717333 102.384,143.648 L102.384,143.648 L102.064,143.6 C101.808,143.557333 101.612,143.490667 101.476,143.4 C101.34,143.309333 101.272,143.162667 101.272,142.96 C101.272,142.762667 101.34,142.606667 101.476,142.492 C101.612,142.377333 101.813333,142.32 102.08,142.32 C102.346667,142.32 102.568,142.372 102.744,142.476 C102.92,142.58 103.053333,142.696 103.144,142.824 L103.144,142.824 L103.568,142.44 C103.397333,142.232 103.198667,142.069333 102.972,141.952 C102.745333,141.834667 102.464,141.776 102.128,141.776 C101.92,141.776 101.725333,141.801333 101.544,141.852 C101.362667,141.902667 101.206667,141.978667 101.076,142.08 C100.945333,142.181333 100.842667,142.308 100.768,142.46 C100.693333,142.612 100.656,142.789333 100.656,142.992 C100.656,143.184 100.689333,143.349333 100.756,143.488 C100.822667,143.626667 100.916,143.742667 101.036,143.836 C101.156,143.929333 101.296,144.004 101.456,144.06 C101.616,144.116 101.792,144.157333 101.984,144.184 L101.984,144.184 L102.312,144.232 C102.584,144.274667 102.772,144.353333 102.876,144.468 C102.98,144.582667 103.032,144.72 103.032,144.88 C103.032,145.093333 102.956,145.258667 102.804,145.376 C102.652,145.493333 102.44,145.552 102.168,145.552 C101.906667,145.552 101.677333,145.497333 101.48,145.388 C101.282667,145.278667 101.104,145.122667 100.944,144.92 L100.944,144.92 L100.488,145.288 C100.674667,145.533333 100.897333,145.729333 101.156,145.876 C101.414667,146.022667 101.736,146.096 102.12,146.096 Z" id="ets" fill="#0062FF" fill-rule="nonzero"></path>
		<path d="M149.32,144.6 L149.32,142.328 L149.352,142.328 C149.597333,142.84 150,143.096 150.56,143.096 C150.816,143.096 151.048,143.045333 151.256,142.944 C151.464,142.842667 151.641333,142.698667 151.788,142.512 C151.934667,142.325333 152.046667,142.098667 152.124,141.832 C152.201333,141.565333 152.24,141.266667 152.24,140.936 C152.24,140.605333 152.201333,140.306667 152.124,140.04 C152.046667,139.773333 151.934667,139.546667 151.788,139.36 C151.641333,139.173333 151.464,139.029333 151.256,138.928 C151.048,138.826667 150.816,138.776 150.56,138.776 C150.272,138.776 150.025333,138.838667 149.82,138.964 C149.614667,139.089333 149.458667,139.282667 149.352,139.544 L149.352,139.544 L149.32,139.544 L149.32,138.872 L148.68,138.872 L148.68,144.6 L149.32,144.6 Z M150.384,142.52 C150.24,142.52 150.102667,142.501333 149.972,142.464 C149.841333,142.426667 149.728,142.372 149.632,142.3 C149.536,142.228 149.46,142.14 149.404,142.036 C149.348,141.932 149.32,141.813333 149.32,141.68 L149.32,141.68 L149.32,140.144 C149.32,140.032 149.348,139.926667 149.404,139.828 C149.46,139.729333 149.536,139.645333 149.632,139.576 C149.728,139.506667 149.841333,139.452 149.972,139.412 C150.102667,139.372 150.24,139.352 150.384,139.352 C150.746667,139.352 151.032,139.465333 151.24,139.692 C151.448,139.918667 151.552,140.216 151.552,140.584 L151.552,140.584 L151.552,141.288 C151.552,141.656 151.448,141.953333 151.24,142.18 C151.032,142.406667 150.746667,142.52 150.384,142.52 Z M154.88,143.096 C155.157333,143.096 155.409333,143.045333 155.636,142.944 C155.862667,142.842667 156.058667,142.697333 156.224,142.508 C156.389333,142.318667 156.517333,142.092 156.608,141.828 C156.698667,141.564 156.744,141.266667 156.744,140.936 C156.744,140.610667 156.698667,140.314667 156.608,140.048 C156.517333,139.781333 156.389333,139.553333 156.224,139.364 C156.058667,139.174667 155.862667,139.029333 155.636,138.928 C155.409333,138.826667 155.157333,138.776 154.88,138.776 C154.602667,138.776 154.349333,138.826667 154.12,138.928 C153.890667,139.029333 153.694667,139.174667 153.532,139.364 C153.369333,139.553333 153.242667,139.781333 153.152,140.048 C153.061333,140.314667 153.016,140.610667 153.016,140.936 C153.016,141.266667 153.061333,141.564 153.152,141.828 C153.242667,142.092 153.369333,142.318667 153.532,142.508 C153.694667,142.697333 153.890667,142.842667 154.12,142.944 C154.349333,143.045333 154.602667,143.096 154.88,143.096 Z M154.88,142.528 C154.533333,142.528 154.250667,142.421333 154.032,142.208 C153.813333,141.994667 153.704,141.669333 153.704,141.232 L153.704,141.232 L153.704,140.64 C153.704,140.202667 153.813333,139.877333 154.032,139.664 C154.250667,139.450667 154.533333,139.344 154.88,139.344 C155.226667,139.344 155.509333,139.450667 155.728,139.664 C155.946667,139.877333 156.056,140.202667 156.056,140.64 L156.056,140.64 L156.056,141.232 C156.056,141.669333 155.946667,141.994667 155.728,142.208 C155.509333,142.421333 155.226667,142.528 154.88,142.528 Z M158.44,143 L158.44,140.2 C158.44,140.002667 158.537333,139.838667 158.732,139.708 C158.926667,139.577333 159.197333,139.512 159.544,139.512 L159.544,139.512 L159.92,139.512 L159.92,138.872 L159.672,138.872 C159.336,138.872 159.072,138.949333 158.88,139.104 C158.688,139.258667 158.554667,139.434667 158.48,139.632 L158.48,139.632 L158.44,139.632 L158.44,138.872 L157.8,138.872 L157.8,143 L158.44,143 Z M162.448,143 L162.448,142.44 L161.608,142.44 L161.608,139.432 L162.512,139.432 L162.512,138.872 L161.608,138.872 L161.608,137.728 L161.032,137.728 L161.032,138.496 C161.032,138.634667 161.006667,138.732 160.956,138.788 C160.905333,138.844 160.810667,138.872 160.672,138.872 L160.672,138.872 L160.288,138.872 L160.288,139.432 L160.968,139.432 L160.968,142.32 C160.968,142.522667 161.025333,142.686667 161.14,142.812 C161.254667,142.937333 161.424,143 161.648,143 L161.648,143 L162.448,143 Z M164.6,143.096 C164.888,143.096 165.136,143.032 165.344,142.904 C165.552,142.776 165.701333,142.584 165.792,142.328 L165.792,142.328 L165.832,142.328 C165.858667,142.52 165.924,142.68 166.028,142.808 C166.132,142.936 166.304,143 166.544,143 L166.544,143 L166.904,143 L166.904,142.44 L166.432,142.44 L166.432,140.168 C166.432,139.730667 166.293333,139.389333 166.016,139.144 C165.738667,138.898667 165.349333,138.776 164.848,138.776 C164.474667,138.776 164.165333,138.854667 163.92,139.012 C163.674667,139.169333 163.496,139.36 163.384,139.584 L163.384,139.584 L163.768,139.944 C163.88,139.757333 164.02,139.608 164.188,139.496 C164.356,139.384 164.565333,139.328 164.816,139.328 C165.146667,139.328 165.392,139.405333 165.552,139.56 C165.712,139.714667 165.792,139.938667 165.792,140.232 L165.792,140.232 L165.792,140.64 L164.976,140.64 C164.373333,140.64 163.929333,140.744 163.644,140.952 C163.358667,141.16 163.216,141.458667 163.216,141.848 C163.216,142.232 163.337333,142.536 163.58,142.76 C163.822667,142.984 164.162667,143.096 164.6,143.096 Z M164.704,142.552 C164.453333,142.552 164.254667,142.496 164.108,142.384 C163.961333,142.272 163.888,142.114667 163.888,141.912 L163.888,141.912 L163.888,141.744 C163.888,141.541333 163.972,141.386667 164.14,141.28 C164.308,141.173333 164.576,141.12 164.944,141.12 L164.944,141.12 L165.792,141.12 L165.792,141.8 C165.792,141.906667 165.765333,142.005333 165.712,142.096 C165.658667,142.186667 165.584,142.266667 165.488,142.336 C165.392,142.405333 165.277333,142.458667 165.144,142.496 C165.010667,142.533333 164.864,142.552 164.704,142.552 Z" id="porta" fill="#0062FF" fill-rule="nonzero"></path>
		<path d="M63.32,111 L63.32,108.136 C63.32,108.002667 63.348,107.886667 63.404,107.788 C63.46,107.689333 63.536,107.608 63.632,107.544 C63.728,107.48 63.836,107.432 63.956,107.4 C64.076,107.368 64.2,107.352 64.328,107.352 C64.952,107.352 65.264,107.722667 65.264,108.464 L65.264,108.464 L65.264,111 L65.904,111 L65.904,108.352 C65.904,107.850667 65.78,107.462667 65.532,107.188 C65.284,106.913333 64.9466667,106.776 64.52,106.776 C64.2106667,106.776 63.964,106.845333 63.78,106.984 C63.596,107.122667 63.4533333,107.309333 63.352,107.544 L63.352,107.544 L63.32,107.544 L63.32,106.872 L62.68,106.872 L62.68,111 L63.32,111 Z M68.784,111.096 C69.0613333,111.096 69.3133333,111.045333 69.54,110.944 C69.7666667,110.842667 69.9626667,110.697333 70.128,110.508 C70.2933333,110.318667 70.4213333,110.092 70.512,109.828 C70.6026667,109.564 70.648,109.266667 70.648,108.936 C70.648,108.610667 70.6026667,108.314667 70.512,108.048 C70.4213333,107.781333 70.2933333,107.553333 70.128,107.364 C69.9626667,107.174667 69.7666667,107.029333 69.54,106.928 C69.3133333,106.826667 69.0613333,106.776 68.784,106.776 C68.5066667,106.776 68.2533333,106.826667 68.024,106.928 C67.7946667,107.029333 67.5986667,107.174667 67.436,107.364 C67.2733333,107.553333 67.1466667,107.781333 67.056,108.048 C66.9653333,108.314667 66.92,108.610667 66.92,108.936 C66.92,109.266667 66.9653333,109.564 67.056,109.828 C67.1466667,110.092 67.2733333,110.318667 67.436,110.508 C67.5986667,110.697333 67.7946667,110.842667 68.024,110.944 C68.2533333,111.045333 68.5066667,111.096 68.784,111.096 Z M68.784,110.528 C68.4373333,110.528 68.1546667,110.421333 67.936,110.208 C67.7173333,109.994667 67.608,109.669333 67.608,109.232 L67.608,109.232 L67.608,108.64 C67.608,108.202667 67.7173333,107.877333 67.936,107.664 C68.1546667,107.450667 68.4373333,107.344 68.784,107.344 C69.1306667,107.344 69.4133333,107.450667 69.632,107.664 C69.8506667,107.877333 69.96,108.202667 69.96,108.64 L69.96,108.64 L69.96,109.232 C69.96,109.669333 69.8506667,109.994667 69.632,110.208 C69.4133333,110.421333 69.1306667,110.528 68.784,110.528 Z M72.344,111 L72.344,108.136 C72.344,108.002667 72.372,107.886667 72.428,107.788 C72.484,107.689333 72.56,107.608 72.656,107.544 C72.752,107.48 72.86,107.432 72.98,107.4 C73.1,107.368 73.224,107.352 73.352,107.352 C73.976,107.352 74.288,107.722667 74.288,108.464 L74.288,108.464 L74.288,111 L74.928,111 L74.928,108.352 C74.928,107.850667 74.804,107.462667 74.556,107.188 C74.308,106.913333 73.9706667,106.776 73.544,106.776 C73.2346667,106.776 72.988,106.845333 72.804,106.984 C72.62,107.122667 72.4773333,107.309333 72.376,107.544 L72.376,107.544 L72.344,107.544 L72.344,106.872 L71.704,106.872 L71.704,111 L72.344,111 Z" id="non" fill="#0062FF" fill-rule="nonzero"></path>
		<path d="M131.232,182.096 C131.621333,182.096 131.957333,182.009333 132.24,181.836 C132.522667,181.662667 132.730667,181.434667 132.864,181.152 L132.864,181.152 L132.408,180.824 C132.301333,181.053333 132.150667,181.229333 131.956,181.352 C131.761333,181.474667 131.533333,181.536 131.272,181.536 C131.08,181.536 130.908,181.504 130.756,181.44 C130.604,181.376 130.476,181.288 130.372,181.176 C130.268,181.064 130.188,180.932 130.132,180.78 C130.076,180.628 130.048,180.464 130.048,180.288 L130.048,180.288 L130.048,180.096 L133.016,180.096 L133.016,179.792 C133.016,179.498667 132.974667,179.229333 132.892,178.984 C132.809333,178.738667 132.690667,178.526667 132.536,178.348 C132.381333,178.169333 132.194667,178.029333 131.976,177.928 C131.757333,177.826667 131.509333,177.776 131.232,177.776 C130.949333,177.776 130.694667,177.826667 130.468,177.928 C130.241333,178.029333 130.046667,178.174667 129.884,178.364 C129.721333,178.553333 129.596,178.781333 129.508,179.048 C129.42,179.314667 129.376,179.610667 129.376,179.936 C129.376,180.266667 129.42,180.564 129.508,180.828 C129.596,181.092 129.721333,181.318667 129.884,181.508 C130.046667,181.697333 130.241333,181.842667 130.468,181.944 C130.694667,182.045333 130.949333,182.096 131.232,182.096 Z M132.328,179.616 L130.048,179.616 L130.048,179.56 C130.048,179.378667 130.077333,179.212 130.136,179.06 C130.194667,178.908 130.276,178.776 130.38,178.664 C130.484,178.552 130.608,178.465333 130.752,178.404 C130.896,178.342667 131.056,178.312 131.232,178.312 C131.562667,178.312 131.828,178.422667 132.028,178.644 C132.228,178.865333 132.328,179.16 132.328,179.528 L132.328,179.528 L132.328,179.616 Z M134.712,182 L134.712,179.2 C134.712,179.002667 134.809333,178.838667 135.004,178.708 C135.198667,178.577333 135.469333,178.512 135.816,178.512 L135.816,178.512 L136.192,178.512 L136.192,177.872 L135.944,177.872 C135.608,177.872 135.344,177.949333 135.152,178.104 C134.96,178.258667 134.826667,178.434667 134.752,178.632 L134.752,178.632 L134.712,178.632 L134.712,177.872 L134.072,177.872 L134.072,182 L134.712,182 Z M138.064,182.096 C138.352,182.096 138.6,182.032 138.808,181.904 C139.016,181.776 139.165333,181.584 139.256,181.328 L139.256,181.328 L139.296,181.328 C139.322667,181.52 139.388,181.68 139.492,181.808 C139.596,181.936 139.768,182 140.008,182 L140.008,182 L140.368,182 L140.368,181.44 L139.896,181.44 L139.896,179.168 C139.896,178.730667 139.757333,178.389333 139.48,178.144 C139.202667,177.898667 138.813333,177.776 138.312,177.776 C137.938667,177.776 137.629333,177.854667 137.384,178.012 C137.138667,178.169333 136.96,178.36 136.848,178.584 L136.848,178.584 L137.232,178.944 C137.344,178.757333 137.484,178.608 137.652,178.496 C137.82,178.384 138.029333,178.328 138.28,178.328 C138.610667,178.328 138.856,178.405333 139.016,178.56 C139.176,178.714667 139.256,178.938667 139.256,179.232 L139.256,179.232 L139.256,179.64 L138.44,179.64 C137.837333,179.64 137.393333,179.744 137.108,179.952 C136.822667,180.16 136.68,180.458667 136.68,180.848 C136.68,181.232 136.801333,181.536 137.044,181.76 C137.286667,181.984 137.626667,182.096 138.064,182.096 Z M138.168,181.552 C137.917333,181.552 137.718667,181.496 137.572,181.384 C137.425333,181.272 137.352,181.114667 137.352,180.912 L137.352,180.912 L137.352,180.744 C137.352,180.541333 137.436,180.386667 137.604,180.28 C137.772,180.173333 138.04,180.12 138.408,180.12 L138.408,180.12 L139.256,180.12 L139.256,180.8 C139.256,180.906667 139.229333,181.005333 139.176,181.096 C139.122667,181.186667 139.048,181.266667 138.952,181.336 C138.856,181.405333 138.741333,181.458667 138.608,181.496 C138.474667,181.533333 138.328,181.552 138.168,181.552 Z M142.992,182 L142.992,181.44 L142.152,181.44 L142.152,178.432 L143.056,178.432 L143.056,177.872 L142.152,177.872 L142.152,176.728 L141.576,176.728 L141.576,177.496 C141.576,177.634667 141.550667,177.732 141.5,177.788 C141.449333,177.844 141.354667,177.872 141.216,177.872 L141.216,177.872 L140.832,177.872 L140.832,178.432 L141.512,178.432 L141.512,181.32 C141.512,181.522667 141.569333,181.686667 141.684,181.812 C141.798667,181.937333 141.968,182 142.192,182 L142.192,182 L142.992,182 Z" id="erat" fill="#0062FF" fill-rule="nonzero"></path>
		<path d="M91.92,199.096 C92.3946667,199.096 92.768,198.981333 93.04,198.752 C93.312,198.522667 93.448,198.208 93.448,197.808 C93.448,197.493333 93.352,197.238667 93.16,197.044 C92.968,196.849333 92.6426667,196.717333 92.184,196.648 L92.184,196.648 L91.864,196.6 C91.608,196.557333 91.412,196.490667 91.276,196.4 C91.14,196.309333 91.072,196.162667 91.072,195.96 C91.072,195.762667 91.14,195.606667 91.276,195.492 C91.412,195.377333 91.6133333,195.32 91.88,195.32 C92.1466667,195.32 92.368,195.372 92.544,195.476 C92.72,195.58 92.8533333,195.696 92.944,195.824 L92.944,195.824 L93.368,195.44 C93.1973333,195.232 92.9986667,195.069333 92.772,194.952 C92.5453333,194.834667 92.264,194.776 91.928,194.776 C91.72,194.776 91.5253333,194.801333 91.344,194.852 C91.1626667,194.902667 91.0066667,194.978667 90.876,195.08 C90.7453333,195.181333 90.6426667,195.308 90.568,195.46 C90.4933333,195.612 90.456,195.789333 90.456,195.992 C90.456,196.184 90.4893333,196.349333 90.556,196.488 C90.6226667,196.626667 90.716,196.742667 90.836,196.836 C90.956,196.929333 91.096,197.004 91.256,197.06 C91.416,197.116 91.592,197.157333 91.784,197.184 L91.784,197.184 L92.112,197.232 C92.384,197.274667 92.572,197.353333 92.676,197.468 C92.78,197.582667 92.832,197.72 92.832,197.88 C92.832,198.093333 92.756,198.258667 92.604,198.376 C92.452,198.493333 92.24,198.552 91.968,198.552 C91.7066667,198.552 91.4773333,198.497333 91.28,198.388 C91.0826667,198.278667 90.904,198.122667 90.744,197.92 L90.744,197.92 L90.288,198.288 C90.4746667,198.533333 90.6973333,198.729333 90.956,198.876 C91.2146667,199.022667 91.536,199.096 91.92,199.096 Z M96.128,199.096 C96.5173333,199.096 96.8533333,199.009333 97.136,198.836 C97.4186667,198.662667 97.6266667,198.434667 97.76,198.152 L97.76,198.152 L97.304,197.824 C97.1973333,198.053333 97.0466667,198.229333 96.852,198.352 C96.6573333,198.474667 96.4293333,198.536 96.168,198.536 C95.976,198.536 95.804,198.504 95.652,198.44 C95.5,198.376 95.372,198.288 95.268,198.176 C95.164,198.064 95.084,197.932 95.028,197.78 C94.972,197.628 94.944,197.464 94.944,197.288 L94.944,197.288 L94.944,197.096 L97.912,197.096 L97.912,196.792 C97.912,196.498667 97.8706667,196.229333 97.788,195.984 C97.7053333,195.738667 97.5866667,195.526667 97.432,195.348 C97.2773333,195.169333 97.0906667,195.029333 96.872,194.928 C96.6533333,194.826667 96.4053333,194.776 96.128,194.776 C95.8453333,194.776 95.5906667,194.826667 95.364,194.928 C95.1373333,195.029333 94.9426667,195.174667 94.78,195.364 C94.6173333,195.553333 94.492,195.781333 94.404,196.048 C94.316,196.314667 94.272,196.610667 94.272,196.936 C94.272,197.266667 94.316,197.564 94.404,197.828 C94.492,198.092 94.6173333,198.318667 94.78,198.508 C94.9426667,198.697333 95.1373333,198.842667 95.364,198.944 C95.5906667,199.045333 95.8453333,199.096 96.128,199.096 Z M97.224,196.616 L94.944,196.616 L94.944,196.56 C94.944,196.378667 94.9733333,196.212 95.032,196.06 C95.0906667,195.908 95.172,195.776 95.276,195.664 C95.38,195.552 95.504,195.465333 95.648,195.404 C95.792,195.342667 95.952,195.312 96.128,195.312 C96.4586667,195.312 96.724,195.422667 96.924,195.644 C97.124,195.865333 97.224,196.16 97.224,196.528 L97.224,196.528 L97.224,196.616 Z M99.608,199 L99.608,196.136 C99.608,196.002667 99.636,195.886667 99.692,195.788 C99.748,195.689333 99.8213333,195.608 99.912,195.544 C100.002667,195.48 100.106667,195.432 100.224,195.4 C100.341333,195.368 100.464,195.352 100.592,195.352 C100.896,195.352 101.12,195.445333 101.264,195.632 C101.408,195.818667 101.48,196.096 101.48,196.464 L101.48,196.464 L101.48,199 L102.12,199 L102.12,196.136 C102.12,196.002667 102.146667,195.886667 102.2,195.788 C102.253333,195.689333 102.325333,195.608 102.416,195.544 C102.506667,195.48 102.609333,195.432 102.724,195.4 C102.838667,195.368 102.96,195.352 103.088,195.352 C103.402667,195.352 103.632,195.445333 103.776,195.632 C103.92,195.818667 103.992,196.096 103.992,196.464 L103.992,196.464 L103.992,199 L104.632,199 L104.632,196.352 C104.632,195.850667 104.513333,195.462667 104.276,195.188 C104.038667,194.913333 103.709333,194.776 103.288,194.776 C102.936,194.776 102.657333,194.86 102.452,195.028 C102.246667,195.196 102.106667,195.392 102.032,195.616 L102.032,195.616 L102.016,195.616 C101.904,195.317333 101.733333,195.102667 101.504,194.972 C101.274667,194.841333 101.024,194.776 100.752,194.776 C100.592,194.776 100.453333,194.796 100.336,194.836 C100.218667,194.876 100.116,194.930667 100.028,195 C99.94,195.069333 99.8653333,195.150667 99.804,195.244 C99.7426667,195.337333 99.688,195.437333 99.64,195.544 L99.64,195.544 L99.608,195.544 L99.608,194.872 L98.968,194.872 L98.968,199 L99.608,199 Z M106.592,200.6 L106.592,198.328 L106.624,198.328 C106.869333,198.84 107.272,199.096 107.832,199.096 C108.088,199.096 108.32,199.045333 108.528,198.944 C108.736,198.842667 108.913333,198.698667 109.06,198.512 C109.206667,198.325333 109.318667,198.098667 109.396,197.832 C109.473333,197.565333 109.512,197.266667 109.512,196.936 C109.512,196.605333 109.473333,196.306667 109.396,196.04 C109.318667,195.773333 109.206667,195.546667 109.06,195.36 C108.913333,195.173333 108.736,195.029333 108.528,194.928 C108.32,194.826667 108.088,194.776 107.832,194.776 C107.544,194.776 107.297333,194.838667 107.092,194.964 C106.886667,195.089333 106.730667,195.282667 106.624,195.544 L106.624,195.544 L106.592,195.544 L106.592,194.872 L105.952,194.872 L105.952,200.6 L106.592,200.6 Z M107.656,198.52 C107.512,198.52 107.374667,198.501333 107.244,198.464 C107.113333,198.426667 107,198.372 106.904,198.3 C106.808,198.228 106.732,198.14 106.676,198.036 C106.62,197.932 106.592,197.813333 106.592,197.68 L106.592,197.68 L106.592,196.144 C106.592,196.032 106.62,195.926667 106.676,195.828 C106.732,195.729333 106.808,195.645333 106.904,195.576 C107,195.506667 107.113333,195.452 107.244,195.412 C107.374667,195.372 107.512,195.352 107.656,195.352 C108.018667,195.352 108.304,195.465333 108.512,195.692 C108.72,195.918667 108.824,196.216 108.824,196.584 L108.824,196.584 L108.824,197.288 C108.824,197.656 108.72,197.953333 108.512,198.18 C108.304,198.406667 108.018667,198.52 107.656,198.52 Z M112.144,199.096 C112.533333,199.096 112.869333,199.009333 113.152,198.836 C113.434667,198.662667 113.642667,198.434667 113.776,198.152 L113.776,198.152 L113.32,197.824 C113.213333,198.053333 113.062667,198.229333 112.868,198.352 C112.673333,198.474667 112.445333,198.536 112.184,198.536 C111.992,198.536 111.82,198.504 111.668,198.44 C111.516,198.376 111.388,198.288 111.284,198.176 C111.18,198.064 111.1,197.932 111.044,197.78 C110.988,197.628 110.96,197.464 110.96,197.288 L110.96,197.288 L110.96,197.096 L113.928,197.096 L113.928,196.792 C113.928,196.498667 113.886667,196.229333 113.804,195.984 C113.721333,195.738667 113.602667,195.526667 113.448,195.348 C113.293333,195.169333 113.106667,195.029333 112.888,194.928 C112.669333,194.826667 112.421333,194.776 112.144,194.776 C111.861333,194.776 111.606667,194.826667 111.38,194.928 C111.153333,195.029333 110.958667,195.174667 110.796,195.364 C110.633333,195.553333 110.508,195.781333 110.42,196.048 C110.332,196.314667 110.288,196.610667 110.288,196.936 C110.288,197.266667 110.332,197.564 110.42,197.828 C110.508,198.092 110.633333,198.318667 110.796,198.508 C110.958667,198.697333 111.153333,198.842667 111.38,198.944 C111.606667,199.045333 111.861333,199.096 112.144,199.096 Z M113.24,196.616 L110.96,196.616 L110.96,196.56 C110.96,196.378667 110.989333,196.212 111.048,196.06 C111.106667,195.908 111.188,195.776 111.292,195.664 C111.396,195.552 111.52,195.465333 111.664,195.404 C111.808,195.342667 111.968,195.312 112.144,195.312 C112.474667,195.312 112.74,195.422667 112.94,195.644 C113.14,195.865333 113.24,196.16 113.24,196.528 L113.24,196.528 L113.24,196.616 Z M115.624,199 L115.624,196.2 C115.624,196.002667 115.721333,195.838667 115.916,195.708 C116.110667,195.577333 116.381333,195.512 116.728,195.512 L116.728,195.512 L117.104,195.512 L117.104,194.872 L116.856,194.872 C116.52,194.872 116.256,194.949333 116.064,195.104 C115.872,195.258667 115.738667,195.434667 115.664,195.632 L115.664,195.632 L115.624,195.632 L115.624,194.872 L114.984,194.872 L114.984,199 L115.624,199 Z" id="semper" fill="#0062FF" fill-rule="nonzero"></path>
		<path d="M126.32,200.6 L126.32,198.328 L126.352,198.328 C126.597333,198.84 127,199.096 127.56,199.096 C127.816,199.096 128.048,199.045333 128.256,198.944 C128.464,198.842667 128.641333,198.698667 128.788,198.512 C128.934667,198.325333 129.046667,198.098667 129.124,197.832 C129.201333,197.565333 129.24,197.266667 129.24,196.936 C129.24,196.605333 129.201333,196.306667 129.124,196.04 C129.046667,195.773333 128.934667,195.546667 128.788,195.36 C128.641333,195.173333 128.464,195.029333 128.256,194.928 C128.048,194.826667 127.816,194.776 127.56,194.776 C127.272,194.776 127.025333,194.838667 126.82,194.964 C126.614667,195.089333 126.458667,195.282667 126.352,195.544 L126.352,195.544 L126.32,195.544 L126.32,194.872 L125.68,194.872 L125.68,200.6 L126.32,200.6 Z M127.384,198.52 C127.24,198.52 127.102667,198.501333 126.972,198.464 C126.841333,198.426667 126.728,198.372 126.632,198.3 C126.536,198.228 126.46,198.14 126.404,198.036 C126.348,197.932 126.32,197.813333 126.32,197.68 L126.32,197.68 L126.32,196.144 C126.32,196.032 126.348,195.926667 126.404,195.828 C126.46,195.729333 126.536,195.645333 126.632,195.576 C126.728,195.506667 126.841333,195.452 126.972,195.412 C127.102667,195.372 127.24,195.352 127.384,195.352 C127.746667,195.352 128.032,195.465333 128.24,195.692 C128.448,195.918667 128.552,196.216 128.552,196.584 L128.552,196.584 L128.552,197.288 C128.552,197.656 128.448,197.953333 128.24,198.18 C128.032,198.406667 127.746667,198.52 127.384,198.52 Z M131.672,199.096 C131.842667,199.096 131.992,199.074667 132.12,199.032 C132.248,198.989333 132.357333,198.932 132.448,198.86 C132.538667,198.788 132.614667,198.705333 132.676,198.612 C132.737333,198.518667 132.789333,198.424 132.832,198.328 L132.832,198.328 L132.864,198.328 L132.864,199 L133.504,199 L133.504,194.872 L132.864,194.872 L132.864,197.728 C132.864,197.866667 132.836,197.985333 132.78,198.084 C132.724,198.182667 132.649333,198.264 132.556,198.328 C132.462667,198.392 132.356,198.44 132.236,198.472 C132.116,198.504 131.992,198.52 131.864,198.52 C131.234667,198.52 130.92,198.149333 130.92,197.408 L130.92,197.408 L130.92,194.872 L130.28,194.872 L130.28,197.52 C130.28,198.021333 130.405333,198.409333 130.656,198.684 C130.906667,198.958667 131.245333,199.096 131.672,199.096 Z M135.504,199 L135.504,196.2 C135.504,196.002667 135.601333,195.838667 135.796,195.708 C135.990667,195.577333 136.261333,195.512 136.608,195.512 L136.608,195.512 L136.984,195.512 L136.984,194.872 L136.736,194.872 C136.4,194.872 136.136,194.949333 135.944,195.104 C135.752,195.258667 135.618667,195.434667 135.544,195.632 L135.544,195.632 L135.504,195.632 L135.504,194.872 L134.864,194.872 L134.864,199 L135.504,199 Z M139.152,199.096 C139.322667,199.096 139.472,199.074667 139.6,199.032 C139.728,198.989333 139.837333,198.932 139.928,198.86 C140.018667,198.788 140.094667,198.705333 140.156,198.612 C140.217333,198.518667 140.269333,198.424 140.312,198.328 L140.312,198.328 L140.344,198.328 L140.344,199 L140.984,199 L140.984,194.872 L140.344,194.872 L140.344,197.728 C140.344,197.866667 140.316,197.985333 140.26,198.084 C140.204,198.182667 140.129333,198.264 140.036,198.328 C139.942667,198.392 139.836,198.44 139.716,198.472 C139.596,198.504 139.472,198.52 139.344,198.52 C138.714667,198.52 138.4,198.149333 138.4,197.408 L138.4,197.408 L138.4,194.872 L137.76,194.872 L137.76,197.52 C137.76,198.021333 137.885333,198.409333 138.136,198.684 C138.386667,198.958667 138.725333,199.096 139.152,199.096 Z M143.584,199.096 C144.058667,199.096 144.432,198.981333 144.704,198.752 C144.976,198.522667 145.112,198.208 145.112,197.808 C145.112,197.493333 145.016,197.238667 144.824,197.044 C144.632,196.849333 144.306667,196.717333 143.848,196.648 L143.848,196.648 L143.528,196.6 C143.272,196.557333 143.076,196.490667 142.94,196.4 C142.804,196.309333 142.736,196.162667 142.736,195.96 C142.736,195.762667 142.804,195.606667 142.94,195.492 C143.076,195.377333 143.277333,195.32 143.544,195.32 C143.810667,195.32 144.032,195.372 144.208,195.476 C144.384,195.58 144.517333,195.696 144.608,195.824 L144.608,195.824 L145.032,195.44 C144.861333,195.232 144.662667,195.069333 144.436,194.952 C144.209333,194.834667 143.928,194.776 143.592,194.776 C143.384,194.776 143.189333,194.801333 143.008,194.852 C142.826667,194.902667 142.670667,194.978667 142.54,195.08 C142.409333,195.181333 142.306667,195.308 142.232,195.46 C142.157333,195.612 142.12,195.789333 142.12,195.992 C142.12,196.184 142.153333,196.349333 142.22,196.488 C142.286667,196.626667 142.38,196.742667 142.5,196.836 C142.62,196.929333 142.76,197.004 142.92,197.06 C143.08,197.116 143.256,197.157333 143.448,197.184 L143.448,197.184 L143.776,197.232 C144.048,197.274667 144.236,197.353333 144.34,197.468 C144.444,197.582667 144.496,197.72 144.496,197.88 C144.496,198.093333 144.42,198.258667 144.268,198.376 C144.116,198.493333 143.904,198.552 143.632,198.552 C143.370667,198.552 143.141333,198.497333 142.944,198.388 C142.746667,198.278667 142.568,198.122667 142.408,197.92 L142.408,197.92 L141.952,198.288 C142.138667,198.533333 142.361333,198.729333 142.62,198.876 C142.878667,199.022667 143.2,199.096 143.584,199.096 Z" id="purus" fill="#97C1FF" fill-rule="nonzero"></path>
		<path d="M61.08,161.096 C61.6346667,161.096 62.0373333,160.84 62.288,160.328 L62.288,160.328 L62.32,160.328 L62.32,161 L62.96,161 L62.96,155.08 L62.32,155.08 L62.32,157.544 L62.288,157.544 C62.1813333,157.282667 62.0253333,157.089333 61.82,156.964 C61.6146667,156.838667 61.368,156.776 61.08,156.776 C60.824,156.776 60.592,156.826667 60.384,156.928 C60.176,157.029333 59.9986667,157.173333 59.852,157.36 C59.7053333,157.546667 59.5933333,157.773333 59.516,158.04 C59.4386667,158.306667 59.4,158.605333 59.4,158.936 C59.4,159.266667 59.4386667,159.565333 59.516,159.832 C59.5933333,160.098667 59.7053333,160.325333 59.852,160.512 C59.9986667,160.698667 60.176,160.842667 60.384,160.944 C60.592,161.045333 60.824,161.096 61.08,161.096 Z M61.256,160.52 C60.8933333,160.52 60.608,160.406667 60.4,160.18 C60.192,159.953333 60.088,159.656 60.088,159.288 L60.088,159.288 L60.088,158.584 C60.088,158.216 60.192,157.918667 60.4,157.692 C60.608,157.465333 60.8933333,157.352 61.256,157.352 C61.4,157.352 61.5373333,157.372 61.668,157.412 C61.7986667,157.452 61.912,157.506667 62.008,157.576 C62.104,157.645333 62.18,157.729333 62.236,157.828 C62.292,157.926667 62.32,158.032 62.32,158.144 L62.32,158.144 L62.32,159.68 C62.32,159.813333 62.292,159.932 62.236,160.036 C62.18,160.14 62.104,160.228 62.008,160.3 C61.912,160.372 61.7986667,160.426667 61.668,160.464 C61.5373333,160.501333 61.4,160.52 61.256,160.52 Z M65.672,161.096 C65.8426667,161.096 65.992,161.074667 66.12,161.032 C66.248,160.989333 66.3573333,160.932 66.448,160.86 C66.5386667,160.788 66.6146667,160.705333 66.676,160.612 C66.7373333,160.518667 66.7893333,160.424 66.832,160.328 L66.832,160.328 L66.864,160.328 L66.864,161 L67.504,161 L67.504,156.872 L66.864,156.872 L66.864,159.728 C66.864,159.866667 66.836,159.985333 66.78,160.084 C66.724,160.182667 66.6493333,160.264 66.556,160.328 C66.4626667,160.392 66.356,160.44 66.236,160.472 C66.116,160.504 65.992,160.52 65.864,160.52 C65.2346667,160.52 64.92,160.149333 64.92,159.408 L64.92,159.408 L64.92,156.872 L64.28,156.872 L64.28,159.52 C64.28,160.021333 64.4053333,160.409333 64.656,160.684 C64.9066667,160.958667 65.2453333,161.096 65.672,161.096 Z M69.184,155.904 C69.3226667,155.904 69.4226667,155.870667 69.484,155.804 C69.5453333,155.737333 69.576,155.650667 69.576,155.544 L69.576,155.544 L69.576,155.44 C69.576,155.333333 69.5453333,155.246667 69.484,155.18 C69.4226667,155.113333 69.3226667,155.08 69.184,155.08 C69.0453333,155.08 68.9453333,155.113333 68.884,155.18 C68.8226667,155.246667 68.792,155.333333 68.792,155.44 L68.792,155.44 L68.792,155.544 C68.792,155.650667 68.8226667,155.737333 68.884,155.804 C68.9453333,155.870667 69.0453333,155.904 69.184,155.904 Z M69.504,161 L69.504,156.872 L68.864,156.872 L68.864,161 L69.504,161 Z" id="dui" fill="#97C1FF" fill-rule="nonzero"></path>
	</g>
</svg>